<svg width="72" height="71" viewBox="0 0 72 71" fill="none" xmlns="http://www.w3.org/2000/svg">
<path d="M53.9482 65.1623C56.8442 67.1284 59.9085 67.4118 63.1411 66.1719C64.0533 65.8265 64.8858 65.366 65.1604 64.3298C65.6829 62.3548 66.9051 61.106 68.7649 60.2204C70.6336 59.3259 72.0684 57.6875 71.9975 55.5885C71.9355 53.6933 72.0329 51.6032 70.979 50.3721C71.0942 48.9108 71.5104 47.7329 71.165 46.8738C70.5805 45.4125 69.6594 44.0132 68.5967 42.8442C67.4542 41.5777 66.3737 40.329 65.7272 38.7437C65.2844 37.6366 64.4784 36.9635 63.3625 36.6359C62.6717 36.4322 61.9809 36.2373 61.3256 36.0425C60.989 32.9959 60.8119 32.8011 58.093 31.322C57.5085 31.0032 56.8354 30.3744 56.7202 29.781C56.4103 28.2223 55.5778 27.1507 54.5593 26.575C55.0995 23.7764 55.6752 21.2258 56.0737 18.6397C56.3483 16.8596 56.8177 15.2211 57.9513 13.8041C59.386 12.0151 59.8554 9.93389 59.9971 7.67551C60.1477 5.1603 59.1292 3.38017 56.9948 2.29083C55.5158 1.52918 53.8774 1.06865 52.3275 0.439847C49.8123 -0.569778 47.4742 0.245016 45.9243 2.00743C43.6128 4.64664 41.2836 7.23269 38.6178 9.51764C38.237 9.84533 37.989 10.3324 37.6259 10.6867C36.3683 11.9089 35.1195 13.1487 33.7911 14.2912C32.7372 15.1946 31.6124 15.4425 30.1511 14.8669C26.9982 13.6181 24.1288 14.1938 21.7995 16.9127C19.9574 16.6824 18.1684 16.7002 16.7603 18.2589C13.7225 21.6243 13.696 21.4206 15.5646 25.1669C13.7225 25.3794 12.5712 26.5839 11.473 27.8946C9.69288 30.0202 7.62048 31.6497 4.68902 31.942C3.78567 32.0305 2.84688 32.4911 2.07638 33.0048C-0.491975 34.6963 -0.642516 36.7067 1.42988 38.6463C1.42988 39.6293 1.40329 40.5061 1.43871 41.374C1.49185 42.7733 2.01439 44.0398 3.24542 44.704C4.89271 45.5985 5.30897 46.989 5.52152 48.6717C6.1946 53.9944 9.0198 57.7495 14.0237 59.7156C15.8126 60.4152 17.1854 61.478 18.2836 63.0013C20.4357 66.0036 23.376 67.5712 27.0691 67.5978C30.1245 67.6243 32.8966 68.324 35.6421 69.8207C39.6894 72.026 43.8431 70.4938 46.066 66.4464C46.4468 65.7556 46.9074 65.0914 47.4033 64.4715C48.6964 62.8685 49.2897 62.6648 51.1496 63.4618C52.1415 63.8958 53.0537 64.5512 53.9482 65.1623ZM51.619 61.5046C48.5369 60.371 46.0217 61.5577 44.6579 64.5423C44.2682 65.3925 43.8076 66.2693 43.1788 66.9512C41.5315 68.7402 39.5035 69.2716 37.1919 68.3506C36.6517 68.138 36.0938 67.9166 35.6155 67.5889C33.3926 66.101 30.9305 65.5785 28.309 65.6671C24.669 65.7999 21.7198 64.5157 19.6297 61.478C18.4695 59.7953 16.9374 58.6794 15.0067 57.9532C10.4634 56.2528 8.03672 52.7722 7.28393 48.1049C6.94739 46.0325 6.30975 44.3232 4.34363 43.2781C3.13917 42.6405 3.08603 41.3829 3.06831 40.1961C3.05946 39.2928 3.75024 38.9562 4.44104 38.6817C5.29125 38.354 6.17689 38.0883 7.04482 37.8049C2.61663 38.044 2.61662 38.044 1.16417 37.2912C1.65127 35.2454 2.90003 33.8727 4.99013 33.6158C8.45298 33.1996 10.8708 31.2335 13.014 28.7183C14.8561 26.5484 16.5831 26.2385 19.2312 27.1684C20.9405 27.7706 22.756 28.0983 24.545 28.4614C25.9709 28.7537 27.2905 28.3374 28.557 27.6732C29.3098 27.2747 30.0891 26.947 30.9836 26.7699C28.8669 30.1353 26.5731 33.2616 22.694 34.7229C21.1176 35.3163 19.5235 35.8476 17.9559 36.4587C17.3094 36.7067 16.716 37.0698 15.7861 37.5304C16.3794 37.7164 16.592 37.8669 16.7337 37.8049C19.7891 36.6004 22.8446 35.3783 25.8912 34.1561C28.4595 33.1287 30.0183 30.9146 31.7895 29.0017C33.0383 27.6644 34.1896 26.8673 36.1646 27.5138C37.0857 27.8149 38.3167 27.4341 39.3263 27.0975C40.3448 26.761 41.0887 26.6813 41.8061 27.6289C43.2586 29.5419 45.1272 30.9058 47.4387 31.4992C47.8019 32.6859 48.1915 33.793 48.4661 34.9177C48.5989 35.458 48.6698 36.1045 48.5104 36.6181C47.6248 39.3991 48.4218 41.8257 50.0248 44.0575C51.1762 45.6605 52.354 47.2812 53.7268 48.6805C55.5866 50.567 56.8885 52.6659 57.4996 55.2431C57.9513 57.1561 59.076 58.52 61.0422 59.0691C61.299 59.1399 61.5913 59.0779 62.1138 59.0779C61.6621 58.5997 61.4141 58.2454 61.0864 57.9974C60.0414 57.2092 59.4037 56.1642 59.138 54.9066C58.5181 52.0194 57.0834 49.6547 55.0021 47.5646C53.6648 46.2273 52.602 44.6155 51.4241 43.1187C50.3968 41.808 49.9008 40.3024 49.8211 38.6463C49.706 36.4233 49.5554 34.2092 49.4226 31.88C52.1504 31.1715 52.6817 34.3332 54.5062 35.3074C54.6656 35.0771 54.825 34.9532 54.8161 34.8557C54.4884 32.6151 51.8404 29.6925 49.6174 29.5596C46.7303 29.3825 44.4896 27.9743 42.3463 26.327C41.381 25.5831 40.3359 25.3528 39.2643 25.5831C37.3425 25.9994 35.5004 25.7957 33.6228 25.3617C32.0021 24.9897 30.3902 25.2288 28.9644 26.1322C27.4853 27.0621 25.9621 27.0887 24.3236 26.7167C22.1804 26.2208 20.0371 25.7691 18.2304 24.3875C16.654 23.183 16.158 22.3417 16.5654 21.3852C17.1854 19.8973 19.0806 18.5423 20.4534 18.6131C20.7456 18.6309 21.0467 18.6397 21.3213 18.7371C22.5169 19.1357 23.438 19.1445 23.8719 17.6212C23.9959 17.1695 24.669 16.8064 25.165 16.5496C26.6351 15.8145 28.1761 15.9296 29.6374 16.5673C32.6486 17.878 35.6686 17.4264 38.6798 16.6736C39.3706 16.5053 40.0702 16.1511 40.6282 15.7082C42.612 14.1407 43.9405 12.0949 44.6756 9.63278C43.1434 10.2262 42.1338 11.4129 41.1684 12.6351C40.1942 13.8661 39.0872 14.9112 37.4488 15.1414C37.1742 15.1769 36.8819 15.1503 36.3683 15.1503C38.1573 13.255 39.6009 11.2712 41.4784 9.85419C43.7014 8.18033 45.2778 6.04594 46.9871 3.95583C47.5982 3.20304 48.5192 2.67165 49.3695 2.14912C49.6971 1.94543 50.264 1.91 50.6448 2.02514C52.3806 2.58309 54.0988 3.18533 55.808 3.83184C56.7822 4.20381 56.9771 4.98317 56.8531 5.97509C56.6051 7.89692 56.0206 9.65047 54.887 11.2535C54.0013 12.5022 53.284 13.8661 52.5577 15.2211C52.3009 15.6994 52.2478 16.2928 52.4692 17.0013C53.1777 15.8322 53.7977 14.6012 54.6036 13.503C55.4715 12.334 56.5077 11.2978 57.8362 10.3678C57.4908 11.0586 57.2693 11.8469 56.7911 12.4314C55.1527 14.4595 54.6124 16.8064 54.2847 19.3305C54.0279 21.3409 53.4434 23.3247 52.8323 25.2731C52.2389 27.1507 52.1681 27.0887 53.6028 28.4083C54.0545 28.8245 54.4884 29.4091 54.639 29.9936C55.0464 31.6232 55.9232 32.6771 57.5085 33.3147C59.5543 34.1472 59.7491 35.3163 58.2967 37.0255C57.783 37.6278 57.2516 38.2034 56.5343 39.0094C57.7919 39.3016 58.5535 38.7525 59.3329 38.354C60.8473 37.5924 62.7514 37.92 63.4954 39.4345C64.5404 41.5866 65.9397 43.3933 67.5959 45.076C68.1007 45.5808 68.4195 46.2805 68.7738 46.9181C69.6417 48.468 69.5177 48.7868 67.8704 49.513C67.6136 49.6282 67.3745 49.761 66.7457 50.0887C67.6756 50.4784 68.2867 50.7264 69.1015 51.0718C69.2963 52.4268 69.6329 53.9147 69.6771 55.4202C69.7214 56.7841 68.7738 57.7849 67.6136 58.2986C65.3286 59.2993 64.0268 60.9909 63.5662 63.391C63.3714 64.4183 62.5389 64.56 61.7684 64.7194C59.2886 65.2508 56.9948 64.8611 54.887 63.3467C53.8331 62.6293 52.7614 61.9208 51.619 61.5046Z" fill="#333333"/>
</svg>
