<svg width="31" height="11" viewBox="0 0 31 11" fill="none" xmlns="http://www.w3.org/2000/svg">
<path fill-rule="evenodd" clip-rule="evenodd" d="M7.75025 10.1051H5.06742L3.05563 2.20421C2.96014 1.84078 2.75739 1.51947 2.45915 1.36804C1.71487 0.987483 0.894713 0.684617 0 0.531867V0.227685H4.32183C4.9183 0.227685 5.36566 0.684617 5.44022 1.21529L6.48405 6.91444L9.16557 0.227685H11.7738L7.75025 10.1051ZM13.2648 10.1051H10.7311L12.8174 0.227685H15.3511L13.2648 10.1051ZM18.6292 2.96414C18.7037 2.43215 19.1511 2.12796 19.673 2.12796C20.4931 2.05159 21.3865 2.20434 22.1321 2.58358L22.5795 0.456933C21.8339 0.15275 21.0137 0 20.2695 0C17.8103 0 16.0209 1.36816 16.0209 3.267C16.0209 4.71154 17.2884 5.47002 18.1831 5.92696C19.1511 6.38257 19.5239 6.68675 19.4493 7.14237C19.4493 7.82579 18.7037 8.12998 17.9594 8.12998C17.0647 8.12998 16.17 7.90217 15.3512 7.52161L14.9038 9.64957C15.7985 10.0288 16.7665 10.1816 17.6612 10.1816C20.4186 10.2566 22.1321 8.88978 22.1321 6.83819C22.1321 4.25461 18.6292 4.10318 18.6292 2.96414ZM31 10.1051L28.9882 0.227685H26.8272C26.3799 0.227685 25.9325 0.531867 25.7834 0.987483L22.0581 10.1051H24.6663L25.1869 8.66184H28.3917L28.6899 10.1051H31ZM27.1995 2.88803L27.9438 6.61065H25.8575L27.1995 2.88803Z" fill="#172B85"/>
</svg>
