<svg width="104" height="68" viewBox="0 0 104 68" fill="none" xmlns="http://www.w3.org/2000/svg">
<path d="M76.2269 53.0936C80.1808 54.4854 83.39 56.6397 85.5 60.372C86.6436 62.4021 88.0886 64.2727 89.3297 66.2496C90.0212 67.3489 90.9787 67.9075 92.2198 67.9518C93.7535 68.005 95.2961 68.0227 96.8386 67.9606C99.6312 67.8543 103.417 64.8046 103.612 60.9748C103.824 56.6752 101.679 53.7585 98.7181 51.161C97.2287 49.8578 95.7039 48.6077 94.179 47.3489C91.1294 44.8223 87.6365 43.1999 83.7801 42.3666C74.9592 40.4517 66.4307 37.5262 57.9644 34.4765C55.3758 33.5457 52.9821 32.0474 50.3226 30.7177C51.1027 27.6503 50.3403 25.0882 49.6045 22.4463C48.8687 19.7868 48.6914 16.9676 48.1506 14.246C47.796 12.4641 47.3616 10.6644 46.7055 8.97115C45.7836 6.57753 44.1524 4.71583 41.7499 3.6254C41.2179 3.38604 40.7037 3.09347 40.2162 2.77431C35.1541 -0.59449 29.764 -0.665386 24.2498 1.3293C20.2604 2.77434 16.2533 4.21051 13.0441 7.1981C10.7746 9.30803 8.76218 11.6041 7.13098 14.2371C5.12743 17.4818 3.36323 20.8151 1.8916 24.3613C-2.04458 33.856 -0.271522 49.4766 11.342 57.3312C13.8331 59.0156 16.2711 60.762 18.7179 62.5085C21.7764 64.6894 25.1541 65.1769 28.7711 64.45C30.9076 64.0245 32.592 62.9429 33.452 60.8684C34.4892 58.3684 36.1736 56.4269 38.2126 54.6716C40.8899 52.3666 43.0974 49.6184 44.7552 46.4712C45.163 45.6999 45.6949 44.9819 46.1559 44.2372C47.1134 42.6858 48.0531 41.1343 49.1612 39.3347C50.0477 39.8134 51.1736 40.2921 52.1666 40.957C59.6666 46.028 67.6896 50.0883 76.2269 53.0936ZM45.8367 40.5936C44.8882 42.0741 43.8864 43.5191 42.8669 44.9464C41.2002 47.2602 39.6311 49.6539 37.7782 51.7993C35.5264 54.4145 33.1151 56.8702 31.7764 60.1326C31.2002 61.5333 30.0388 62.278 28.6115 62.606C25.4023 63.3418 22.3793 63.1025 19.6133 61.0635C17.725 59.6716 15.7924 58.333 13.7711 57.1539C1.96254 50.2567 -0.6084 35.7974 2.86678 25.1857C4.34728 20.6733 6.92707 16.7549 9.42708 12.7921C10.0476 11.8169 10.881 10.957 11.7055 10.1236C14.7994 7.02079 18.4165 4.83993 22.5477 3.22645C26.4395 1.70163 30.2073 1.04559 34.3296 1.86119C36.5194 2.29559 38.1771 3.55448 40.0477 4.51192C43.647 6.34704 45.4112 9.34349 46.1116 13.1467C46.9094 17.4552 47.1843 21.8612 48.6825 26.0456C49.0637 27.1095 49.1612 28.3152 48.4786 29.3613C46.8828 28.7673 45.3935 28.2088 43.8686 27.6414C43.8066 27.2336 43.7445 26.879 43.7091 26.5155C43.3367 22.4907 42.8403 18.519 40.5708 14.9818C39.897 13.9268 39.7109 12.5527 39.2321 11.1077C41.936 12.1627 42.8137 14.4676 44.1612 16.4003C44.0548 14.5474 43.4254 12.9517 42.0956 11.6573C41.5814 11.1609 40.9431 10.6999 40.624 10.0882C39.6754 8.27964 38.124 7.38426 36.2268 7.18923C33.6825 6.92327 31.1204 6.86122 28.5583 6.72824C26.3952 6.62186 24.5956 7.43746 22.9289 8.80271C21.4041 10.0527 19.7995 11.2229 18.1151 12.2336C15.3757 13.8736 13.3899 16.0634 12.0689 18.9889C11.1647 20.9747 9.94127 22.8187 8.87744 24.7336C8.59375 25.2389 8.23914 25.7708 8.18595 26.3205C8.01751 28.1822 7.36148 29.6804 5.73028 30.7354C4.92354 31.2584 4.53346 32.1272 5.05651 33.0315C6.21786 35.0528 6.19127 37.2248 6.14694 39.4411C6.07602 42.7124 6.95367 45.7177 9.12566 48.1911C10.9519 50.2656 12.8314 52.34 15.2959 53.7496C17.6275 55.0794 19.5867 56.7461 20.7658 59.2816C21.1292 60.0617 21.9892 60.9216 22.7959 61.1433C26.2534 62.1007 29.9679 61.1255 30.9874 57.1096C31.6966 54.2993 33.186 52.0475 35.1364 49.9907C36.0849 48.989 36.9981 47.8985 37.7162 46.7283C39.5158 43.8205 41.4662 40.9659 41.6878 37.3843C41.6967 37.2868 41.8828 37.1982 42.1754 36.9322C43.6293 37.3666 45.1985 37.8365 46.9006 38.3418C46.4573 39.2992 46.2268 39.9996 45.8367 40.5936ZM31.8917 21.0988C32.4679 22.5439 33.053 24.0332 33.6204 25.4694C33.2303 25.7176 33.1151 25.8063 32.991 25.8684C30.5885 27.1095 30.2959 27.7212 30.8722 30.3365C30.9342 30.6113 31.0051 30.9393 30.9254 31.1875C30.3048 33.0226 29.6399 34.84 28.975 36.7194C29.4005 36.9765 29.8527 37.2425 30.3137 37.5262C27.3261 41.2407 27.3261 41.2407 27.53 41.9233C28.4697 41.2673 29.4892 40.6379 30.4023 39.8932C31.0672 39.3524 31.5991 38.6609 32.1754 38.0226C32.5034 37.6592 32.725 37.0829 33.1239 36.9233C35.5885 35.9127 38.0708 36.0102 40.7392 36.8347C40.2871 38.6166 40.2605 40.496 39.3828 41.7992C37.5832 44.45 36.28 47.4464 33.8509 49.6805C31.8828 51.489 30.553 53.7674 29.9413 56.4269C29.764 57.1982 29.436 57.9695 29.0105 58.6344C28.1151 60.044 26.8739 60.3808 25.225 60.0794C23.7179 59.7957 22.9821 58.794 22.4058 57.5617C21.014 54.5918 18.6824 52.9961 15.4644 52.473C14.7374 52.3578 14.037 51.817 13.4164 51.3383C12.725 50.8063 12.1753 50.0971 11.5193 49.512C8.40759 46.7815 6.88275 43.3152 6.88275 39.2283C6.88275 36.9322 6.82071 34.6893 5.6239 32.5262C5.97851 32.1095 6.12922 31.8258 6.35086 31.6751C8.09731 30.496 9.12568 28.9535 9.23207 26.7726C9.25866 26.1875 9.63985 25.434 10.1008 25.0971C11.9448 23.7496 13.0973 21.8967 14.1346 19.9464C15.5175 17.34 17.5034 15.3896 20.0831 13.9623C21.3597 13.2619 22.6009 12.4286 23.6647 11.4445C27.53 7.87184 32.0956 8.28852 36.7321 8.98887C37.6718 9.13072 38.1949 9.70696 38.3544 10.7619C38.7357 13.2353 39.6665 15.5137 40.8367 17.7566C42.3882 20.7354 42.3084 24.0776 42.6009 27.6414C40.9786 27.3666 39.5513 27.3577 38.3101 26.8524C36.741 26.2141 35.1718 25.496 35.0654 23.2265C34.9413 21.152 33.9662 20.7265 31.8917 21.0988ZM39.6133 34.6095C37.2906 34.2992 34.9413 34.2194 32.7339 35.3719C32.3438 35.5758 31.8119 35.4872 31.3509 35.5315C30.8278 34.2904 31.4484 33.3861 31.6789 32.4198C31.8739 31.5953 32.1133 30.6556 31.8917 29.902C31.5991 28.918 31.6523 28.1999 32.3704 27.535C33.1151 26.8435 33.9307 26.6219 34.9857 26.9676C36.7233 27.5262 38.4963 27.9871 40.2782 28.3506C43.1062 28.9269 45.7038 29.9552 48.2038 31.4357C51.6612 33.4748 55.1719 35.5049 58.8776 37.0386C63.195 38.8205 67.7162 40.1237 72.1932 41.5067C75.3315 42.4819 78.4964 43.5546 81.7234 44.0599C88.1595 45.0616 92.9734 48.7762 97.5124 52.9783C98.7713 54.1397 99.6932 55.7266 100.518 57.2603C101.395 58.9003 101.298 60.6911 100.518 62.9784C97.7429 54.6273 92.8581 49.1131 84.3741 47.6503C84.906 47.8897 85.429 48.1202 85.961 48.3507C90.2074 50.2301 93.984 52.6326 95.9433 57.1095C96.6791 58.7851 97.406 60.4606 98.0709 62.1628C98.2748 62.6947 98.2925 63.3064 98.3457 63.8826C98.4344 64.7603 98.0177 65.3543 97.1489 65.3986C95.5443 65.4784 93.9397 65.4695 92.3351 65.4252C92.0248 65.4163 91.6347 65.1504 91.4397 64.8844C90.0124 62.9429 88.4787 61.0635 87.2641 58.9979C84.9592 55.0528 81.5992 52.606 77.3439 51.1521C69.6223 48.5102 62.2907 44.9553 55.5176 40.4429C50.6063 37.1804 45.3314 35.3896 39.6133 34.6095Z" fill="#333333"/>
</svg>
