<svg width="251" height="137" viewBox="0 0 251 137" fill="none" xmlns="http://www.w3.org/2000/svg">
<path d="M249.263 66.41C251.293 64.9299 251.19 63.0501 249.026 61.6588C246.373 59.9418 243.438 59.8974 240.43 60.371C238.295 60.7114 236.161 60.9927 233.775 60.7114C234.264 60.2082 234.709 59.6309 235.272 59.2165C238.518 56.8038 241.823 54.48 245.039 52.0082C245.869 51.3717 246.654 50.4097 246.98 49.4476C247.247 48.6631 247.084 47.3902 246.565 46.7685C245.202 45.1255 243.364 43.9858 241.097 44.2522C237.732 44.6519 234.323 44.9627 231.048 45.762C222.719 47.8046 214.419 48.7223 205.942 46.7981C203.481 46.2356 200.932 46.0284 198.472 45.4807C194.559 44.6223 190.661 44.4743 186.689 45.0959C185.711 45.2439 184.525 44.9775 183.636 44.5187C179.635 42.4613 175.796 40.0486 171.72 38.1984C165.762 35.4898 160.486 31.745 155.091 28.1631C149.207 24.2555 142.923 21.162 136.417 18.4533C129.763 15.6854 122.856 13.9093 115.727 13.0804C105.945 11.9555 96.9788 8.65472 88.4716 3.75544C85.7594 2.18648 82.6174 1.31323 79.6236 0.277132C78.6306 -0.0633016 77.445 -0.0337204 76.3779 0.0698898C72.5541 0.469529 71.3685 2.57134 73.0877 5.94607C73.8732 7.50022 74.8068 9.00998 75.8147 10.4457C78.186 13.8797 80.6463 17.2396 83.0621 20.6439C85.715 24.3591 89.0348 27.3786 92.74 29.9688C94.5926 31.2566 95.7783 32.9143 96.9936 34.8089C100.165 39.797 103.737 44.5335 107.161 49.3588C107.605 49.9804 108.139 50.528 108.984 51.5345C107.131 52.023 105.605 52.4374 104.063 52.8371C98.2979 54.3616 92.4585 55.1017 86.4857 55.1757C73.4433 55.3385 60.5789 57.0851 48.2479 61.3183C41.1043 63.7754 34.2867 67.2241 27.4543 70.5248C20.7108 73.7959 13.9228 76.8598 6.58653 78.5768C5.01552 78.9468 3.41489 79.6277 2.0662 80.501C-0.838687 82.3956 -0.631163 84.9266 2.37747 86.5844C4.57095 87.7981 6.91261 88.0201 9.38769 88.0497C12.5593 88.0793 15.7311 88.3902 18.8879 88.6122C20.3107 88.7158 21.7335 89.1007 23.1415 89.0859C30.0331 88.9822 36.6728 90.2848 43.2978 92.0313C47.2994 93.0822 51.4492 93.5115 56.1474 94.3255C51.301 97.0342 46.8992 99.5061 42.4826 101.948C36.1838 105.427 30.7445 110.045 25.4238 114.811C24.1344 115.965 23.0081 117.371 22.0447 118.837C19.8216 122.197 20.5626 126.134 23.9418 128.339C34.5386 135.296 46.2323 138.212 58.7855 136.539C68.3894 135.266 77.6821 132.513 86.6338 128.739C99.439 123.336 112.719 119.488 126.443 117.268C132.178 116.335 138.033 116.143 143.739 115.077C152.468 113.434 161.153 111.436 169.779 109.305C173.276 108.446 176.641 106.966 179.946 105.515C189.313 101.415 198.65 97.2562 207.913 92.949C210.684 91.6613 213.248 89.9147 215.812 88.2126C217.635 86.9989 219.443 86.4364 221.681 86.762C224.823 87.2209 228.025 87.6945 231.048 86.1107C231.433 85.9183 231.789 85.6815 232.085 85.5039C232.827 83.1505 230.9 82.07 229.862 80.4862C234.116 76.3566 238.696 72.8634 243.749 69.9475C245.647 68.8818 247.499 67.6977 249.263 66.41ZM188.972 47.4789C191.254 47.6862 193.537 47.7602 195.789 48.1154C200.354 48.8259 204.874 49.714 209.424 50.4985C213.9 51.2533 218.391 51.4161 222.852 50.4836C227.684 49.4771 232.5 48.3522 237.332 47.3606C239.54 46.9017 241.778 46.7685 243.927 47.997C240.77 50.2468 237.866 52.2894 234.99 54.3616C232.501 56.1526 230.04 58.0028 227.521 59.7345C227.017 60.0898 226.246 60.0602 225.194 60.297C227.61 56.9371 231.181 55.2793 232.634 51.6974C230.974 52.0526 229.447 52.5855 228.143 53.4292C226.394 54.5689 224.808 55.9454 223.178 57.2331C221.222 58.7872 219.013 59.6309 216.494 59.6457C211.04 59.6753 205.541 59.2757 200.443 61.0667C196.441 56.5966 192.647 52.3634 188.868 48.145C188.912 47.9378 188.942 47.7158 188.972 47.4789ZM44.6761 88.5974C38.0512 86.8064 31.367 85.7703 24.4901 85.9331C22.9636 85.9627 21.3926 85.8739 19.8957 85.5779C16.4128 84.8674 12.9299 84.749 9.40252 85.119C7.32761 85.3411 5.26756 85.1931 2.68874 83.5649C4.9415 82.7508 6.54212 82.0255 8.21688 81.6111C14.5305 80.0273 20.5478 77.7035 26.3872 74.8172C32.2859 71.8865 38.2587 69.0743 44.3056 66.4396C47.6106 64.9891 51.0491 63.6866 54.5468 62.8577C65.5735 60.2674 76.6891 58.2544 88.0863 58.358C90.2798 58.3728 92.5029 58.2544 94.6371 57.8548C99.0537 57.0407 103.455 56.1082 107.828 55.0277C110.258 54.4208 112.141 54.6428 114.171 56.3598C117.091 58.8317 120.396 60.8595 123.538 63.0649C127.673 65.966 131.808 68.8523 135.928 71.783C136.61 72.2566 137.173 72.8782 138.077 73.6923C132.801 74.7876 127.895 75.8089 122.989 76.8154C122.56 76.9042 122.115 76.9338 121.685 76.9486C119.847 77.0375 117.995 77.0818 116.157 77.1707C114.957 77.2299 113.741 77.4963 112.57 77.3779C104.819 76.6082 97.0233 76.0606 89.3461 74.8765C79.1642 73.2927 69.0415 72.8487 58.8596 74.6544C54.858 75.3649 50.8415 76.1938 46.8103 76.3714C35.8873 76.8155 25.1867 78.4584 14.7232 81.5963C14.2193 81.7443 13.7598 82.0403 13.2856 82.2624C14.8418 82.7064 16.2497 82.662 17.6429 82.6472C18.962 82.6324 20.2811 82.514 21.5853 82.6768C27.0245 83.3873 32.449 84.2457 37.8882 84.9414C44.854 85.8295 51.8198 86.8064 58.8893 85.7851C61.0531 85.4743 63.2911 85.4891 65.4697 85.6815C68.6414 85.9627 71.7834 86.5548 74.9254 87.0136C74.9254 87.3244 74.9255 87.6205 74.9403 87.9313C72.065 88.4346 69.2046 89.2635 66.3145 89.3523C64.1952 89.4263 62.0461 88.5234 59.9119 88.0793C59.0523 87.9017 58.1038 87.132 57.3035 88.2422C57.7629 88.9082 58.1482 89.4707 58.6966 90.27C53.7316 90.27 49.1371 89.7963 44.6761 88.5974ZM109.991 81.2559C109.28 81.4927 108.584 81.8331 107.857 81.9367C103.959 82.5288 100.047 83.1061 96.1489 83.6241C92.8735 84.0534 91.8359 82.7656 92.5473 79.0652C98.283 79.6425 104.034 80.2346 109.799 80.8266C109.843 80.9746 109.917 81.1227 109.991 81.2559ZM90.0574 84.7934C84.3811 84.3197 78.8381 83.9497 73.3248 83.3577C71.6055 83.18 70.0642 80.5454 70.3458 78.7988C70.5384 77.6443 71.0127 76.7266 72.4503 76.7858C78.2452 77.0079 84.0254 77.1855 89.6574 78.562C89.7907 80.501 89.8944 82.3215 90.0574 84.7934ZM67.6039 82.0552C62.5649 82.44 57.7629 82.8248 52.961 83.1653C50.1746 83.3577 49.6855 82.662 50.3525 79.5685C55.8806 78.71 61.394 77.3631 67.0703 77.2003C67.263 78.9469 67.4261 80.4566 67.6039 82.0552ZM46.6176 83.0765C41.5341 82.6028 36.7173 82.1439 31.8857 81.6999C36.8359 80.1013 42.779 79.6721 46.5287 80.3086C46.5435 81.1078 46.5731 81.9368 46.6176 83.0765ZM206.579 90.1516C196.041 94.8732 185.489 99.5357 174.936 104.213C174.329 104.479 173.706 104.687 173.069 104.879C159.389 109.097 145.413 112.043 131.185 113.419C118.721 114.633 106.775 117.801 95.0373 121.856C85.7002 125.083 76.7336 129.272 67.0259 131.507C59.2005 133.313 51.5085 134.023 43.5349 132.691C37.3398 131.655 31.7968 129.124 26.2241 126.534C24.8606 125.897 23.4971 125.113 23.0821 123.529C25.9277 118.2 27.8841 116.602 36.3024 110.296C47.2698 102.082 59.4821 96.0573 72.6134 91.9573C81.2539 89.2635 90.1464 87.8129 99.0982 86.8656C106.509 86.0812 113.46 83.8609 120.455 81.5371C125.746 79.7757 131.259 78.6804 136.639 77.1263C140.419 76.0309 143.679 76.6822 146.777 79.0801C148.051 80.0718 149.697 80.575 151.164 81.3299C151.757 81.6259 152.32 81.9959 152.898 82.3216C146.718 83.3577 140.715 83.9497 134.698 84.2754C127.717 84.6602 121.003 86.0219 114.482 88.5678C108.554 90.8768 102.551 93.0526 96.5935 95.3172C95.9562 95.5541 95.3634 95.9537 94.1036 96.6198C97.4531 97.3155 100.032 97.345 102.551 96.4718C105.145 95.5689 107.739 94.6364 110.243 93.5411C118.691 89.8703 127.376 87.4429 136.684 87.3097C143.724 87.2208 150.689 86.1404 157.522 84.4086C160.501 83.6537 163.05 84.5566 166.207 86.2735C164.858 86.7472 164.265 87.0581 163.628 87.1469C158.515 87.8425 153.417 88.6714 148.274 89.1154C136.076 90.1663 124.012 91.8389 112.526 96.2498C103.426 99.7429 94.0294 101.652 84.3366 102.57C73.9324 103.562 63.6616 105.323 54.0577 109.763C53.3759 110.074 52.5904 110.222 51.8346 110.356C44.2611 111.776 37.5176 115.27 30.8038 118.778C29.4106 119.503 28.2102 120.82 27.2764 122.123C26.1797 123.632 26.8022 125.083 28.5807 125.779C29.2921 126.06 30.0776 126.134 30.8186 126.297C39.8149 128.162 48.7667 127.718 57.6147 125.557C64.2248 123.943 70.7163 121.871 77.2671 120.036C82.5581 118.556 87.7751 116.735 93.155 115.773C99.9282 114.574 106.701 113.39 113.697 113.242C126.042 112.961 137.973 109.497 149.963 106.788C160.871 104.331 170.816 99.3432 180.805 94.4587C185.326 92.2533 190.039 90.1811 194.885 89.0266C200.043 87.7833 205.482 87.6797 210.788 87.0876C210.877 87.3097 210.951 87.5317 211.04 87.7389C209.573 88.5382 208.12 89.4559 206.579 90.1516ZM125.85 108.535C123.701 108.89 122.1 109.26 120.47 109.393C115.12 109.837 109.769 110.222 104.419 110.548C103.722 110.592 102.803 110.37 102.329 109.911C100.669 108.298 99.2464 106.492 99.6317 104.021C107.087 101.578 114.393 99.1952 122.085 96.679C121.241 101.43 123.138 104.835 125.85 108.535ZM126.176 95.6429C132.475 94.37 138.892 93.2894 145.799 92.7122C144.598 97.1526 147.029 100.098 149.385 103.591C143.353 104.923 137.81 106.152 132.267 107.351C130.296 107.78 128.888 106.552 127.643 105.367C125.005 102.866 124.516 99.3284 126.176 95.6429ZM149.548 92.505C150.393 92.4162 151.267 92.3717 152.127 92.2385C157.744 91.3504 163.524 91.084 168.786 88.7898C170.831 87.9017 172.091 88.2718 173.351 89.6927C174.21 90.6548 174.936 91.7205 175.781 92.801C175.307 93.3634 175.203 93.6003 175.025 93.6743C168.578 96.3681 162.116 99.062 155.64 101.726C155.151 101.933 154.558 102.052 154.039 101.978C150.378 101.489 147.799 96.0573 149.548 92.505ZM98.861 111.11C92.2954 112.679 85.7298 114.234 79.0901 115.817C77.1782 114.278 75.3552 112.576 75.4293 109.704C75.4738 107.602 75.874 106.907 77.9785 106.64C84.2626 105.871 90.5466 105.219 96.6083 104.553C97.4235 106.877 98.1645 109.068 98.861 111.11ZM75.0144 117.342C70.7311 118.63 66.2256 119.947 61.7497 121.353C59.5266 122.049 57.8814 121.264 56.6957 119.488C55.9695 118.407 55.3768 117.194 55.0062 115.965C54.3986 113.908 55.2137 112.117 57.2886 111.525C62.2091 110.119 67.2037 108.964 71.7241 107.824C72.8505 111.11 73.8583 114.026 75.0144 117.342ZM54.532 123.011C51.1084 123.366 47.744 123.751 44.3796 124.062C43.4015 124.15 42.3937 124.18 41.4155 124.091C40.1261 123.973 38.3031 122.182 38.0808 120.85C37.9029 119.71 38.0512 118.541 39.2369 118.023C43.2088 116.306 47.0475 114.13 51.0343 113.73C52.2348 116.868 53.287 119.68 54.532 123.011ZM37.3102 124.195C34.8055 123.292 32.6564 123.869 30.5963 122.374C32.4785 121.368 34.0644 120.524 35.754 119.621C36.2875 121.161 36.6581 122.286 37.3102 124.195ZM176.804 88.9526C178.182 89.1007 179.042 89.145 179.872 89.2782C180.657 89.3966 181.413 89.6039 182.628 89.8555C180.983 90.6252 179.842 91.1728 178.419 91.8389C177.915 90.9508 177.456 90.122 176.804 88.9526ZM227.535 83.9645C225.105 83.7425 222.659 83.5057 220.229 83.2837C220.214 83.2837 220.184 83.2837 220.17 83.2837C219.977 83.2985 219.799 83.3133 219.606 83.3429C212.285 83.9201 204.904 84.1273 197.657 85.1782C188.957 86.4512 180.39 86.8804 171.854 84.4678C167.215 83.1504 162.635 81.6555 157.996 80.3086C150.912 78.2512 144.82 74.4028 138.981 70.0068C134.342 66.5136 129.629 63.0353 124.694 59.9862C115.312 54.184 107.976 46.4872 101.81 36.8367C104.908 38.7461 106.553 41.81 109.977 42.6093C110.347 40.3002 108.984 38.8497 107.65 37.6952C104.167 34.6905 100.58 31.7894 96.8751 29.0659C92.9624 26.1945 89.1534 23.2934 86.0706 19.4746C83.1213 15.8039 80.0238 12.2663 77.0003 8.65476C75.6961 7.08581 74.2881 5.54641 74.2585 3.3854C75.8888 2.20128 77.4746 2.48253 78.8677 3.03018C81.7282 4.12549 84.633 5.22081 87.2711 6.74536C95.5411 11.5114 104.182 15.123 113.741 16.3367C123.642 17.5948 133.097 20.3775 141.99 24.9364C144.613 26.2833 147.133 27.8226 149.593 29.436C156.292 33.8172 162.635 38.8053 170.105 41.9432C179.961 46.0728 188.068 52.3782 194.693 60.741C200.176 67.6681 207.172 72.6858 215.338 76.1198C218.361 77.3927 221.237 79.0356 224.127 80.6342C225.416 81.3447 226.557 82.3364 227.773 83.1949C227.699 83.4465 227.61 83.7129 227.535 83.9645ZM220.288 74.61C222.067 73.9588 223.623 73.3815 225.475 72.7006C223.119 75.7793 222.763 75.9126 220.288 74.61ZM229.269 76.327C228.321 77.0374 227.521 78.2216 225.52 77.6443C226.528 76.6082 227.284 75.883 227.965 75.1133C229.062 73.8848 230.366 72.7746 231.107 71.3537C231.804 70.0216 232.678 69.3999 234.057 69.1039C235.346 68.8375 236.606 68.4526 237.866 68.053C239.229 67.6237 240.607 67.1649 241.526 64.8855C239.659 65.0927 238.281 65.1075 236.962 65.4035C231.908 66.5432 227.15 68.4822 222.333 70.362C218.391 71.9013 214.049 72.6858 210.032 70.1696C208.179 69.0003 206.416 67.6681 204.711 66.3064C203.911 65.6699 203.348 64.7671 202.251 63.5089C204.059 63.2721 205.215 62.9613 206.371 62.9909C212.952 63.1241 219.532 63.1833 226.083 63.5681C231.211 63.8641 236.309 64.8411 241.452 63.4941C243.127 63.0649 244.994 62.9169 247.173 63.953C244.416 65.5663 241.956 66.7949 239.733 68.3638C236.161 70.9097 232.767 73.6775 229.269 76.327Z" fill="#E6E6E6"/>
<path d="M221.088 82.2778C220.629 81.6857 220.125 81.0197 219.473 80.694C216.849 79.3323 214.285 77.6745 211.47 76.89C206.401 75.4543 201.228 74.285 196.026 73.5301C189.386 72.568 183.295 70.3478 177.441 67.1507C173.306 64.8861 169.037 62.8583 164.739 60.9045C159.893 58.7139 155.373 56.0496 151.564 52.3049C141.634 42.5359 129.91 35.5052 117.268 29.9103C112.585 27.8381 108.391 25.0702 104.582 21.7251C98.0012 15.9525 90.8131 11.2012 82.6764 7.88569C81.2981 7.32324 79.9939 6.59799 78.245 5.73951C78.4822 6.55359 78.497 6.9976 78.7045 7.27883C80.2458 9.26222 81.9057 11.1716 83.373 13.1994C85.1218 15.6268 87.345 17.5066 89.5977 19.4604C95.4075 24.4781 100.951 29.8067 106.642 34.9576C110.955 38.8651 115.193 42.8467 119.699 46.5175C128.117 53.3854 136.639 60.1348 145.265 66.7659C150.126 70.5106 155.032 74.3146 160.352 77.3341C168.104 81.7301 176.596 84.0392 185.637 83.4471C193.077 82.9587 200.502 82.2482 207.927 81.7449C210.432 81.5673 212.966 81.5081 215.442 81.7597C216.864 81.9077 218.213 82.8106 219.591 83.3583C219.784 83.3287 219.962 83.3139 220.155 83.2991C220.169 83.2991 220.199 83.2991 220.214 83.2991C220.525 82.9291 221.148 82.3518 221.088 82.2778ZM101.158 24.9962C96.5339 21.3254 91.9247 17.6399 87.3154 13.9543C92.6805 16.7222 97.853 19.712 101.869 24.3449C101.454 24.7149 101.188 25.011 101.158 24.9962ZM113.682 37.3998C110.347 34.0547 107.205 30.9316 104.122 27.7493C103.944 27.5716 104.226 26.95 104.315 26.3579C108.153 28.6965 111.859 30.9463 115.608 33.2258C115.06 34.4099 114.467 35.6828 113.682 37.3998ZM119.002 42.0622C117.076 40.6857 116.913 38.8208 117.268 36.8226C117.609 34.8984 118.854 34.2323 120.603 35.1352C124.19 36.9853 127.673 39.0132 131.052 40.893C129.451 43.6164 128.162 45.807 126.857 48.0124C124.249 46.0291 121.685 43.9716 119.002 42.0622ZM143.516 61.0377C139.766 58.2106 135.557 55.3096 131.689 51.994C129.229 49.8922 131.007 44.4897 134.194 43.646C134.668 43.5276 135.35 43.5572 135.72 43.8236C139.914 46.7543 144.168 49.611 147.281 53.0745C145.947 55.9016 144.761 58.3882 143.516 61.0377ZM164.295 75.632C158.767 72.7457 153.624 69.4745 148.926 65.5669C146.954 63.924 146.91 59.3207 148.599 57.3669C149.489 56.3308 150.408 56.0052 151.697 56.9673C153.979 58.6547 156.336 60.2532 158.767 61.7186C160.708 62.8879 162.813 63.7908 164.902 64.8417C163.865 68.4088 162.546 71.8724 164.295 75.632ZM185.34 80.0576C180.998 80.4128 176.789 80.0132 172.654 78.6662C167.022 76.8161 164.576 70.7474 167.629 65.6113C171.275 67.5947 174.862 69.7261 178.612 71.5171C182.347 73.3081 186.244 74.7439 190.305 76.446C189.461 78.8291 187.845 79.8504 185.34 80.0576ZM192.454 79.1547C192.721 78.1038 192.899 77.3933 193.077 76.6976C196.915 76.7864 198.679 77.1417 201.228 78.4146C198.131 78.681 195.404 78.903 192.454 79.1547Z" fill="#E6E6E6"/>
<path d="M186.408 56.4487C186.63 59.8234 187.356 62.5765 188.245 65.448C190.424 64.8707 190.528 63.4794 190.335 62.0584C190.024 59.8086 189.55 57.6032 186.408 56.4487Z" fill="#E6E6E6"/>
<path d="M181.546 54.9244C182.273 57.189 182.732 58.6692 183.266 60.327C185.148 58.2103 184.777 56.8634 181.546 54.9244Z" fill="#E6E6E6"/>
</svg>
