<svg width="193" height="142" viewBox="0 0 193 142" fill="none" xmlns="http://www.w3.org/2000/svg">
<path d="M1.70557 0.62091C-0.485266 2.54277 -0.603729 5.5734 1.5723 8.11618C3.15621 9.9789 4.96217 11.6347 6.57569 13.4678C9.09219 16.3506 10.0396 19.4108 9.53628 23.5206C8.60369 31.2081 10.2616 38.452 16.7749 43.6115C19.3062 45.6073 21.5415 47.7805 23.2734 50.4859C23.9248 51.4912 24.7832 52.4964 25.7898 53.073C26.7076 53.6052 27.9659 53.5756 29.2834 53.827C27.6107 60.45 24.8425 66.4965 20.8457 71.9812C18.1812 75.6327 15.5166 79.2842 12.8521 82.921C12.408 83.5419 11.9491 84.148 11.357 84.9464C10.6317 83.7932 10.1876 82.9358 9.59545 82.1818C7.46383 79.4616 4.9326 79.6982 3.926 82.9506C3.28948 84.9759 2.99341 87.3413 3.36348 89.411C4.14804 93.7721 3.65953 97.8228 2.23845 101.992C0.610128 106.767 0.802541 111.557 3.23022 116.199C5.11019 119.791 7.5675 122.644 11.8603 123.99C11.209 125.986 10.6909 127.567 10.1728 129.149C9.63989 130.761 8.88494 132.342 8.60368 133.998C8.05598 137.118 10.01 141.02 12.2452 141.774C14.6877 142.587 17.7371 141.168 19.5579 138.108C20.4609 136.585 21.0085 134.826 21.8079 132.993C22.6516 133.436 23.3771 133.821 24.1172 134.19C27.2406 135.713 30.3788 135.698 33.1469 133.629C35.8411 131.618 38.6536 131.027 41.9991 131.056C47.4909 131.101 49.3857 128.854 49.3413 123.177C57.6014 118.579 63.3301 110.921 70.1542 104.475C73.7217 101.105 77.2448 97.8081 81.6709 95.354C82.3074 95.8714 83.0179 96.3445 83.61 96.9358C91.9293 105.318 101.462 112.104 111.232 118.668C121.417 125.498 132.445 130.214 144.154 133.614C151.082 135.624 158.172 135.817 165.263 135.151C172.812 134.442 179.059 130.539 184.048 125.276C189.703 119.303 193.359 112.089 192.411 103.367C192.293 102.273 192.293 101.164 192.293 100.07C192.278 90.1502 188.888 81.4426 182.878 73.6517C180.406 70.4585 177.919 67.28 175.507 64.0424C169.645 56.1332 162.08 50.2789 153.539 45.489C139.624 37.6833 124.881 32.3908 108.997 30.4541C106.525 30.1585 105.193 29.168 104.379 26.6695C102.647 21.4066 100.041 16.6167 95.7041 12.8765C84.0542 2.85323 66.8975 1.71489 54.6555 10.792C52.5239 12.3738 48.1571 11.3686 46.7952 9.01797C45.611 6.96306 43.9383 5.70645 41.6438 5.27773C38.7572 4.74552 35.8855 4.08026 32.9693 3.85851C30.9413 3.71067 28.7209 3.81416 26.8557 4.52377C23.6287 5.75081 20.6089 7.53962 17.7075 8.98841C15.4427 6.28301 13.089 3.34109 10.5873 0.532208C10.4097 0.325238 10.1876 0.162619 9.98034 0H2.50489C2.23844 0.20697 1.95721 0.399156 1.70557 0.62091ZM44.5748 126.385C43.1981 126.799 41.7178 127.198 40.3115 127.109C37.2325 126.917 34.5088 127.479 32.1255 129.563C31.415 130.184 30.4676 130.642 29.5647 130.938C26.1896 132.047 23.3474 130.199 22.8737 126.488C20.8013 125.956 19.8391 127.079 19.2914 128.499C18.6845 130.081 18.344 131.766 17.8851 133.407C17.2486 135.698 16.4196 137.812 13.5923 138.492C11.135 136.201 11.7567 133.599 13.0594 131.204C14.5101 128.514 15.0133 125.705 15.0577 122.763C15.0725 121.683 14.8505 120.59 14.6285 119.51C14.2436 117.515 13.7699 115.534 13.2962 113.36C10.6317 114.587 11.5939 117.322 11.0906 119.88C7.07897 117.411 5.36187 113.833 4.93259 109.798C4.66614 107.21 5.08063 104.402 5.86518 101.903C7.21225 97.6898 7.44907 93.5652 6.48688 89.2779C6.20562 88.0509 6.17604 86.7647 5.954 84.7394C6.81256 85.6412 7.13822 85.8334 7.24184 86.1143C9.09221 90.7415 12.2304 94.0826 16.6713 96.4036C19.5135 97.8968 19.543 99.0794 18.0331 101.992C17.3374 103.337 16.9526 104.83 16.4197 106.264C16.6269 106.397 16.8341 106.545 17.0265 106.678C17.5446 106.338 18.27 106.116 18.5365 105.643C20.15 102.642 22.9773 101.622 26.0119 100.898C28.632 100.292 31.3706 100.011 33.8279 99.0055C36.2852 98.015 38.4316 96.3001 40.726 94.8957C42.1915 94.0087 43.5682 92.959 45.1077 92.2494C46.9729 91.392 48.8973 91.1702 50.3924 93.4321C49.7411 94.6296 49.0453 95.8714 48.0535 97.675C49.6818 97.9115 50.9549 98.1037 52.2427 98.2959C52.1095 98.6507 52.0651 99.0646 51.843 99.3012C48.8232 102.613 47.1357 106.545 45.6406 110.744C43.9827 115.4 39.8674 117.84 35.1305 119.052C33.4874 119.481 31.7999 119.762 29.9347 120.146C30.0828 121.964 31.1781 122.807 32.7472 122.748C34.4348 122.689 36.1223 122.349 37.7654 121.92C40.2079 121.284 43.8051 122.452 45.0041 124.596C45.2705 125.025 44.9004 126.281 44.5748 126.385ZM71.7973 97.3941C67.1196 101.859 62.7084 106.604 58.0306 111.084C55.0405 113.952 51.8282 116.613 48.5864 119.185C46.9284 120.501 46.7804 120.323 44.3528 118.712C44.9745 117.958 45.5518 117.204 46.2031 116.509C48.0831 114.484 49.3709 112.192 49.8594 109.457C50.3775 106.53 51.3841 103.81 53.3973 101.534C53.5602 101.356 53.6934 101.134 53.8119 100.927C55.6622 97.8524 55.3957 96.6697 52.3759 94.6887C53.8118 91.7172 52.7608 88.9823 49.593 88.4353C47.7574 88.1248 45.685 88.4205 43.8939 88.9823C42.1915 89.5145 40.5484 90.5493 39.1421 91.6877C35.4414 94.7183 31.3114 96.5958 26.5744 97.261C25.2718 97.4384 24.0135 97.8967 22.5036 98.2959C21.6451 94.8809 18.9213 93.3878 16.4048 91.6581C13.6959 89.8101 13.5479 89.544 15.1022 86.6169C16.3604 84.2515 17.7519 81.9157 19.4246 79.846C24.7389 73.356 29.2833 66.4669 31.6222 58.3212C31.711 57.9811 31.9775 57.7002 32.2735 57.2272C33.6502 58.5133 34.9677 59.7699 36.3 60.9822C41.0665 65.2694 46.4992 68.5366 52.1243 71.5377C54.0635 72.5725 56.0322 73.5778 58.001 74.5239C66.3351 78.5599 73.0852 84.3846 78.207 92.412C76.1346 94.0235 73.7809 95.5166 71.7973 97.3941ZM99.7156 27.6748C94.7566 26.6548 90.3602 24.7329 85.8009 23.3876C81.2416 22.0423 76.6675 20.6822 72.2562 18.9377C67.7709 17.1637 63.4782 14.9018 58.7116 12.6547C75.735 3.66632 95.9557 12.7286 99.7156 27.6748ZM47.8907 19.4847C48.6456 18.1394 48.542 16.3358 48.8676 14.3696C53.1309 15.0201 57.9418 15.5967 62.0274 17.9916C68.5407 21.8058 75.5573 24.2007 82.6331 26.5365C86.6891 27.8818 90.8487 28.961 94.8455 30.4837C103.476 33.7804 112.624 34.8744 121.535 36.9441C135.42 40.1669 147.988 46.3169 159.756 54.1965C165.293 57.9072 169.896 62.638 173.76 68.0783C177.224 72.9421 181.117 77.4954 183.752 82.9654C185.632 86.883 187.112 90.8893 187.438 95.147C187.793 99.7595 187.941 104.446 187.527 109.044C187.127 113.375 184.744 117.204 181.901 120.383C175.048 128.04 166.536 131.588 156.026 130.554C142.718 129.238 130.624 124.611 119.255 117.914C105.918 110.049 93.7649 100.632 82.8847 89.5884C81.3452 88.0213 79.8057 86.4099 78.5326 84.6359C74.5803 79.1364 69.3696 75.1892 63.4485 72.0699C58.3711 69.394 53.2937 66.7034 48.1867 64.0572C41.0221 60.3317 35.0861 55.0688 29.8311 49.0666C28.8245 47.9135 28.3064 45.9769 28.2768 44.3803C28.2176 40.8026 28.0399 37.3285 25.8491 34.0022C29.4758 32.1247 32.5252 30.4689 36.6552 32.3908C41.0221 34.4014 46.2031 31.5925 47.8166 26.8174C46.6916 25.5608 45.4778 24.2303 44.2491 22.8554C45.537 21.7171 47.1357 20.83 47.8907 19.4847ZM10.6761 5.35165C11.3571 6.37172 12.2749 7.74659 13.1926 9.13624C13.9328 10.245 14.5692 11.4425 15.4278 12.4773C17.6038 15.094 18.7141 15.0349 20.7717 12.2704C23.4066 8.7223 27.2258 7.33265 31.3262 7.34743C34.7013 7.34743 38.0615 8.30836 41.4217 8.91449C41.9546 9.00319 42.4135 9.47626 43.4645 10.0972C40.9332 10.3337 38.8313 9.07711 36.6997 11.0877C38.1948 11.8416 39.4382 12.4478 40.6669 13.0982C41.9547 13.7783 43.361 14.3401 44.4416 15.2566C46.1291 16.6906 45.685 18.3908 43.5386 19.1004C41.8363 19.6621 40.3264 19.6178 38.8905 18.0951C36.4924 15.5819 33.4134 14.3992 29.9199 14.9314C28.7949 15.1088 27.6551 15.7445 26.7077 16.4393C26.308 16.735 26.1304 17.8585 26.382 18.3612C26.5596 18.7308 27.7143 19.0264 28.1732 18.8047C32.3328 16.8828 35.3674 18.5977 38.328 21.4657C40.3116 23.3876 42.6949 24.8807 45.2114 26.8174C42.6949 28.8279 40.0747 29.9219 37.5878 28.6062C34.0647 26.7435 30.7933 27.6009 27.7143 28.8871C24.7981 30.1141 22.1928 31.3707 19.0842 29.4784C17.8851 31.7255 18.8473 32.8195 20.1499 33.6622C24.4576 36.4267 25.2718 40.433 24.4576 45.4595C22.0744 43.4489 19.7503 41.734 17.6927 39.7382C13.5183 35.6727 11.9936 30.262 12.9854 24.9251C14.2436 18.2281 11.6531 13.5861 7.36029 9.22494C7.19746 9.06232 7.13819 8.811 7.01976 8.57447C8.18919 7.53962 9.35867 6.51955 10.6761 5.35165ZM6.78295 2.20275C6.26485 5.24816 5.50988 5.75081 2.5937 4.93771C3.23023 2.79409 4.88818 2.40972 6.78295 2.20275Z" fill="#E6E6E6"/>
</svg>
