<svg width="141" height="66" viewBox="0 0 141 66" fill="none" xmlns="http://www.w3.org/2000/svg">
<path d="M131.689 1.66048C131.858 3.81296 131.796 5.99619 131.612 8.14867C131.488 9.50165 131.766 10.5471 132.689 11.5311C136.384 15.4363 137.231 20.2948 136.723 25.3531C136.122 31.3339 133.336 36.4691 128.979 40.4973C118.895 49.8145 107.226 56.5025 94.094 60.623C91.0766 61.5609 88.0746 61.9299 84.934 61.2226C83.2252 60.8382 81.4548 60.7152 79.6997 60.5461C73.3416 59.9311 68.7847 54.9804 68.6923 48.4615C70.278 47.539 71.9253 46.5858 73.5725 45.6325C73.511 45.4019 73.4648 45.1713 73.4032 44.9407C71.7867 44.464 70.0471 44.71 68.4922 45.1713C65.2131 46.1399 62.3188 44.9407 59.5015 43.7568C57.5618 42.9419 56.1762 41.2661 56.284 38.8983C56.361 37.0534 56.361 35.1776 56.6381 33.348C57.2385 29.5812 57.962 25.8297 58.7164 22.0783C60.2251 14.5138 64.7512 8.84053 70.355 3.88983C71.8329 2.58297 73.3262 1.30686 74.8195 0.0153748H69.108C63.3657 4.61245 58.7626 10.0551 56.4533 17.1891C55.8837 18.9572 55.3757 20.7714 55.1909 22.601C54.9292 25.061 53.4975 26.3832 51.3268 26.8137C46.4004 27.7823 41.474 28.382 37.1942 24.6459C35.5932 23.2468 33.5456 22.8163 31.4057 22.7855C28.3113 22.7548 25.2631 22.6164 22.2457 23.7849C17.3501 25.676 13.2089 23.7849 9.89896 20.3255C5.21889 15.3902 1.77042 9.76302 0 3.35172V13.7912C1.69345 16.9584 3.83335 19.9104 6.4197 22.6625C11.3153 27.8746 17.2424 30.1501 24.3702 27.4595C28.7732 25.799 32.7759 26.3371 36.6554 29.1199C39.4881 31.1494 42.721 32.118 46.3388 31.5184C48.7251 31.1187 51.1729 31.0418 53.6668 30.7958C53.6668 31.4569 53.7592 31.9797 53.6514 32.4563C52.8663 36.054 53.6976 39.375 55.1448 42.6806C56.1916 45.0483 57.7773 46.5704 60.2559 47.2008C62.2264 47.7081 64.1816 48.2616 66.1368 48.7997C66.1368 49.2764 66.1829 49.5839 66.1368 49.876C65.1207 56.4872 72.5257 64.7435 79.438 64.7127C80.8697 64.7127 82.3169 64.9741 83.7486 65.2201C87.9052 65.9427 91.9387 65.6813 95.9876 64.3591C109.458 59.9619 121.482 53.0893 131.858 43.4647C136.338 39.2981 139.401 34.1014 140.494 28.0283C141.711 21.2788 140.879 14.8521 136.369 9.2864C135.968 8.77903 135.722 8.01029 135.707 7.36455C135.645 4.98145 135.645 2.5676 135.645 0H131.427C131.55 0.538119 131.642 1.09161 131.689 1.66048Z" fill="#E6E6E6"/>
</svg>
