<svg width="82" height="150" viewBox="0 0 82 150" fill="none" xmlns="http://www.w3.org/2000/svg">
<path d="M39.749 0.870942C38.8631 -0.342768 37.7379 -0.28073 36.9052 1.01272C35.8775 2.59854 35.8509 4.35265 36.1344 6.15108C36.3382 7.42681 36.5065 8.70253 36.3382 10.1289C36.037 9.83652 35.6914 9.57073 35.4434 9.23408C33.9993 7.29391 32.6084 5.31832 31.1289 3.39586C30.748 2.89975 30.1721 2.43021 29.5963 2.2353C29.1268 2.07584 28.3649 2.17326 27.9928 2.48333C27.0094 3.29838 26.3272 4.39693 26.4867 5.7524C26.7259 7.76345 26.9119 9.8011 27.3903 11.759C28.6129 16.7379 29.1622 21.6991 28.0105 26.7666C27.6738 28.2372 27.5498 29.761 27.222 31.2316C26.7082 33.5705 26.6196 35.9004 26.9917 38.2747C27.0803 38.8594 26.9208 39.5682 26.6462 40.0997C25.4147 42.4917 23.9707 44.7863 22.8633 47.2226C21.242 50.784 19.0006 53.9379 16.8567 57.1627C14.5179 60.6798 12.6663 64.4361 11.045 68.3253C9.38835 72.3031 8.32524 76.4315 7.82912 80.6928C7.15581 86.5399 5.18019 91.8998 2.24777 96.985C1.30869 98.6062 0.78602 100.484 0.165872 102.274C-0.0378906 102.868 -0.020185 103.576 0.0418298 104.214C0.28103 106.5 1.53904 107.209 3.55895 106.181C4.48917 105.711 5.39283 105.153 6.25217 104.551C8.30752 103.133 10.3186 101.663 12.3562 100.219C14.5799 98.6328 16.3872 96.6483 17.9375 94.4335C18.7083 93.3261 19.7005 92.6174 20.8345 91.8909C23.8201 89.9951 26.655 87.8599 29.5431 85.8134C29.9152 85.5477 30.243 85.2287 30.8454 84.7238C31.1378 85.8312 31.3859 86.7437 31.625 87.6651C32.5376 91.1113 32.9805 94.6018 33.0248 98.1721C33.1223 105.968 34.1677 113.658 36.7014 121.029C38.172 125.299 40.2363 129.374 42.2119 133.459C44.1698 137.489 46.0036 141.547 47.0313 145.932C47.2528 146.871 47.6603 147.828 48.183 148.634C49.317 150.371 50.8319 150.247 51.8242 148.448C52.5506 147.137 52.6835 145.737 52.7012 144.258C52.7189 142.362 52.905 140.466 53.0379 138.579C53.0999 137.729 53.3302 136.878 53.3214 136.037C53.2594 131.917 54.039 127.948 55.0844 123.988C55.7134 121.596 55.9703 119.115 56.4575 116.307C58.0788 119.204 59.5583 121.835 61.0201 124.475C63.102 128.24 65.8661 131.492 68.7187 134.672C69.4098 135.443 70.2514 136.116 71.1284 136.692C73.1395 138.021 75.4961 137.578 76.8161 135.558C80.9799 129.224 82.7252 122.234 81.7241 114.73C80.9622 108.989 79.3144 103.435 77.0553 98.0835C73.8217 90.4291 71.5183 82.4912 70.1894 74.2876C69.6312 70.859 69.5161 67.3596 68.8782 63.9488C67.8948 58.7307 66.6988 53.5392 65.4231 48.3831C64.9093 46.2923 64.0233 44.2813 63.1551 42.3057C60.7011 36.7066 58.2117 31.1253 55.6336 25.5883C54.8629 23.9316 53.8175 22.3989 52.7987 20.8663C52.0722 19.7766 51.7356 18.6958 51.9305 17.3581C52.2051 15.4799 52.4886 13.5663 51.5407 11.759C51.4255 11.5287 51.2837 11.316 51.1774 11.1388C49.7688 10.6959 49.1221 11.8476 48.1741 12.4677C45.7024 9.92513 43.6116 7.18762 41.8663 4.16661C41.2285 3.03264 40.5197 1.9252 39.749 0.870942ZM28.418 36.9104C28.542 35.5461 28.5863 34.1817 28.7989 32.8351C29.2242 30.1065 29.7558 27.4044 30.2253 24.6846C30.6771 22.0091 30.7746 19.3248 30.2164 16.6581C29.614 13.77 28.9407 10.8908 28.3471 8.00269C28.0725 6.68266 27.9928 5.3449 28.7281 4.06031C30.0747 5.94733 31.2973 7.68371 32.5375 9.40241C33.6095 10.8908 34.7169 12.3614 35.7535 13.8675C35.9661 14.1687 35.9484 14.6294 36.0901 15.2584C34.0791 13.8144 33.0868 11.6793 30.9429 10.8111C31.1555 11.8033 31.4745 12.7158 31.9794 13.4954C32.6616 14.5408 33.4855 15.4887 34.2562 16.4633C35.1865 17.6327 35.6914 18.9527 35.7003 20.4588C35.718 23.719 35.4788 27.0057 36.5508 30.0533C33.8753 32.4453 31.3416 34.7133 28.8167 36.9724C28.6927 36.9458 28.5598 36.9281 28.418 36.9104ZM53.029 123.164C51.957 127.124 51.3369 131.12 51.4343 135.23C51.4521 136.143 51.3989 137.082 51.2217 137.977C50.7965 140.059 50.7256 142.141 50.9471 144.249C51.08 145.489 50.9914 146.721 50.0169 148.262C49.5296 146.916 49.0955 145.959 48.8474 144.958C47.8995 141.184 46.5086 137.587 44.781 134.096C43.0269 130.57 41.3437 127 39.7667 123.386C38.8985 121.41 38.1189 119.355 37.6228 117.264C36.0724 110.673 34.8675 104.028 34.9296 97.2153C34.9384 95.9041 34.8676 94.5753 34.6283 93.2995C34.1411 90.6595 33.583 88.0283 32.9362 85.4148C32.573 83.9619 32.7059 82.8368 33.7336 81.623C35.2131 79.8778 36.4268 77.9021 37.7468 76.024C39.4832 73.5523 41.2108 71.0805 42.9649 68.6177C43.2484 68.2101 43.6205 67.8735 44.1077 67.3331C44.7633 70.487 45.3746 73.4194 45.977 76.3518C46.0302 76.6087 46.0479 76.8745 46.0568 77.1314C46.1099 78.2299 46.1365 79.3373 46.1897 80.4359C46.2251 81.1535 46.3846 81.88 46.3137 82.5798C45.853 87.2132 45.5252 91.8732 44.8165 96.4623C43.8685 102.549 43.6028 108.599 44.6836 114.686C45.1088 117.078 45.605 119.479 45.7113 121.888C45.9771 128.418 46.9604 134.814 48.8386 141.069C48.9272 141.37 49.1044 141.644 49.2372 141.928C49.503 140.998 49.4765 140.156 49.4676 139.323C49.4587 138.535 49.3879 137.746 49.4853 136.967C49.9105 133.715 50.4244 130.473 50.8408 127.222C51.3723 123.058 51.957 118.894 51.3457 114.668C51.1597 113.375 51.1686 112.037 51.2837 110.735C51.4521 108.839 51.8064 106.96 52.0811 105.082C52.2671 105.082 52.4443 105.082 52.6304 105.073C52.9316 106.792 53.4277 108.502 53.4808 110.23C53.5251 111.496 52.9847 112.781 52.7189 114.057C52.6126 114.571 52.1519 115.138 52.8164 115.616C53.2151 115.341 53.5517 115.111 54.0301 114.783C54.0301 117.751 53.7466 120.497 53.029 123.164ZM48.6348 84.1213C48.7766 84.5466 48.9803 84.963 49.0423 85.3971C49.3967 87.7271 49.7422 90.0659 50.0523 92.3959C50.3092 94.3538 49.5385 94.974 47.3236 94.5487C47.6692 91.1202 48.0235 87.6828 48.3779 84.2365C48.4665 84.2099 48.5551 84.1656 48.6348 84.1213ZM50.7522 96.0371C50.4687 99.4302 50.2472 102.743 49.8928 106.039C49.7865 107.067 48.2096 107.988 47.1642 107.82C46.4732 107.705 45.9239 107.421 45.9593 106.562C46.0922 103.098 46.1985 99.6427 47.0224 96.2762C48.183 96.1965 49.2727 96.1345 50.7522 96.0371ZM49.1132 109.459C49.3436 112.471 49.5739 115.341 49.7777 118.212C49.8928 119.877 49.4764 120.17 47.6249 119.771C47.111 116.466 46.3048 113.171 46.2074 109.778C47.2528 109.663 48.1564 109.565 49.1132 109.459ZM49.7245 122.004C49.441 125.042 49.1664 127.921 48.9006 130.81C47.9438 127.851 47.6869 124.298 48.0678 122.057C48.5462 122.048 49.0424 122.03 49.7245 122.004ZM53.9592 26.3856C56.7853 32.6846 59.576 38.9923 62.3755 45.3001C62.535 45.6633 62.659 46.0354 62.7742 46.4164C65.2991 54.5935 67.0621 62.9478 67.886 71.4526C68.6124 78.9033 70.5083 86.0438 72.9357 93.0603C74.8671 98.6416 77.3742 104.002 78.712 109.804C79.7928 114.482 80.2181 119.08 79.4207 123.846C78.8006 127.549 77.2856 130.863 75.7353 134.194C75.3543 135.009 74.8848 135.824 73.9368 136.072C70.7475 134.371 69.7907 133.202 66.0167 128.17C61.0998 121.614 57.4941 114.314 55.0401 106.464C53.4277 101.299 52.5595 95.9839 51.9925 90.6329C51.5229 86.2033 50.1941 82.0483 48.8032 77.8667C47.7489 74.704 47.0933 71.4083 46.1631 68.1924C45.5075 65.9333 45.8973 63.9843 47.3325 62.1327C47.9261 61.3708 48.2273 60.3874 48.6791 59.5103C48.8563 59.156 49.0778 58.8193 49.2727 58.4738C49.8928 62.1681 50.2472 65.7561 50.4421 69.353C50.6725 73.5257 51.4875 77.5389 53.0113 81.437C54.3933 84.9807 55.6956 88.5687 57.0511 92.1301C57.1929 92.511 57.4321 92.8654 57.8307 93.6184C58.2471 91.6163 58.2648 90.0748 57.7421 88.5687C57.2017 87.0183 56.6436 85.468 55.988 83.9708C53.7909 78.921 52.338 73.7294 52.2583 68.1658C52.2051 63.9577 51.5584 59.7938 50.5218 55.7097C50.07 53.929 50.6104 52.4052 51.6381 50.5182C51.9216 51.3244 52.1077 51.6788 52.1608 52.0597C52.5772 55.1162 53.0733 58.1637 53.3391 61.2379C53.9681 68.5291 54.9692 75.7405 57.6092 82.6064C59.7 88.046 60.8429 93.6628 61.3921 99.4567C61.9857 105.676 63.04 111.815 65.6977 117.556C65.8838 117.964 65.9724 118.433 66.0521 118.885C66.9026 123.412 68.9934 127.443 71.093 131.456C71.5271 132.289 72.3156 133.007 73.0952 133.565C73.9988 134.22 74.8671 133.848 75.2834 132.785C75.4518 132.36 75.4961 131.89 75.5935 131.447C76.7098 126.07 76.444 120.719 75.1506 115.43C74.1849 111.479 72.9446 107.598 71.8461 103.683C70.9601 100.52 69.8704 97.4014 69.2946 94.1854C68.577 90.1368 67.8682 86.0881 67.7796 81.9065C67.6113 74.5268 65.5383 67.3951 63.917 60.2279C62.4464 53.7075 59.4608 47.763 56.5373 41.7918C55.2172 39.0898 53.9769 36.2725 53.2859 33.3755C52.5417 30.2925 52.4797 27.0412 52.1254 23.8696C52.2583 23.8164 52.3911 23.7721 52.5152 23.719C52.9936 24.5961 53.5429 25.4643 53.9592 26.3856ZM64.9624 74.6419C65.175 75.9265 65.3965 76.8833 65.4763 77.8579C65.742 81.056 65.9724 84.2543 66.1673 87.4524C66.1939 87.8688 66.061 88.4181 65.7863 88.7016C64.8207 89.6938 63.7398 90.5443 62.2604 90.314C60.7986 85.8578 59.3722 81.4901 57.8661 76.8922C60.71 77.3971 62.7476 76.2632 64.9624 74.6419ZM57.246 74.4471C56.4841 70.6819 55.8374 66.8458 55.4919 62.7174C58.1496 63.435 59.9126 61.9821 62.0034 60.5734C62.8008 64.1792 63.5361 67.4925 64.2537 70.8059C64.5106 71.9842 63.7753 72.8258 63.0665 73.57C61.5693 75.1469 59.452 75.4393 57.246 74.4471ZM55.3679 60.476C55.3147 59.971 55.2881 59.4483 55.2084 58.9345C54.6768 55.5768 54.5174 52.1218 53.1442 48.9767C52.6126 47.7541 52.8341 47.0011 53.6846 46.2481C54.2605 45.7342 54.8983 45.3001 55.545 44.7951C55.8817 45.0786 56.0234 45.1406 56.0677 45.247C57.6801 49.1007 59.2925 52.9634 60.8871 56.8349C61.0112 57.1272 61.0821 57.4816 61.0378 57.7916C60.7454 59.9799 57.4941 61.5214 55.3679 60.476ZM66.5039 90.7747C67.443 94.6993 68.3732 98.6239 69.3212 102.593C68.3998 103.736 67.381 104.825 65.6623 104.781C64.4043 104.755 63.9879 104.515 63.8284 103.257C63.3677 99.501 62.9779 95.7447 62.5793 92.1212C63.9702 91.634 65.2813 91.191 66.5039 90.7747ZM70.2337 105.029C71.0044 107.589 71.7929 110.283 72.6345 112.958C73.0509 114.287 72.5814 115.27 71.5183 115.979C70.8715 116.413 70.1451 116.768 69.4098 116.989C68.1783 117.352 67.1064 116.865 66.752 115.625C65.9104 112.684 65.2193 109.698 64.5372 106.996C66.5039 106.323 68.2492 105.72 70.2337 105.029ZM73.6268 117.273C73.8394 119.319 74.0697 121.33 74.2558 123.341C74.3089 123.926 74.3266 124.528 74.2735 125.113C74.2026 125.884 73.1306 126.974 72.3333 127.106C71.6512 127.213 70.9513 127.124 70.6412 126.415C69.6135 124.041 68.3112 121.747 68.072 119.363C69.9502 118.646 71.6334 118.017 73.6268 117.273ZM74.3355 127.567C73.7951 129.064 74.1406 130.349 73.2458 131.58C72.6434 130.455 72.1384 129.507 71.598 128.497C72.5193 128.178 73.1927 127.957 74.3355 127.567ZM53.2416 44.1838C53.3302 43.3599 53.3568 42.8461 53.4365 42.35C53.5074 41.8804 53.6314 41.4286 53.782 40.7022C54.2427 41.6855 54.5705 42.3677 54.9692 43.2182C54.4376 43.5194 53.9415 43.794 53.2416 44.1838ZM50.256 13.8586C50.1232 15.3115 49.9814 16.7733 49.8485 18.2262C49.8485 18.2351 49.8485 18.2528 49.8485 18.2617C49.8574 18.3768 49.8663 18.4831 49.884 18.5983C50.2295 22.9748 50.3535 27.3867 50.9825 31.7189C51.7444 36.9192 52.0013 42.0399 50.5573 47.1428C49.7688 49.9158 48.874 52.6533 48.0678 55.4262C46.8364 59.6609 44.533 63.3021 41.9018 66.7927C39.811 69.5656 37.7291 72.3829 35.9041 75.333C32.4313 80.9409 27.8244 85.3262 22.0482 89.0117C23.191 87.1601 25.0249 86.1767 25.5033 84.1302C24.1213 83.9087 23.2531 84.7238 22.5621 85.5211C20.7636 87.6031 19.0272 89.747 17.3971 91.9618C15.6784 94.3006 13.942 96.5775 11.6563 98.4202C9.45923 100.183 7.34187 102.035 5.18021 103.842C4.24113 104.622 3.31974 105.463 2.02629 105.481C1.31755 104.506 1.48589 103.559 1.81368 102.726C2.46926 101.016 3.12486 99.2795 4.03736 97.7026C6.89004 92.7591 9.05168 87.5942 9.77814 81.8799C10.5312 75.962 12.1967 70.3098 14.9254 64.9942C15.7316 63.4261 16.6529 61.92 17.6186 60.4494C20.2409 56.445 23.2265 52.6533 25.1047 48.1882C27.5764 42.2968 31.3504 37.4508 36.3559 33.4907C40.502 30.2128 43.5053 26.0312 45.5607 21.1498C46.3226 19.3425 47.3059 17.6238 48.2627 15.8962C48.688 15.1255 49.2815 14.4433 49.7954 13.7169C49.946 13.7612 50.1054 13.8143 50.256 13.8586ZM44.657 18.1908C44.2672 17.1277 43.9217 16.1975 43.5142 15.0901C45.3569 16.4987 45.4366 16.7113 44.657 18.1908ZM45.6847 12.8221C46.1099 13.3891 46.8187 13.8675 46.4732 15.0635C45.853 14.461 45.4189 14.0092 44.9582 13.6017C44.2229 12.9461 43.5585 12.1665 42.708 11.7235C41.9106 11.3071 41.5386 10.7845 41.3614 9.96055C41.2019 9.18978 40.9716 8.43674 40.7324 7.68371C40.4754 6.86866 40.2008 6.04477 38.8365 5.4955C38.9605 6.61176 38.9694 7.4357 39.1466 8.22416C39.8287 11.2452 40.9893 14.089 42.1144 16.9682C43.0358 19.3248 43.5053 21.9206 41.9992 24.3214C41.2994 25.4288 40.502 26.483 39.687 27.5018C39.306 27.9802 38.7656 28.3169 38.0126 28.9725C37.8708 27.8917 37.6848 27.2006 37.7025 26.5096C37.7822 22.5761 37.8177 18.6426 38.048 14.7268C38.2252 11.6615 38.8099 8.61395 38.0037 5.53979C37.7468 4.53869 37.6582 3.42244 38.2784 2.12012C39.244 3.76795 39.9793 5.23861 40.9184 6.5675C42.4422 8.70258 44.0989 10.7313 45.6847 12.8221Z" fill="#333333"/>
<path d="M49.2462 17.7127C48.8919 17.9873 48.4932 18.2886 48.2983 18.6784C47.4832 20.2465 46.491 21.7791 46.0214 23.4623C45.1621 26.4922 44.4622 29.5841 44.0104 32.6937C43.4346 36.6627 42.1057 40.3038 40.1921 43.8032C38.8366 46.2749 37.6229 48.8264 36.4535 51.3956C35.1423 54.2926 33.5476 56.9947 31.3062 59.2715C25.4591 65.2072 21.251 72.2148 17.9022 79.7717C16.6619 82.5713 15.0052 85.0784 13.003 87.3553C9.54792 91.2888 6.7041 95.5855 4.71963 100.449C4.38298 101.273 3.94889 102.053 3.43505 103.098C3.92231 102.956 4.18807 102.948 4.3564 102.824C5.54354 101.902 6.68638 100.91 7.9001 100.033C9.35301 98.9875 10.4781 97.6586 11.6476 96.312C14.6509 92.8392 17.8402 89.5258 20.9232 86.1239C23.262 83.5458 25.6452 81.0121 27.8423 78.3189C31.953 73.2868 35.9928 68.1927 39.9617 63.0367C42.2031 60.1308 44.48 57.1984 46.2872 54.0179C48.9184 49.3846 50.3005 44.3082 49.9461 38.9041C49.6538 34.4567 49.2285 30.0182 48.9273 25.5797C48.821 24.0825 48.7855 22.5676 48.9361 21.0881C49.0247 20.2376 49.5651 19.4314 49.8929 18.6075C49.8752 18.4923 49.8664 18.386 49.8575 18.2708C49.8575 18.262 49.8575 18.2443 49.8575 18.2354C49.636 18.0494 49.2905 17.6773 49.2462 17.7127ZM14.9609 89.4018C12.7638 92.1659 10.5579 94.9211 8.35193 97.6763C10.0086 94.4693 11.7982 91.3774 14.5711 88.9765C14.7926 89.2246 14.9698 89.3841 14.9609 89.4018ZM22.385 81.9157C20.3828 83.9091 18.5135 85.7872 16.6088 87.63C16.5024 87.7363 16.1304 87.5679 15.776 87.5148C17.1757 85.2202 18.5223 83.0054 19.8867 80.764C20.5954 81.0918 21.3573 81.4462 22.385 81.9157ZM25.1756 78.7352C24.3517 79.8869 23.2355 79.9844 22.0395 79.7717C20.8878 79.568 20.4891 78.8238 21.0295 77.7784C22.1369 75.6345 23.3506 73.5526 24.4758 71.5327C26.1059 72.4895 27.417 73.2602 28.7371 74.0398C27.5499 75.5991 26.3185 77.1317 25.1756 78.7352ZM36.5332 64.082C34.8411 66.3234 33.1047 68.8394 31.1202 71.1517C29.8622 72.6223 26.6286 71.5592 26.1236 69.6545C26.0527 69.371 26.0704 68.9635 26.2299 68.742C27.984 66.2349 29.6939 63.6922 31.7669 61.8318C33.459 62.6291 34.9474 63.3379 36.5332 64.082ZM45.2684 51.6614C43.5409 54.9659 41.583 58.04 39.2441 60.8484C38.2607 62.0267 35.5055 62.0533 34.3361 61.0433C33.7159 60.5118 33.5211 59.9625 34.0969 59.1917C35.1069 57.8274 36.0636 56.4188 36.9407 54.9658C37.6406 53.8053 38.181 52.5473 38.81 51.2982C40.9451 51.9183 43.0182 52.7067 45.2684 51.6614ZM47.9173 39.0812C48.13 41.677 47.8908 44.193 47.0846 46.6647C45.9772 50.0312 42.3449 51.493 39.2707 49.668C40.4578 47.4887 41.7336 45.3447 42.8055 43.1033C43.8775 40.8708 44.7369 38.5408 45.7557 36.1134C47.182 36.6184 47.7933 37.584 47.9173 39.0812ZM47.3769 34.8288C46.7479 34.6693 46.3227 34.563 45.9063 34.4567C45.9594 32.1622 46.1721 31.1079 46.9339 29.5841C47.0934 31.4357 47.2263 33.0658 47.3769 34.8288Z" fill="#333333"/>
<path d="M33.7867 38.4441C35.8066 38.3112 37.4544 37.8771 39.1731 37.3455C38.8276 36.0432 37.9948 35.9812 37.1443 36.0963C35.7977 36.2824 34.4777 36.5659 33.7867 38.4441Z" fill="#333333"/>
<path d="M32.8737 41.3491C34.2292 40.915 35.1151 40.6404 36.1074 40.3214C34.8405 39.1963 34.0343 39.4178 32.8737 41.3491Z" fill="#333333"/>
</svg>
