<svg width="33" height="14" viewBox="0 0 33 14" fill="none" xmlns="http://www.w3.org/2000/svg">
<path fill-rule="evenodd" clip-rule="evenodd" d="M5.97905 1.80497C5.59555 2.27786 4.98195 2.65084 4.36834 2.59756C4.29164 1.95816 4.59205 1.2788 4.94359 0.859191C5.3271 0.372982 5.99823 0.0266416 6.54152 0C6.60544 0.66604 6.35617 1.31876 5.97905 1.80497ZM6.53498 2.72392C5.9944 2.6915 5.50115 2.89332 5.10274 3.05634C4.84635 3.16125 4.62924 3.25009 4.46406 3.25009C4.2787 3.25009 4.05262 3.1565 3.79879 3.05142C3.46619 2.91374 3.08593 2.75632 2.68716 2.76388C1.77315 2.7772 0.92305 3.31669 0.456455 4.17588C-0.502303 5.89426 0.207178 8.43853 1.13398 9.83721C1.58779 10.5299 2.13108 11.2892 2.84696 11.2625C3.1619 11.2502 3.38845 11.15 3.62291 11.0463C3.89283 10.927 4.17324 10.803 4.61107 10.803C5.03373 10.803 5.30187 10.9237 5.55927 11.0396C5.80402 11.1499 6.03905 11.2557 6.38797 11.2492C7.12941 11.2359 7.596 10.5565 8.04982 9.86386C8.53955 9.12042 8.75477 8.39487 8.78743 8.28476L8.79125 8.27202C8.79047 8.27121 8.78442 8.26832 8.77375 8.26323C8.61003 8.18513 7.35873 7.5882 7.34673 5.98751C7.33468 4.64396 8.33923 3.96323 8.49736 3.85607C8.50699 3.84955 8.51348 3.84516 8.51641 3.84286C7.87724 2.85713 6.88013 2.75056 6.53498 2.72392ZM11.6679 11.1762V0.792646H15.4071C17.3374 0.792646 18.686 2.17801 18.686 4.20277C18.686 6.22752 17.3118 7.62621 15.3559 7.62621H13.2147V11.1762H11.6679ZM13.2145 2.15156H14.9978C16.34 2.15156 17.107 2.89752 17.107 4.20962C17.107 5.52172 16.34 6.27434 14.9914 6.27434H13.2145V2.15156ZM23.7929 9.9306C23.3838 10.7432 22.4826 11.256 21.5111 11.256C20.0729 11.256 19.0694 10.3635 19.0694 9.01812C19.0694 7.68605 20.041 6.9201 21.837 6.80687L23.7673 6.68699V6.11419C23.7673 5.26833 23.2368 4.80876 22.2909 4.80876C21.5111 4.80876 20.9422 5.22836 20.8272 5.86776H19.4338C19.4785 4.52236 20.6929 3.54328 22.3356 3.54328C24.1061 3.54328 25.2566 4.50904 25.2566 6.00763V11.1761H23.8249V9.9306H23.7929ZM21.9259 10.0241C21.1014 10.0241 20.5773 9.61118 20.5773 8.97845C20.5773 8.32573 21.0822 7.94609 22.0474 7.88614L23.7668 7.77292V8.35903C23.7668 9.33145 22.9742 10.0241 21.9259 10.0241ZM30.0057 11.5822C29.3857 13.4005 28.6762 13.9999 27.1678 13.9999C27.0527 13.9999 26.6692 13.9866 26.5797 13.96V12.7145C26.6756 12.7278 26.9121 12.7411 27.0335 12.7411C27.7174 12.7411 28.1009 12.4414 28.3374 11.6621L28.4781 11.2026L25.8574 3.64302H27.4746L29.2962 9.77724H29.3282L31.1498 3.64302H32.7222L30.0057 11.5822Z" fill="black"/>
</svg>
