<svg width="211" height="242" viewBox="0 0 211 242" fill="none" xmlns="http://www.w3.org/2000/svg">
<path d="M64.4198 12.4965C65.1856 14.5768 66.0127 16.6724 66.4109 18.8291C67.2839 23.6474 69.5813 27.3491 73.9158 29.7353C74.3447 29.9647 74.605 30.5001 74.9879 30.9437C74.5438 31.3261 74.2987 31.7085 73.9311 31.8614C65.8748 35.3184 60.3916 41.4827 56.3941 48.9778C53.9129 53.6126 52.0903 58.5838 49.9767 63.4021C49.0271 65.5589 48.0621 67.7156 47.2044 69.903C42.8393 81.008 37.8309 91.9294 34.3695 103.325C31.4441 112.977 30.2647 123.149 28.3962 133.122C26.9105 141.045 26.1141 149.03 25.9609 157.122C25.7771 166.513 27.8601 175.752 26.2672 185.312C25.1491 191.951 23.8626 198.008 19.5281 203.255C16.909 206.421 15.3621 210.184 14.9026 214.253C14.3972 218.719 12.7277 222.482 9.48071 225.648C5.00839 230.008 3.20108 235.943 0 241.067C0.352272 241.373 0.704547 241.694 1.05682 242C2.14427 240.684 3.47677 239.491 4.27321 238.023C5.85078 235.117 8.02568 232.914 10.7979 231.17C12.789 229.916 14.872 228.677 16.5568 227.071C18.6398 225.098 21.2435 223.033 22.0859 220.509C24.2761 213.886 28.6412 209.404 34.1091 205.564C38.3057 202.612 42.3492 199.461 46.4693 196.402C47.1432 195.897 47.8324 195.408 48.9811 194.582C46.99 200.7 46.5458 206.696 42.2114 211.132C41.7519 211.606 41.4915 212.325 41.2771 212.983C39.8527 217.465 36.4372 219.82 32.409 221.794C29.0548 223.43 25.915 225.511 22.8058 227.576C20.3246 229.212 18.9002 231.706 18.0271 234.398C20.0795 233.235 22.0246 231.996 24.077 231.017C27.615 229.335 31.3675 228.509 35.2884 228.05C41.369 227.331 46.362 224.761 49.1496 218.765C50.0992 216.715 51.9678 215.033 53.5913 213.366C56.6698 210.184 59.8556 207.109 63.026 204.02C66.1965 200.914 69.2903 197.718 72.6446 194.827C76.5349 191.477 80.5937 188.31 84.729 185.251C90.6717 180.861 94.9756 175.14 98.7127 168.9C105.758 157.091 112.972 145.374 119.849 133.474C122.621 128.686 125.072 123.654 127.063 118.499C130.402 109.826 133.327 100.985 136.283 92.1588C138.856 84.4955 139.53 76.6944 137.478 68.771C137.034 67.0426 136.452 65.36 135.946 63.6774C136.927 62.9279 137.662 62.2855 138.473 61.7654C151.661 53.5667 163.087 43.2724 173.976 32.3203C174.834 31.4484 175.891 30.6836 176.978 30.1483C182.952 27.1808 188.91 24.1675 194.975 21.4142C198.743 19.701 201.101 17.0701 201.561 13.0166C202.02 9.0243 203.858 5.70503 206.875 3.42591C208.254 2.38577 209.449 1.25385 210.49 0.045459H205.742C205.436 0.32079 205.129 0.611416 204.808 0.886747C201.561 3.53298 200.075 7.4182 199.554 11.487C198.988 15.8464 196.751 18.3397 192.647 19.9304C188.282 21.613 184.192 24.0298 179.429 26.3854C180.103 25.2229 180.363 24.1981 180.991 23.7698C185.418 20.8788 188.067 16.3664 191.437 12.5271C194.929 8.53482 198.145 4.34368 201.224 0.045459H197.778C180.578 23.938 159.763 44.7255 134.2 61.5819C133.052 60.5417 132.255 59.8075 131.06 58.7368C139.438 52.0677 148.904 47.2341 155.796 39.2036C147.357 44.3431 138.902 49.4826 129.866 54.9892C130.325 53.6279 130.448 52.7101 130.892 52.0065C132.699 49.0543 134.476 46.041 136.513 43.2418C141.169 36.8174 145.519 30.2248 148.812 22.9744C149.915 20.5729 151.477 18.8597 154.157 18.1561C155.888 17.6972 157.573 16.9324 159.135 16.0452C163.378 13.6437 165.966 10.1868 166.288 5.07789C166.41 3.19647 166.778 1.54448 167.39 0.0607552H162.796C162.505 1.13149 162.29 2.2787 162.229 3.50239C162.198 4.32838 161.938 5.13908 161.815 5.96507C160.988 11.4564 158.538 15.1122 151.86 15.8464C155.03 10.7222 157.144 5.4297 158.829 0.0607552H156.378C154.969 3.0741 153.56 6.08744 152.12 9.08548C151.094 11.2116 149.823 13.2154 148.888 15.3875C145.09 24.244 139.928 32.2897 134.399 40.152C131.214 44.6796 128.487 49.5132 125.7 53.9491C123.142 53.3831 120.354 52.756 117.184 52.0524C116.051 45.6739 117.996 39.2648 118.103 31.8614C117.276 33.2534 116.709 33.9111 116.464 34.6606C114.825 39.6778 113.186 44.6949 113.569 50.125C113.615 50.8287 112.804 51.5782 112.375 52.3124C111.823 51.67 111.18 51.0734 110.782 50.3545C110.537 49.9109 110.629 49.2685 110.613 48.7178C110.414 43.9607 110.43 43.9607 107.627 40.3355C109.985 37.1692 112.298 33.8958 114.81 30.7907C116.786 28.3433 119.435 26.7831 122.621 26.3701C127.155 25.7889 130.662 23.6474 133.388 19.961C134.43 18.5385 136.084 17.5748 137.34 16.3053C138.397 15.2345 139.898 14.1485 140.189 12.8483C141.184 8.596 142.93 4.43545 143.329 0.0913475H139.224C139.086 1.54448 138.841 2.99762 138.627 4.48134C137.876 9.75851 135.441 13.2919 131.734 17.0701C125.884 23.0356 125.011 22.3778 118.195 23.7698C118.348 23.0203 118.348 22.3472 118.608 21.766C121.748 14.8062 123.188 7.50998 123.892 0.0760513H121.595C120.063 12.2824 116.097 23.7851 108.638 33.7582C105.773 37.5975 102.036 40.7791 98.4983 44.4502C96.4765 41.5898 94.8224 39.2495 93.2448 37.0315C96.7828 34.2018 100.137 31.3567 103.675 28.7257C106.662 26.5078 108.729 23.6627 110.414 20.4046C113.799 13.8732 115.974 7.05109 117.414 0.0607552H114.427C114.136 1.65155 113.845 3.25765 113.554 4.84845C113.432 5.49089 113.064 6.10273 112.513 7.4335C111.854 4.94023 111.241 2.47755 110.751 0.0607552H107.504C107.734 1.43741 108.01 2.81406 108.347 4.17542C109.725 9.86558 109.495 15.6781 106.83 21.1388C105.437 23.9992 102.986 25.7736 99.9533 27.8844C100.352 26.3242 100.551 25.3147 100.857 24.3357C103.399 16.4123 104.242 8.25949 103.936 0.045459H100.413C100.428 0.336086 100.443 0.626713 100.474 0.917339C100.888 8.18301 99.9839 15.3263 97.9469 22.3319C97.3649 24.3204 97.227 26.4772 96.4765 28.3892C95.8026 30.133 94.7764 31.8461 93.5205 33.2228C92.2952 34.5842 90.7023 35.2266 88.6959 33.9264C87.2256 32.9628 85.3723 32.611 83.7641 32.0297C84.3461 21.5212 85.5408 11.1046 81.6505 0.871451C81.5433 0.59612 81.4514 0.32079 81.3595 0.045459H77.8061C80.1342 6.56162 82.0487 13.0625 80.9459 20.1293C80.7009 21.7507 81.0378 23.4486 80.9459 25.1158C80.8234 27.1349 80.5324 29.1387 80.318 31.1425C79.9351 31.2343 79.5675 31.3261 79.1846 31.4179C78.5413 28.4045 76.5196 26.7219 74.1762 25.1005C72.7058 24.0757 71.6337 22.1943 70.9292 20.4811C69.4588 16.9018 68.3407 13.1848 67.1767 9.7891C68.2795 8.04534 69.7039 6.60751 70.1327 4.90963C70.5769 3.13528 69.9796 1.4833 68.984 0.045459H64.4504C65.5226 1.34563 66.2577 2.93643 66.7632 4.68019C63.0567 7.44879 62.8729 8.27479 64.4198 12.4965ZM100.796 45.7962C101.883 44.7714 103.139 43.9148 104.395 42.9358C108.546 45.3068 106.539 49.7273 109.235 52.6336C106.34 53.995 103.782 55.2034 100.918 56.5647C100.459 53.4749 99.9686 50.691 99.7082 47.8612C99.6317 47.2035 100.244 46.3163 100.796 45.7962ZM99.1415 62.622C101.853 61.2147 104.502 59.7004 107.213 58.2779C111.915 55.8305 117.107 55.5705 121.825 57.1766C127.032 58.9356 131.03 62.9279 132.914 68.2969C135.395 75.3484 134.981 82.5835 132.684 89.5738C129.253 99.9905 125.593 110.315 121.794 120.61C120.554 123.975 118.777 127.172 116.939 130.262C110.077 141.841 103.078 153.343 96.1243 164.877C95.9098 165.229 95.5882 165.504 95.3125 165.81C86.812 157.428 84.6065 156.25 78.3881 157.504C79.8279 158.039 81.2523 158.575 82.692 159.11C86.5517 160.517 89.9059 162.598 92.2799 166.1C93.5205 167.936 93.5358 169.496 92.2186 171.408C89.0176 176.028 85.1119 179.928 80.6396 183.278C71.7256 189.932 62.9648 196.754 56.1338 205.687C55.3067 206.773 54.2192 207.721 53.1165 208.517C49.5631 211.071 46.6377 214.054 44.7079 218.107C42.8853 221.916 39.3013 223.354 35.2731 223.721C40.3275 221.427 42.1348 216.7 44.9683 212.57C49.6397 205.748 51.4776 197.916 54.4949 190.513C56.777 184.915 56.9761 178.888 56.6239 172.877C56.4248 169.557 56.2563 166.207 56.4401 162.904C56.8536 155.454 58.5843 148.357 62.9188 142.101C71.4959 129.726 75.8916 115.455 81.2829 101.642C84.6065 93.1072 88.0373 84.6178 91.269 76.0673C92.188 73.6352 93.6737 72.6104 96.1855 72.5339C98.4064 72.4727 100.612 71.9221 102.817 71.9832C104.839 72.0291 106.846 72.5951 108.775 72.9163C107.627 70.4842 106.233 69.4288 102.68 68.9852C100.106 68.6793 97.4721 68.7405 94.7458 68.6334C95.4197 65.8342 96.7522 63.861 99.1415 62.622ZM92.8925 42.2016C95.0062 45.6739 96.9667 49.1461 97.0126 53.3678C97.0585 56.8248 96.4765 59.8534 93.5512 62.2855C92.0195 63.5551 90.9321 65.5283 90.0744 67.3944C87.4094 73.1916 84.8209 79.0348 82.4469 84.9697C81.2216 88.0442 80.4865 91.3176 79.5675 94.5298C79.2612 95.6005 79.2765 96.7783 78.8629 97.7725C74.0077 109.551 69.0912 121.298 64.0675 133.382C57.9717 130.46 52.948 126.835 46.4539 129.007C49.1649 129.604 51.9524 130.002 54.5715 130.858C57.3131 131.761 59.9168 133.091 62.9035 134.392C61.6169 136.793 60.5142 138.843 59.3195 141.076C55.3833 139.944 51.7533 137.512 46.6684 138.736C50.9569 140.005 54.5256 141.076 58.4312 142.238C57.7419 144.043 57.3131 145.328 56.7923 146.567C53.576 154.261 52.1822 162.292 52.9174 170.597C53.9895 182.681 48.445 191.354 39.1022 198.176C35.1812 201.037 31.1531 203.76 27.2934 206.696C23.2959 209.725 20.7075 213.824 19.4056 218.643C18.1497 223.262 15.1171 226.214 11.043 228.524C10.9357 228.065 10.7673 227.713 10.8592 227.637C14.9486 223.782 17.0469 219.071 18.119 213.534C18.7776 210.138 20.6768 206.742 22.7751 203.928C26.6654 198.712 28.7638 193.159 28.9629 186.628C29.1314 180.968 29.9891 175.324 30.5864 169.114C33.4965 169.45 36.3299 169.771 39.1634 170.093C36.7282 167.982 33.7415 167.217 30.0809 167.171C30.0044 165.672 29.8818 164.341 29.8512 163.011C29.7134 153.405 30.2801 143.875 32.1333 134.422C32.8072 131.011 33.5271 127.6 33.864 124.158C34.1244 121.558 35.3957 120.411 37.7697 120.243C40.9401 120.028 44.1259 119.814 47.3116 119.768C49.7775 119.738 52.2281 119.952 55.0616 120.074C51.5083 116.419 47.0972 115.638 35.365 116.327C36.1921 110.071 37.785 104.059 39.9139 98.2008C42.87 90.1092 45.8872 82.0634 49.0271 74.0482C51.1407 68.6334 53.6372 63.3562 55.7202 57.9261C56.9608 54.6833 59.197 52.9548 62.4746 52.5877C66.319 52.1441 70.194 51.9453 73.9465 51.6547C72.4455 49.4673 69.7345 48.9319 60.5601 49.3296C61.2493 48.0907 61.6169 46.9587 62.3521 46.1633C65.4919 42.8441 68.693 39.586 71.986 36.4044C72.7365 35.6855 73.8699 35.0583 74.8961 34.9666C80.7009 34.4312 88.9257 35.6702 92.8925 42.2016Z" fill="#E6E6E6"/>
<path d="M84.4531 0.856584C85.9541 2.7686 86.9497 5.10891 88.6344 8.09166C89.1092 4.63473 88.2975 2.18735 87.1794 0H83.8558C84.0549 0.290627 84.2234 0.581254 84.4531 0.856584Z" fill="#E6E6E6"/>
<path d="M102.205 78.6838C106.815 80.2746 110.583 81.5901 114.825 83.0585C112.084 77.8579 107.106 75.9917 102.205 78.6838Z" fill="#E6E6E6"/>
<path d="M81.1605 149.52C84.8058 152.151 88.3591 153.558 90.8403 153.467C87.578 149.551 84.9436 148.373 81.1605 149.52Z" fill="#E6E6E6"/>
<path d="M95.3887 131.21C98.5898 134.621 101.776 138.032 105.298 141.795C103.644 136.441 99.861 133.55 95.3887 131.21Z" fill="#E6E6E6"/>
<path d="M97.0585 126.667C98.5748 127.861 99.8307 129.467 102.143 129.666C100.535 126.27 100.137 126.01 97.0585 126.667Z" fill="#E6E6E6"/>
<path d="M89.875 146.354C89.6912 146.369 89.5533 146.706 89.1398 147.195C89.9822 147.715 90.7786 148.205 91.5751 148.71C91.7742 148.434 91.9886 148.159 92.1877 147.884C91.8508 146.813 91.1462 146.201 89.875 146.354Z" fill="#E6E6E6"/>
<path d="M65.0475 60.129C70.546 60.2514 75.7688 61.1997 80.8385 64.8402C77.4077 59.4713 70.1478 57.3451 65.0475 60.129Z" fill="#E6E6E6"/>
<path d="M72.8586 47.877C75.0948 48.5653 77.3309 49.2383 79.5824 49.9266C77.867 47.4946 75.7993 46.2709 72.8586 47.877Z" fill="#E6E6E6"/>
<path d="M36.0847 173.321C37.9226 173.81 39.6687 174.269 42.3643 174.988C38.9641 171.822 38.7038 171.776 36.0847 173.321Z" fill="#E6E6E6"/>
<path d="M78.9085 44.4047C77.9282 44.1905 76.9327 43.9917 75.9525 43.7775C75.8606 44.1905 75.7533 44.5882 75.6614 45.0012C76.7029 45.1083 77.7445 45.2154 78.786 45.3225C78.8319 45.0165 78.8625 44.7106 78.9085 44.4047Z" fill="#E6E6E6"/>
<path d="M130.907 31.6168C128.548 35.0431 126.297 38.5306 124.137 42.0793C123.157 43.6854 122.407 45.4904 123.663 48.4272C126.052 44.5267 127.89 41.2992 129.927 38.2094C132.056 34.9666 134.46 31.9074 136.574 28.6493C138.626 25.5136 140.418 22.2249 142.41 19.0586C144.385 15.9076 146.468 12.8025 147.142 9.02435C146.499 9.42205 146.085 9.95742 145.687 10.4928C140.755 17.529 135.778 24.5499 130.907 31.6168Z" fill="#E6E6E6"/>
</svg>
