<svg width="277" height="113" viewBox="0 0 277 113" fill="none" xmlns="http://www.w3.org/2000/svg">
<path d="M102.676 69.8159L102.513 69.8751L102.676 69.8159Z" fill="#E6E6E6"/>
<path d="M268.105 77.9463C266.98 78.6707 266.003 79.6168 264.937 80.4298C260.719 83.6525 255.908 85.3821 250.624 85.2934C248.936 85.2638 247.101 84.3768 245.606 83.4455C243.4 82.0707 241.18 80.9916 238.575 80.5185C234.993 79.8681 231.485 78.8629 227.177 77.8281C225.371 73.8811 221.774 70.5845 216.179 68.648C218.548 67.3471 220.294 66.3123 222.1 65.381C225.786 63.474 228.998 61.1974 229.99 56.7922C230.152 56.053 231.041 55.4913 231.47 54.7817C232.462 53.126 233.853 51.5147 234.223 49.7112C234.815 46.8729 236.503 45.5425 238.974 44.7442C244.17 43.0738 248.211 39.8955 251.423 35.5198C254.354 31.5136 255.301 26.8866 255.982 22.1561C256.278 20.0865 255.138 18.6378 253.436 17.6622C251.66 16.6422 249.854 16.8343 248.27 18.0761C245.828 20.0126 244.17 22.4666 245.088 25.6892C245.887 28.5127 245.029 30.671 242.734 31.9867C239.478 33.8493 236.044 35.4606 232.565 36.8798C230.73 37.6189 228.731 37.2494 226.97 36.0667C225.105 34.8102 223.121 33.9971 220.753 34.4406C220.102 34.5589 219.288 34.3223 218.651 34.0415C212.005 31.0701 205.492 32.2676 199.024 34.5885C197.765 35.0467 196.581 35.7267 195.353 36.2589C190.882 38.1807 186.412 40.0876 182.282 41.8468C180.254 40.0728 178.241 38.9937 177.294 37.2937C176.228 35.4163 176.065 33.0067 175.681 30.8041C175.562 30.1536 176.228 29.4145 176.243 28.7049C176.361 21.8161 181.202 18.4309 186.264 15.3117C189.417 13.3604 192.437 11.4091 194.183 7.9351C195.589 5.14115 195.382 3.29331 193.132 1.50459C190.882 -0.298906 187.567 -0.535428 185.672 1.09068C184.858 1.80025 184.133 2.67243 183.57 3.60374C180.743 8.31945 176.702 11.3056 171.462 13.1091C166.681 14.7647 162.063 17.2335 159.798 22.0379C158.066 25.7188 155.964 27.5518 151.672 27.8032C147.364 28.0545 144.226 31.2328 141.428 34.3963C140.866 35.0319 140.407 35.7415 139.667 36.7172C138.453 36.1406 137.195 35.7119 136.144 34.9876C129.809 30.7301 123.089 27.3744 115.584 25.571C112.535 24.8318 109.634 23.3831 106.762 22.0379C101.374 19.5248 95.8675 17.8839 89.7986 18.1204C83.4189 18.3717 77.1281 17.6178 71.0592 15.3413C69.431 14.7352 67.4327 14.543 65.7156 14.8239C63.0661 15.2378 62.1483 17.1743 62.9328 19.7613C63.7618 22.4813 65.5528 24.4031 67.9951 25.7779C75.9883 30.2423 83.8926 34.9137 92.0338 39.0972C96.578 41.4329 101.581 42.8816 106.288 44.9216C110.196 46.6216 113.985 48.6025 117.804 50.4947C118.204 50.6869 118.47 51.1304 119.299 51.9582C117.775 51.6478 116.901 51.4556 116.028 51.293C112.179 50.613 108.316 49.9921 104.482 49.253C99.6865 48.3512 94.8462 47.6121 90.154 46.3408C80.4586 43.7242 70.7928 41.2555 60.7125 40.4424C52.4973 39.7624 45.2591 42.2607 38.4353 46.3408C36.6295 47.4199 34.9864 49.1495 33.8614 50.953C31.952 54.013 33.3434 56.7922 36.8515 57.5165C38.1541 57.7826 39.5158 57.7679 40.8628 57.7826C42.4466 57.7974 44.0453 57.6791 45.6291 57.6348C52.6454 57.4131 59.1731 59.0687 65.3456 62.4244C71.6365 65.854 78.0606 69.0619 84.6475 72.4619C76.0475 74.7976 67.4918 76.3646 58.6254 73.8811C52.3493 72.1219 45.8808 71.6193 39.3531 71.915C37.7692 71.9889 36.1706 71.8706 34.5867 71.8558C30.7678 71.8263 27.4522 70.5106 24.4769 68.1453C21.9902 66.1792 19.5478 64.0357 16.765 62.5722C13.6714 60.9461 10.2965 59.6748 6.89201 58.8322C2.30335 57.6939 -0.908707 60.9166 0.231057 65.5879C0.911955 68.3671 2.36254 71.028 3.81315 73.5411C5.39697 76.2907 7.32127 78.8333 9.20114 81.4055C15.2404 89.6395 22.9671 95.3309 32.9437 98.1692C39.2642 99.9727 45.4071 102.53 51.4464 105.161C56.1831 107.216 60.9641 108.842 66.0412 109.862C76.0475 111.858 86.1277 112.73 96.282 112.686C100.767 112.671 105.311 112.242 109.737 111.444C124.347 108.842 137.343 102.574 149.214 93.7343C153.004 90.9108 157.237 88.6491 161.441 86.0325C166.163 91.1917 172.335 93.3352 178.73 95.1683C185.909 97.2231 192.718 100.224 199.379 103.654C203.686 105.871 208.379 107.541 213.1 108.694C219.747 110.306 224.912 107.275 229.516 101.865C232.654 101.939 235.807 100.416 238.738 98.3318C240.958 96.75 243.489 96.3657 246.079 97.1491C250.135 98.3909 254.161 97.9918 257.936 96.4248C262.673 94.4587 267.321 92.2413 271.82 89.7873C273.537 88.856 275.003 87.1264 276.083 85.4264C277.667 82.9577 277.134 80.8881 274.973 78.8924C272.561 76.6307 270.607 76.3202 268.105 77.9463ZM225.075 38.6981C227.651 40.6346 230.552 40.7824 233.453 40.0285C238.353 38.7572 242.853 36.6137 246.553 33.051C248.625 31.0554 249.588 28.764 248.833 25.7927C248.566 24.7136 248.714 23.3535 249.173 22.3483C249.484 21.6535 250.653 21.3431 251.438 20.87C251.719 21.6979 252.341 22.5848 252.208 23.3388C250.757 31.8832 246.538 38.2694 237.938 41.152C236.665 41.5807 235.422 42.0981 234.208 42.6598C232.358 43.532 230.981 44.8329 230.597 46.9616C230.478 47.6121 230.197 48.2182 229.99 48.8538C228.45 44.5077 222.766 43.2512 222.544 37.6041C223.58 38.0328 224.439 38.225 225.075 38.6981ZM182.786 46.5329C182.771 46.326 182.993 46.1042 183.2 45.7199C183.837 45.4538 184.621 45.1138 185.406 44.8033C188.914 43.4285 192.437 42.0833 195.93 40.6642C197.514 40.0137 198.994 39.112 200.593 38.5207C205.004 36.8502 209.518 35.978 214.24 36.998C216.505 37.5006 218.296 38.5946 218.992 41.0189C219.599 43.1033 221.108 44.4042 222.825 45.7199C228.095 49.7704 227.296 57.8418 221.449 60.9018C220.368 61.4635 219.214 61.9218 218.163 62.5427C215.854 63.9175 213.396 65.1297 211.383 66.8445C208.926 68.9288 206.277 70.1263 203.124 70.348C198.683 70.6584 194.524 71.9593 190.438 73.7185C186.856 75.2559 183.17 76.6159 179.47 77.8429C176.569 78.7889 173.534 79.0846 170.026 78.5672C173.09 72.4471 175.799 66.7114 178.804 61.1383C181.276 56.5556 183.082 51.8547 182.786 46.5329ZM166.089 20.3231C168.635 18.6822 171.27 17.0413 174.082 15.9474C178.819 14.1143 182.682 11.4091 185.346 7.04813C185.909 6.11682 186.56 5.21507 187.315 4.4168C188.396 3.26375 190.024 3.3081 191.178 4.43159C192.259 5.46638 192.348 6.79683 191.03 7.89075C189.358 9.28033 187.433 10.389 185.657 11.6751C182.712 13.8334 179.722 15.9326 176.909 18.2387C174.881 19.9091 173.682 22.1709 173.371 24.8614C173.253 25.8814 172.898 26.8718 172.691 27.6701C169.404 26.3988 166.474 25.2605 162.788 23.8118C163.987 22.5257 164.845 21.1361 166.089 20.3231ZM108.583 41.3737C101.492 38.7424 94.3873 36.1998 87.8892 32.0902C82.5604 28.7197 76.9653 25.6005 70.8076 23.7675C68.5873 23.1022 66.6038 21.8605 65.168 18.5491C67.3291 18.8891 68.7797 18.8448 70.0378 19.3474C76.536 21.9344 83.3302 22.5848 90.2131 22.4074C94.9794 22.2892 99.3608 23.2944 103.683 25.3196C107.768 27.2266 112.046 28.7197 116.25 30.331C119.329 31.4988 122.556 32.3119 125.516 33.7015C129.912 35.7711 134.131 38.2102 138.66 40.605C138.409 42.4824 138.305 44.4338 137.846 46.3112C137.18 49.0608 135.922 51.293 132.547 51.3669C131.333 51.3965 130.134 51.7365 128.935 51.973C127.011 52.3426 125.546 51.8104 123.947 50.5095C119.329 46.666 114.296 43.4877 108.583 41.3737ZM78.7711 65.5436C75.263 63.5627 71.7401 61.6114 68.2616 59.5566C60.2092 54.8113 51.5204 52.9782 42.2247 53.6878C40.478 53.8208 38.7165 53.6139 36.4222 53.54C37.8728 50.0512 40.1375 48.2773 42.9055 47.2721C47.8642 45.4686 53.0006 44.4486 58.3294 44.4929C66.2337 44.5668 73.8716 46.2816 81.4207 48.2921C90.3908 50.6869 99.2572 53.4513 108.627 53.9243C109.959 53.9835 111.306 54.2939 112.579 54.693C117.686 56.3043 122.867 56.7035 128.151 55.9643C128.876 55.8609 129.646 56.0235 130.564 56.0678C128.284 59.0983 126.049 61.7148 124.228 64.5827C122.585 67.1845 120.409 68.7514 117.464 69.0028C112.49 69.4167 107.502 69.5793 102.514 69.8454C102.514 69.8306 102.529 69.8158 102.529 69.801C99.9233 70.1262 97.259 70.9541 94.7426 70.6141C89.177 69.8897 83.7298 68.3523 78.7711 65.5436ZM158.036 83.2977C149.303 88.6934 140.718 94.37 131.674 99.1596C121.653 104.467 110.714 107.586 99.346 107.852C90.2279 108.059 81.0506 107.719 71.9621 106.019C64.5906 104.644 57.4412 103.033 50.6915 99.5587C46.2656 97.2822 41.4698 95.4935 36.6591 94.2517C31.1231 92.8178 26.0756 90.7186 21.5017 87.2595C13.6714 81.3316 8.89026 73.1124 4.25719 64.7897C3.23584 62.9714 4.04993 61.9218 6.07782 62.1731C7.60244 62.3653 9.24548 62.6905 10.5185 63.474C13.8341 65.5288 16.9278 67.9088 20.1695 70.0671C22.6858 71.7524 25.2022 73.4967 27.8962 74.9011C29.3172 75.6402 30.0425 76.4976 29.9537 77.9611C29.8648 79.5281 29.6132 81.0951 29.3172 82.6473C29.0655 83.8742 28.6363 85.0568 28.281 86.269C32.4108 83.8447 32.1444 80.1342 31.7447 76.1133C34.3647 76.1428 36.6887 76.2611 38.9978 76.1872C45.1407 76.0098 51.2243 76.3646 57.1896 77.9315C65.0643 79.9864 72.8206 79.7794 80.7546 77.9611C87.4007 76.4385 94.2245 75.6402 101.004 74.7237C106.451 73.9993 111.943 73.6445 117.405 73.0089C121.209 72.5506 124.273 70.6732 126.7 67.6871C130.164 63.4297 133.717 59.2461 137.24 55.0182C139.874 51.8547 141.725 48.3364 142.065 44.1529C142.154 43.059 142.287 41.9651 142.479 40.8859C143.234 36.658 147.956 32.2232 152.027 31.8684C148.756 37.8259 147.364 42.2607 147.838 45.4686C149.806 44.8773 150.487 43.1181 150.724 41.5955C151.494 36.6876 154.854 33.731 158.318 30.8188C163.114 26.7979 170.47 29.0893 172.025 35.2093C172.809 38.2546 173.075 41.4329 173.638 44.5373C173.756 45.1581 174.171 45.7199 174.689 46.8434C175.843 45.1729 176.672 43.946 177.768 42.3494C179.381 46.9616 179.144 51.1156 177.279 55.1069C175.207 59.527 172.469 63.681 170.811 68.234C168.309 74.9159 163.898 79.6759 158.036 83.2977ZM213.086 103.994C209.474 102.9 205.877 101.599 202.472 99.9727C196.744 97.2379 191.208 94.0744 185.021 92.3595C182.075 91.5465 179.189 90.5413 176.273 89.6099C172.187 88.3239 168.442 86.4464 164.89 83.0316C166.414 83.002 167.377 82.9281 168.309 82.9872C175.547 83.4751 182.43 82.1446 189.017 79.1585C190.127 78.6559 191.297 78.2568 192.392 77.7246C195.856 76.0541 199.512 75.2263 203.316 74.7533C205.477 74.4872 207.683 74.0585 209.711 73.275C211.561 72.5506 213.248 72.5506 215.069 72.9941C218.296 73.7924 220.709 75.6994 222.796 78.242C224.261 80.0307 224.824 81.6272 223.921 83.889C222.855 86.5795 223.047 89.3439 224.098 92.123C225.031 94.6065 225.608 97.2231 226.408 99.9727C222.248 103.033 218.237 105.561 213.086 103.994ZM272.708 84.229C271.687 85.249 270.666 86.4169 269.408 87.0082C265.441 88.8856 261.4 90.6299 257.314 92.2265C253.984 93.5274 250.565 94.0152 246.938 92.9804C243.119 91.9013 239.478 92.6552 236.118 94.9317C234.445 96.0552 232.55 96.8387 230.552 97.8735C229.472 94.71 228.406 92.3595 227.903 89.8908C227.562 88.1908 227.888 86.3282 228.169 84.569C228.361 83.3125 229.457 82.6768 230.656 83.1055C234.771 84.5394 239.359 84.5986 243.045 87.289C245.65 89.196 248.566 89.7726 251.719 89.3438C256.382 88.7082 260.778 87.4369 264.582 84.5099C266.225 83.2533 268.001 82.1594 269.719 81.0211C270.888 80.2376 271.791 80.7699 272.605 81.642C273.419 82.4699 273.508 83.416 272.708 84.229Z" fill="#E6E6E6"/>
<path d="M100.886 78.4488C101.493 83.3271 102.499 87.2445 102.337 91.1176C102.174 94.8872 100.841 98.6125 99.9386 102.693C102.366 102.5 103.535 101.318 104.246 99.6917C106.91 93.6603 106.792 87.6289 103.876 81.7306C103.358 80.681 102.248 79.9123 100.886 78.4488Z" fill="#E6E6E6"/>
<path d="M73.9159 101.924C76.8319 101.643 78.1641 100.372 79.6739 96.617C81.3318 92.4926 81.539 88.4569 78.5934 84.702C79.9996 91.2656 76.077 96.3361 73.9159 101.924Z" fill="#E6E6E6"/>
<path d="M47.5979 88.5008C46.991 90.8956 46.088 93.2017 45.0371 96.3652C50.9727 92.906 52.6897 85.3816 49.0484 80.7546C48.5452 83.5042 48.2196 86.0321 47.5979 88.5008Z" fill="#E6E6E6"/>
<path d="M108.864 83.49C109.071 87.7918 109.263 91.8422 109.471 96.1145C113.512 92.537 113.245 86.0918 108.864 83.49Z" fill="#E6E6E6"/>
<path d="M165.245 53.7911C165.837 57.9155 166.444 62.0547 167.08 66.4156C168.827 65.8539 169.345 64.3017 169.375 62.6312C169.419 59.0686 168.353 55.905 165.245 53.7911Z" fill="#E6E6E6"/>
<path d="M162.625 66.8448C165.26 64.1691 165.142 62.5577 162.122 59.409C162.314 62.3064 162.477 64.5682 162.625 66.8448Z" fill="#E6E6E6"/>
<path d="M193.576 62.927C193.828 58.5217 192.629 54.4712 189.757 51.0268C189.58 50.8051 189.136 50.8051 188.558 50.6129C189.417 56.2008 190.231 61.4635 191.089 66.9627C192.747 66.327 193.473 64.6861 193.576 62.927Z" fill="#E6E6E6"/>
<path d="M214.343 43.458C214.388 48.1885 214.417 52.5937 214.462 56.9694C218.355 54.0277 218.37 47.5528 214.343 43.458Z" fill="#E6E6E6"/>
<path d="M102.632 60.5616C101.714 62.6312 100.915 64.7895 100.456 66.9921C100.16 68.3817 101.107 69.4017 102.543 69.7713C103.52 66.6521 104.497 63.5182 105.4 60.6503C104.083 59.3051 103.047 59.6599 102.632 60.5616Z" fill="#E6E6E6"/>
<path d="M102.677 69.8157C102.632 69.8009 102.603 69.7861 102.558 69.7861C102.558 69.8009 102.544 69.8305 102.544 69.8453C102.544 69.8601 102.529 69.8749 102.529 69.8897C102.514 69.8749 102.677 69.8157 102.677 69.8157Z" fill="#E6E6E6"/>
<path d="M94.2983 66.0023C94.8015 63.5632 95.29 61.1388 95.7933 58.6701C93.0401 59.3353 92.0927 62.6466 94.2983 66.0023Z" fill="#E6E6E6"/>
<path d="M90.3016 65.2774C90.5237 63.3261 90.7013 61.8774 90.9678 59.5713C88.2294 62.4243 88.2146 62.5278 90.3016 65.2774Z" fill="#E6E6E6"/>
<path d="M201.259 87.3329C200.4 89.3433 200.474 89.9199 202.221 92.2851C203.642 89.7277 204.856 87.2885 206.306 85.012C207.698 82.8241 209.356 80.7989 211.087 78.4336C207.49 78.9215 203.08 83.0754 201.259 87.3329Z" fill="#E6E6E6"/>
<path d="M197.943 85.2194C200.282 84.6133 200.829 83.9481 202.783 79.2767C199.823 80.7845 198.683 82.7359 197.943 85.2194Z" fill="#E6E6E6"/>
<path d="M103.209 37.5736C103.505 37.6327 103.801 37.6919 104.097 37.751C104.556 35.7849 105.015 33.8188 105.563 31.4388C102.957 33.124 102.513 34.4692 103.209 37.5736Z" fill="#E6E6E6"/>
</svg>
