<svg width="284" height="355" viewBox="0 0 284 355" fill="none" xmlns="http://www.w3.org/2000/svg">
<mask id="mask0_0_2744" style="mask-type:alpha" maskUnits="userSpaceOnUse" x="0" y="0" width="317" height="374">
<rect width="316.554" height="373.654" fill="#1A1A1A"/>
</mask>
<g mask="url(#mask0_0_2744)">
<g opacity="0.6">
<path fill-rule="evenodd" clip-rule="evenodd" d="M6.89971 238.875C5.99447 239.632 4.37323 240.491 5.30093 242.038C5.99522 243.162 8.15118 244.802 8.36099 244.649C11.5682 242.069 14.2293 245.489 17.1655 245.08C17.525 245.065 17.8639 244.547 18.4904 244.018C17.8739 243.034 17.1825 241.982 16.5631 240.928C13.3998 235.8 11.1472 235.316 6.89971 238.875Z" fill="#333333"/>
<path fill-rule="evenodd" clip-rule="evenodd" d="M120.303 62.4487C120.3 62.3768 119.515 62.5531 119.236 62.7806C115.334 65.9656 114.806 70.6687 112.883 74.7089C114.213 75.5186 114.893 76.283 115.689 76.3944C116.483 76.4338 117.904 75.9434 117.955 75.4372C118.195 74.2749 118.508 73.1098 118.751 72.0194C119.377 71.4896 119.929 70.8908 120.466 69.9325C120.02 69.5906 119.594 69.7521 119.244 69.9826C119.748 68.2333 120.327 66.553 121.197 64.9329C121.533 64.3429 120.695 63.2249 120.303 62.4487Z" fill="#333333"/>
<path fill-rule="evenodd" clip-rule="evenodd" d="M0.360158 279.622C-0.0782855 281.224 1.51713 283.248 3.39248 283.315C6.85852 283.533 8.68972 282.521 8.74506 280.358C8.82694 278.843 6.23476 275.348 4.85683 275.116C3.5508 274.882 0.990718 277.435 0.360158 279.622Z" fill="#333333"/>
<path fill-rule="evenodd" clip-rule="evenodd" d="M-10.9705 252.715C-11.3241 252.874 -11.5192 253.386 -11.795 253.685C-11.4237 253.958 -11.0406 254.519 -10.6811 254.504C-7.01116 254.425 -3.41297 254.35 0.251088 254.128C0.610599 254.113 1.23998 253.655 1.30009 253.364C1.3602 253.074 0.908169 252.588 0.605818 252.24C-2.49255 248.694 -3.21751 248.58 -7.36538 251.055C-8.49222 251.677 -9.77179 252.09 -10.9705 252.715Z" fill="#333333"/>
<path fill-rule="evenodd" clip-rule="evenodd" d="M15.7935 267.824C17.0305 268.134 18.2765 268.659 19.2212 267.108C18.8381 266.547 18.2847 265.346 18.072 265.426C16.9363 265.833 15.8812 266.452 14.8233 267C15.1227 267.276 15.431 267.767 15.7935 267.824Z" fill="#333333"/>
<path fill-rule="evenodd" clip-rule="evenodd" d="M186.11 30.2931C186.078 29.5022 185.396 28.6659 185.004 27.8897C184.677 28.6953 183.99 29.5158 184.022 30.3067C184.031 30.5224 184.184 30.7322 184.268 31.0168C183.533 32.4154 182.815 34.2454 183.624 34.6444C184.026 33.9077 184.517 33.5995 185.107 33.9354C185.497 32.9111 185.747 31.9645 185.789 31.2425C185.924 31.0209 186.053 30.6556 186.11 30.2931Z" fill="#333333"/>
<path fill-rule="evenodd" clip-rule="evenodd" d="M104.11 150.549C103.81 150.273 103.574 149.779 103.286 149.79C102.999 149.802 102.729 150.245 102.453 150.545C102.896 150.815 103.339 151.085 103.711 151.357C103.843 151.064 103.978 150.842 104.11 150.549Z" fill="#333333"/>
<path fill-rule="evenodd" clip-rule="evenodd" d="M115.779 104.912C116.839 104.437 117.029 103.781 116.289 103.307C116.067 103.172 115.711 103.259 115.351 103.273C115.219 103.567 114.875 103.941 114.952 104.082C115.111 104.436 115.638 104.99 115.779 104.912Z" fill="#333333"/>
<path fill-rule="evenodd" clip-rule="evenodd" d="M180.013 50.2075C180.303 50.2676 180.639 49.6777 180.918 49.4502C180.616 49.1024 180.316 48.8266 180.014 48.4789C179.666 48.7813 179.39 49.0807 179.042 49.383C179.414 49.6559 179.65 50.1503 180.013 50.2075Z" fill="#333333"/>
<path fill-rule="evenodd" clip-rule="evenodd" d="M185.465 40.907C185.746 37.2223 187.476 35.4948 187.106 33.4933C186.704 34.23 186.212 34.5383 185.622 34.2024C184.671 37.3384 183.158 40.8575 185.465 40.907Z" fill="#333333"/>
<path fill-rule="evenodd" clip-rule="evenodd" d="M197.263 63.3999C197.866 62.2948 198.573 61.9777 199.283 61.7325C199.58 56.6787 200.162 55.0704 200.081 51.3285C198.113 56.0187 198.573 56.72 196.75 59.6757C199.45 58.7728 195.75 63.3899 197.263 63.3999Z" fill="#333333"/>
<path fill-rule="evenodd" clip-rule="evenodd" d="M121.29 83.0065C122.604 79.9277 124.049 78.2839 125.482 76.3525C120.726 74.5309 130.373 69.1657 126.649 66.1495C126.165 68.402 125.221 73.4823 122.852 71.923C122.411 68.1958 128.187 63.2775 124.979 62.3287C123.064 68.3131 121.71 72.1859 118.053 76.0811C122.557 73.5196 119.057 79.4969 122.929 77.3215C122.362 79.2894 118.836 82.8911 121.29 83.0065Z" fill="#333333"/>
<path fill-rule="evenodd" clip-rule="evenodd" d="M120.35 188.271C122.043 190.938 124.619 187.015 124.885 184.7C123.058 187.584 122.173 185.315 120.35 188.271Z" fill="#333333"/>
<path fill-rule="evenodd" clip-rule="evenodd" d="M105.777 226.321C106.585 223.191 98.3205 230.66 97.618 232.85C100.281 232.812 102.626 233.797 105.671 232.519C105.319 230.949 103.687 229.792 105.396 227.561C106.822 227.214 115.092 219.889 112.963 218.896C110.023 220.961 108.256 223.554 105.777 226.321Z" fill="#333333"/>
<path fill-rule="evenodd" clip-rule="evenodd" d="M145.23 50.3371C145.227 50.2653 145.296 50.1905 145.293 50.1187C145.224 50.1935 145.227 50.2653 145.155 50.2683L145.23 50.3371Z" fill="#333333"/>
<path fill-rule="evenodd" clip-rule="evenodd" d="M-253.771 -588.781C-266.825 -587.453 -279.663 -586.134 -292.072 -584.905C-295.155 -584.563 -298.238 -584.22 -301.249 -583.881C-304.251 -583.325 -307.257 -582.842 -310.187 -582.29C-316.047 -581.185 -321.767 -580.158 -327.271 -579.14C-331.608 -576.01 -348.454 -575.823 -352.029 -569.915C-358.704 -569.353 -361.074 -569.183 -367.068 -566.057C-365.504 -570.082 -374.193 -564.18 -373.739 -567.152C-378.591 -564.288 -385.681 -565.077 -387.292 -562.202C-380.014 -563.869 -376.034 -566.913 -372.994 -564.805C-379.924 -563.441 -386.464 -559.571 -391.913 -560.716C-397.004 -558.419 -405.603 -552.088 -410.669 -552.673C-410.122 -549.886 -416.853 -550.691 -418.97 -547.867C-418.995 -546.714 -416.709 -547.167 -418.184 -546.243C-421.951 -543.279 -428.365 -543.376 -431.276 -540.592C-429.928 -541.08 -428.651 -541.564 -428.532 -540.417C-431.697 -538.558 -432.187 -539.979 -435.352 -538.12C-434.838 -536.125 -430.213 -539.267 -427.984 -539.359C-426.584 -542.081 -414.06 -547.564 -411.871 -546.862C-415.225 -544.347 -415.795 -542.451 -420.34 -542.625C-420.407 -540.75 -417.668 -542.447 -417.117 -541.317C-413.506 -542.833 -414.23 -544.676 -410.26 -546.208C-410.33 -544.404 -412.425 -542.806 -413.145 -541.048C-409.172 -542.507 -411.198 -544.513 -407.587 -546.029C-406.123 -545.441 -410.049 -542.831 -406.63 -543.764C-406.291 -544.282 -405.875 -544.659 -405.38 -544.895C-405.294 -544.539 -405.207 -544.182 -405.048 -543.828C-404.659 -543.124 -404.196 -542.351 -403.807 -541.647C-404.316 -541.77 -404.687 -542.043 -404.923 -542.537C-407.867 -540.544 -408.529 -540.877 -411.678 -540.388C-411.046 -539.045 -406.129 -540.327 -403.573 -541.224C-402.646 -539.678 -401.79 -538.128 -400.931 -536.507C-400.853 -536.366 -401.057 -536.07 -401.333 -535.77C-402.4 -535.438 -403.392 -535.038 -404.455 -534.634C-405.675 -534.512 -406.888 -534.246 -407.776 -533.057C-410.955 -531.558 -414.075 -530.35 -416.578 -531.688C-418.292 -527.8 -432.852 -522.81 -436.827 -523.151C-436.48 -521.725 -438.354 -519.991 -440.596 -518.459C-441.459 -518.424 -442.249 -518.391 -443.118 -518.5C-444.275 -518.596 -444.668 -517.644 -444.33 -516.433C-446.38 -515.485 -448.163 -515.052 -448.471 -515.543C-450.051 -513.678 -451.706 -511.881 -453.501 -510.007C-454.916 -509.373 -456.33 -508.739 -457.742 -508.033C-457.748 -508.177 -457.682 -508.323 -457.616 -508.47C-462.342 -506.043 -466.705 -503.56 -470.919 -500.938C-470.988 -500.863 -471.06 -500.86 -471.129 -500.786C-480.761 -495.061 -490.071 -488.485 -498.635 -481.292C-502.564 -478.754 -506.706 -476.135 -511.273 -473.355C-510.594 -472.591 -510.984 -471.566 -511.949 -470.518C-516.53 -469.826 -521.009 -464.889 -525.02 -460.835C-528.146 -459.771 -531.104 -458.137 -533.972 -456.075C-534.194 -456.21 -534.415 -456.345 -534.643 -456.624C-536.384 -455.184 -536.576 -454.6 -536.343 -454.177C-537.11 -453.57 -537.803 -452.893 -538.498 -452.288C-541.556 -449.57 -544.53 -446.567 -547.512 -443.78C-550.417 -440.852 -553.328 -438.068 -556.406 -435.853C-566.279 -428.966 -576.439 -422.067 -586.061 -414.326C-595.312 -406.312 -603.948 -397.387 -609.166 -385.866C-610.872 -383.563 -607.702 -383.549 -609.058 -381.477C-614.97 -374.608 -620.219 -365.606 -625.824 -356.518C-630.839 -347.093 -636.358 -337.648 -641.031 -328.669C-648.151 -316.133 -657.422 -305.094 -661.964 -291.151C-664.366 -282.986 -666.009 -275.644 -666.304 -268.79C-666.527 -261.939 -665.693 -255.635 -663.579 -249.744C-668.122 -237.601 -661.893 -220.931 -669.722 -209.879C-669.254 -207.233 -666.51 -207.058 -667.768 -202.613C-668.285 -199.422 -669.738 -199.723 -670.683 -198.172C-667.346 -197.588 -667.779 -199.371 -665.303 -196.952C-664.892 -206.26 -663.404 -210.354 -664.612 -218.731C-663.762 -220.855 -662.561 -221.408 -661.908 -224.82C-662.387 -243.526 -661.576 -265.887 -654.631 -289.723C-647.647 -312.625 -632.095 -332.061 -628.1 -348.79C-625.779 -351.91 -623.777 -348.751 -621.553 -350.715C-619.479 -359.875 -611.361 -363.881 -606.265 -373.093C-602.42 -379.444 -602.161 -387.161 -597.186 -394.064C-591.921 -400.906 -586.642 -405.66 -581.084 -410.641C-575.374 -415.413 -569.382 -420.34 -562.544 -427.462C-562.116 -427.552 -561.759 -427.639 -561.331 -427.728C-563.927 -424.309 -566.421 -421.902 -570.233 -416.488C-571.556 -417.154 -568.475 -419.297 -569.23 -420.13C-573.028 -416.157 -575.334 -412.677 -577.733 -409.698C-580.131 -406.719 -582.694 -404.237 -586.635 -401.987C-584.126 -400.505 -588.841 -396.062 -587.608 -394.096C-583.549 -398.728 -578.464 -404.699 -574.003 -404.809C-576.196 -400.326 -580.18 -400.883 -580.218 -398.289C-575.153 -401.233 -572.481 -404.584 -569.977 -408.504C-567.473 -412.423 -564.681 -416.355 -559.969 -420.87C-559.298 -420.321 -559.341 -419.599 -559.452 -418.802C-555.589 -421.194 -553.111 -425.761 -550.874 -429.165C-549.753 -429.932 -548.71 -430.839 -547.664 -431.674C-548 -431.084 -548.264 -430.497 -548.378 -429.772C-546.898 -430.553 -545.354 -431.552 -543.868 -432.19C-544.201 -431.528 -544.393 -430.944 -544.306 -430.587C-543.548 -431.411 -542.786 -432.162 -542.022 -432.841C-541.237 -433.018 -540.449 -433.122 -539.793 -432.933C-542.721 -427.051 -544.013 -421.668 -545.023 -416.441C-546.141 -415.603 -547.268 -414.981 -548.256 -414.508L-546.909 -413.267C-546.295 -414.084 -545.74 -414.611 -545.254 -415.063C-545.366 -414.266 -545.552 -413.539 -545.663 -412.742C-546.008 -412.368 -546.353 -411.993 -546.772 -411.688C-547.446 -412.309 -550.344 -410.965 -548.292 -410.113C-547.327 -411.161 -546.617 -411.406 -546.027 -411.07C-547.032 -409.229 -547.593 -407.117 -548.972 -405.62C-550.489 -403.973 -552.982 -403.295 -554.727 -401.927C-557.098 -400.029 -556.877 -394.636 -554.022 -393.529C-553.07 -393.136 -552.261 -392.737 -551.378 -392.269C-552.173 -390.58 -553.112 -388.885 -554.122 -387.187C-557.169 -387.71 -560.243 -387.152 -563.279 -385.659C-563.701 -385.426 -563.714 -383.985 -563.679 -383.122C-563.664 -382.762 -563.281 -382.202 -562.915 -382.073C-562.769 -382.007 -562.622 -381.941 -562.403 -381.878C-563.379 -379.317 -564.71 -376.669 -567.704 -375.898C-566.883 -375.212 -566.078 -374.885 -565.083 -375.214C-563.868 -377.208 -562.866 -379.122 -560.729 -381.442C-560.513 -381.451 -560.298 -381.46 -560.229 -381.535C-559.194 -382.657 -557.993 -383.211 -556.788 -383.692C-561.468 -378.387 -565.372 -373.473 -568.269 -368.601C-568.944 -367.493 -569.475 -366.391 -570.08 -365.358C-570.23 -365.496 -570.38 -365.633 -570.53 -365.771C-570.877 -365.469 -571.225 -365.167 -571.573 -364.864C-571.273 -364.589 -571.046 -364.31 -570.749 -364.106C-572.552 -360.647 -573.929 -357.349 -575.094 -354.133C-576.197 -352.935 -577.303 -351.809 -578.275 -350.905C-579.09 -349.719 -579.756 -348.396 -580.494 -347.069C-597.044 -327.376 -612.777 -301.811 -623.955 -274.056C-636.467 -243.725 -643.496 -211.387 -645.275 -184.521C-647.9 -178.291 -649.821 -172.451 -650.856 -166.07C-651.963 -159.687 -652.692 -152.887 -652.362 -144.834C-659.429 -136.261 -659.769 -119.97 -658.329 -104.184C-657.952 -100.238 -657.574 -96.2927 -657.202 -92.4907C-656.758 -88.6917 -656.245 -84.9675 -655.96 -81.5221C-655.458 -74.5564 -655.426 -68.5078 -656.753 -63.9879C-647.024 -56.8245 -648.281 -31.2769 -651.079 -22.2313C-647.656 -21.2913 -645.992 -17.6143 -645.237 -13.2518C-644.41 -8.89236 -644.273 -3.78435 -644.395 0.253938C-645.678 0.59463 -648.736 -5.47392 -647.032 0.938269C-646.546 4.01533 -645.12 3.66871 -644.126 5.06843C-645.434 8.29108 -645.919 12.2723 -648.284 14.3139C-647.254 20.1055 -644.867 20.3677 -643.837 26.1593C-646.038 25.1693 -648.363 24.6884 -650.011 21.371C-653.577 13.4506 -651.134 11.5498 -651.182 6.8703C-653.385 7.60881 -653.264 10.5568 -655.097 6.23858C-650.053 2.79069 -658.878 -3.40148 -654.839 -8.5367C-654.002 -5.69009 -653.048 -3.49652 -651.577 -2.76458C-653.904 -8.57503 -656.213 -15.6827 -658.15 -20.7889C-657.795 -19.1469 -657.839 -16.6964 -658.727 -19.0367C-658.635 9.55268 -652.364 36.016 -642.563 60.7501C-632.687 85.5532 -619.349 108.702 -603.633 131.897C-603.912 135.654 -601.174 140.943 -598.873 146.106C-587.716 158.253 -580.778 167.619 -570.44 165.035C-582.216 150.105 -592.97 139.022 -607.899 112.193C-609.036 105.542 -608.271 99.6047 -604.242 95.9824C-590.192 115.429 -581.602 140.5 -565.15 157.039C-562.749 159.39 -560.94 159.603 -558.898 161.969C-546.424 176.366 -541.609 184.883 -533.344 194.987C-517.198 214.636 -495.216 230.804 -475.487 246.488C-471.097 249.909 -468.947 256.663 -461.883 256.806C-466.976 252.045 -472.362 247.152 -477.713 243.122C-482.998 238.945 -487.978 235.188 -492.395 232.849C-497.155 227.426 -503.648 220.13 -510.846 213.223C-517.629 205.867 -525.123 198.756 -530.712 192.431C-532.951 188.777 -535.252 185.343 -537.548 182.052C-539.775 178.686 -541.993 175.536 -544.279 172.461C-548.994 166.388 -553.559 160.453 -558.345 154.383C-567.918 142.244 -577.75 129.035 -586.567 110.743C-583.428 106.508 -586.604 102.821 -589.374 96.7411C-584.424 94.5214 -584.788 89.1347 -587.585 82.4071C-590.663 79.3644 -589.727 86.3842 -592.307 83.177C-592.781 78.659 -592.957 74.3448 -589.667 72.0492C-588.009 75.5824 -585.624 79.3018 -585.889 81.6174C-582.634 78.4589 -587.053 70.7897 -582.249 68.504C-578.614 74.6209 -574.492 80.2857 -570.451 85.7378C-566.129 91.0343 -561.884 96.1899 -557.573 101.199C-548.808 111.211 -540.411 121.022 -533.166 132.608C-532.914 136.991 -534.633 140.735 -533.504 145.442C-528.683 145.317 -533.315 135.999 -530.862 132.586C-527.167 134.883 -523.487 138.549 -519.678 141.85C-518.487 142.81 -517.295 143.769 -516.175 144.732C-516.094 144.944 -516.014 145.157 -515.93 145.442C-514.669 149.855 -512.947 154.97 -508.19 156.792C-507.385 157.119 -506.648 157.521 -505.914 157.851C-503.187 161.124 -500.472 164.11 -497.768 166.808C-497.691 166.949 -497.613 167.09 -497.532 167.302C-497.089 167.572 -496.786 167.92 -496.415 168.193C-495.891 168.676 -495.361 169.302 -494.765 169.782C-491.814 173.262 -491.481 177.858 -491.362 182.534C-491.294 184.188 -490.324 185.013 -488.796 185.382C-487.921 185.634 -486.969 186.027 -486.298 186.576C-484.657 187.949 -481.8 189.128 -484.636 191.982C-483.958 194.475 -481.963 195.689 -479.843 196.467C-475.895 197.889 -473.074 199.934 -473.17 204.62C-473.207 205.485 -472.8 206.621 -472.201 207.173C-468.617 210.267 -466.266 214.924 -461.314 216.233C-458.112 217.038 -458.653 219.653 -458.208 221.724C-457.403 222.051 -456.312 222.294 -456.076 222.789C-453.627 229.818 -448.879 234.953 -443.496 239.774C-440.654 242.323 -437.894 244.658 -436.227 248.407C-433.933 253.427 -431.816 259.39 -424.02 258.062C-423.019 257.877 -421.654 259.549 -420.534 260.512C-418.738 262.166 -417.085 263.827 -415.427 265.632C-414.597 266.534 -412.692 267.32 -414.428 268.904C-415.609 269.961 -416.222 272.579 -418.749 270.666C-419.492 270.12 -420.444 269.727 -421.379 269.765C-422.242 269.801 -423.081 270.411 -423.86 270.731C-423.555 271.151 -423.324 271.501 -423.019 271.921C-420.517 274.987 -416.986 276.787 -413.4 276.424C-411.536 276.204 -410.19 275.644 -408.693 277.023C-406.295 279.302 -403.546 281.35 -403.462 285.164C-403.345 289.768 -400.895 286.283 -399.299 286.577C-396.249 287.172 -392.224 288.736 -390.827 291.199C-389.354 293.732 -387.483 295.456 -385.414 296.739C-388.17 296.276 -390.928 295.741 -393.633 294.772C-410.125 289.542 -428.181 276.022 -444.526 270.858C-447.19 263.837 -449.402 269.618 -455.619 262.022C-457.666 263.043 -461.574 264.355 -460.329 266.609C-460.575 267.627 -459.593 268.739 -458.611 269.852C-449.41 272.931 -443.934 278.253 -435.287 280.131C-417.187 296.458 -396.081 305.315 -373.431 311.445C-373.333 312.089 -373.237 312.661 -373.279 313.383C-372.348 313.273 -371.649 312.74 -371.244 312.075C-370.735 312.199 -370.298 312.325 -369.789 312.448C-367.605 313.006 -365.424 313.493 -363.244 313.98C-362.403 315.17 -361.634 316.363 -360.93 317.702C-359.752 320.103 -357.527 321.668 -354.144 321.601C-344.504 321.35 -344.423 321.563 -339.033 330.057C-338.572 330.758 -338.324 331.54 -338.076 332.322C-336.341 332.467 -335.296 333.36 -335.013 335.005C-332.721 334.695 -330.711 331.012 -328.038 334.719C-326.664 336.608 -324.724 338.257 -322.661 339.396C-321.777 339.864 -320.966 340.335 -320.151 340.878C-320.511 340.893 -320.795 340.976 -321.08 341.06C-320.499 341.18 -319.771 341.366 -319.115 341.556C-318.148 342.308 -317.247 343.208 -316.472 344.544C-314.922 347.218 -312.367 344.52 -310.47 343.362C-304.895 347.599 -297.099 342.741 -291.707 347.778C-287.894 347.694 -283.894 346.881 -280.26 347.669C-276.117 348.579 -272.368 350.442 -267.865 349.609C-264.578 348.97 -262.491 350.685 -261.426 353.811C-261.259 354.38 -259.432 355.025 -259.012 354.72C-256.003 352.58 -253.074 353.756 -250.093 354.426C-245.714 350.573 -240.214 351.212 -235.028 351.215C-229.914 351.222 -224.515 349.416 -219.754 353.11C-218.861 353.793 -216.881 352.92 -216.367 351.386C-215.722 349.559 -215.367 347.672 -212.845 347.713C-210.9 347.705 -209.034 347.557 -207.098 347.333C-199.21 346.506 -190.948 347.751 -183.489 343.484C-182.575 342.942 -180.745 343.66 -179.433 344.038C-178.265 344.422 -177.409 345.972 -175.886 344.469C-173.605 342.142 -170.561 342.594 -167.748 342.694C-161.691 342.878 -158.961 342.694 -156.573 341.228C-152.988 339.064 -149.027 337.317 -146.367 333.679C-145.344 332.269 -143.543 330.538 -141.964 330.401C-137.587 330.006 -133.595 328.978 -129.942 326.739C-122.429 327.296 -116.393 323.447 -110.27 319.955C-109.497 319.491 -108.088 318.713 -108.172 318.428C-109.837 312.951 -104.12 311.852 -102.461 308.399C-100.802 304.946 -99.293 301.355 -97.7838 297.764C-96.2285 297.052 -94.6011 296.337 -92.9739 295.622C-92.4617 295.817 -92.0363 295.655 -91.7723 295.068C-90.214 294.428 -88.512 293.782 -86.8818 293.139C-84.7141 295.067 -82.7166 296.354 -79.1381 294.046C-75.3497 291.586 -70.5648 290.598 -66.1541 289.264C-64.6589 288.843 -63.3822 288.358 -63.0069 286.975C-62.4423 284.935 -62.061 283.695 -59.4164 284.955C-57.3619 285.879 -54.2908 285.249 -52.653 286.55C-48.7035 289.773 -46.8013 285.23 -43.8681 284.749C-42.364 284.544 -42.608 282.105 -43.4402 281.131C-45.6345 278.556 -48.3114 276.505 -50.5027 274.002C-52.6192 271.568 -53.9981 273.065 -56.2666 273.95C-60.7316 275.718 -65.5875 274.981 -70.3595 274.528C-70.722 274.471 -71.0302 273.979 -71.4015 273.707C-71.0567 273.332 -70.7208 272.742 -70.3613 272.728C-66.5594 272.356 -65.2746 268.558 -62.4575 267.002C-61.1208 266.227 -58.7475 269.658 -58.0715 266.822C-57.0262 262.458 -54.1489 260.611 -50.466 259.092C-46.1478 257.258 -41.8267 255.496 -37.6641 253.381C-33.0759 251.104 -28.5745 248.471 -24.0671 245.981C-22.8684 245.356 -21.4746 244.218 -20.3183 244.315C-15.4024 244.761 -11.9015 242.313 -9.38263 238.753C-6.72882 234.971 -3.20572 234.826 0.751887 234.736C3.1276 234.711 5.65886 234.967 7.37383 232.88C10.7349 228.781 15.8559 227.202 19.9831 224.224C21.8025 222.925 19.0584 222.75 18.1031 222.285C17.3693 221.955 16.7674 221.331 16.0996 220.854C16.4473 220.552 16.8552 219.959 17.2147 219.944C22.829 219.858 28.3006 218.049 33.9609 220.842C37.8572 222.771 42.0463 221.303 45.9726 218.693C52.4914 214.32 53.4774 213.776 55.372 207.288C56.9484 201.822 57.9168 200.846 62.8722 200.498C67.1804 200.178 71.5871 200.501 74.4359 196.207C74.9098 195.467 75.8779 194.491 76.6688 194.459C83.3587 194.256 86.5317 189.085 90.3213 184.896C93.1454 181.755 96.9278 179.151 97.7457 174.508C102.046 172.243 104.913 168.381 108.534 165.351C112.574 162.016 112.6 155.605 118.29 153.859C119.216 153.605 118.881 152.467 117.638 152.014C116.76 151.69 115.757 151.803 114.876 151.407C114.583 151.275 114.286 151.071 113.993 150.939C115.699 148.636 117.393 146.046 119.019 143.53C117.364 145.327 114.354 147.467 111.78 149.661C111.561 149.598 111.411 149.46 111.196 149.469C108.877 149.132 108.229 150.887 107.736 152.924C107.427 154.161 106.341 155.79 105.28 156.266C104.501 156.586 103.872 157.044 103.167 157.433C103.159 157.217 103.219 156.926 103.279 156.636C102.652 157.166 102.382 157.609 102.113 158.052C98.402 160.653 95.7482 164.435 92.1125 167.105C89.4539 169.015 86.8485 172.218 84.0443 172.333C80.596 172.547 77.0414 170.172 73.5341 168.947C72.2192 168.497 70.9072 168.119 69.5894 167.596C69.1521 167.47 68.7749 167.054 68.4726 166.706C67.3291 165.168 67.9515 166.295 69.5186 165.871C73.0813 164.932 73.8644 162.956 73.6598 159.723C73.4611 156.634 75.0065 157.435 77.0522 158.143C80.3379 159.233 78.6116 155.775 79.574 154.655C80.4645 153.538 81.3904 153.284 81.5902 154.644C82.0665 159.234 84.4582 157.84 86.9305 156.658C89.2568 158.939 92.0639 158.896 94.9105 158.059C95.339 157.97 95.8995 157.587 96.0286 157.221C96.1606 156.928 95.7054 156.37 95.406 156.094C94.3582 155.129 93.3615 153.657 92.1273 153.42C86.6068 152.278 84.3861 149.056 84.159 143.519C85.152 141.39 85.6418 139.281 85.0706 137.648C86.3884 138.17 87.6224 138.408 88.9709 137.92C88.7699 138.289 88.635 138.51 88.566 138.585C88.9137 138.283 89.1867 137.912 89.5344 137.609C90.1697 137.295 90.7273 136.84 91.342 136.023C91.9567 135.205 93.4065 135.434 94.7214 135.884C94.2476 136.624 93.7019 137.366 93.2339 138.25C90.8169 137.268 85.9813 142.292 88.8692 142.462C89.2439 137.549 91.5353 142.497 92.5006 141.449C93.2957 139.76 95.0373 138.32 96.7011 136.739C99.705 137.984 102.7 139.014 105.761 139.897C110.644 141.281 115.243 141.02 118.355 136.139C121.264 131.554 125.531 130.227 130.672 130.881C132.047 131.04 133.545 130.691 134.992 130.847C135.642 130.893 136.214 130.797 136.789 130.774C136.675 131.499 136.564 132.295 136.311 133.17C137.139 132.272 137.751 131.382 138.29 130.496C138.719 130.406 139.144 130.245 139.498 130.086C136.927 135.882 132.492 141.897 127.701 148C123.863 152.767 119.884 157.611 116.181 162.157C112.329 166.564 108.605 170.606 106.029 174.529C107.264 173.038 104.555 178.983 101.744 180.682C106.705 180.479 115.21 171.847 121.988 170.273C125.01 166.692 127.585 164.498 130.156 163.96C131.244 162.403 131.982 161.076 132.154 159.989C137.257 161.508 150.328 139.509 151.868 143.696C153.293 139.82 153.655 136.348 156.607 131.041C155.553 129.932 154.491 132.136 153.416 130.524C155.033 127.793 155.948 125.523 155.533 124.171C152.024 129.933 154.275 132.145 151.746 137.219C150.375 135.402 147.875 137.665 147.754 139.975C148.651 142.531 150.153 136.996 151.134 138.108C150.187 139.587 151.987 139.585 150.338 141.526C148.75 137.918 145.474 149.36 141.555 150.385C140.659 149.629 140.262 148.709 140.706 147.25C145.854 141.061 141.976 143.093 142.841 139.6C144.446 136.582 145.874 138.036 147.445 135.954C145.274 133.955 148.091 128.87 150.751 125.232C152.273 120.2 152.42 115.008 152.798 110.167C153.001 109.87 153.208 109.646 153.412 109.349C155.745 106.517 157.553 103.202 159.512 100.024C159.986 99.2847 159.513 98.2957 158.288 98.2739C155.478 98.2451 152.192 97.1555 150.046 99.2602C147.138 102.116 142.981 104.375 143.631 109.678C143.75 110.826 142.958 112.587 141.98 113.347C140.584 114.413 139.112 115.41 137.715 116.475C137.563 116.265 137.404 115.912 137.315 115.483C136.988 116.289 136.651 116.879 136.316 117.469C134.077 119.073 131.763 120.609 129.452 122.216C125.51 120.937 121.503 119.805 117.624 118.307C116.231 117.716 114.994 117.407 113.646 117.894C113.292 118.053 112.743 118.724 112.743 118.724C117.201 123.799 111.125 124.912 109.356 127.433C108.066 129.359 105.768 129.525 103.605 129.47C102.4 126.422 108.318 124.955 106.735 121.491C107.011 121.191 107.356 120.817 107.628 120.446C110.353 118.39 113.666 114.869 116.17 110.949C118.884 106.876 121.247 103.034 122.755 101.172C122.12 101.486 121.171 99.4359 121.43 98.7051C124.37 96.6399 125.314 86.3019 126.231 91.0899C128.261 87.9096 127.196 86.5129 126.834 84.7271C124.199 92.4696 119.483 98.6409 119.062 104.204C115.649 105.28 113.69 110.186 111.536 113.876C110.658 115.28 109.917 116.535 109.092 117.505C108.997 116.933 108.608 116.228 108.369 115.662C108.288 115.449 107.563 115.335 107.353 115.488C106.508 115.954 105.893 116.772 105.042 117.095C103.766 117.579 102.202 118.076 101.274 116.529C100.577 115.333 100.233 113.979 101.184 112.572C101.93 111.461 102.458 110.287 103.058 109.11C104.491 108.907 106.153 109.055 107.13 108.294C108.038 107.609 108.402 105.938 108.565 104.634C108.773 102.681 108.477 100.749 108.976 98.8557C109.374 99.7757 109.271 100.788 110.471 98.4343C110.436 97.5715 110.538 96.559 110.785 95.5405C110.985 95.1722 111.043 94.8097 111.1 94.4472C112.748 88.9779 117.303 82.3811 117.854 78.2532C116.303 80.8376 114.894 83.3442 113.409 85.7818C113.422 84.3408 113.363 82.9028 113.229 81.3958C113.215 81.0363 112.694 80.6255 112.328 80.4964C112.181 80.4304 111.618 80.7417 111.483 80.9633C110.2 83.0325 110.357 85.1147 111.734 87.0749C111.886 87.2847 112.177 87.3448 112.47 87.4768C111.664 88.8784 110.782 90.2109 109.972 91.5406C108.984 90.2847 107.856 89.1066 108.078 87.5129C108.298 85.8474 108.156 84.1247 107.941 82.4049C109.389 80.8331 110.759 79.1203 111.545 77.2155C109.943 76.777 112.845 73.7771 110.679 73.6499C110.167 73.4548 109.669 73.6192 109.178 73.9275C110.57 70.9895 110.239 68.1942 110.047 65.2491C109.848 62.1603 110.271 60.1983 113.891 58.8975C115.737 58.2456 117.119 56.8205 117.833 54.9186C118.924 55.162 120.174 54.0303 121.412 52.6111C121.395 55.7088 124.39 56.7384 123.324 60.5993C124.122 58.9821 124.938 57.7962 125.935 57.5392C126.92 58.7232 125.735 61.4367 127.209 62.2406C127.927 58.682 130.14 54.7019 133.232 51.046C130.162 49.9475 133.547 44.6951 134.495 43.2158C135.644 44.8972 134.891 47.593 133.041 49.9015C136.325 49.1907 132.334 53.7477 134.782 53.7194C137.019 50.3146 134.432 38.1767 140.791 35.1791C137.158 43.1786 139.278 45.6845 138.558 50.9717C141.328 53.523 143.449 52.5716 145.302 50.3349L143.694 49.7527C144.258 47.7129 145.112 47.4618 145.784 46.2819C146.032 47.064 146.349 47.7712 146.952 46.6661C148.279 47.404 145.708 47.9416 145.437 50.1134C147.698 47.2838 149.597 42.6684 152.008 39.9767C153.823 31.5476 160.993 20.2341 160.923 13.2507C159.309 16.0538 158.295 22.9375 154.766 22.9382C152.488 20.0787 157.936 17.6946 155.631 15.9165C153.561 19.8906 154.371 22.0901 151.528 22.999C151.909 21.759 150.758 21.8062 150.933 20.7907C152.802 17.1849 155.812 13.3162 157.366 14.3329C155.413 14.1249 159.719 12.0037 157.674 11.2953C156.717 12.5589 155.333 12.1835 154.12 12.4493C152.871 17.11 151.041 19.9219 148.6 20.0941C147.849 14.075 150.703 9.9246 150.949 5.37709C152.639 4.4435 154.177 3.3001 155.487 1.87794C156.659 0.605473 156.318 -0.676972 155.759 -2.02247C155.28 -3.15521 153.456 -3.7286 154.464 -5.49849C155.805 -7.93023 156.622 -10.8446 158.411 -12.8627C162.69 -17.4315 165.5 -22.6604 167.49 -28.5759C167.487 -28.6478 167.559 -28.6507 167.631 -28.6537C167.853 -28.5187 168.077 -28.3119 168.368 -28.2518C167.729 -22.7518 169.254 -18.9252 166.602 -13.3427C167.097 -13.579 167.295 -14.0193 167.64 -14.3935C167.062 -10.9127 166.56 -7.36297 166.06 -3.74133C169.899 -1.44999 165.82 -7.83678 168.924 -7.67599C169.593 -5.39872 168.249 2.21883 165.666 2.46879C166.387 0.710696 167.104 -1.11928 167.539 -2.79368C166.194 -2.23433 165.425 0.101959 164.645 2.15059L164.573 2.15353C164.576 2.22544 164.51 2.37217 164.513 2.44407C163.988 3.69 163.46 4.86402 162.618 5.40273C163.007 6.10699 162.485 10.9539 163.547 8.74968C163.544 8.67778 163.607 8.45912 163.676 8.38427C162.389 15.6393 160.219 22.4265 158.612 28.9024C156.213 37.1394 154.374 44.9933 154.704 53.0464C151.39 54.7668 150.225 57.9836 150.073 61.3029C147.908 69.9624 143.002 76.7897 138.799 81.4275C142.147 84.0271 133.612 88.4104 133.633 92.4428C132.695 92.4093 132.147 93.08 132.016 91.6449C131.791 100.225 122.468 101.183 119.816 110.295C122.263 106.738 120.883 115.221 124.413 108.234C123.833 106.385 121.147 109.376 122.275 107.025C125.383 109.058 128.741 101.358 133.011 100.103C132.67 93.5627 138.359 90.0163 142.102 82.9486C143.462 82.7488 147.633 82.5777 146.931 79.5096C145.58 83.4542 145.281 77.9207 144.536 77.303C146.108 73.4934 148.501 70.3703 150.603 67.187C151.123 69.3264 151.844 71.0974 152.532 72.0776C152.856 71.2 153.111 70.3972 153.435 69.5196C154.086 69.565 154.439 69.4065 155.28 70.5964C157.847 66.4578 156.224 65.516 156.417 63.2034C159.63 66.0246 162.47 52.7279 165.818 50.0698C164.512 49.8353 164.393 48.6878 165.095 46.4983C165.772 47.1908 165.664 48.0595 166.847 47.0747C172.615 27.8961 176.932 10.2175 181.398 -7.32326C180.704 -13.7048 182.363 -31.2025 188.342 -29.431C194.165 -50.7725 194.605 -73.4058 195.648 -97.1442C192.517 -105.01 193.554 -114.848 193.903 -122.137C193.804 -121.052 192.305 -124.232 192.941 -126.275C195.079 -133.853 198.04 -121.37 198.009 -115.103C197.713 -120.564 202.029 -115.412 203.512 -114.392C205.152 -102.504 205.046 -92.7761 206.555 -82.3226C206.311 -79.5037 204.741 -79.1512 204.658 -75.9067C207.006 -71.3216 202.74 -66.4651 202.82 -60.9947C202.806 -57.8251 205.285 -55.334 204.981 -52.2245C204.694 -48.6836 201.861 -45.7585 201.55 -42.7928C201.336 -40.9835 202.116 -37.7744 202.034 -36.2585C202.028 -36.4023 200.918 -37.149 200.978 -37.4396C200.604 -34.2552 202.119 -32.4448 201.943 -29.7007C201.892 -29.1945 200.022 -29.1177 199.959 -28.8991C198.237 -25.2273 200.466 -20.0611 199.846 -15.8583C197.51 -13.0977 197.808 -19.8801 196.628 -15.2942C198.599 -14.6548 197.341 -10.2098 198.352 -8.37868C194.417 -5.98459 196.178 3.59426 193.145 1.63001C192.864 5.31471 192.714 10.4345 191.764 15.371C190.811 20.2357 189.711 25.0343 188.619 28.2481C189.075 27.077 189.88 27.4041 190.683 27.6593C188.266 35.4648 187.507 38.0168 187.333 42.5614C186.749 42.3692 186.929 41.4975 186.483 41.1557C184.709 47.0624 183.423 52.5888 181.529 57.348C179.636 62.1072 177.791 66.2881 175.985 69.6753C176.326 70.9577 177.017 72.0097 177.01 73.5945C174.498 75.5701 174.821 76.4211 175.425 78.8452C173.545 80.4347 171.599 78.6419 171.447 81.9612C174.502 79.1711 171.642 86.7068 171.086 88.9623C169.987 88.5032 169.17 91.4176 167.961 90.0267C166.58 89.7232 168.622 86.8306 167.592 86.2967C164.909 92.8888 166.595 93.6118 169.042 95.3121C170.975 93.2882 172.755 89.2539 174.676 86.9424C172.312 83.7263 178.813 73.6646 181.112 71.7697C180.59 73.0875 181.741 73.0404 181.356 74.2085C180.632 74.0942 179.811 73.4076 179.211 74.5846C180.231 81.8891 175.563 87.4823 171.705 95.2749C174.962 93.9169 172.536 97.9777 174.669 99.0426C178.155 90.9771 181.492 82.7737 184.723 75.5109C182.244 78.2774 184.285 71.8557 184.16 70.5644C185.821 68.9118 189.857 63.7047 189.714 61.982C189.114 63.1589 188.377 62.757 187.572 62.4299C192.119 59.1465 192.914 52.1997 195.701 46.3955C193.234 52.9788 195.647 50.359 194.703 55.4393C196.971 51.0249 198.602 48.6533 197.5 44.5932L199.249 45.0977C199.896 39.8134 202.303 33.5208 204.839 26.8627C206.069 23.4991 207.444 20.1297 208.456 16.7031C209.321 13.2106 209.898 9.72977 210.119 6.33564C210.838 6.30615 211.796 6.84305 212.178 5.60302C212.338 -6.28736 219.955 -22.5169 218.264 -28.6415C220.706 -28.8136 220.651 -23.1215 218.735 -20.6662C223.052 -20.7712 221.112 -27.6779 220.922 -30.551C220.928 -30.4072 222.145 -30.6012 222.154 -30.3855C222.04 -34.9183 219.498 -37.1908 219.735 -41.954C219.99 -48.0145 223.388 -49.4502 223.133 -57.4343C220.052 -55.2913 223.732 -65.6695 222.382 -68.7111C221.692 -62.7049 221.263 -66.1444 221.569 -70.9825C221.731 -75.8147 221.975 -82.1627 224.066 -82.1044C223.857 -78.4226 225.393 -77.8375 225.784 -75.3327C225.602 -81.5192 226.442 -78.6007 228.915 -79.7824C228.277 -84.7979 229.982 -85.372 230.2 -88.838C228.276 -88.327 228.462 -83.7972 227.092 -82.0845C227.102 -83.5974 226.848 -84.5232 226.522 -85.4462C227.278 -88.07 230.377 -89.7816 227.757 -92.195C228.842 -92.0954 229.69 -92.4903 230.23 -93.3768C230.892 -84.257 231.436 -78.0133 231.471 -71.8927C231.071 -65.8264 230.163 -59.8833 228.132 -51.4453C228.56 -46.2772 227.478 -41.0472 226.54 -35.8231C225.605 -30.527 224.957 -25.2428 225.4 -19.7152C224.247 -19.7399 224.253 -16.067 222.932 -16.6611C221.788 -2.42556 212.911 11.1907 214.203 23.3816C215.302 20.3116 215.691 15.7582 217.429 15.975C216.779 19.4588 213.83 35.3528 210.759 30.7252C210.293 33.4091 210.109 35.9375 208.674 39.5975C210.644 41.9655 210.532 33.9755 212.144 34.6297C210.909 39.6499 208.568 51.0535 204.282 53.678C201.451 63.6613 197.688 72.0263 194.469 79.5767C191.103 87.0611 187.626 93.6137 183.386 99.1172C185.986 101.027 181.216 100.647 180.439 102.767C179.838 105.673 183.62 103.069 182.693 105.052C182.159 106.082 182.534 106.427 182.21 107.304C180.649 111.401 178.945 110.247 177.383 112.544C178.256 114.525 175.135 119.19 173.134 123.089C168.614 121.762 167.305 130.242 164.945 134.157C160.452 142.263 153.52 150.614 147.451 158.93C141.157 167.038 135.655 175.114 131.061 180.777C139.521 172.795 140.063 168.452 147.874 162.225C150.643 155.99 155.072 149.83 159.786 143.587C164.278 137.209 168.611 130.477 172.013 123.855C173.274 124.74 174.506 123.177 175.806 123.268C175.943 124.847 174.611 127.494 174.679 129.148C178 125.843 180.372 113.429 187.155 108.47C185.658 107.091 188.35 104.243 189.553 101.961C187.255 96.8699 194.249 81.2422 197.47 75.4923C198.435 76.173 193.542 85.0884 195.947 82.2529C197.258 79.1021 198.564 75.8076 200.322 76.5277C199.898 78.4897 197.037 82.4963 198.214 83.0962C200.466 80.0509 202.325 72.7003 205.193 75.8958C207.464 71.5533 202.41 76.5141 204.234 71.8298C204.807 71.7343 205.286 71.1385 205.668 69.8985C208.892 69.4782 207.661 72.8417 208.379 74.5408C211.878 70.292 209.67 69.1581 208.853 68.5434C211.764 65.7592 209.863 72.1031 212.288 69.771C215.212 65.5458 216.875 60.4359 217.638 57.9559C217.113 59.2018 216.406 59.5189 215.77 59.8331C216.775 57.9913 215.558 54.6561 217.559 54.2859C217.253 55.5949 216.464 57.4279 217.057 57.8357C220.638 52.0711 222.436 41.4819 226.348 38.5126C226.442 35.5558 223.962 40.0509 224.33 36.7228C225.424 30.0517 228.147 31.4526 229.773 27.2085C229.091 26.3723 226.34 27.7815 227.177 25.3704C228.746 21.4888 228.733 14.143 231.455 15.5439C231.652 16.8322 230.09 24.3867 231.415 21.5954C231.716 14.8849 233.99 10.6144 231.982 7.31165C233.672 2.84894 234.995 8.77258 236.262 4.5433C236.266 2.88659 234.004 3.91567 234.35 1.81283C235.737 0.531518 240.799 -11.2718 237.198 -6.01045C238.729 -10.8268 238.834 -11.7674 240.28 -18.6689C239.402 -18.993 237.979 -18.5745 238.058 -20.1622C240.763 -29.7082 241.324 -38.8781 242.186 -47.7003C242.833 -56.5136 243.635 -65.0453 244.866 -73.6665C243.839 -74.1285 243.278 -72.0168 243.063 -73.7366C244.092 -80.2608 245.024 -85.6288 242.612 -89.9953C243.475 -90.0307 243.93 -89.4731 244.46 -88.8466C243.4 -93.6287 244.734 -99.7333 245.707 -104.095C248.141 -100.953 246.085 -94.8912 250.026 -93.6124C249.69 -101.809 244.653 -105.204 245.636 -114.607C244.205 -116.133 243.387 -111.49 243.194 -114.435C243.913 -117.994 243.728 -118.994 242.333 -121.386C244.418 -121.471 244.277 -124.923 244.896 -127.397C241.789 -136.416 245.076 -145.842 240.497 -153.865C240.377 -158.542 240.237 -163.721 239.584 -169.096C238.716 -174.463 237.698 -179.967 236.47 -185.318C234.084 -196.096 231.221 -206.205 228.487 -213.152C229.797 -214.574 227.359 -219.587 229.878 -219.619C225.823 -225.43 228.369 -230.072 224.324 -233.868C224.671 -232.441 224.94 -231.156 223.855 -231.255C222.527 -233.794 222.587 -234.084 220.879 -238.84C221.727 -239.235 222.947 -239.357 221.915 -241.691C217.066 -244.013 217.947 -254.133 216.783 -259.703C215.563 -259.581 216.143 -257.732 215.822 -256.782C214.207 -261.037 210.368 -268.586 212.943 -270.781C214.703 -268.26 212.059 -265.991 214.614 -265.159C214.118 -266.724 215.334 -266.918 215.434 -268.002C207.367 -278.547 201.503 -295.088 198.59 -302.891C197.397 -305.651 194.863 -305.979 194.234 -307.249C192.661 -310.498 193.726 -314.359 189.772 -319.454C190.458 -318.546 189.063 -320.938 187.516 -323.539C186.969 -324.597 180.004 -334.611 180.635 -338.526C181.736 -339.795 185.843 -330.961 185.055 -334.386C182.819 -337.967 181.486 -338.849 180.467 -342.624C179.367 -341.355 178.029 -342.38 177.098 -343.999C176.027 -345.539 175.144 -347.736 175.166 -348.961C178.079 -346.416 180.785 -341.917 183.247 -341.586C179.039 -347.607 168.85 -357.201 174.014 -359.501C173.522 -359.193 172.232 -360.796 172.709 -361.464C176.655 -358.313 176.633 -360.617 180.199 -357.954C173.731 -362.875 170.595 -369.084 167.184 -374.994C163.704 -380.829 160.439 -386.673 152.975 -389.536C153.728 -390.503 154.857 -389.325 155.615 -390.149C153.334 -393.08 152.027 -391.586 149.406 -395.8C150.463 -396.347 149.616 -397.681 150.528 -398.295C148.42 -400.513 146.151 -403.157 144.318 -403.946C147.863 -400.058 148.328 -397.484 147.254 -395.568C142.948 -402.233 138.434 -403.416 136.108 -410.956C138.721 -406.957 139.771 -409.449 142.315 -405.376C142.672 -407.191 145.007 -408.223 141.992 -411.485C141.219 -411.021 140.553 -409.697 139.427 -410.804C141.902 -411.914 132.804 -424.793 128.004 -429.421C125.511 -428.743 128.862 -426.071 127.028 -425.132C126.535 -426.624 124.58 -428.633 122.481 -430.635C125.248 -429.884 124.581 -430.361 125.939 -432.362C123.649 -435.509 123.356 -432.112 121.315 -434.477C123.053 -435.988 117.783 -439.806 118.423 -441.776C113.289 -444.015 113.411 -446.324 114.972 -446.893C110.569 -448.873 109.708 -450.566 106.071 -451.425C105.474 -453.705 106.698 -451.955 107.726 -453.221C103.636 -456.367 104.22 -456.175 102.137 -459.546C100.376 -460.339 98.8661 -460.277 96.9672 -460.919C96.1508 -463.262 93.5121 -464.378 97.2381 -463.091C87.9183 -472.576 80.1035 -469.95 76.1493 -475.046C72.819 -471.956 69.6675 -476.797 67.1267 -480.798C65.0415 -480.712 68.1456 -477.022 65.6932 -478.867C63.9097 -481.962 61.8229 -483.677 57.6991 -485.885C57.9701 -488.057 60.3446 -486.354 61.3966 -487.045C58.6319 -487.724 56.2013 -490.793 55.2006 -490.608C56.4041 -489.361 57.0294 -488.162 57.0736 -487.084C54.7739 -488.718 53.6412 -488.239 50.8776 -490.647L51.8971 -492.129C41.7671 -495.027 31.8368 -505.351 26.7199 -505.429C23.2697 -507.016 25.4573 -508.114 23.7387 -509.628C23.2619 -508.961 23.5101 -508.179 23.8301 -507.399C20.8497 -508.069 10.8384 -518.606 15.7086 -512.252C10.98 -515.155 10.6434 -518.094 6.9558 -518.447C9.32154 -516.96 8.58072 -515.705 6.08593 -516.827C7.95831 -516.832 7.76149 -518.12 4.89243 -519.587C3.39424 -519.237 1.05222 -520.15 -1.13432 -520.78C2.39769 -520.709 -5.38606 -524.351 -7.12643 -524.64C-6.38387 -524.094 -5.06312 -523.5 -5.33009 -522.985C-7.52843 -523.903 -13.6537 -525.741 -14.6827 -528.003C-13.6909 -528.404 -10.6368 -525.936 -9.95608 -526.9C-13.025 -529.728 -14.9969 -528.638 -18.8065 -530.211C-18.8367 -534.459 -30.6387 -532.462 -29.8956 -537.174C-26.0269 -534.164 -21.8419 -533.976 -18.2892 -533.401C-14.8054 -532.752 -11.8222 -532.01 -10.3835 -528.54C-8.70691 -531.561 -6.10282 -527.779 -0.927059 -526.262C-1.24002 -528.626 1.35894 -526.716 2.2701 -527.33C-2.39242 -530.38 -1.01263 -528.348 -2.4595 -528.504C-3.15381 -529.628 -6.22384 -530.727 -4.82999 -531.864C-3.58115 -531.267 -1.88018 -530.185 -1.3975 -530.709C-6.01289 -532.608 -7.88992 -534.476 -8.03554 -536.27C-11.1657 -537.078 -13.4536 -538.425 -16.5502 -540.17C-19.7847 -541.766 -23.7529 -543.692 -30.0396 -545.955C-32.4843 -545.855 -29.2204 -543.54 -33.1562 -544.675C-46.5449 -553.273 -61.4159 -554.103 -72.5514 -558.688C-75.461 -557.633 -71.5233 -554.697 -77.0616 -556.271C-79.5799 -557.968 -78.468 -558.95 -77.1491 -560.156C-88.2809 -561.14 -93.9842 -566.74 -105.549 -569.507C-111.442 -565.664 -126.404 -573.982 -134.362 -571.35C-128.805 -571.074 -121.832 -569.632 -119.563 -566.988C-124.339 -565.784 -137.963 -567.818 -135.596 -571.588C-142.26 -570.739 -147.028 -576.377 -149.703 -573.098C-150.386 -577.464 -163.842 -578.928 -171.671 -578.391C-170.52 -578.438 -173.363 -579.258 -176.326 -579.497C-184.129 -580.113 -192.883 -581.05 -201.477 -581.634C-208.179 -581.72 -214.863 -581.373 -220.951 -580.548C-220.977 -581.195 -220.935 -581.917 -220.683 -582.791C-227.996 -581.987 -235.238 -581.186 -242.407 -580.388C-242.269 -580.538 -242.203 -580.684 -242.362 -581.038C-245.916 -579.884 -247.222 -580.119 -250.58 -579.477C-253.016 -579.161 -255.383 -578.92 -257.819 -578.604C-260.889 -579.702 -266.392 -580.413 -269.496 -580.573C-267.201 -580.812 -268.2 -582.355 -264.953 -582.2C-259.74 -581.55 -253.356 -582.172 -249.711 -584.626C-247.249 -584.295 -247.153 -583.722 -248.412 -582.807C-234.669 -584.883 -224.307 -583.363 -211.759 -586.47C-214.837 -584.255 -200.094 -584.788 -203.424 -586.956C-195.372 -585.558 -185.088 -584.179 -174.912 -583.66C-169.786 -583.366 -164.738 -583.213 -159.99 -583.336C-157.614 -583.361 -155.313 -583.455 -153.159 -583.616C-150.999 -583.632 -148.986 -583.715 -147.047 -583.866C-152.976 -584.416 -163.471 -587.442 -168.652 -585.573C-165.652 -587.929 -173.879 -586.583 -174.704 -585.613L-174.562 -587.42C-200.318 -590.253 -227.515 -589.569 -253.771 -588.781ZM-579.193 -403.156C-580.285 -405.2 -577.175 -406.624 -575.553 -407.483C-574.643 -406.368 -578.414 -403.476 -579.193 -403.156ZM181.649 70.8114C178.477 70.7254 182.872 65.5036 182.064 65.1046C184.33 62.4188 183.197 68.1551 181.649 70.8114ZM200.711 35.0985C197.486 33.7183 201.579 31.6778 202.415 27.4662C203.601 28.2819 201.048 32.78 200.711 35.0985ZM191.148 26.7039C189.546 26.2654 191.22 21.4432 192.47 20.3116C193.716 20.8367 191.359 24.8226 191.148 26.7039ZM218.979 -49.8456C218.578 -50.8374 218.585 -52.4222 218.796 -54.3035C219.668 -54.1232 220.536 -54.0147 220.774 -55.2489C222.035 -54.3643 220.623 -48.4005 218.979 -49.8456ZM224.293 -85.3548C222.597 -84.565 223.048 -87.6084 221.898 -87.5613C220.1 -78.7008 221.769 -69.6222 216.923 -66.6146C218.77 -74.2528 216.918 -77.2738 215.741 -83.1314C216.329 -84.596 217.381 -85.2874 217.577 -87.5281C219.014 -85.8585 218.48 -84.8283 218.164 -82.0064C220.504 -82.8947 221.75 -85.8987 221.906 -90.8747C224.174 -91.7599 224.568 -89.1833 224.293 -85.3548ZM-132.886 -547.643C-132.798 -549.015 -128.902 -547.087 -127.245 -547.082C-127.806 -546.699 -128.438 -546.313 -129.295 -546.134C-130.319 -546.524 -131.271 -546.917 -132.293 -547.236C-132.299 -547.379 -132.449 -547.517 -132.886 -547.643ZM-53.7519 -541.093C-49.5533 -538.817 -50.0832 -539.444 -45.1054 -537.487C-43.6655 -535.745 -45.5301 -533.796 -49.4382 -536.013C-44.8383 -538.002 -54.3324 -537.685 -53.7519 -541.093ZM184.26 -255.416C185.782 -255.19 187.006 -249.911 187.97 -247.501C184.624 -248.301 185.803 -251.158 184.26 -255.416ZM212.052 -199.441C212.88 -193.281 212.135 -190.37 212.203 -183.458C208.838 -186.489 210.007 -193.092 207.657 -199.477C209.17 -199.467 210.298 -198.289 212.052 -199.441ZM213.869 -165.665C215.989 -164.888 214.094 -161.929 213.836 -161.198C212.49 -160.639 212.846 -164.255 211.627 -164.133C211.108 -168.001 214.457 -161.872 213.869 -165.665ZM212.533 -178.935C214.063 -178.493 214.828 -175.644 216.359 -175.202C214.848 -173.412 218.114 -165.767 215.846 -164.882C216.715 -170.031 212.337 -173.165 212.533 -178.935ZM204.168 -170.381C205.176 -166.893 206.456 -163.777 207.486 -157.985C204.497 -155.342 203.14 -160.328 201.299 -166.59C199.601 -172.858 198.276 -180.583 197.29 -183.567C197.958 -188.348 200.206 -189.737 202.26 -183.555C201.751 -183.678 201.428 -184.529 200.858 -184.362C202.217 -177.575 203.161 -173.869 204.168 -170.381ZM214.596 -160.221C217.009 -152.326 217.844 -133.706 214.498 -138.034C216.494 -143.806 213.104 -150.941 214.596 -160.221ZM199.208 -189.48C197.724 -188.771 197.187 -191.341 196.532 -193.259C198.102 -193.612 199.913 -191.597 199.208 -189.48ZM180.396 -196.847C181.778 -189.485 182.804 -182.037 183.831 -176.317C184.941 -173.842 186.294 -177.714 185.627 -179.92C187.526 -179.278 186.311 -175.554 186.888 -173.778C185.821 -173.446 185.405 -174.797 184.273 -174.319C183.005 -173.618 185.057 -169.237 185.074 -167.077C180.779 -173.455 179.061 -180.227 177.802 -188.098C177.208 -192.035 176.603 -196.259 175.917 -200.696C175.015 -205.125 173.67 -209.823 172.019 -214.941C172.876 -215.12 173.733 -215.3 173.467 -216.513C174.943 -213.909 176.292 -210.867 177.509 -207.532C178.152 -205.902 178.729 -204.125 179.234 -202.345C179.598 -200.487 180.032 -198.704 180.396 -196.847ZM117.947 50.6645C117.857 50.2361 117.909 49.7298 118.107 49.2896C118.253 49.3556 118.394 49.2777 118.544 49.4157C118.312 50.7936 118.195 51.4466 117.994 51.815C117.977 51.3836 118.034 51.0211 117.947 50.6645ZM95.7962 109.407C96.0956 109.683 96.398 110.031 96.6973 110.307C96.5653 110.6 96.4334 110.894 96.3014 111.187C96.0797 111.052 95.8581 110.917 95.6366 110.782C95.415 110.647 95.1934 110.513 94.9718 110.378C95.2476 110.078 95.5233 109.779 95.7962 109.407ZM-583.534 -47.1123C-582.71 -46.3538 -582.229 -45.1492 -582.008 -43.2857C-581.997 -42.998 -581.985 -42.7104 -581.973 -42.4228C-582.228 -41.6201 -581.959 -40.3347 -581.762 -39.0463C-583.235 -41.5788 -583.635 -44.2993 -583.534 -47.1123ZM-363.217 -558.22C-360.589 -559.12 -359.412 -558.52 -358.304 -557.845C-361.504 -556.85 -364.875 -556.495 -368.069 -555.356C-368.719 -555.402 -369.297 -555.45 -369.735 -555.576C-363.059 -557.866 -363.525 -555.182 -363.217 -558.22ZM-357.599 -559.963C-355.528 -560.408 -354.033 -560.829 -352.679 -561.173C-352.745 -561.026 -352.814 -560.951 -352.805 -560.736C-353.362 -560.281 -353.923 -559.898 -354.486 -559.586C-356.332 -558.934 -357.968 -558.435 -357.599 -559.963ZM-205.22 -562.251C-206.808 -562.33 -207.73 -562.004 -208.285 -561.477C-210.954 -561.583 -213.486 -561.84 -215.379 -562.338C-214.677 -562.799 -213.901 -563.191 -213.125 -563.583C-214.209 -563.682 -215.774 -563.186 -217.206 -562.983C-217.352 -563.049 -217.571 -563.113 -217.718 -563.179C-218.002 -563.095 -218.359 -563.008 -218.716 -562.922C-219.222 -562.973 -219.662 -563.171 -219.967 -563.59C-217.816 -563.823 -217.95 -565.33 -214.254 -564.761C-209.7 -560.843 -212.256 -563.475 -205.22 -562.251ZM-582.31 -168.305C-582.137 -167.592 -582.338 -167.224 -582.616 -166.996C-582.778 -167.422 -582.87 -167.922 -583.035 -168.42C-582.675 -168.434 -582.313 -168.377 -582.31 -168.305ZM-478.135 -466.143C-478.202 -464.268 -478.641 -462.665 -480.936 -462.427C-481.007 -462.424 -481.007 -462.424 -481.079 -462.421C-480.195 -463.682 -479.238 -464.946 -478.135 -466.143ZM-240.333 -559.658C-242.124 -559.441 -243.988 -559.22 -245.852 -559C-245.998 -559.066 -246.145 -559.132 -246.289 -559.126C-247.673 -559.501 -248.873 -560.677 -250.071 -561.78C-248.201 -561.856 -246.26 -561.936 -244.394 -562.085C-240.229 -562.399 -236.214 -562.852 -232.43 -563.656C-232.32 -562.724 -232.488 -561.565 -230.122 -561.806C-229.944 -562.749 -230.575 -564.092 -229.068 -564.226C-225.671 -563.933 -222.909 -563.326 -220.708 -562.336C-226.195 -560.886 -233.082 -560.244 -240.333 -559.658ZM-256.53 -561.227C-256.243 -561.239 -255.883 -561.253 -255.598 -561.337C-255.952 -561.178 -256.24 -561.167 -256.53 -561.227ZM-450.879 -493.477C-452.261 -492.052 -454.286 -492.257 -455.723 -493.927C-455.801 -494.068 -455.878 -494.209 -455.887 -494.424C-453.525 -496.538 -450.798 -498.522 -447.708 -500.45C-447.098 -497.882 -447.974 -496.405 -450.879 -493.477ZM-459.137 -491.122C-459.627 -489.013 -460.937 -487.591 -462.992 -486.787C-461.829 -488.275 -460.591 -489.694 -459.137 -491.122ZM-207.276 -561.446C-205.918 -561.718 -204.405 -561.708 -202.884 -561.482C-204.322 -561.423 -205.832 -561.361 -207.276 -561.446ZM-313.601 -570.698C-314.475 -570.95 -315.428 -571.343 -316.311 -571.811C-314.373 -571.963 -312.707 -571.743 -312.028 -570.979C-312.528 -570.886 -313.1 -570.791 -313.601 -570.698ZM-324.83 -568.797C-325.19 -568.782 -325.693 -568.762 -325.984 -568.822C-325.498 -569.274 -324.722 -569.666 -323.73 -570.067C-324.003 -569.695 -324.345 -569.249 -324.83 -568.797ZM-337.047 -564.623C-333.678 -563.249 -329.812 -565.568 -330.287 -566.629C-328.771 -566.547 -328.25 -566.136 -328.158 -565.636C-328.784 -565.106 -329.411 -564.576 -330.04 -564.118C-330.466 -563.957 -330.894 -563.867 -331.323 -563.777C-332.018 -563.173 -332.639 -562.499 -333.187 -561.828C-333.82 -561.442 -334.38 -561.059 -334.734 -560.901C-335.936 -560.347 -337.648 -561.717 -337.494 -563.236C-337.437 -563.599 -337.383 -564.033 -337.254 -564.398C-337.188 -564.545 -337.116 -564.548 -337.047 -564.623ZM-369.556 -554.719C-369.624 -554.644 -369.768 -554.638 -369.909 -554.56C-370.404 -554.324 -370.763 -554.309 -371.197 -554.364C-370.628 -554.531 -370.056 -554.626 -369.556 -554.719ZM-582.31 -54.1488C-582.352 -53.4268 -582.473 -52.8457 -582.737 -52.2587C-582.616 -52.8398 -582.499 -53.4928 -582.31 -54.1488ZM186.519 -231.957C189.072 -232.926 187.226 -228.745 188.998 -225.937C187.159 -226.87 186.921 -229.165 186.519 -231.957ZM63.9002 -462.876C65.8663 -464.109 67.4094 -459.851 71.3953 -457.493C70.6339 -456.742 71.6906 -455.561 70.7824 -454.875C68.2198 -457.651 65.4415 -460.418 63.9002 -462.876ZM56.4083 -468.186C57.0318 -468.788 57.5803 -469.459 56.6073 -470.355C57.7016 -471.769 62.5611 -467.43 63.2042 -465.8C61.7267 -464.947 59.3846 -465.86 56.4083 -468.186ZM-138.502 -549.358C-138.367 -549.579 -138.304 -549.798 -138.169 -550.02C-136.486 -549.368 -136.33 -549.087 -136.531 -548.718C-137.259 -548.905 -137.846 -549.169 -138.502 -549.358ZM-184.774 -560.712C-185.706 -560.602 -186.566 -560.495 -187.351 -560.319C-187.725 -560.663 -188.027 -561.011 -188.186 -561.365C-187.105 -561.337 -185.942 -561.097 -184.774 -560.712ZM-192.2 -562.64C-193.629 -562.366 -195.489 -562.074 -197.497 -561.847C-199.165 -562.139 -200.693 -562.508 -202.888 -563.355C-197.771 -563.276 -196.097 -562.841 -192.367 -563.21C-192.289 -563.069 -192.208 -562.856 -192.2 -562.64ZM-292.595 -573.072C-295.423 -573.532 -298.236 -573.633 -301.667 -572.988C-300.439 -576.424 -292.327 -575.316 -289.38 -573.708C-290.453 -573.52 -291.523 -573.26 -292.595 -573.072ZM-309.742 -571.433C-308.492 -572.564 -306.002 -573.315 -303.074 -573.939C-301.62 -571.838 -307.846 -570.862 -309.742 -571.433ZM-366.406 -560.466L-365.662 -558.12C-367.568 -557.177 -370.859 -558.411 -371.28 -556.377C-375.217 -555.783 -370.407 -557.925 -370.718 -558.489C-372.24 -558.714 -373.071 -557.888 -374.18 -556.834C-374.557 -557.251 -374.931 -557.595 -375.305 -557.94C-372.995 -559.548 -370.091 -560.747 -366.406 -560.466ZM-385.772 -554.99C-385.811 -554.196 -387.879 -553.68 -389.515 -553.18C-389.518 -553.252 -389.521 -553.324 -389.524 -553.396C-389.619 -553.968 -390.071 -554.454 -390.589 -554.793C-387.416 -556.435 -387.632 -554.698 -385.772 -554.99ZM-396.728 -544.674C-396.881 -544.884 -396.833 -545.462 -396.629 -545.758C-395.348 -547.899 -393.679 -549.336 -391.111 -549.946C-389.897 -550.212 -389.507 -551.236 -389.482 -552.389C-388.557 -552.643 -387.556 -552.828 -386.262 -552.881C-386.094 -552.312 -385.093 -552.497 -384.716 -552.081C-389.903 -550.355 -387.988 -547.553 -385.616 -551.18C-384.902 -551.353 -384.189 -551.526 -383.476 -551.699C-383.468 -549.755 -383.389 -547.814 -383.525 -545.864C-383.573 -545.285 -384.976 -544.364 -385.629 -544.481C-387.372 -544.841 -389.163 -546.352 -390.592 -546.078C-392.234 -545.722 -393.371 -543.587 -395.546 -543.93C-395.977 -543.912 -396.423 -544.254 -396.728 -544.674ZM-433.921 -522.55C-434.251 -521.816 -434.509 -521.085 -434.12 -520.381C-435.181 -519.905 -436.023 -519.367 -436.797 -518.903C-437.51 -518.73 -438.298 -518.625 -439.017 -518.596C-437.482 -519.811 -435.597 -521.257 -433.921 -522.55ZM-537.991 -439.921C-537.505 -440.373 -536.951 -440.9 -536.465 -441.352C-536.319 -441.286 -536.1 -441.223 -535.95 -441.085C-536.35 -438.548 -539.608 -437.19 -542.709 -435.55C-541.112 -436.984 -539.514 -438.418 -537.991 -439.921ZM-549.583 -397.672C-549.448 -397.894 -549.166 -398.05 -548.884 -398.205C-549.079 -397.693 -549.274 -397.181 -549.398 -396.672C-549.694 -396.875 -549.853 -397.229 -549.583 -397.672ZM-580.27 -30.7529C-579.767 -30.7735 -579.263 -30.7942 -578.835 -30.8838C-578.882 -32.0342 -579.559 -32.7267 -580.439 -33.1228C-580.519 -35.0641 -580.527 -37.0084 -580.537 -39.0246C-578.926 -38.3705 -577.86 -36.9737 -576.87 -35.6458C-575.265 -33.4069 -576.06 -31.7178 -578.544 -30.8237C-578.224 -30.0446 -577.973 -29.1905 -577.581 -28.4144C-575.484 -24.6832 -575.5 -23.3141 -578.005 -21.1947C-578.074 -21.1198 -578.215 -21.042 -578.284 -20.9672C-579.495 -24.1585 -579.988 -27.3794 -580.27 -30.7529ZM-574.659 -2.82198C-575.442 -6.10293 -575.859 -9.25487 -575.977 -12.1309C-575.301 -11.4385 -574.831 -10.5214 -574.841 -9.00851C-574.803 -8.07379 -574.749 -6.77958 -574.157 -6.37177C-569.925 -3.30424 -573.093 2.01134 -570.357 5.5003C-568.456 7.94315 -569.332 9.41953 -570.648 10.6979C-572.418 6.16104 -573.688 1.5316 -574.659 -2.82198ZM13.7414 212.524C13.6871 212.959 12.3358 213.374 11.6139 213.332C11.2514 213.275 10.8831 213.074 10.5148 212.873C10.1464 212.672 9.84687 212.396 9.47851 212.195C10.1828 211.806 10.8064 211.204 11.5196 211.031C12.6611 210.768 14.0331 210.856 13.7414 212.524ZM49.3685 197.883C50.0215 198 50.4884 198.846 51.0843 199.325C50.7365 199.628 50.4724 200.215 50.1129 200.229C48.8246 200.426 47.5305 200.479 46.2392 200.604C46.2422 200.676 46.2451 200.748 46.2481 200.82C46.1762 200.823 46.0323 200.829 45.9604 200.832C45.6993 201.491 45.4382 202.15 45.1023 202.74C45.0363 202.886 44.1645 202.706 44.1616 202.634C43.8811 201.061 44.8848 200.948 45.9604 200.832C45.9574 200.76 46.0264 200.685 46.0235 200.613C46.0954 200.61 46.1673 200.607 46.2392 200.604C46.1537 198.519 47.1878 197.396 49.3685 197.883ZM56.921 188.859C56.5191 189.595 56.1172 190.332 55.7182 191.141C55.2543 190.367 54.5029 189.606 54.5424 188.812C54.51 188.021 55.2714 187.27 55.7423 186.458C56.0623 187.237 56.529 188.082 56.921 188.859ZM62.8658 182.781C63.9473 182.809 65.0287 182.836 64.8089 184.502C64.8118 184.574 63.9578 184.825 63.88 184.684C63.4969 184.123 63.1829 183.488 62.8658 182.781C62.7939 182.784 62.6501 182.79 62.5782 182.793C62.5752 182.721 62.5723 182.649 62.5693 182.577C60.8466 182.72 59.1297 183.006 57.7046 181.624C56.8783 180.794 56.7633 177.99 57.5572 178.029C58.2791 178.071 59.1509 178.252 59.6719 178.663C61.0103 179.688 62.6306 180.558 62.5723 182.649C62.6442 182.646 62.7161 182.643 62.788 182.64C62.788 182.64 62.8629 182.709 62.8658 182.781ZM65.0603 171.311C69.7446 173.136 73.4416 177.234 78.9239 177.441C79.2115 177.429 79.7138 179.137 79.5275 179.865C79.3413 180.593 78.307 181.716 77.8007 181.664C72.3521 180.519 67.2216 178.353 62.6251 175.156C62.2537 174.883 62.5513 173.359 62.7316 172.487C62.7316 172.487 62.7316 172.487 62.7287 172.415C62.9355 172.191 63.1424 171.966 63.3463 171.67C63.4872 171.592 63.5562 171.517 63.6222 171.37C64.2003 171.419 64.692 171.11 65.0603 171.311ZM99.0294 126.776C100.129 127.236 100.589 127.937 100.274 129.03C99.3277 128.781 98.513 128.238 98.2383 126.809C97.7786 124.379 99.2445 123.238 101.413 123.438C101.701 123.426 101.842 123.348 102.057 123.339C101.299 124.163 100.331 125.139 99.0294 126.776ZM102.75 108.618C102.822 108.615 102.969 108.681 103.041 108.678L102.834 108.903C102.831 108.831 102.828 108.759 102.75 108.618C102.531 108.555 102.313 108.492 102.094 108.429C102.229 108.207 102.292 107.989 102.43 107.839C102.586 108.121 102.669 108.405 102.75 108.618ZM174.551 8.37046C170.818 17.4544 167.077 26.3226 165.569 36.9718C164.129 40.488 162.038 43.9588 159.888 47.7202C159.615 48.0915 159.345 48.5347 159.147 48.9749C159.438 47.3064 159.73 45.638 160.025 44.0414C160.726 40.0513 161.432 36.2051 162.426 32.3472C163.274 28.4232 164.403 24.3436 166.167 19.9499C162.634 12.8204 175.083 2.01061 173.865 -4.85367C169.591 -1.94152 172.708 -13.7371 173.225 -20.4564C175.211 -19.4575 177.695 -20.3516 181.2 -20.9275C180.558 -10.2417 177.556 -0.899705 174.551 8.37046ZM191.611 -127.084C190.157 -129.185 192.908 -130.595 192.102 -134.451C191.529 -134.355 191.795 -133.142 191.687 -132.273C190.815 -132.453 191.2 -135.35 190.197 -135.237C188.953 -133.961 190.609 -128.7 190.508 -125.887C187.314 -130.005 187.097 -140.584 185.014 -143.955C186.165 -145.731 188.208 -145.095 188.666 -144.465C190.632 -145.698 188.5 -146.763 189.427 -148.746C188.305 -151.509 188.559 -145.325 186.648 -146.255C185.748 -154.141 186.319 -156.037 184.02 -159.399C184.385 -162.799 185.099 -159.444 183.479 -165.571C187.533 -166.818 185.758 -159.183 187.368 -156.8C189.8 -160.717 182.736 -169.646 186.879 -170.464C187.372 -167.243 188.229 -163.893 189.093 -160.4C189.741 -156.897 190.466 -153.254 191.123 -149.535C192.361 -142.168 193.183 -134.423 191.611 -127.084ZM216.392 -130.477C218.303 -129.547 217.224 -133.032 217.216 -134.977C218.37 -131.423 218.9 -125.539 219.384 -119.004C219.439 -112.38 219.378 -105.104 220.074 -98.65C215.226 -106.23 219.027 -118.918 216.392 -130.477ZM221.864 -95.4104C222.614 -101.707 222.12 -103.199 222.421 -109.91C219.586 -103.528 220.342 -123.725 221.713 -125.438C223.654 -120.26 223.548 -114.061 223.427 -108.223C223.378 -102.387 223.312 -96.9822 224.906 -93.2304C223.003 -92.2161 223.035 -94.9542 221.864 -95.4104ZM227.401 -92.1083C225.277 -92.9576 226.735 -96.0423 227.387 -97.7256C228.836 -97.4969 227.734 -92.7702 227.401 -92.1083ZM227.669 -168.104L225.74 -167.736C225.904 -167.239 225.997 -166.739 226.161 -166.241C226.693 -163.814 227.084 -161.309 227.552 -158.664C228.415 -153.441 229.217 -147.929 229.807 -142.335C230.917 -131.073 231.981 -119.161 230.353 -107.93C230.547 -106.714 231.608 -107.19 231.595 -105.749C231.416 -103.076 230.852 -101.037 230.362 -98.9279C228.481 -99.1389 229.341 -104.504 229.128 -107.952C228.262 -107.989 227.396 -108.025 227.305 -106.725C226.57 -117.642 225.831 -137.418 220.784 -153.345C221.065 -157.029 221.424 -160.573 222.777 -162.717C221.925 -165.923 220.946 -161.706 219.772 -162.234C219.081 -165.015 221.348 -167.7 219.35 -168.987C219.287 -172.297 220.013 -170.382 221.52 -170.516C219.568 -175.982 218.039 -179.881 217.745 -183.542C215.556 -184.244 217.533 -179.932 217.622 -177.775C214.831 -180.829 214.079 -188.649 214.731 -192.061C216.835 -193.444 219.731 -187.801 218.678 -194.167C221.812 -189.758 220.209 -176.152 223.309 -174.335C223.165 -183.116 217.961 -197.595 220.625 -202.89C225.845 -191.508 224.415 -180.718 227.669 -168.104ZM210.965 -218.915C209.892 -218.727 210.098 -217.223 208.948 -217.176C207.051 -221.275 209.729 -220.953 207.832 -225.053C209.09 -224.24 209.884 -220.671 210.965 -218.915ZM198.68 -248.013C201.311 -234.796 205.231 -223.505 208.52 -210.028C209.581 -210.504 207.792 -213.743 208.404 -214.633C210.261 -214.997 211.47 -208.348 209.613 -207.984C211.453 -205.251 212.034 -205.131 214.195 -206.876C213.108 -201.789 211.567 -200.718 210.13 -202.388C208.618 -204.126 207.351 -208.684 205.725 -214.955C205.126 -213.778 205.876 -211.288 206.174 -209.284C204.487 -208.278 204.251 -214.03 202.807 -214.115C202.53 -215.616 204.048 -215.462 204.824 -215.854C201.095 -226.001 200.562 -226.699 196.795 -237.78C198.507 -239.939 195.136 -243.114 196.744 -246.061C195.337 -248.74 196.462 -242.376 194.475 -245.175C192.578 -252.804 194.312 -252.659 190.189 -260.125C188.553 -259.625 193.621 -253.711 190.643 -254.309C189.571 -259.379 187.554 -262.897 184.965 -266.32C186.152 -267.233 187.168 -267.059 188.198 -266.525C187.22 -269.294 185.986 -269.531 184.655 -268.612C181.86 -273.539 183.012 -275.315 183.415 -277.78C189.755 -274.223 193.681 -254.002 198.68 -248.013ZM167.693 -346.782C164.535 -346.508 164.062 -351.026 161.083 -353.425C162.914 -354.436 165.522 -348.782 167.693 -346.782ZM159.631 -378.285C164.165 -376.599 158.839 -376.524 161.332 -373.674C160.476 -373.495 159.228 -375.82 158.162 -377.217C158.935 -377.681 159.64 -378.07 158.942 -379.266C159.656 -379.439 159.912 -378.441 159.631 -378.285ZM150.578 -374.241L147.974 -378.024L149.44 -379.164C150.457 -377.189 152.061 -374.95 150.578 -374.241ZM146.797 -378.623C145.535 -377.779 143.464 -380.863 141.494 -383.231L142.888 -384.369C144.777 -382.214 146.519 -380.125 146.797 -378.623ZM143.917 -376.849C148.335 -370.98 152.471 -364.956 155.258 -361.973C152.727 -362.229 148.632 -367.247 144.136 -373.257C139.571 -379.191 134.114 -385.81 130.189 -390.186C134.101 -387.898 139.148 -382.487 143.917 -376.849ZM133.031 -419.256C131.75 -417.115 131.837 -416.758 129.153 -417.224C128.918 -419.448 129.78 -423.012 133.031 -419.256ZM127.856 -422.501C127.897 -421.494 129.181 -420.035 128.055 -419.412C127.651 -420.476 127.247 -421.54 126.54 -421.223C125.777 -422.272 126.844 -422.603 125.787 -423.784C126.584 -423.673 127.38 -423.562 127.932 -424.161C128.767 -423.115 129.131 -421.257 127.856 -422.501ZM118.837 -438.696C117.986 -438.373 116.388 -440.469 115.043 -441.638C114.71 -440.976 116.201 -439.741 117.183 -438.629C117.176 -437.044 113.251 -439.692 115.454 -436.901C114.007 -437.058 113.455 -441.717 113.319 -443.296C116.46 -440.471 116.596 -442.422 118.837 -438.696ZM82.2497 -458.011L83.4159 -459.427L87.8922 -455.649C87.0224 -454.029 84.1575 -457.153 82.2497 -458.011ZM89.3902 -464.786C86.5565 -465.39 88.7903 -463.609 91.3234 -461.552C88.6265 -460.577 86.0059 -466.519 83.461 -468.864C84.5012 -469.843 87.5455 -465.862 89.3902 -464.786ZM73.4991 -467.663C78.7085 -467.084 83.5102 -465.913 88.5771 -458.27C85.1652 -458.922 80.1967 -465.921 75.9858 -463.228C69.073 -470.218 62.347 -474.408 59.5245 -478.253C64.273 -478.376 71.5158 -472.119 73.4991 -467.663ZM48.7754 -487.464C53.4704 -483.623 54.6404 -481.438 59.31 -479.973L57.5378 -477.524C52.9571 -482.089 45.1133 -485.441 39.7093 -490.765C43.1605 -490.907 45.5811 -486.324 48.7754 -487.464ZM-28.1823 -532.275C-28.1716 -530.259 -30.7412 -531.45 -30.7276 -529.362C-31.9517 -531.112 -38.1284 -532.443 -36.1918 -534.395C-38.5834 -533.001 -43.2212 -537.204 -46.9678 -538.995C-39.9838 -535.536 -33.1383 -535.457 -28.1823 -532.275ZM-7.93824 -533.897C-8.47808 -533.011 -7.86169 -532.028 -6.60099 -531.143C-7.3477 -530.032 -9.77951 -531.373 -12.361 -532.852C-9.99114 -533.021 -12.6385 -534.353 -10.2686 -534.522C-12.1222 -535.815 -17.0017 -537.127 -15.0386 -538.432C-14.0389 -536.888 -10.7354 -535.367 -7.93824 -533.897ZM-20.9993 -539.772C-24.6574 -539.406 -25.4503 -541.174 -28.6995 -543.129C-25.0383 -543.423 -24.2484 -541.727 -20.9993 -539.772ZM-64.4555 -542.167C-65.6631 -541.757 -67.6162 -541.965 -70.3208 -542.935C-70.0321 -544.675 -65.6737 -543.774 -64.4555 -542.167ZM-80.8078 -540.488C-83.8967 -540.289 -84.971 -541.902 -89.7548 -542.642C-89.1096 -544.469 -82.1581 -541.801 -80.8078 -540.488ZM-105.505 -545.597C-103.994 -547.388 -101.123 -544.12 -97.5369 -544.484C-97.218 -541.976 -102.899 -545.272 -105.505 -545.597ZM-86.2954 -546.097C-90.583 -545.273 -92.6317 -546.053 -99.219 -546.863C-97.3643 -547.3 -91.2833 -546.541 -97.5011 -548.878C-95.2828 -550.986 -90.438 -547.007 -86.2954 -546.097ZM-136.552 -552.751C-125.31 -550.835 -121.112 -552.088 -115.711 -552.093C-113.102 -551.696 -114.837 -550.112 -112.797 -549.548C-114.009 -552.739 -105.505 -550.855 -99.8344 -549.575C-100.761 -547.592 -100.717 -546.514 -101.865 -546.395C-102.844 -547.435 -106.834 -548.136 -108.62 -547.774C-105.796 -545.657 -112.389 -546.611 -112.761 -545.156C-114.96 -546.074 -114.911 -546.652 -113.422 -547.217C-121.939 -547.66 -131.886 -551.358 -140.325 -551.66C-140.064 -552.319 -138.131 -552.614 -140.039 -553.472C-138.713 -551.006 -143.873 -553.891 -143.665 -552.315C-142.41 -551.574 -142.749 -551.056 -143.744 -550.727C-146.368 -551.484 -148.991 -552.241 -151.681 -552.851C-152.564 -555.047 -146.82 -551.97 -146.884 -553.551C-151.884 -554.283 -159.611 -558.287 -161.392 -556.053C-156.449 -554.96 -154.367 -555.117 -151.972 -552.911C-152.119 -552.977 -152.262 -552.971 -152.409 -553.037C-156.765 -553.866 -161.255 -554.475 -165.883 -554.933C-165.922 -555.868 -166.385 -556.641 -167.065 -557.405C-166.993 -557.408 -166.993 -557.408 -166.918 -557.339C-164.544 -559.165 -161.366 -558.935 -158.101 -558.349C-154.833 -557.691 -151.544 -556.529 -148.611 -557.01C-145.96 -555.606 -146.216 -554.803 -145.605 -553.964C-143.441 -555.637 -132.936 -554.123 -130.674 -553.424C-130.448 -551.417 -135.811 -554.006 -136.552 -552.751ZM-80.0344 -554.996C-83.9248 -556.782 -85.8849 -555.405 -87.9147 -557.482C-88.5389 -560.41 -77.9599 -557.098 -80.0344 -554.996ZM-90.3652 -557.526C-92.1941 -559.972 -96.9534 -561.865 -97.0684 -564.669C-92.7377 -562.686 -88.5507 -560.697 -90.3652 -557.526ZM-286.447 -574.188C-286.447 -574.188 -286.375 -574.191 -286.303 -574.194C-286.303 -574.194 -286.375 -574.191 -286.447 -574.188ZM-291.592 -576.714C-293.411 -577.144 -286.655 -577.493 -282.295 -578.32C-283.405 -575.538 -288.753 -575.966 -291.592 -576.714Z" fill="#333333"/>
<path fill-rule="evenodd" clip-rule="evenodd" d="M249.171 -72.3313C250.678 -72.4651 251.12 -70.4667 251.407 -68.7498C250.121 -68.4811 250.756 -63.5375 249.629 -62.9151C250.042 -61.6356 251.81 -62.4283 251.146 -59.3041C248.819 -38.7542 247.503 -23.4313 243.986 -9.09851C242.408 -1.90353 240.825 5.14762 239.187 12.6332C238.331 16.3414 237.48 20.1935 236.564 24.1924C235.357 28.1311 234.156 32.2137 232.823 36.5897C236.879 37.1436 231.104 40.3334 232.277 42.59C236.038 41.2114 236.213 38.4673 238.949 33.1695C237.374 31.6495 236.826 35.8494 235.535 35.9744C236.048 34.4408 236.004 33.3623 235.965 32.4275C238.073 34.6458 239.414 26.9564 240.23 31.0283C242.185 22.5214 243.018 12.9802 244.826 2.60677C245.692 -2.61441 246.624 -7.98235 247.686 -13.7157C248.218 -16.5464 248.819 -19.452 249.414 -22.5013C249.865 -25.5448 250.317 -28.5883 250.834 -31.7785C249.752 -31.8062 249.349 -32.87 249.29 -34.308C251.122 -37.048 250.244 -37.3721 250.823 -42.5815C252.47 -41.0646 253.021 -41.6634 254.123 -44.6615C253.464 -44.9226 252.397 -44.5907 252.41 -46.0317C253.022 -52.1788 253.049 -60.3185 252.469 -67.425C251.919 -73.8125 250.47 -79.2988 249.201 -82.1277C249.724 -79.9164 248.843 -75.0547 249.171 -72.3313Z" fill="#333333"/>
<path fill-rule="evenodd" clip-rule="evenodd" d="M155.611 82.1785C157.025 78.0152 159.931 73.3586 159.332 78.0646C160.966 75.7649 162.786 72.7373 161.634 70.984C164.317 67.921 168.833 67.3757 169.722 62.7297C170.744 63.048 171.415 63.5967 171.6 64.5974C172.54 61.1738 171.39 59.4923 171.563 56.6763C172.568 54.8346 174.085 56.717 174.884 53.3712C173.744 51.9054 174.886 46.3849 176.618 41.2002C176.917 41.476 177.289 41.7488 177.579 41.809C178.373 41.8484 179.14 41.2408 179.994 40.9897C179.47 40.507 178.935 39.7367 178.431 39.7574C178 39.7751 177.5 39.8676 177.077 40.101C179.217 34.3234 181.967 29.3851 183.272 31.3482C183.87 28.3708 184.9 25.3756 186.004 22.4494L186.007 22.5213C186.094 22.8778 186.612 23.2167 186.914 23.5644C187.516 24.188 188.367 23.865 188.605 22.6308C189.143 19.9439 188.228 16.9564 190.659 14.7681C188.833 12.3942 189.538 10.2766 190.73 7.70696C191.39 6.23943 190.626 5.19039 189.093 4.67709C189.012 4.46434 189.006 4.32051 188.925 4.10776C188.859 4.25451 188.793 4.40125 188.727 4.54799C188.218 4.42484 187.715 4.44549 187.065 4.40012C187.35 2.58783 187.771 0.553924 186.609 0.313495C186.375 1.61953 186.146 3.06937 185.914 4.4473C184.629 4.71609 182.855 5.36501 183.388 6.06339C184.148 7.04053 184.624 8.10139 184.956 9.16813C184.781 10.1836 184.604 11.1272 184.357 12.1456C183.225 16.1533 181.955 20.3107 180.608 24.3272C177.984 32.3574 175.42 40.0969 173.508 46.1533C172.975 45.4549 172.509 44.6097 172.392 43.5341C173.203 40.4759 176.251 39.2706 174.305 37.4778C173.353 40.6139 172.046 42.1079 170.906 44.1713C172.337 45.6971 171.808 48.5998 170.844 51.4482C169.737 54.3025 168.342 57.1686 168.634 59.0292C168.429 57.5251 167.039 57.0059 165.783 57.9937C164.585 62.1482 161.711 67.5957 158.783 69.9486C158.04 69.4028 158.485 67.9441 157.883 67.3206C155.398 73.4724 156.583 76.0167 155.611 82.1785Z" fill="#333333"/>
<path fill-rule="evenodd" clip-rule="evenodd" d="M202.611 53.3142C203.022 47.5355 203.394 42.5507 207.124 36.9239C206.322 36.6688 205.689 37.0548 205.06 37.5128C205.633 35.6887 205.445 34.616 204.844 33.9925C203.608 40.7413 202.081 43.9009 200.983 50.5C203.139 43.3534 202.615 51.6575 202.611 53.3142Z" fill="#333333"/>
<path fill-rule="evenodd" clip-rule="evenodd" d="M195.704 64.0388C194.987 65.8688 194.252 67.2674 193.419 68.0218C194.643 69.7722 199.245 64.3258 196.997 65.7144C195.389 68.6612 196.702 63.7819 195.704 64.0388Z" fill="#333333"/>
<path fill-rule="evenodd" clip-rule="evenodd" d="M200.35 87.7614C203.845 90.427 206.073 78.0197 209.291 77.4556L208.123 77.0713C208.384 76.4124 208.573 75.7564 207.998 75.78C206.588 78.2866 205.366 81.8658 202.955 86.2861C202.008 86.0368 201.044 85.3562 200.35 87.7614Z" fill="#333333"/>
<path fill-rule="evenodd" clip-rule="evenodd" d="M229.279 122.296C229.376 121.14 228.222 117.586 227.022 119.94C228.006 122.852 225.905 124.307 226.649 126.653C227.651 124.739 228.482 123.913 229.41 123.731C228.566 127.727 227.622 127.55 225.484 131.598C226.379 132.354 227.329 130.947 228.288 131.484C225.478 134.984 226.051 138.417 225.16 141.263C226.75 137.885 228.211 138.401 229.873 135.02C229.271 130.867 231.75 128.1 234.239 120.292C233.008 120.126 233.794 118.222 233.537 117.224C232.148 120.234 230.661 120.871 229.279 122.296Z" fill="#333333"/>
<path fill-rule="evenodd" clip-rule="evenodd" d="M114.378 97.1217C114.853 94.6535 117.835 93.5949 116.724 92.8482C114.43 96.6155 113.769 94.5539 112.196 94.8345C112.779 96.7552 112.218 97.1383 114.378 97.1217Z" fill="#333333"/>
<path fill-rule="evenodd" clip-rule="evenodd" d="M245.591 28.2872C243.963 30.7308 242.424 33.6027 241.035 36.6127C238.26 42.7044 236.17 49.7043 236.226 56.3281C241.276 56.5531 241.837 61.4277 240.811 68.0239C238.019 66.6979 236.523 74.1057 234.032 74.856C236.716 75.3221 234.006 79.4665 235.51 79.2608C234.443 79.5926 233.403 80.5716 232.383 82.0539C235.364 82.7239 231.258 89.7345 229.93 94.2543C232.12 94.9568 232.064 93.5907 233.369 95.5538C237.356 90.9248 242.505 79.4781 244.586 75.7916C244.971 64.108 258.048 51.0398 260.82 36.0894C262.57 26.0784 257.99 19.7842 249.876 22.1336C248.572 23.6995 247.145 25.7747 245.591 28.2872Z" fill="#333333"/>
</g>
</g>
</svg>
