<svg width="24" height="63" viewBox="0 0 24 63" fill="none" xmlns="http://www.w3.org/2000/svg">
<path d="M23.1814 3.71004C23.4585 4.34477 23.6731 4.98845 23.834 5.64107L23.834 2.11872C22.6718 0.95652 21.152 0.429061 19.212 0.482701C18.0498 0.51846 16.8787 0.268137 15.7254 0.0803994C13.6603 -0.250381 11.9975 0.429061 11.175 2.34222C10.728 3.37032 10.5939 4.61298 10.6028 5.75729C10.6118 6.99995 10.9246 8.24261 11.1392 9.48527C11.3091 10.4865 11.1392 11.2822 10.3793 12.0868C8.4036 14.1966 7.28608 16.7356 7.12516 19.659C7.08046 20.544 6.96425 21.4291 6.84803 22.3052C6.18647 27.3563 6.2848 32.4521 5.61431 37.53C4.46999 46.2107 2.56577 54.6679 0 63L2.82504 63C3.03066 62.3206 3.23628 61.6322 3.4419 60.9527C5.67689 53.6041 6.89273 46.0409 7.85825 38.3882C8.52875 33.0242 8.29631 27.6245 9.09197 22.2963C9.26183 21.1251 9.35123 19.945 9.53897 18.7828C9.94127 16.1992 10.0753 15.9578 12.7305 12.6858C14.2682 14.1341 15.8059 13.5619 17.2989 12.802C18.3538 12.2656 19.3729 12.1226 20.4904 12.5338C20.8302 12.659 21.2146 12.7662 21.5722 12.7394C22.4483 12.6679 23.1903 12.7752 23.8429 13.0166L23.8429 10.3524C23.8072 10.5134 23.7804 10.6743 23.7357 10.8352C22.5019 10.6564 21.5722 10.5223 20.7676 10.4061C20.705 8.57339 20.6514 6.90161 20.6067 5.23877C20.4458 5.22089 20.2759 5.20301 20.115 5.18513C20.0166 5.59636 19.8646 6.00761 19.8289 6.42779C19.5607 9.74452 19.5696 9.74452 16.083 10.8173C16.092 7.67939 15.3589 4.75601 13.7855 2.01144C14.1162 1.90416 14.3487 1.75218 14.5096 1.80582C16.6284 2.54783 18.7829 2.76239 21.0179 2.54783C21.894 2.44949 22.7612 2.74452 23.1814 3.71004ZM14.1967 11.3627C14.0358 11.4074 13.8838 11.4521 13.7229 11.4968C13.5083 11.1839 13.0881 10.8531 13.106 10.5491C13.2401 8.08169 11.7471 5.62319 12.9987 3.14681C14.304 5.81093 14.5007 8.56445 14.1967 11.3627Z" fill="#333333"/>
<path d="M14.814 39.398C15.7437 47.2652 16.6467 55.1145 15.4845 62.9906L16.7093 62.9906C17.0758 60.3891 17.2635 57.7607 17.1026 55.1234C16.754 49.527 16.1729 43.9395 15.7259 38.3431C15.3325 33.4887 14.966 28.6253 14.6263 23.762C14.5547 22.7786 14.662 21.7862 14.6888 20.8028C14.5368 20.7939 14.3759 20.776 14.2239 20.7671C14.072 22.269 13.7233 23.7798 13.7948 25.2639C14.0362 29.9842 14.2597 34.7134 14.814 39.398Z" fill="#333333"/>
</svg>
