<svg width="96" height="161" viewBox="0 0 96 161" fill="none" xmlns="http://www.w3.org/2000/svg">
<path d="M17.6772 128.785C18.8281 132.433 20.6541 135.544 23.3701 138.118C28.2498 142.716 31.5796 148.141 32.577 154.837C33.375 160.232 39.4515 163.082 44.3618 158.761C46.3413 157.014 48.0599 154.883 49.5637 152.707C53.4306 147.083 56.9292 141.214 60.9035 135.697C64.1873 131.13 68.2384 127.33 73.7318 125.245C77.6754 123.759 80.8364 120.939 83.307 117.568C87.6342 111.652 91.1328 105.323 92.299 97.9367C92.5445 96.4042 92.9588 94.8717 93.4652 93.4005C96.703 84.1444 96.5035 74.735 94.7388 65.249C93.8795 60.6056 91.4244 57.0196 87.803 54.1232C87.1125 53.5715 86.3606 53.1118 85.8235 52.744C85.5473 49.725 85.4552 46.9206 85.0102 44.1775C83.7059 36.1473 79.5014 29.6343 74.1154 23.7649C70.1104 19.3973 66.1054 15.0145 61.9777 10.7695C59.722 8.45547 57.3896 6.14143 54.7656 4.27182C45.436 -2.33315 34.7713 -1.1838 26.8227 7.06092C24.1067 9.88067 21.5134 12.8537 18.5979 15.4436C15.8819 17.8649 14.0712 20.6999 13.3193 24.1787C12.7362 26.9065 12.3833 29.6649 11.9536 32.4234C11.7848 33.4808 11.7234 34.5688 11.57 35.994C8.47033 34.6148 5.7543 33.3735 3.02293 32.1782C2.04086 31.7491 1.05879 31.4119 0.076724 31.1208V34.4922C1.38103 34.8447 2.16362 35.9481 2.65465 37.2966C3.59068 39.8559 4.18913 42.4764 3.51396 45.1736C2.77741 48.1006 1.78 50.9663 1.13552 53.9087C0.659827 56.1001 0.337586 58.3222 0.0613792 60.5443V63.8544C0.230172 64.3755 0.460344 64.8965 0.613792 65.4022C0.951378 65.3409 1.27362 65.2796 1.6112 65.2183C1.70327 64.7126 1.9181 64.1916 1.85672 63.6859C1.45776 59.7934 2.37845 56.1461 3.72879 52.5448C5.52413 47.7175 6.27603 42.8136 4.68017 37.7564C4.5881 37.4652 4.74154 37.1127 4.81827 36.3772C7.21206 37.7411 9.39102 39.0896 11.6621 40.239C14.24 41.5416 16.8179 42.9361 19.5493 43.7943C23.8151 45.1276 27.2524 47.5336 29.7229 51.0889C32.8839 55.6404 36.7662 59.4869 40.7251 63.2721C46.0344 68.3446 48.7198 74.3672 48.6123 81.815C48.5817 84.4356 48.0446 86.5197 46.5101 88.5733C43.0268 93.2473 40.9246 98.3811 40.8632 104.388C40.8172 108.204 38.6536 111.346 35.9836 114.043C33.9274 116.127 32.04 118.257 31.3494 121.276C30.705 124.127 31.0886 126.793 31.8865 129.521C33.2215 134.011 34.4031 138.547 35.6153 143.068C36.3672 145.872 37.2418 148.585 39.5282 151.359C40.0039 149.964 40.4489 148.999 40.6791 147.987C41.6918 143.405 42.4898 138.777 43.6713 134.241C44.9296 129.398 45.4973 124.586 44.4999 119.652C44.4079 119.223 44.4846 118.763 44.4846 117.629C45.6201 118.594 46.4027 119.253 47.1699 119.928C47.9218 120.587 48.643 121.292 49.6098 122.196C48.106 127.023 46.2032 131.82 45.1598 136.785C44.147 141.628 44.0242 146.654 43.5179 151.589C45.083 152.094 45.482 150.899 45.8963 150.117C48.9806 144.432 52.0342 138.716 55.0111 132.969C57.6811 127.789 56.0853 123.238 52.7554 118.993C52.4792 118.64 52.157 118.319 51.7887 118.058C45.7582 113.782 45.2365 107.53 45.6048 100.956C45.6355 100.297 45.8503 99.6377 46.0498 99.0094C46.1418 98.7182 46.4027 98.4884 46.7096 98.0593C46.9551 100.113 47.1239 101.982 47.4308 103.821C48.0292 107.346 49.6404 110.442 52.1723 112.909C54.9497 115.621 57.451 118.395 58.1875 122.349C58.2642 122.747 58.6172 123.115 58.8934 123.437C59.0161 123.575 59.3077 123.544 59.6453 123.621C60.8882 122.441 60.5966 120.862 60.0442 119.652C59.1389 117.644 57.942 115.729 56.6377 113.966C54.9804 111.729 53.001 109.721 51.2823 107.53C49.042 104.664 48.4589 101.354 48.5817 97.7375C48.7044 94.3813 49.6404 91.5616 51.5432 88.7418C53.3232 86.106 54.428 82.9644 55.6096 79.9608C56.6684 77.2636 57.3435 74.4132 58.341 71.6854C60.8268 64.8659 65.4763 60.1765 72.3508 57.7399C73.7164 57.2495 75.0975 56.7744 76.4171 56.1614C80.2687 54.3378 83.6445 55.2879 86.6214 57.9851C89.0919 60.2225 90.5804 63.0575 91.1942 66.3677C92.8207 75.1947 92.9128 83.9299 89.8899 92.527C89.3681 93.9982 88.9231 95.5307 88.693 97.0632C87.6649 104.036 84.2737 109.921 80.2533 115.499C78.1358 118.426 75.389 120.832 72.0132 122.226C65.7525 124.816 61.1644 129.322 57.4356 134.716C53.6915 140.141 50.3923 145.857 46.6942 151.313C45.2825 153.397 43.4565 155.313 41.5077 156.906C39.1599 158.807 36.3518 157.719 35.4925 154.807C34.8481 152.661 34.4798 150.439 33.7586 148.34C32.2087 143.819 29.3239 140.08 26.2089 136.54C23.7384 133.735 21.7129 130.762 20.7615 127.054C19.8562 123.56 16.9714 121.613 14.1479 119.79C11.7695 118.257 9.08413 117.491 6.27603 117.108C4.17379 116.817 2.08689 116.464 0 116.081V119.882C2.48586 120.173 4.98706 120.51 7.41154 121.092C11.9689 122.165 16.1581 123.973 17.6772 128.785ZM39.0065 140.769C38.7456 140.003 38.5155 139.405 38.3313 138.792C37.3953 135.605 36.6281 132.341 35.4772 129.214C33.7739 124.571 34.2649 120.541 37.917 117.001C39.3287 115.637 40.5256 114.028 42.321 111.974C42.858 122.088 43.0422 131.513 39.0065 140.769ZM51.5279 125.475C53.2925 131.145 50.2082 134.624 47.9832 138.363C47.3541 136.111 48.4282 134.149 49.1034 132.142C49.7939 130.149 50.5458 128.172 51.5279 125.475ZM81.7264 51.4107C79.7009 51.7632 77.6601 52.1157 75.297 52.5294C76.4018 49.1274 78.7342 46.2616 77.8442 42.4764C77.5373 42.9821 77.1844 43.4725 76.9235 44.0089C76.0949 45.7252 75.4504 47.5183 74.4837 49.1427C72.6423 52.2383 70.3713 54.7515 66.8727 56.33C60.3358 59.303 56.1466 64.59 53.7835 71.3176C53.3539 72.5436 52.9549 73.7849 52.4179 75.4093C50.9448 73.4324 51.0061 71.7007 51.2056 69.969C51.8041 64.7586 52.3718 59.5482 53.0623 54.3531C53.2158 53.1578 53.6301 51.9471 54.1518 50.859C56.5149 45.9245 58.9241 41.0206 61.4099 36.1473C61.7322 35.5036 62.5608 35.1359 63.0978 34.5995C64.7551 32.9444 66.4123 31.2893 67.9928 29.573C68.3151 29.2358 68.3611 28.6382 68.1003 27.7953C66.3049 29.3125 64.5249 30.8296 62.7296 32.3314C63.2666 25.9563 60.4278 20.516 58.6939 14.6773C58.5404 15.1984 58.2029 15.7501 58.2796 16.2404C58.5404 18.1101 58.7553 20.0257 59.2923 21.834C61.057 27.8566 60.3051 33.5114 57.3282 38.9824C55.1953 42.8902 53.1851 46.8593 50.868 51.2881C49.2568 47.5489 47.5842 44.3614 46.4794 40.9899C45.0524 36.6683 45.5587 32.1475 45.927 27.6727C46.3413 22.5696 47.5382 17.4664 46.2953 12.3326C45.7889 10.2485 45.8042 7.93443 44.0089 6.21806C43.7787 6.58585 43.5486 6.80039 43.5793 6.93832C45.1137 13.2828 44.0396 19.6119 43.4105 25.941C43.1956 28.0558 43.0575 30.1706 42.9041 32.2855C42.5511 37.0974 43.6253 41.5416 45.881 45.8479C49.3336 52.4681 50.4077 59.5175 48.8579 67.0726C45.482 63.5786 42.2136 60.2838 39.0372 56.897C37.1344 54.8588 35.2163 52.8053 33.6051 50.5372C32.6077 49.1274 31.9019 47.3803 31.5489 45.6793C30.5055 40.6068 28.48 36.1626 24.7051 32.5153C22.8024 30.6763 21.2219 28.5002 19.3038 26.2475C19.1196 26.8452 18.736 27.4275 18.8281 27.9026C19.3191 30.5231 20.8689 32.5766 22.695 34.4309C24.92 36.6837 26.8688 39.105 27.9122 42.1393C28.1117 42.7369 28.1884 43.3959 28.3112 43.9629C23.677 42.078 19.2117 40.2543 14.5929 38.3847C15.0226 33.3888 15.0993 28.5615 16.8026 24.0101C17.447 22.2784 18.4905 20.5927 19.7488 19.2441C22.787 15.9646 26.1475 12.9916 29.1858 9.7121C32.132 6.53988 35.7074 4.65493 39.8351 3.72012C43.7327 2.84661 47.4768 3.59752 50.822 5.60507C53.2925 7.09157 55.6863 8.85391 57.6811 10.9074C62.6068 15.9493 67.4251 21.0984 72.0132 26.4467C77.2764 32.5766 80.9132 39.5647 81.6804 47.7941C81.7418 48.4684 81.8032 49.1274 81.8338 49.8016C81.8492 50.3074 81.7725 50.7518 81.7264 51.4107Z" fill="#E6E6E6"/>
<path d="M61.5632 123.682C60.9801 124.832 60.796 126.196 60.4277 127.452C60.6885 127.529 60.9494 127.605 61.2103 127.667C64.6322 122.303 66.9799 116.51 67.3022 110.151C71.2304 108.802 74.0999 106.519 76.4937 103.653C78.5959 101.124 80.8363 98.9021 83.982 97.6455C85.6852 96.9712 87.143 95.7299 87.7568 93.1247C86.0535 94.2434 84.9794 95.3008 83.6904 95.7452C79.6854 97.0938 76.8313 99.7757 74.2534 102.979C72.8263 104.756 71.0003 106.166 68.3609 107.407C68.9594 104.327 70.187 102.243 71.3685 100.128C72.3966 98.2892 73.6703 96.4195 74.0232 94.412C74.5603 91.3777 76.3096 89.6766 78.8108 88.42C80.1151 87.761 81.5575 87.3473 82.7544 86.5657C84.6878 85.2784 86.5906 83.8839 88.2939 82.3208C89.2606 81.4319 89.9818 80.1446 89.3833 77.7233C86.4525 83.654 81.3273 85.1558 75.8646 87.4699C80.5754 79.0106 86.3144 71.6394 84.8566 61.8162C83.982 69.356 81.0511 76.007 76.4937 82.52C75.4196 79.8075 74.4375 77.6927 73.7316 75.5012C72.9797 73.1719 72.2739 70.7965 71.9056 68.3752C71.568 66.1991 71.6754 63.9464 71.5834 61.7396C70.0642 64.3601 69.6192 67.0573 70.3404 69.8004C71.1997 73.034 72.0744 76.2675 73.2406 79.3937C74.4375 82.5813 75.4963 85.6462 73.5935 88.9257C73.2099 89.5847 72.857 90.3816 72.8263 91.1325C72.5961 95.2548 70.3711 98.4731 67.8392 102.289C66.0439 99.3006 64.4941 96.6034 62.8522 93.9829C61.5018 91.8221 61.4251 89.5694 62.0082 87.2094C62.223 86.3358 62.4685 85.4777 62.8061 84.6501C63.7882 82.2748 63.7115 79.9301 63.113 77.4475C62.5453 75.0875 62.4225 72.6202 62.0696 70.1989C62.0235 69.8464 61.8087 69.5246 61.4865 68.743C59.9673 71.6088 60.1668 74.168 60.6579 76.6353C61.1029 78.934 60.8267 81.0641 60.0901 83.2096C59.6604 84.4815 59.3229 85.7842 58.9239 87.0561C57.9572 90.2283 58.3408 93.232 60.0594 96.0824C61.3944 98.2738 62.7294 100.481 64.0184 102.703C65.4454 105.17 66.0899 107.653 65.5682 110.656C64.7549 115.177 63.6808 119.56 61.5632 123.682Z" fill="#E6E6E6"/>
<path d="M14.5624 97.3081C10.7415 93.8754 8.65463 89.5998 7.97946 84.4813C7.65722 82.0906 7.01274 79.5927 5.86188 77.4932C4.12791 74.3363 2.17912 71.2867 0.0768862 68.3597V71.6392C3.17654 75.4704 5.24809 80.0218 6.04602 85.3701C6.76722 90.1668 8.53187 94.5343 12.1072 97.7985C15.0688 100.511 16.7874 103.637 17.7694 107.438C18.3525 109.691 19.35 111.836 20.3474 113.951C20.6389 114.564 21.4982 114.916 22.112 115.391C22.465 114.334 22.3422 113.721 22.1427 113.123C21.2374 110.487 20.2093 107.898 19.3807 105.231C18.4139 102.166 16.9715 99.4689 14.5624 97.3081Z" fill="#E6E6E6"/>
<path d="M40.0807 85.2626C40.4337 82.7647 40.5718 80.1901 39.3135 77.7535C38.4388 87.7146 38.4235 87.6992 31.7485 96.0819C29.7383 98.6105 28.4494 101.461 28.9404 104.771C29.4007 107.882 28.7409 110.702 27.4826 113.537C25.7487 117.429 25.319 121.46 26.8995 125.597C27.3292 126.701 27.2678 127.988 27.4059 129.199C27.5901 130.746 27.5901 132.34 28.0044 133.827C28.4954 135.543 28.9864 137.443 31.104 138.363C30.7204 133.796 30.3521 129.475 29.9838 125.168C29.9685 124.954 29.8764 124.739 29.8151 124.525C28.6182 120.923 29.1399 117.445 30.7664 114.119C32.1014 111.422 32.6845 108.602 32.2549 105.66C31.7025 101.829 32.7306 98.5951 35.4006 95.8367C38.2854 92.879 39.5283 89.1704 40.0807 85.2626Z" fill="#E6E6E6"/>
<path d="M17.0786 89.6311C16.2346 92.175 16.3267 94.7496 18.4749 96.8797C18.9967 95.6844 19.1348 94.5044 19.3343 93.3244C19.5644 92.0218 19.7332 90.6732 20.1629 89.4319C20.9915 87.0106 21.9736 84.6506 22.8789 82.2599C24.4901 78.0456 26.2701 73.9846 30.628 71.7472C31.5948 71.2568 32.4387 70.3986 33.1292 69.5404C34.8785 67.349 35.9373 64.9276 35.1548 61.6175C32.0858 68.0232 32.0858 68.0232 25.3955 71.9004C19.6718 65.4487 20.8534 57.4645 19.9634 49.7561C19.4417 50.2312 19.1808 50.3538 19.1501 50.5071C18.3829 57.1274 16.9558 63.717 21.0375 69.9848C22.7255 72.5594 23.1398 75.5324 21.3137 78.7659C19.457 82.1373 18.2908 85.9379 17.0786 89.6311Z" fill="#E6E6E6"/>
<path d="M7.87205 93.0178C6.75188 91.8224 6.15343 91.1022 5.46291 90.4739C4.55757 89.6463 3.63688 88.8341 2.62412 88.1445C1.78016 87.5622 0.936195 86.9339 0.0768862 86.3515V89.8456C0.506541 90.1367 0.936195 90.4585 1.35051 90.811C2.8543 92.1136 4.87981 92.9565 7.87205 93.0178Z" fill="#E6E6E6"/>
<path d="M11.9077 109.63C13.0126 110.243 14.2708 110.565 15.8513 111.193C15.2682 108.787 13.9639 107.775 12.4448 107.055C9.28377 105.553 6.07671 104.557 2.42464 104.894C1.64206 104.956 0.859471 105.002 0.0768862 105.017V107.53C0.583265 107.53 1.10499 107.53 1.59602 107.484C5.37084 107.101 8.66998 107.852 11.9077 109.63Z" fill="#E6E6E6"/>
</svg>
