<svg width="150" height="290" viewBox="0 0 150 290" fill="none" xmlns="http://www.w3.org/2000/svg">
<path d="M120.134 274.225C123.123 280.609 128.301 282.47 134.619 279.412C138.022 277.757 141.47 276.131 144.755 274.255C146.16 273.442 147.906 272.23 148.321 270.856C149.815 265.876 149.12 260.926 146.456 256.448C143.29 251.114 139.783 245.972 136.572 240.667C133.672 235.864 131.305 230.707 128.109 226.126C123.67 219.757 120.149 212.945 117.027 205.926C113.254 197.459 110.043 188.726 106.285 180.259C102.008 170.61 99.286 160.458 95.9272 150.513C95.2318 148.474 95.1578 146.464 95.7052 144.395C97.6879 136.844 99.7594 129.293 101.609 121.713C103.399 114.369 105.412 107.025 106.462 99.5624C107.912 89.3073 108.726 78.9339 109.451 68.5901C109.806 63.5364 111.448 59.2068 114.023 54.9067C118.195 47.8877 121.835 40.5436 125.845 33.4212C126.984 31.3967 126.674 29.7861 125.534 27.9833C123.182 24.2743 120.948 20.4914 118.58 16.7972C117.53 15.157 116.39 13.5463 115.074 12.1129C112.647 9.45309 111.315 9.48263 108.622 11.8469C108.03 12.3641 107.379 12.8074 106.654 13.3542C105.308 8.66991 104.317 7.9754 99.8185 8.62558C98.1318 8.86201 96.4154 9.20187 94.847 9.83727C90.6449 11.5366 86.3688 12.039 81.9004 11.3298C79.4442 10.9456 77.6391 11.9652 76.3814 14.0339C76.0263 14.6102 75.6859 15.1865 75.4196 15.6298C73.3037 14.9205 71.4838 14.2999 69.5159 13.6349C69.2792 12.1425 69.0277 10.5909 68.7761 9.03933C68.1991 5.46333 66.0685 3.43889 62.547 2.7296C59.8689 2.19764 59.2326 2.64095 59.1882 5.34512C59.1438 7.38432 59.1586 9.42354 59.1586 11.3298C57.5162 12.1277 56.2289 12.7631 54.4386 13.6349C53.8319 11.4775 53.3881 9.7043 52.8554 7.96063C51.287 2.77395 47.8987 -0.314433 43.2823 0.0254346C39.5536 0.306195 35.8546 1.32581 32.1703 2.13854C30.6315 2.47841 29.1815 3.26157 27.6279 3.51278C24.6538 4.00041 21.9905 5.07913 19.6527 6.95579C17.522 8.68468 15.0955 9.64519 12.3878 10.2215C8.05249 11.1377 4.01314 12.837 0.935532 16.1913C0.358479 16.8267 -0.0410255 17.9055 0.00336316 18.7477C0.062548 19.9299 0.476817 21.1564 0.994684 22.2499C4.32383 29.3132 7.43103 36.5095 11.1597 43.366C15.1842 50.7396 20.8216 57.0789 25.2605 64.2753C30.9718 73.5699 36.402 82.9237 40.4858 93.0162C43.0011 99.2373 45.9603 105.355 47.7655 111.783C51.0798 123.545 54.6606 135.204 59.0107 146.627C59.6321 148.267 59.5581 149.582 59.0846 151.163C56.7912 158.759 54.4978 166.369 52.4115 174.023C48.239 189.347 44.1996 204.685 40.1307 220.038C37.4674 230.086 35.7658 240.283 34.9668 250.685C34.4046 258.089 33.2653 265.462 32.0963 272.792C31.2382 278.215 32.9249 282.663 36.4908 286.519C37.275 287.362 38.5031 287.997 39.6424 288.263C46.9517 289.948 54.2166 291.381 61.452 287.657C63.8934 286.401 65.8465 284.938 66.7787 282.456C67.5037 280.535 68.0067 278.481 68.2435 276.442C68.9833 269.777 69.6639 263.113 70.1522 256.434C71.4246 239.041 74.961 222.107 80.1988 205.513C80.4356 204.774 80.8499 204.094 81.4121 202.897C82.3887 205.882 83.1137 208.335 83.9867 210.729C87.6857 220.792 93.4414 229.717 99.4191 238.524C105.589 247.597 111.848 256.626 116.627 266.571C117.826 269.097 118.935 271.683 120.134 274.225ZM102.556 97.7597C102.378 97.7449 102.201 97.7301 102.023 97.7153C102.127 96.7253 102.23 95.7352 102.334 94.76C102.511 94.7747 102.689 94.7895 102.881 94.8043C102.778 95.7796 102.659 96.7696 102.556 97.7597ZM103.562 90.4746C103.296 90.4599 103.029 90.4303 102.763 90.4156C103.089 86.6031 103.429 82.8055 103.754 78.993C104.08 79.0373 104.391 79.0817 104.716 79.1408C104.331 82.9089 103.947 86.6917 103.562 90.4746ZM111.641 12.7483C111.937 13.7531 112.41 14.492 112.218 14.9353C111.848 15.8071 111.152 16.5608 110.501 17.2701C108.193 19.7969 105.959 22.3829 103.503 24.7471C98.7237 29.3575 95.5869 34.9432 93.471 41.1199C91.5031 46.8829 89.7572 52.7345 87.9224 58.5418C87.6857 59.2807 87.4342 60.0048 86.576 60.5811C87.1531 57.404 87.6857 54.2122 88.3368 51.05C90.0235 43.0261 92.169 35.1205 96.8446 28.2345C98.6793 25.5451 100.869 23.0478 103.133 20.6983C105.634 18.0828 108.43 15.7185 111.641 12.7483ZM78.7488 17.2701C78.7488 16.3539 79.459 15.4525 79.8289 14.5363C80.1545 14.6398 80.4947 14.7432 80.8203 14.8466C80.6575 23.5354 81.6192 32.0469 84.9632 40.189C85.3479 31.7957 82.6402 23.5798 83.2764 15.4968C89.8903 14.0782 96.2379 12.7188 102.482 11.3888C104.613 14.9501 104.598 15.5411 101.89 17.7577C94.5067 23.8014 90.4822 31.8992 87.7005 40.7505C86.6204 44.1935 85.8213 47.7252 84.5785 51.2273C84.5045 43.3217 80.5391 36.4209 79.2222 28.8994C78.5564 25.1018 78.7635 21.1416 78.7488 17.2701ZM68.1251 35.5195C74.5171 50.1042 79.2223 64.3344 72.2976 79.9535C64.5888 65.812 65.3582 51.0352 68.1251 35.5195ZM59.277 14.0339C58.8479 17.3735 58.4484 20.4028 57.9897 23.8458C54.5866 18.6295 54.8677 16.3096 59.277 14.0339ZM51.3758 109.995C49.3487 103.744 46.6706 97.7005 44.2144 91.5977C43.3563 89.4403 42.1874 87.4158 41.3588 85.2584C38.3108 77.338 33.8571 70.2008 29.1075 63.2261C28.0865 61.7189 27.258 60.0786 26.2814 58.527C24.5947 55.8377 22.9227 53.1483 21.1619 50.518C18.4542 46.4691 15.3322 42.6567 13.024 38.4158C9.5321 31.9878 6.55807 25.2791 3.40647 18.6739C3.2881 18.4079 3.4065 18.0237 3.4361 17.3883C5.10807 17.9498 5.24121 19.3979 5.81826 20.4618C9.31017 26.8898 12.6689 33.3916 16.3383 39.7161C17.7292 42.11 19.7563 44.1492 21.5763 46.277C22.1829 46.9863 23.0411 47.5035 23.9584 47.9616C17.1966 37.8099 10.8342 27.4956 6.11421 16.0583C8.0969 14.3295 10.6419 13.7679 13.0684 13.236C16.2348 12.5414 19.0904 11.3445 21.6946 9.42352C24.1063 7.6503 26.8141 6.61593 30.4096 6.68982C36.2245 18.1271 42.0986 29.6826 47.9727 41.2529C47.0553 34.7806 45.2058 28.6335 42.1578 22.8853C39.1393 17.1814 35.9878 11.5514 32.7474 5.64065C36.7867 3.35023 41.1664 2.96603 46.0047 3.09903C48.6237 10.517 51.3314 17.8168 53.7876 25.2052C55.6223 30.7022 56.3029 36.2731 55.0748 42.1247C54.1575 46.5135 54.1279 51.0943 53.758 55.5865C53.684 56.4287 53.7136 57.3154 53.9059 58.1281C55.7555 65.5904 57.7234 73.0232 61.8811 79.8353C61.674 78.003 61.6444 76.1263 61.2005 74.3679C60.1647 70.2303 58.8775 66.1519 57.827 61.9996C57.4127 60.3742 57.2055 58.66 57.2351 56.9903C57.4127 47.5626 58.9071 38.2975 60.4163 29.0177C61.6592 21.4371 62.9169 13.8418 61.8959 6.09873C65.595 6.14306 65.7282 6.1874 65.7725 9.3201C65.8169 12.3641 65.8761 15.4229 65.595 18.4522C64.7812 27.4365 63.9526 36.4357 62.8576 45.3904C61.6443 55.3796 62.3397 65.1323 65.6985 74.6339C66.9562 78.1951 68.5098 81.6529 69.7083 85.2436C70.1522 86.544 70.2854 88.1399 70.0042 89.4698C67.4593 101.424 65.4766 113.438 64.2485 125.614C63.7454 130.579 62.6801 135.485 61.7479 141.204C61.0673 139.918 60.6678 139.297 60.3867 138.632C56.5101 129.338 54.4534 119.496 51.3758 109.995ZM73.8217 212.458C69.9451 226.377 67.2965 240.519 66.1424 254.926C66.0093 256.626 65.6542 258.31 65.4766 260.01C65.0771 263.881 64.6924 267.767 64.3521 271.654C64.1745 273.723 64.1598 275.791 63.923 277.86C63.5827 280.889 61.9847 282.988 59.0846 284.199C55.5039 285.692 51.9232 286.608 48.0318 285.707C46.6114 285.367 45.1466 285.145 43.6965 284.923C38.3847 284.096 34.9816 279.825 36.0469 274.55C37.9408 265.063 38.3255 255.429 39.45 245.868C40.3378 238.243 41.5215 230.559 43.6522 223.215C49.2008 204.079 53.8172 184.721 58.8479 165.467C59.1882 164.167 59.4842 162.852 59.9576 161.596C65.6246 146.73 67.9624 131.185 69.6491 115.492C70.8624 104.188 73.215 93.0754 76.5145 82.1996C80.6427 68.5606 79.9621 55.1727 74.3395 42.11C71.3803 35.2535 69.4716 28.3084 70.4777 20.7869C70.6257 19.7378 70.7589 18.6738 70.9512 17.2996C72.4752 17.8316 73.7033 18.2749 75.1238 18.7773C74.088 26.1509 76.2038 32.8153 78.4085 39.6127C83.0989 54.1531 83.1581 68.8709 78.808 83.5739C77.9054 86.6179 77.2988 89.7358 76.5738 92.8242C76.5294 92.9867 76.7217 93.2083 76.9437 93.7551C82.507 85.3914 83.38 75.8308 85.6882 66.6987C84.756 78.3724 82.0483 89.7654 80.1544 101.277C80.4059 101.35 80.6427 101.424 80.8942 101.498C81.3677 100.227 81.8708 98.9713 82.3147 97.6857C85.3479 88.8787 87.2862 79.8058 88.5883 70.5998C90.0827 60.0048 93.3526 49.8974 97.0813 39.9378C99.0196 34.7511 101.801 30.0373 105.648 25.9588C108.578 22.8557 111.345 19.6048 114.348 16.2209C115.325 17.6838 116.168 18.9842 117.145 20.4618C113.357 25.7076 109.673 30.8204 105.989 35.9332C109.17 34.8102 110.709 32.1799 112.529 29.8599C114.378 27.4956 115.976 24.9392 117.885 22.1907C119.853 25.1757 121.658 27.8798 123.478 30.6579C122.634 34.0122 120.933 36.9381 119.039 39.79C115.739 44.7698 112.81 50.0304 109.155 54.7442C103.059 62.5907 101.417 71.9001 100.632 81.18C99.3303 96.5184 96.0307 111.266 91.148 125.836C88.2479 134.495 86.4132 143.509 84.105 152.375C83.9422 153.01 83.9422 153.705 84.2234 154.458C90.5414 137.495 96.2231 120.353 101.639 103.02C101.505 104.158 101.491 105.34 101.209 106.448C99.3155 113.778 97.2293 121.063 95.4389 128.407C92.6276 139.903 90.2158 151.518 87.2418 162.97C82.9805 179.52 78.4085 195.996 73.8217 212.458ZM97.8507 230.279C92.4649 222.21 88.7066 213.389 85.0223 204.434C82.8769 199.247 83.0841 194.711 84.4453 189.687C87.3898 178.855 90.1715 167.965 93.0271 157.104C93.1159 156.778 93.323 156.483 93.9001 155.36C94.8618 158.138 95.6165 160.177 96.2675 162.246C97.5844 166.428 98.6644 170.698 100.188 174.806C103.207 182.933 106.181 191.105 109.717 198.996C114.097 208.778 118.432 218.605 124.632 227.501C127.902 232.185 130.402 237.401 133.288 242.351C134.205 243.932 135.359 245.366 136.321 246.917C138.895 251.04 141.544 255.133 143.911 259.389C144.71 260.822 144.844 262.669 145.125 264.339C145.938 269.024 145.376 269.999 141.204 272.053C138.57 273.338 135.981 274.727 133.362 276.043C128.716 278.377 125.668 277.387 123.478 272.806C121.732 269.171 120.134 265.492 118.358 261.872C117.396 259.906 116.346 257.97 115.133 256.138C109.392 247.494 103.606 238.894 97.8507 230.279Z" fill="#E6E6E6"/>
</svg>
