<svg width="32" height="11" viewBox="0 0 32 11" fill="none" xmlns="http://www.w3.org/2000/svg">
<path fill-rule="evenodd" clip-rule="evenodd" d="M8.00009 10.4309H5.23078L3.15413 2.27539C3.05556 1.90024 2.84628 1.56858 2.53843 1.41226C1.77015 1.01944 0.923555 0.70681 0 0.549136V0.235147H4.46115C5.07685 0.235147 5.53863 0.70681 5.61559 1.25459L6.69307 7.13745L9.46103 0.235147H12.1534L8.00009 10.4309ZM13.6917 10.4309H11.0763L13.2299 0.235147H15.8453L13.6917 10.4309ZM19.231 3.05969C19.308 2.51055 19.7697 2.19656 20.3085 2.19656C21.1551 2.11772 22.0773 2.2754 22.8469 2.66686L23.3087 0.471662C22.539 0.157674 21.6925 0 20.9242 0C18.3858 0 16.5386 1.41227 16.5386 3.37232C16.5386 4.86342 17.847 5.64635 18.7706 6.11802C19.7697 6.58832 20.1545 6.90231 20.0776 7.37261C20.0776 8.07807 19.308 8.39205 18.5397 8.39205C17.6161 8.39205 16.6926 8.1569 15.8473 7.76408L15.3856 9.96064C16.3091 10.3521 17.3083 10.5098 18.2318 10.5098C21.0781 10.5873 22.8469 9.17635 22.8469 7.05862C22.8469 4.39176 19.231 4.23545 19.231 3.05969ZM31.9999 10.4309L29.9233 0.235147H27.6927C27.2309 0.235147 26.7691 0.549136 26.6152 1.01944L22.7698 10.4309H25.4621L25.9995 8.94119H29.3076L29.6154 10.4309H31.9999ZM28.0757 2.98084L28.844 6.82346H26.6903L28.0757 2.98084Z" fill="white"/>
</svg>
