<svg width="143" height="143" viewBox="0 0 143 143" fill="none" xmlns="http://www.w3.org/2000/svg">
<g clip-path="url(#clip0_0_401)">
<path d="M139.76 19.4068C122.454 19.4068 98.0046 20.8549 85.5103 33.3425C80.1009 38.7519 77.3997 47.5703 78.101 57.5515C78.192 58.8698 79.0687 59.993 80.3283 60.4089C81.5815 60.818 82.9583 60.4347 83.8155 59.4284C90.7639 51.2526 99.4006 44.7004 109.505 39.9534C110.362 39.5442 111.375 39.5117 112.297 39.8365C113.109 40.1287 113.745 40.6806 114.076 41.3886C114.765 42.8433 114.544 44.7589 112.258 45.8367C112.128 45.9016 112.011 45.9862 111.882 46.0446C111.836 46.0641 111.784 46.0577 111.745 46.0772C86.8482 57.7792 74.6074 78.1957 69.0485 99.19C64.9964 72.9031 56.4377 57.4282 48.3529 47.928C42.5021 40.3433 36.7483 36.3234 33.4237 34.0508C32.8067 33.6286 30.9432 32.3559 30.1703 31.583C28.904 30.3167 28.904 28.2581 30.1703 26.9918C31.4366 25.7319 33.5016 25.7319 34.9107 27.1346C35.255 27.4399 35.8068 27.8295 36.5082 28.2971L37.0862 28.6867C41.7876 31.9075 50.5415 37.8883 58.3079 50.7655C59.0028 51.9149 60.347 52.532 61.6523 52.2851C62.977 52.0513 64.0159 51.0319 64.2759 49.7135C65.9708 41.0574 65.211 28.2124 57.49 20.4914C44.996 8.0102 20.5468 6.56218 3.24731 6.56218C1.45471 6.56188 0 8.01659 0 9.80888C0 27.1148 1.44802 51.564 13.9356 64.0583C19.1435 69.2662 27.1766 71.604 35.1573 71.604C41.6704 71.604 48.054 69.9739 52.9438 67.1491C59.6128 80.9678 64.938 101.612 64.938 133.191C64.938 134.983 66.3927 136.438 68.185 136.438C69.9773 136.438 71.432 134.983 71.432 133.191C71.432 115.574 74.4516 94.4295 85.6793 77.0262C90.1795 81.4226 97.9267 84.2085 106.511 84.4681C106.94 84.4812 107.362 84.4876 107.784 84.4876C116.505 84.4876 124.213 81.7538 129.064 76.8962C141.558 64.4022 143 39.953 143 22.6468C143.007 20.8549 141.558 19.4068 139.76 19.4068Z" fill="#00B307"/>
</g>
<defs>
<clipPath id="clip0_0_401">
<rect width="142.484" height="142.484" fill="white" transform="scale(1.00362)"/>
</clipPath>
</defs>
</svg>
