<svg width="30" height="18" viewBox="0 0 30 18" fill="none" xmlns="http://www.w3.org/2000/svg">
<path fill-rule="evenodd" clip-rule="evenodd" d="M20.9015 17.9799C25.9264 17.9799 29.9998 13.955 29.9998 8.98997C29.9998 4.02495 25.9264 0 20.9015 0C18.6495 0 16.5886 0.808455 14.9999 2.14766C13.4111 0.80846 11.3502 7.52997e-06 9.09824 7.52997e-06C4.07342 7.52997e-06 0 4.02495 0 8.98998C0 13.955 4.07342 17.9799 9.09824 17.9799C11.3502 17.9799 13.4111 17.1715 14.9999 15.8323C16.5886 17.1715 18.6495 17.9799 20.9015 17.9799Z" fill="#ED0006"/>
<path fill-rule="evenodd" clip-rule="evenodd" d="M14.999 15.8322C16.9551 14.1833 18.1955 11.7297 18.1955 8.98997C18.1955 6.2502 16.9551 3.79668 14.999 2.14776C16.5878 0.808493 18.6487 0 20.9008 0C25.9256 0 29.999 4.02495 29.999 8.98997C29.999 13.955 25.9256 17.9799 20.9008 17.9799C18.6487 17.9799 16.5878 17.1714 14.999 15.8322Z" fill="#F9A000"/>
<path fill-rule="evenodd" clip-rule="evenodd" d="M14.9997 15.8323C16.9558 14.1834 18.1961 11.7299 18.1961 8.99009C18.1961 6.25032 16.9558 3.7968 14.9997 2.14788C13.0435 3.7968 11.8032 6.25032 11.8032 8.99009C11.8032 11.7299 13.0435 14.1834 14.9997 15.8323Z" fill="#FF5E00"/>
</svg>
