<svg width="117" height="199" viewBox="0 0 117 199" fill="none" xmlns="http://www.w3.org/2000/svg">
<path d="M20.7651 10.6025C20.4986 16.2364 20.0248 21.8556 19.6546 27.4896C19.5806 28.6134 19.5213 29.752 19.4473 30.8759C17.5076 27.6227 16.2194 24.192 14.4575 21.0127C12.7399 17.8926 10.7854 14.8317 8.47556 12.1404C6.1213 9.38993 4.59621 5.95928 1.24991 3.16448C0.820518 5.05725 0.346702 6.35854 0.228249 7.70418C-0.201144 12.8206 -0.141906 17.937 1.4424 22.8612C2.52329 26.2179 2.98232 29.6189 3.08597 33.1087C3.18961 37.0126 3.32286 40.9164 3.35247 44.8203C3.42651 53.3378 4.19645 61.8109 7.37988 69.7664C10.1487 76.7017 13.1693 83.5926 16.7377 90.1433C21.0464 98.0545 23.6524 106.498 25.9474 115.104C26.5101 117.189 26.747 119.378 26.9543 121.522C27.6058 128.221 28.0796 134.934 28.8199 141.618C29.6787 149.426 32.2106 156.627 37.3041 162.779C38.3406 164.035 39.4659 165.218 40.4431 166.505C43.0787 169.95 46.3213 172.523 50.2007 173.677C51.7554 176.353 52.1848 179.045 52.6438 181.81C53.3249 185.995 52.3773 190.534 55.1461 194.305C55.309 194.527 55.1461 194.956 55.2201 195.266C55.842 198.091 58.3147 199.628 61.0836 198.756C62.7271 198.238 64.2818 197.41 65.8809 196.73C73.7285 193.329 78.9848 188.065 78.7035 178.852C78.7035 178.645 78.7035 178.379 78.8219 178.231C80.3618 176.353 79.74 174.357 79.0441 172.021C86.9952 167.392 90.9338 160.206 92.7994 151.762C93.6582 147.858 94.2801 143.851 94.4577 139.873C94.7687 132.775 96.5899 126.195 99.9362 119.984C100.81 118.357 101.624 116.701 102.365 115.016C104.926 109.056 106.007 102.757 106.392 96.3392C106.732 90.6017 108.065 85.2192 110.923 80.2063C111.826 78.6092 112.551 76.8939 113.395 75.2673C117.63 67.1787 117.911 58.8682 114.832 50.3803C113.943 47.9256 112.951 45.5153 112.048 43.0754C109.338 35.7557 107.991 28.2289 108.761 20.3917C108.953 18.351 108.865 16.266 108.835 14.2106C108.835 13.7374 108.554 13.2642 108.213 12.1847C106.955 13.6487 105.829 14.6542 105.104 15.8816C102.587 20.1847 100.084 24.5173 97.8189 28.9535C94.7243 35.0015 94.1764 41.6114 94.1024 48.2805C94.058 52.9533 93.8358 57.6113 92.4884 62.1362C91.911 64.0733 91.1707 65.9513 90.5044 67.8589C88.846 64.724 89.2754 61.5743 89.2754 58.4837C89.2902 49.5818 87.6318 41.0052 84.4336 32.7391C83.6637 30.728 83.2195 28.8204 83.6489 26.7502C84.0339 24.9609 83.3084 23.5709 82.1682 22.3288C81.5908 21.693 80.9393 21.131 80.2878 20.51C82.0942 16.3843 81.4575 12.6431 78.5998 9.21248C80.6283 6.62471 79.3402 4.51012 77.8003 2.70607C77.9039 1.77448 78.1853 0.857663 78.2741 0.0443619H75.7569C75.7569 0.310533 75.7569 0.576704 75.7421 0.887238C74.143 0.887238 72.5291 0.695003 70.9744 0.946387C69.3605 1.19777 67.9538 1.1682 66.9174 0.0443619H53.4137C53.6654 0.990748 52.9992 2.30682 52.7326 3.71161C50.793 3.54895 49.4159 3.40108 48.0389 3.32714C46.8248 3.2532 45.6551 2.75044 45.892 1.5083C45.9808 0.990748 46.3214 0.502768 46.7211 0.0443619H43.3304C43.0195 0.828088 42.9602 1.65618 43.4488 2.48426C44.3224 3.96299 43.7154 4.96853 42.9751 6.03321C40.8725 9.02025 40.0878 12.0664 42.368 15.0535C41.5388 16.1181 40.8577 16.9906 40.0137 18.0849C39.7028 17.035 39.5547 16.2956 39.2586 15.6302C36.8895 10.425 34.5353 5.21991 32.0774 0.0591492H29.1604C29.5306 0.768939 29.8711 1.49352 30.1673 2.26246C32.3439 7.92599 34.9202 13.4269 37.3041 19.0165C38.1925 21.0719 39.0217 23.1569 40.0878 25.7299C39.1845 28.1254 38.5923 31.142 40.4727 34.1439C39.4215 35.2233 38.4738 36.1993 37.2893 37.4118C36.6378 36.3619 36.0455 35.4895 35.5569 34.5727C32.5956 29.057 30.9373 23.0978 29.96 16.961C28.9384 10.8243 26.8506 5.21991 23.6968 0H20.5726C20.6318 0.177447 20.691 0.369682 20.691 0.561917C20.7651 3.90384 20.928 7.26056 20.7651 10.6025ZM26.8506 103.615C23.7708 97.5222 20.8687 91.3411 18.011 85.1304C15.5679 79.8218 13.0952 74.4984 10.9631 69.0567C7.97212 61.382 7.08375 53.2934 7.00972 45.1012C6.9653 41.3009 6.84682 37.5154 6.75798 33.715C6.66914 29.7816 6.10653 25.9813 4.75912 22.2401C3.47095 18.6911 3.07113 14.9352 3.47091 10.7208C7.70561 15.2753 11.0371 19.9776 13.0212 25.375C16.7525 35.5191 22.0829 44.8055 27.4873 54.0919C29.7527 57.9958 31.0557 62.1953 31.1149 66.7794C31.1742 71.186 31.4259 75.6074 31.6332 80.6647C27.7242 75.637 24.4815 70.9198 22.0829 65.7147C19.699 60.554 17.6853 55.2157 15.4495 49.8184C15.1386 53.3525 16.5008 60.0956 18.3812 64.2508C21.461 71.1121 25.4292 77.4558 30.0489 83.356C31.7664 85.5445 32.9658 87.733 33.1138 90.6609C33.2175 92.6867 34.3576 94.6682 35.2904 97.4039C33.6025 101.071 33.3359 106.01 34.9054 109.81C34.2243 110.683 33.5136 111.6 32.4623 112.945C30.4782 109.692 28.4497 106.764 26.8506 103.615ZM36.4009 157.396C34.3872 154.305 32.9657 150.919 32.255 147.326C31.6035 144.043 31.3518 140.672 31.0113 137.33C30.2117 129.685 29.4566 122.04 28.6866 114.394C28.6422 114.01 28.657 113.611 28.6274 112.635C30.8188 115.504 32.181 118.195 32.9954 121.108C33.7505 123.814 34.4316 126.579 34.6982 129.359C35.6162 138.631 36.3417 147.902 37.1264 157.189C36.8895 157.263 36.6526 157.337 36.4009 157.396ZM76.3196 69.8995C82.0054 69.2489 84.6409 73.1823 82.7013 79.1416C80.6876 79.2599 78.6591 79.3634 76.3492 79.4965C75.8902 78.9346 75.2979 78.21 74.4688 77.1897C77.0895 75.0899 76.6305 72.4429 76.3196 69.8995ZM85.4109 129.995C83.2343 130.054 81.0873 130.113 78.7035 130.173C78.0371 128.842 77.2672 127.333 76.5861 125.943C77.4449 124.228 78.3037 122.572 79.3254 120.531C81.3983 120.102 83.9154 119.984 85.8403 121.921C87.2765 123.385 86.8175 128.147 85.4109 129.995ZM86.1068 141.086C84.4632 144.442 81.5611 142.431 79.4438 143.037C78.7035 140.642 78.0816 138.646 77.4597 136.664C77.2969 136.679 77.1191 136.709 76.9563 136.723C77.4301 135.54 77.9039 134.357 78.4666 132.967C80.9393 133.204 83.7822 131.518 85.7662 134.402C87.2025 136.487 87.2765 138.69 86.1068 141.086ZM82.6273 117.707C81.4427 117.633 80.2582 117.603 78.9108 117.559C78.1112 116.317 77.4301 115.237 76.8526 114.335C77.8743 112.309 78.8663 110.343 79.9176 108.243C84.1819 108.361 86.2697 110.431 86.0328 114.675C85.9143 117.041 84.9963 117.855 82.6273 117.707ZM82.8641 105.448C79.6215 105.833 77.5782 104.176 76.0827 101.367C76.7935 99.7107 77.593 97.8623 78.4518 95.8808C80.7468 95.8512 83.175 95.5259 84.4336 98.3355C85.6626 101.13 85.2184 103.215 82.8641 105.448ZM58.8478 138.069C59.1883 136.827 60.21 136.442 61.3501 136.398C65.5996 136.221 69.7751 136.62 73.7729 138.187C75.0611 138.69 75.9495 139.636 75.9791 141.115C76.0087 142.727 75.5348 144.176 73.9061 144.812C72.9289 145.196 71.848 145.433 70.7968 145.492C66.9322 145.699 63.0529 145.803 58.9662 145.936C57.5448 143.525 58.0926 140.79 58.8478 138.069ZM57.8409 130.439C57.7373 128.62 59.3808 125.766 60.9207 125.588C64.5631 125.145 68.2351 124.849 71.7443 126.476C75.7421 128.324 76.5861 130.705 74.6613 134.668C69.9676 134.254 65.5848 133.884 61.2168 133.47C59.6621 133.307 57.9149 131.666 57.8409 130.439ZM75.3571 121.966C74.676 123.326 73.3139 123.533 71.0633 123.104C68.8571 122.69 66.5917 122.631 64.3559 122.365C62.89 122.187 61.3501 122.113 59.9731 121.64C57.7224 120.857 57.2783 119.895 57.6632 117.736C58.0038 115.814 59.1143 114.675 61.1872 114.69C64.5335 114.705 67.8798 114.912 71.2113 115.193C72.2478 115.282 73.2546 115.844 73.9061 116.065C75.6385 117.367 76.2159 120.28 75.3571 121.966ZM58.4628 159.88C63.1121 158.372 67.8502 158.431 72.4846 160.146C72.7808 160.25 73.0326 160.501 73.1954 160.605C74.7057 161.832 75.3572 163.932 74.8538 165.677C74.3948 167.244 72.9437 167.658 71.7591 167.525C67.6133 167.037 63.5711 167.688 59.4845 168.161C58.8922 168.235 58.1518 168.072 57.6632 167.747C55.5311 166.313 56.0049 160.664 58.4628 159.88ZM73.0621 157.263C68.9015 156.257 64.7556 155.71 60.5061 156.553C58.9218 156.878 58.374 155.666 58.0038 154.557C57.4115 152.797 59.3068 149.041 61.1132 148.775C65.0666 148.169 69.0791 147.769 73.0621 148.671C73.4767 148.76 73.8617 148.967 74.0838 149.056C75.979 150.461 76.8526 154.66 75.5348 156.331C75.061 156.938 73.8025 157.44 73.0621 157.263ZM71.6407 112.029C67.9835 112.162 64.2966 111.792 60.6246 111.629C58.6405 111.541 57.915 110.86 57.678 108.908C57.2931 105.7 58.522 104.058 61.6758 103.511C63.0676 103.26 64.4299 102.89 65.8217 102.668C68.6942 102.21 71.4334 102.52 74.1578 104.206C74.4984 104.65 75.1055 105.167 75.4016 105.847C77.1784 109.988 75.9939 111.866 71.6407 112.029ZM80.2138 92.9086C79.355 92.9381 78.4814 92.9381 77.3264 92.9529C76.5713 91.696 75.905 90.6017 75.3868 89.7441C76.1863 87.1711 76.9118 84.8347 77.667 82.38C83.8265 81.6554 84.3744 82.1138 84.4336 88.3245C84.4632 92.11 83.871 92.7607 80.2138 92.9086ZM74.8538 95.5703C75.1351 97.5074 73.7729 99.2967 71.4483 99.5185C67.2876 99.9177 63.1121 100.08 58.833 100.347C57.145 98.3207 57.0266 96.0139 58.0926 93.5C59.4548 90.2764 59.8546 89.9659 63.423 90.2764C65.7921 90.4834 68.176 90.6165 70.5302 90.9862C73.003 91.3855 74.4984 93.1008 74.8538 95.5703ZM72.5883 88.0731C69.4641 87.7922 66.5472 87.4077 63.6303 87.319C61.0984 87.245 59.3216 85.929 57.7669 84.2432C55.6199 81.9068 56.5231 78.9346 59.6325 78.4762C62.505 78.0473 65.4812 77.8255 68.3684 78.0917C73.9061 78.6092 75.7865 83.1933 72.5883 88.0731ZM73.4027 73.8625C72.9141 74.6167 71.6407 75.2673 70.7226 75.2673C66.7397 75.2969 62.7567 75.0603 58.448 74.9124C57.0561 72.6352 57.145 69.8256 57.4856 67.0604C57.5744 66.321 58.596 65.419 59.3808 65.1084C63.2157 63.6001 67.0654 63.8515 70.7226 65.7591C72.6623 66.7646 74.5132 72.162 73.4027 73.8625ZM70.8263 61.7961C67.3912 61.663 64.6076 61.4412 61.8387 61.456C57.1746 61.4856 54.6871 57.7592 56.7304 53.5004C57.0413 52.8498 57.9445 52.1696 58.6701 52.0513C61.2168 51.6224 63.8228 51.4598 66.3991 51.1197C68.3832 50.8683 69.7454 51.6964 70.6635 53.3673C71.1373 54.2102 71.5666 55.0827 71.9368 55.9847C72.8696 58.3359 72.6919 60.4357 70.8263 61.7961ZM70.3673 46.4469C70.1452 46.787 69.7751 47.2158 69.4197 47.2602C65.5108 47.7482 61.7647 49.5966 57.2635 48.7093C57.0562 46.7278 56.7304 44.7168 56.6712 42.7205C56.6268 40.9756 57.7373 39.7335 59.3808 39.5708C62.1496 39.3046 64.9925 39.1272 67.7318 39.4377C70.086 39.7187 71.6703 44.3914 70.3673 46.4469ZM68.8126 35.2677C67.7762 35.7557 66.6213 36.1106 65.496 36.2584C63.3638 36.5246 61.202 36.5246 59.0699 36.7464C56.4195 37.0274 55.3238 35.9331 55.9901 33.4489C56.2418 32.5173 56.6564 31.63 57.0561 30.5801C57.53 30.3139 58.0482 29.8408 58.6256 29.7668C60.7578 29.4563 62.9048 29.2049 65.0665 29.0718C68.5313 28.8648 69.1384 30.9202 69.6714 33.715C69.7455 34.1882 69.2568 35.0607 68.8126 35.2677ZM55.9457 62.5946C56.0641 62.8312 56.1678 63.0678 56.2862 63.3192C53.4137 65.9809 54.6575 69.3672 54.7315 73.0492C50.5265 70.0178 45.9068 70.5945 41.6277 69.6629C38.6663 69.0271 37.3485 66.5576 38.9032 63.8959C40.1174 61.7961 41.909 60.4061 44.5149 60.7758C48.3202 61.3377 52.1255 61.9883 55.9457 62.5946ZM42.7382 72.6795C44.3521 72.9161 45.966 73.1675 47.5799 73.2415C50.5412 73.3745 53.0139 74.5132 55.2201 76.5242C54.465 78.624 53.8283 80.4133 53.1324 82.38C52.5549 82.2617 51.9331 82.1582 51.3408 81.9955C48.1574 81.1083 44.9739 80.8421 41.7017 81.5667C38.7848 82.2173 36.7415 80.2506 37.008 77.2488C37.3337 73.3598 38.8884 72.1324 42.7382 72.6795ZM40.0582 84.9678C45.0184 83.2081 49.6825 84.3615 54.3466 85.8402C55.4867 86.1951 56.3751 87.3337 57.219 87.9992C56.0345 91.1489 55.0276 93.8549 53.9616 96.7089C51.9627 96.3836 49.638 95.9104 47.3134 95.659C45.0628 95.4224 42.7826 95.3485 40.5172 95.3337C38.5479 95.3189 37.1709 94.6387 36.4009 92.9677C34.6685 89.3152 36.2232 86.3134 40.0582 84.9678ZM55.694 102.432C55.1609 104.871 54.6871 107.06 54.3021 108.879C48.6608 108.465 43.0047 108.036 36.8895 107.592C36.8599 106.853 36.7414 105.818 36.8007 104.812C36.8451 104.073 37.156 103.348 37.2597 102.594C37.7483 98.7643 38.1777 98.2172 42.0126 98.3355C45.1368 98.439 48.261 98.8678 51.3556 99.3558C53.3249 99.6663 55.0425 100.628 55.694 102.432ZM36.2677 115.208C35.8531 112.635 36.8303 110.993 39.3474 110.949C43.2268 110.875 47.1357 111.141 51.0002 111.57C53.0436 111.792 54.6427 114.143 54.6871 116.361C54.7167 117.855 54.5538 119.348 54.465 120.945C53.5914 120.797 52.8511 120.664 52.1107 120.561C48.5571 120.043 45.0332 119.718 41.4944 120.827C39.2142 121.552 38.311 121.034 37.3782 118.905C36.8599 117.736 36.475 116.465 36.2677 115.208ZM38.6811 124.169C44.737 122.956 50.6301 121.507 56.2862 125.662C55.457 128.472 53.9616 130.764 55.694 133.071C50.5264 133.322 45.3293 133.559 39.7324 133.825C36.6082 131.208 38.3406 127.659 38.6811 124.169ZM39.8805 138.232C40.0582 137.581 40.9465 136.871 41.6424 136.664C42.975 136.28 44.3965 136.161 45.8031 136.058C47.728 135.91 49.6825 135.91 51.6073 135.792C54.4798 135.629 55.842 137.034 55.5163 139.814C55.3978 140.879 55.2942 141.958 55.3386 143.023C55.383 143.984 55.6495 144.93 55.8716 146.202C51.5185 146.542 47.4318 146.838 43.36 147.193C41.9386 147.311 41.1242 146.557 40.5319 145.463C39.2438 143.156 39.229 140.672 39.8805 138.232ZM41.2723 151.984C41.7757 151.141 42.7677 150.121 43.6413 150.017C47.7872 149.514 51.9775 149.293 56.686 148.938C55.2053 152.146 54.0948 154.912 56.3602 157.529C54.9388 158.934 53.3989 158.653 51.9182 158.431C48.4979 157.928 45.0924 157.47 41.6277 158.608C40.7245 156.316 39.9841 154.143 41.2723 151.984ZM43.9078 165.899C42.9898 164.716 41.8645 163.474 42.6789 161.832C43.4341 160.294 45.0036 160.398 46.3954 160.501C48.7497 160.664 51.1039 160.989 53.4137 161.241C53.7395 163.902 54.0652 166.416 54.4206 169.255C53.4877 169.743 52.1848 170.424 50.9114 171.089C48.0685 169.965 45.7439 168.25 43.9078 165.899ZM58.5072 196.079C58.8033 194.601 60.1063 194.024 61.1724 193.536C65.1406 191.732 68.9015 189.647 72.1738 186.734C72.6772 186.29 73.462 186.172 74.7797 185.625C71.8332 191.377 62.3569 197.248 58.5072 196.079ZM66.9766 187.562C64.5631 189.484 61.6166 190.756 58.833 192.176C57.7077 192.752 56.1529 191.791 55.9457 190.416C55.4126 186.808 55.0277 183.17 54.5686 179.385C61.7203 177.847 68.783 176.723 76.1271 179.222C76.1567 180.183 76.1863 181.233 76.2159 182.549C72.307 182.86 69.7899 185.344 66.9766 187.562ZM73.1954 175.614C68.3537 174.653 63.5415 174.697 58.7293 175.865C57.5004 176.161 56.1678 176.176 54.8944 176.161C53.4433 176.146 52.4365 175.451 52.2588 173.47C53.162 173.011 54.1245 172.375 55.1905 172.021C60.0619 170.379 65.111 169.743 70.2045 170.217C71.848 170.364 73.4915 171.192 74.987 171.991C76.2751 172.671 76.9563 173.943 76.8378 176.087C75.4756 175.91 74.3207 175.836 73.1954 175.614ZM81.3539 165.189C80.2138 165.973 78.9552 166.564 77.9187 167.141C77.5338 164.553 77.1488 161.95 76.7194 159.052C77.1784 158.579 77.9188 157.825 78.7627 156.952C79.5623 157.145 80.1101 157.204 80.5987 157.411C82.42 158.224 84.2856 159.333 84.4929 161.388C84.6558 163.281 82.7457 164.228 81.3539 165.189ZM85.2628 152.457C84.9074 153.773 83.9895 154.498 82.6569 154.424C81.4872 154.365 80.3322 154.069 79.5178 153.936C78.5109 151.481 77.6078 149.307 76.6158 146.882C77.0155 145.847 77.8003 145.019 79.4142 145.61C79.814 145.758 80.2582 145.758 80.6876 145.803C84.6113 146.261 86.2844 148.671 85.2628 152.457ZM93.8507 68.0215C96.2938 61.6334 97.3006 55.0531 97.2562 48.2657C97.197 40.3249 98.648 32.7391 102.572 25.7299C102.779 25.3454 102.972 24.9609 103.194 24.5913C103.697 23.7632 104.215 22.9499 104.734 22.1366C104.067 31.6004 106.94 40.2066 110.271 48.7389C111.1 50.8535 111.856 53.0124 112.433 55.2157C113.928 60.9976 113.366 66.6167 110.849 72.0437C109.931 74.0104 108.998 75.9771 107.947 77.8699C104.793 83.563 103.09 89.6258 102.72 96.147C102.276 103.896 100.662 111.378 96.7528 118.239C95.3609 120.679 94.3541 123.341 93.3472 125.958C91.8222 129.936 91.0226 134.076 91.0818 138.365C91.1706 144.28 90.3415 150.047 88.2538 155.592C87.9576 156.376 87.5578 157.115 86.8619 158.579C86.4177 157.396 85.8699 156.523 86.0476 156.346C89.4235 152.827 88.2537 148.967 86.9508 144.93C90.1194 140.819 91.067 136.442 87.4394 131.873C91.1411 127.999 89.0977 123.873 88.4314 120.221C90.5192 113.626 93.0511 107.518 93.6729 100.864C94.3689 93.4113 96.7379 86.4909 100.44 79.9992C102.142 77.027 103.564 74.0104 102.764 70.4467C102.69 70.1361 102.616 69.8108 102.468 69.5151C102.394 69.3672 102.157 69.2932 101.669 68.9679C101.654 73.6851 98.8701 77.0566 96.7824 80.7978C93.4953 86.6979 91.1263 92.9973 90.6081 99.8438C90.3563 103.082 89.9121 106.291 88.3574 109.648C87.4098 108.672 86.625 107.859 85.7514 106.956C89.305 102.772 88.1501 98.6904 85.9587 95.1562C86.5362 92.5241 87.01 90.3208 87.5282 88.147C87.8984 86.5648 88.2686 84.9826 88.7572 83.4299C90.4008 78.2987 91.9258 73.0788 93.8507 68.0215ZM86.0328 81.271C85.0259 78.6684 87.0248 76.5834 86.2844 74.4984C85.5293 72.3986 84.5225 70.3727 83.5749 68.199C84.256 66.5132 85.0111 64.65 86.0031 62.1953C86.5806 65.6556 87.0248 68.3025 87.469 70.9642C88.0169 74.3801 88.0613 77.722 86.0328 81.271ZM86.3733 61.382C82.8937 57.6556 84.3004 54.1806 85.5441 50.0846C86.8619 54.0919 86.24 57.5373 86.3733 61.382ZM84.1079 39.7778C84.5521 42.336 84.8779 44.1992 85.3221 46.7574C84.0783 45.1752 83.2935 44.1844 82.3903 43.0606C82.8197 42.2325 83.2935 41.3453 84.1079 39.7778ZM81.2206 66.7203C75.9198 66.7794 75.9198 66.7794 73.2546 63.7037C74.1282 61.5299 74.9574 59.4893 75.9494 57.0346C77.7855 57.0789 80.1397 56.8867 81.6944 59.2231C83.5156 61.9144 82.1238 64.3099 81.2206 66.7203ZM81.9906 48.3692C82.035 50.3803 81.8573 52.3914 81.7536 54.6686C78.7775 54.3433 76.5269 54.0919 74.2466 53.8405C73.3879 52.4653 72.5439 51.0901 71.7591 49.8184C72.5291 47.9552 73.2547 46.1955 74.1282 44.0513C75.7274 44.3619 77.5486 44.5837 79.2809 45.0569C80.8652 45.5153 81.961 46.6687 81.9906 48.3692ZM77.2672 41.6114C75.8902 41.4192 74.5132 41.3009 73.0178 41.1382C72.4255 40.044 71.8184 38.9202 71.1817 37.7372C71.8925 36.5098 72.5735 35.3268 73.4471 33.8333C74.9278 34.0551 76.512 34.1734 78.0371 34.5579C80.3026 35.1346 80.9393 36.1401 80.9244 38.5505C80.8948 41.4784 80.2138 42.0403 77.2672 41.6114ZM80.0509 31.9406C77.5338 31.6152 74.987 31.2899 72.5735 30.9794C71.3593 29.2936 70.3525 27.9332 69.2124 26.3657C69.5974 25.3158 70.0712 24.0293 70.5302 22.802C78.1261 21.5747 82.1831 22.9203 80.0509 31.9406ZM77.5781 12.6136C78.5998 14.4915 78.8959 16.5322 77.9631 18.4989C77.741 18.9721 76.7786 19.3122 76.1271 19.3418C74.2022 19.4453 72.2626 19.3714 70.1008 19.3714C69.3457 18.2919 68.6646 17.3307 67.9835 16.3843C68.3536 15.0683 68.7238 13.7522 69.1976 12.0369C70.5302 11.7559 72.0701 11.3862 73.6248 11.1496C75.1943 10.8982 76.7193 11.0165 77.5781 12.6136ZM68.1464 3.71161C69.627 3.56374 71.1521 3.19405 72.6031 3.35672C73.7877 3.4898 75.0906 4.03693 76.0086 4.79108C76.5861 5.26428 76.8675 6.5212 76.7194 7.3345C76.6454 7.76333 75.4016 8.11822 74.6464 8.2661C73.2694 8.51748 71.7592 8.32524 70.4858 8.79844C68.7682 9.44908 67.8502 8.78365 66.8434 7.37886C67.3172 6.10715 67.7022 4.9981 68.1464 3.71161ZM66.8878 20.1403C67.4356 21.4268 67.5837 22.6246 66.7693 23.8371C65.5255 25.3454 59.5733 27.2973 57.8557 26.7502C56.8341 26.4249 55.6495 24.399 55.768 22.9942C55.9012 21.4859 56.5379 20.229 58.1519 19.8741C60.1656 19.4453 62.1941 19.1348 64.2374 18.839C65.3627 18.6763 66.3399 18.8982 66.8878 20.1403ZM62.579 15.9555C61.6906 16.3252 60.7134 16.5174 59.7658 16.6653C56.76 17.1089 55.5607 16.0886 55.4126 13.1311C55.3238 11.5193 55.9309 10.4842 57.5744 10.011C60.1952 9.25684 62.6679 9.55259 65.3035 10.7356C65.6292 13.6635 64.9777 14.95 62.579 15.9555ZM55.5163 3.26799C55.768 2.6765 56.1085 2.12937 56.4047 1.55267C57.4115 0.177447 63.7191 0.399257 64.6371 1.83362C65.6144 3.3715 64.8445 5.45651 63.0529 5.82619C61.3797 6.1663 59.6621 6.35853 57.9446 6.55077C55.5903 6.83173 54.5983 5.4713 55.5163 3.26799ZM44.6186 8.38439C45.581 6.58034 46.8396 5.57481 49.0606 6.09236C50.7041 6.47683 52.4217 6.55077 54.1689 6.78737C53.1916 9.33078 52.4513 11.2975 51.5333 13.6782C49.6084 13.7522 47.2542 13.8409 44.7518 13.9296C43.0491 12.1552 43.5821 10.3067 44.6186 8.38439ZM46.5879 16.7244C48.3795 16.473 50.2599 16.4583 52.0515 16.6505C52.8659 16.7392 53.6062 17.5673 54.5538 18.1736C53.7839 19.6967 53.1176 21.0127 52.4069 22.4027C49.6084 22.521 46.8396 22.6246 43.8042 22.7576C42.1311 19.4601 43.1527 17.1976 46.5879 16.7244ZM47.0172 25.4637C48.0981 25.3602 49.1938 25.3602 50.2747 25.3898C53.2509 25.4637 53.2509 25.4785 55.1017 28.2733C54.4206 29.9295 53.7395 31.6152 52.8955 33.6707C49.6232 33.4341 46.2325 33.1827 42.7382 32.9313C40.8281 28.5395 42.2791 25.9073 47.0172 25.4637ZM41.2871 37.3675C41.7017 36.9091 42.3532 36.5246 42.9602 36.4063C47.2986 35.5191 51.4296 35.9035 54.8796 38.0329C54.4798 41.0347 54.1244 43.5634 53.8135 45.9145C50.1118 45.6336 46.2769 45.3378 41.6573 44.9829C40.295 43.8739 40.3839 41.5227 40.2802 39.2898C40.2506 38.654 40.8133 37.8998 41.2871 37.3675ZM39.6287 50.4099C39.7176 49.8775 40.295 49.2713 40.8133 48.9903C44.2484 47.068 51.3112 47.8369 54.4058 50.3951C54.08 52.0069 53.7395 53.3673 53.547 54.7426C53.3693 56.029 53.3693 57.3303 53.2805 58.6168C49.6084 58.3802 45.9956 58.1732 42.368 57.9218C40.6652 57.8035 39.3918 56.9606 39.2882 55.1714C39.1993 53.6039 39.377 51.9773 39.6287 50.4099ZM22.3642 31.216C23.0305 23.4526 23.3266 15.6597 24.3187 7.73375C24.6296 8.31046 25.0738 8.85759 25.2219 9.47865C26.2731 13.9001 27.2948 18.3362 28.2869 22.7724C29.4122 27.7853 31.189 32.532 33.7653 36.9682C34.0911 37.5301 34.328 38.2104 34.8018 38.6096C37.0968 40.5763 38.1037 43.2676 39.0365 46.2546C37.5114 47.9552 36.2529 50.0402 36.2232 52.6723C36.1788 55.2453 36.7415 57.6113 38.7996 59.5928C35.3941 62.8164 34.1651 66.321 37.0524 70.284C36.4453 71.0677 35.9271 71.7332 35.2904 72.5465C35.0831 72.162 34.8314 71.9254 34.8314 71.6888C34.6093 65.0197 33.7505 58.5133 30.3302 52.6132C28.7607 49.8923 27.3985 47.0236 25.6217 44.4506C22.8232 40.3989 21.9496 36.081 22.3642 31.216Z" fill="#E6E6E6"/>
</svg>
