<svg width="40" height="19" viewBox="0 0 40 19" fill="none" xmlns="http://www.w3.org/2000/svg">
<path d="M14.6664 18.9035L39.9996 11.2369V14.9035C39.9996 17.1127 38.2088 18.9035 35.9996 18.9035H14.6664Z" fill="#FD6020"/>
<path fill-rule="evenodd" clip-rule="evenodd" d="M35.1925 0.147786C36.5862 0.147786 37.3528 0.792506 37.3528 2.01031C37.4225 2.94157 36.7953 3.72957 35.9591 3.87284L37.8406 6.52336H36.3772L34.7744 3.94447H34.635V6.52336H33.4504V0.147786H35.1925ZM34.6346 3.08487H34.9831C35.7496 3.08487 36.098 2.72669 36.098 2.08197C36.098 1.50888 35.7496 1.1507 34.9831 1.1507H34.6346V3.08487ZM29.3384 6.52336H32.6833V5.44882H30.5231V3.72957H32.6137V2.65503H30.5231V1.22232H32.6833V0.147786H29.3384V6.52336ZM25.8544 4.44592L24.2516 0.147786H22.9973L25.5757 6.66663H26.2029L28.7812 0.147786H27.5269L25.8544 4.44592ZM11.7083 3.3714C11.7083 5.16229 13.102 6.66664 14.8442 6.66664C15.4016 6.66664 15.8894 6.52337 16.3772 6.30846V4.87575C16.0288 5.30556 15.541 5.5921 14.9835 5.5921C13.8685 5.5921 12.9626 4.73248 12.9626 3.58631V3.44304C12.8929 2.29687 13.7989 1.29397 14.9138 1.22233C15.4713 1.22233 16.0288 1.50887 16.3772 1.93869V0.505976C15.9591 0.219434 15.4016 0.147798 14.9138 0.147798C13.102 0.00452709 11.7083 1.50887 11.7083 3.3714ZM9.54638 2.58341C8.84952 2.29687 8.64046 2.15359 8.64046 1.79542C8.71014 1.3656 9.05857 1.00742 9.47669 1.07906C9.82512 1.07906 10.1735 1.29397 10.4523 1.58051L11.0795 0.720881C10.5917 0.291067 9.96449 0.00452499 9.33732 0.00452499C8.36171 -0.0671106 7.52548 0.720881 7.4558 1.72378V1.79542C7.4558 2.65504 7.80423 3.15649 8.9192 3.51467C9.19795 3.58631 9.47669 3.72958 9.75543 3.87285C9.96449 4.01612 10.1039 4.23103 10.1039 4.51757C10.1039 5.01902 9.68575 5.44883 9.26763 5.44883H9.19795C8.64046 5.44883 8.15266 5.09065 7.9436 4.58921L7.17705 5.3772C7.59517 6.16519 8.4314 6.595 9.26763 6.595C10.3826 6.66664 11.2885 5.80701 11.3582 4.66084V4.44593C11.2885 3.58631 10.9401 3.15649 9.54638 2.58341ZM5.50518 6.52336H6.68985V0.147786H5.50518V6.52336ZM0 0.147786H1.74215H2.09058C3.76304 0.219421 5.08708 1.65213 5.01739 3.37139C5.01739 4.30265 4.59928 5.16228 3.90242 5.807C3.27524 6.30845 2.5087 6.59499 1.74215 6.52336H0V0.147786ZM1.5332 5.44879C2.09069 5.52043 2.71787 5.30552 3.13598 4.94734C3.5541 4.51753 3.76316 3.94444 3.76316 3.29972C3.76316 2.72664 3.5541 2.15355 3.13598 1.72374C2.71787 1.36556 2.09069 1.15065 1.5332 1.22229H1.18477V5.44879H1.5332Z" fill="white"/>
<path fill-rule="evenodd" clip-rule="evenodd" d="M19.929 0C18.1869 0 16.7235 1.43271 16.7235 3.29524C16.7235 5.08613 18.1172 6.59048 19.929 6.66211C21.7409 6.73375 23.1346 5.2294 23.2043 3.36687C23.1346 1.50435 21.7409 0 19.929 0V0Z" fill="#FD6020"/>
</svg>
