<svg width="148" height="164" viewBox="0 0 148 164" fill="none" xmlns="http://www.w3.org/2000/svg">
<path d="M5.14522 81.9534C9.58459 92.2729 13.8096 102.761 21.525 111.261C21.8617 111.628 22.1526 112.071 22.5506 112.377C27.6789 116.382 30.9395 122.024 35.2564 126.717C42.7574 134.912 51.3606 141.256 62.9183 142.449C64.7859 142.632 66.6535 143.152 68.4292 143.748C73.6799 145.537 78.7775 145.522 83.9058 143.121C85.9418 142.173 88.2074 141.654 90.4118 141.149C92.6314 140.645 94.5909 141.47 96.4738 142.693C102.245 146.469 107.144 151.132 111.583 156.376C113.037 158.088 114.798 159.556 116.482 161.054C120.431 164.586 125.069 164.479 129.708 163.133C132.724 162.262 135.601 160.871 138.495 159.617C140.469 158.776 142.352 157.721 144.312 156.85C147.756 155.306 148.368 153.731 145.843 150.811C142.888 147.387 139.689 144.1 136.229 141.195C131.407 137.144 125.881 133.903 121.916 128.338C124.151 123.919 127.197 119.914 127.259 114.685C127.32 109.686 125.467 105.329 123.11 101.064C123.508 100.269 123.753 99.3666 124.319 98.755C127.366 95.4834 128.192 91.539 128.315 87.2278C128.498 80.6386 128.468 74.1105 126.309 67.7353C125.36 64.9223 124.227 62.2775 121.962 60.3206C120.906 59.4033 120.477 58.4401 120.446 57.0642C120.309 51.8815 118.12 47.5397 114.721 43.7788C112.854 41.7149 110.833 39.8039 108.873 37.847C103.056 32.0528 97.3617 26.1363 91.3455 20.5561C88.6972 18.11 85.4519 16.2907 82.3443 14.3797C80.2012 13.0649 77.8437 12.5909 75.7924 14.4561C73.5575 12.7591 71.7817 10.7564 69.562 9.82378C64.097 7.54584 58.4483 5.63481 52.3097 6.18519C51.4218 6.26163 50.3196 5.89475 49.5695 5.35966C44.8546 2.05742 39.4661 0.773191 33.9093 0.131089C28.3524 -0.511014 25.6582 1.1554 23.5303 6.24635C23.3466 6.705 23.1476 7.14836 22.9792 7.54586C15.1874 8.23382 14.2842 9.19698 13.3351 17.8654C9.29374 17.5902 6.95159 20.1892 4.93091 23.2009C1.67027 28.0473 -0.68719 33.1229 1.05794 39.2076C1.28756 39.9873 1.04263 40.9352 0.889551 41.776C-0.824965 51.2394 -0.396337 60.3665 5.17584 68.6679C5.39015 68.9737 5.58916 69.31 5.74224 69.6464C6.15556 70.5637 6.55357 71.5115 6.99751 72.5664C3.4307 75.2724 3.76749 78.7734 5.14522 81.9534ZM15.218 95.8656C13.3045 92.0282 11.3757 88.2062 9.64583 84.2925C8.74264 82.2438 8.16093 80.0423 7.59453 77.8714C7.45676 77.3363 7.93131 76.6331 8.35994 75.196C11.7584 79.8589 14.7894 83.8338 17.6367 87.931C23.1017 95.8197 26.8981 104.809 33.7103 112.04C31.5059 112.193 29.6689 112.331 27.5258 112.469C22.5659 107.851 18.3868 102.225 15.218 95.8656ZM14.9731 58.7765C17.6673 60.0913 31.46 73.9577 33.2051 76.9847C30.9854 80.394 31.1079 84.0173 32.1488 87.824C32.8989 90.6065 33.3276 93.4806 33.8787 96.3242C34.5063 99.55 35.1033 102.776 35.7156 106.002C35.884 106.904 36.0065 107.821 36.1443 108.738C34.1695 107.271 32.654 105.619 31.4294 103.754C29.4087 100.697 27.6942 97.4402 25.6276 94.4285C22.1373 89.3375 18.8307 84.0325 14.7434 79.4461C12.4166 76.8318 10.7174 74.1258 9.52336 71.0223C8.16093 67.4296 7.76292 63.6534 8.68141 59.8466C8.95696 58.7 9.00288 57.2629 10.947 56.9266C11.5287 63.7757 14.3914 69.6158 17.6214 70.4108C18.4327 66.2218 13.7178 63.1642 14.9731 58.7765ZM31.3681 54.1595C30.0516 50.3527 28.4902 46.6224 27.189 42.8004C26.6226 41.1492 26.2399 39.3605 26.2093 37.6329C26.1633 34.8811 28.184 33.6274 30.4956 35.0492C31.8121 35.8595 32.9602 37.2049 33.7256 38.5502C35.6085 41.8831 37.7057 44.9713 40.7061 47.4021C41.2725 47.8608 41.6705 48.5028 41.9767 48.8545C39.7723 57.905 40.1703 66.5429 42.9717 74.9667C40.9817 75.2877 39.16 75.5629 37.4608 75.8381C34.7206 72.8263 31.9958 69.8757 29.3321 66.8639C28.4289 65.8396 27.3421 64.7847 26.9288 63.5464C25.1836 58.272 24.2039 52.8447 24.4029 47.1422C27.189 51.4687 27.9697 56.9419 32.4397 60.3512C32.4091 58.165 32.0417 56.1163 31.3681 54.1595ZM44.6709 26.1057C47.4264 27.7568 48.6204 29.943 48.9419 32.9089C49.3246 36.4099 49.9369 39.8956 50.7177 43.3354C51.1157 45.0936 52.0495 46.7447 52.6312 48.2124C49.6461 47.5856 46.7835 46.9893 43.0942 46.2249C41.1194 43.1367 38.6854 39.3299 36.2055 35.5232C35.7309 34.7893 35.2411 33.9791 34.5675 33.4593C32.3632 31.7776 32.5009 29.3468 33.052 27.2676C33.45 25.7846 34.8737 24.1182 36.2667 23.4455C38.119 22.5435 39.6039 24.1641 40.553 25.7082C41.6093 27.4205 42.4206 29.2703 43.2932 31.0896C43.8596 32.2515 44.3341 33.4593 44.8546 34.6365C45.1914 34.5295 45.5435 34.4225 45.8803 34.3154C45.4976 31.6859 45.0996 29.041 44.6709 26.1057ZM60.4077 28.4448C65.934 33.551 72.6083 36.3946 79.895 38.3362C79.1602 43.3048 80.4461 47.0963 82.8036 50.4903C84.5181 52.967 86.5847 55.2144 88.3911 57.6299C89.034 58.5013 89.7535 59.5409 89.8453 60.5499C90.0444 62.6138 89.83 64.7236 89.7841 67.0627C86.3704 66.6652 83.0179 64.8612 79.8032 66.6193C78.0887 64.6624 76.7569 62.7514 75.0576 61.2837C72.792 59.3269 70.4652 56.8655 67.7557 56.1011C62.5203 54.6334 59.5198 51.3617 57.0093 46.9129C54.6519 42.7239 53.3813 38.3209 53.1823 33.5969C53.121 32.0528 53.6568 30.4781 53.9324 28.8881C57.4839 29.8207 57.4839 30.05 59.7801 32.6031C62.6274 35.7831 65.7197 38.749 68.766 41.7455C69.2865 42.2653 70.1131 42.464 70.802 42.8157C68.2455 37.2661 62.6274 34.2237 60.4077 28.4448ZM98.1118 45.5828C104.97 50.8267 110.557 56.0093 112.41 64.005C112.593 64.8 112.609 65.7632 112.318 66.497C110.925 70.105 110.435 73.8048 110.68 77.6421C110.818 79.8436 110.741 82.0604 110.772 84.2618C109.991 83.7726 109.761 83.2223 109.455 82.7178C105.995 76.893 101.832 71.7561 95.6625 68.5915C93.5499 67.506 92.907 65.8855 93.3968 62.7514C95.4022 63.4699 95.9227 66.3594 98.9384 66.5582C98.2189 65.381 97.8362 64.6166 97.3157 63.9592C94.1469 60.0301 90.7945 56.2387 87.8247 52.1873C85.9877 49.6801 84.5487 46.8211 83.2475 43.9775C82.528 42.4028 82.1453 40.4001 83.9058 39.1159C85.4825 37.9693 87.1817 38.7337 88.4676 39.7427C90.7332 41.5314 93.2131 43.259 94.8511 45.5522C97.9128 49.8482 100.439 54.5417 103.209 59.0517C103.73 59.8925 104.312 60.6875 104.878 61.4978C104.878 55.3825 101.388 50.9642 98.1118 45.5828ZM53.9171 54.6028C57.9278 56.2845 61.2191 57.7675 64.5869 59.0211C70.1284 61.0697 74.0167 65.1364 77.6907 69.0195C75.2567 77.9325 75.9761 86.7844 74.9046 95.3458C67.3883 90.744 59.8872 86.0812 52.325 81.5712C50.4268 80.4398 48.9572 79.125 47.8244 77.1682C43.7065 70.0592 42.8493 62.4456 43.9208 54.4958C44.0892 53.2116 44.7475 51.9885 45.3292 50.261C47.4876 52.0803 49.3399 53.3798 50.8554 55.0003C52.4934 56.7279 53.7946 58.7765 55.2948 60.6569C56.6266 62.3233 57.2696 64.586 59.6576 65.7632C59.0759 61.406 56.2286 58.5472 53.9171 54.6028ZM120.201 124.99C119.329 126.274 118.87 127.848 118.349 128.98C119.666 130.325 120.599 131.304 121.549 132.251C123.768 134.468 125.911 136.807 128.284 138.856C130.473 140.752 132.984 142.28 135.265 144.1C138.326 146.531 141.097 149.252 143.455 152.493C140.898 153.731 138.893 154.786 136.811 155.703C134.147 156.881 131.499 158.088 128.743 158.99C124.656 160.336 120.691 159.954 117.278 157.125C115.043 155.275 112.808 153.364 110.955 151.163C107.741 147.341 103.959 144.268 99.8875 141.44C94.1776 137.465 88.4064 136.272 81.732 139.223C78.7316 140.553 75.1036 141.073 71.797 140.966C67.6791 140.828 63.5765 139.651 59.4739 138.902C55.5397 138.183 52.1413 136.303 48.7429 134.269C42.5584 130.554 37.8129 125.356 33.251 119.914C32.057 118.477 31.0313 116.933 31.2303 114.303C33.8021 115.603 36.129 116.566 38.2262 117.896C40.997 119.639 43.5994 121.657 46.263 123.568C49.6002 125.968 53.1976 127.573 57.3461 128.154C62.3519 128.842 67.2964 129.943 72.2409 130.952C76.9099 131.9 81.3799 131.349 85.8346 129.545C84.1813 128.857 82.4974 128.506 80.7982 128.353C78.5326 128.139 76.2364 128.292 74.0014 127.925C67.8934 126.916 61.8161 125.739 55.7387 124.592C52.1872 123.919 48.6051 122.666 46.4161 119.914C43.4616 116.199 40.553 112.239 39.5274 107.393C37.92 99.7488 36.3586 92.0741 34.8431 84.4147C34.6594 83.4516 34.7053 82.3814 34.9349 81.4183C35.1033 80.6997 35.7003 80.0882 36.328 79.0792C39.6652 85.2862 41.5021 91.9671 47.8856 95.4681C46.217 89.3528 40.6755 85.1486 38.9457 78.1007C42.2982 79.4155 44.6862 80.5774 46.9518 82.2285C52.0648 85.9283 57.0859 89.8726 62.6121 92.8844C67.8934 95.7586 72.4399 99.5195 77.2467 102.975C77.9509 103.479 78.6398 104.152 79.0225 104.916C81.3493 109.64 84.8243 113.416 88.437 117.162C91.2078 120.036 92.31 123.614 91.3302 127.665C91.1312 128.46 91.2231 129.331 91.1772 130.417C93.8408 129.408 93.8561 127.023 94.3613 125.28C94.9277 123.354 94.5143 121.152 94.5296 119.073C96.4891 118.737 98.6322 120.449 100.821 118.446C99.4129 118.125 98.2495 118.064 97.2698 117.621C89.7229 114.211 84.1048 108.799 80.5839 101.278C79.0684 98.0365 77.8897 94.6731 78.2724 91.0498C78.7316 86.6009 79.3899 82.1521 79.9869 77.4586C83.4465 80.5927 86.8449 83.6656 90.2434 86.7385C90.4424 86.5551 90.6261 86.3563 90.8251 86.1729C89.8607 85.0568 88.9575 83.8797 87.9165 82.8554C85.8346 80.822 83.5843 78.9721 81.5636 76.8929C79.6195 74.9055 79.8185 72.7193 81.8698 70.579C83.1863 69.203 85.4366 69.2336 87.2123 71.1446C88.7278 72.7805 90.0444 74.722 90.9475 76.7554C92.0191 79.1556 92.5855 81.7852 93.3662 84.323C93.7489 85.5919 94.0857 86.8608 94.4378 88.1298C95.0807 82.1368 93.4428 76.7401 90.7791 71.3739C92.7233 71.6797 94.744 71.8784 96.1523 72.9028C103.102 77.9937 107.557 84.9192 110.159 93.0678C110.42 93.8781 110.389 94.8107 110.328 95.6821C110.205 97.4402 109.976 99.1984 109.807 100.957C109.562 103.54 108.889 105.879 106.899 107.76C105.858 108.753 104.909 109.977 105.475 112.102C107.343 111.138 108.965 110.313 110.971 109.289C110.833 112.025 110.68 114.532 110.603 117.04C110.527 119.685 110.312 122.345 110.527 124.974C110.787 128.2 111.782 131.273 114.139 133.841C114.461 132.236 114.491 130.661 114.369 129.102C114.17 126.58 113.42 124.026 113.68 121.58C114.323 115.404 115.058 109.273 113.512 103.143C113.42 102.791 113.527 102.394 113.573 102.011C113.803 99.8558 114.92 98.5716 117.324 98.3575C117.951 99.3207 118.533 100.269 119.176 101.186C124.702 108.815 125.82 116.719 120.201 124.99ZM122.482 68.0564C125.238 75.9451 124.396 84.0478 123.554 92.0741C123.37 93.8781 121.87 95.5445 121.074 97.0733C118.854 95.9573 117.109 95.0706 115.211 94.1227C112.639 72.2912 114.262 71.7255 118.104 62.3233C120.783 63.5464 121.686 65.7632 122.482 68.0564ZM89.7688 24.2711C94.5143 28.9799 99.3364 33.5969 104.082 38.2751C106.868 41.0117 109.685 43.7329 112.302 46.6377C115.134 49.7871 117.063 53.4256 117.17 57.9051C116.328 58.2873 115.578 58.6389 115.165 58.8376C113.359 56.1163 112.012 53.3186 109.976 51.1783C105.904 46.8823 101.434 43.045 96.0605 40.232C92.3253 38.2751 88.0696 36.6698 85.8958 32.6643C83.5078 28.246 81.4565 23.629 79.2827 19.0884C79.0837 18.6756 79.1143 18.1711 78.9612 17.1927C83.6455 18.6451 86.7837 21.3205 89.7688 24.2711ZM54.8509 11.0163C58.5708 12.3769 61.8467 14.4867 64.694 17.2691C65.8268 18.3851 67.0821 19.3636 68.9038 20.9383C68.0159 15.618 63.8214 14.0739 61.3874 11.3526C67.2352 11.1233 71.1081 14.8842 75.073 18.4005C75.5934 18.8744 75.9608 19.5776 76.267 20.235C78.5632 25.2648 80.8135 30.3099 83.1863 35.5996C82.7117 35.8901 81.9923 36.3182 81.6096 36.5475C79.6501 35.5538 78.0734 34.4683 76.3129 33.9332C72.2563 32.7102 68.6435 30.7533 65.2145 28.3225C63.4694 27.0994 61.6324 25.7846 59.6423 25.1884C53.8252 23.4608 52.126 18.8591 51.2381 13.7375C50.7483 11.001 52.1719 10.0378 54.8509 11.0163ZM32.3632 3.75438C35.9606 4.13658 39.5427 4.901 43.0329 5.86415C44.9924 6.39924 46.7681 7.66817 48.6204 8.60074C48.5133 8.93708 48.3908 9.28868 48.2837 9.62502C45.2067 8.86062 42.1145 8.12682 39.0528 7.31654C35.1646 6.27695 31.2916 5.40551 27.3574 7.92806C28.582 4.28948 29.3168 3.43332 32.3632 3.75438ZM30.6486 10.4965C37.124 11.3832 41.0123 16.5659 46.4008 20.7242C46.0027 15.7862 42.7574 13.8905 39.5274 11.0469C42.2216 11.5972 44.227 11.8113 46.0946 12.4686C46.9978 12.7744 47.9163 13.7528 48.299 14.6548C49.6614 17.8654 50.8095 21.1829 52.1566 24.7909C51.7892 25.1884 51.1157 25.8917 50.4574 26.5796C47.3192 24.3323 44.6097 22.0238 41.5634 20.3115C37.2005 17.8654 32.7305 19.6235 30.6793 24.2405C30.22 25.2954 29.8679 26.3962 29.3781 27.6804C25.1377 20.2503 25.5357 15.5721 30.6486 10.4965ZM25.0305 11.7654C24.4794 13.493 23.9284 15.2358 23.4385 16.7952C21.4178 16.7799 19.5655 16.7646 17.4683 16.7493C16.0906 10.6799 20.1778 9.28872 25.0305 11.7654ZM15.8456 24.8673C16.213 23.1703 19.2287 20.4491 20.6065 20.4338C22.1679 20.4185 23.959 22.1461 24.5866 24.424C25.1836 26.5949 25.6735 28.7964 26.2858 31.3189C23.1323 32.5573 22.5047 35.8748 22.3669 39.4369C22.0148 39.5287 21.6474 39.6357 21.2953 39.7274C19.4431 35.6455 17.5295 31.5941 15.7691 27.4816C15.4629 26.7478 15.6619 25.7082 15.8456 24.8673ZM15.0496 32.5879C16.9937 35.5232 18.9226 38.4585 20.7596 41.455C21.1116 42.0359 21.28 42.9074 21.1576 43.5648C20.3462 47.7537 21.127 51.851 21.6627 55.9635C21.7699 56.7432 21.724 57.5229 21.7546 58.9141C18.9532 56.1011 16.1824 54.5723 12.8299 55.1379C10.151 50.2304 8.43648 39.544 9.44682 34.6518C9.86014 32.6796 10.8552 31.1966 13.2279 30.4322C13.9474 31.2425 14.5751 31.8693 15.0496 32.5879ZM8.72733 24.4546C9.56928 23.0328 10.4725 21.0912 12.8758 21.3205C12.6462 23.2315 12.4319 24.9591 12.2329 26.6255C7.27306 29.2398 7.13528 29.4538 5.06868 37.6177C3.4154 31.9458 6.46172 28.2766 8.72733 24.4546ZM4.67067 60.4429C4.01242 53.655 2.16013 47.662 5.45139 41.7149C6.26272 45.5981 7.08936 49.4813 7.83946 53.3798C7.93131 53.8079 7.717 54.3582 7.50268 54.7863C6.72196 56.4221 5.88002 58.0274 4.67067 60.4429Z" fill="#E6E6E6"/>
</svg>
