<svg width="28" height="28" viewBox="0 0 28 28" fill="none" xmlns="http://www.w3.org/2000/svg">
<g clip-path="url(#clip0_0_2088)">
<path d="M25.4239 21.8207C25.0156 22.7718 24.5113 23.6787 23.9189 24.5274C23.1268 25.6562 22.4787 26.4372 21.9793 26.8712C21.2053 27.5829 20.3752 27.9481 19.4868 27.9685C18.8492 27.9685 18.0803 27.7871 17.1849 27.419C16.2866 27.0527 15.4612 26.8707 14.7063 26.8707C13.9148 26.8707 13.066 27.0527 12.1578 27.419C11.2483 27.7871 10.5157 27.979 9.95567 27.9977C9.104 28.0344 8.25467 27.6593 7.4065 26.8712C6.86575 26.3987 6.18967 25.5902 5.37884 24.4446C4.50909 23.2207 3.79392 21.8021 3.23392 20.1839C2.63425 18.4368 2.33325 16.7446 2.33325 15.1066C2.33325 13.23 2.73867 11.6118 3.55067 10.2556C4.18942 9.16592 5.03817 8.30725 6.101 7.67608C7.1437 7.05211 8.33344 6.71633 9.5485 6.70308C10.2252 6.70308 11.1124 6.9125 12.2155 7.32375C13.3151 7.73617 14.0209 7.94558 14.3307 7.94558C14.5617 7.94558 15.3463 7.70058 16.6757 7.21292C17.9333 6.76025 18.9944 6.573 19.8636 6.64708C22.2197 6.83725 23.9895 7.76592 25.1661 9.43892C23.0597 10.7152 22.0173 12.5032 22.0383 14.7968C22.0569 16.5836 22.705 18.0705 23.979 19.2506C24.5565 19.7989 25.2011 20.2224 25.918 20.5228C25.7677 20.9608 25.6029 21.3937 25.4239 21.8207ZM20.0211 0.560583C20.0211 1.96058 19.5095 3.26842 18.4898 4.47825C17.259 5.91733 15.7709 6.74858 14.1568 6.61733C14.1351 6.44122 14.1242 6.26394 14.1242 6.0865C14.1242 4.7425 14.7093 3.304 15.7488 2.12742C16.2679 1.53183 16.9271 1.03658 17.7274 0.641667C18.5266 0.252583 19.2814 0.0373333 19.9919 0C20.0123 0.18725 20.0211 0.3745 20.0211 0.56V0.560583Z" fill="#1A1A1A"/>
</g>
<defs>
<clipPath id="clip0_0_2088">
<rect width="28" height="28" fill="white"/>
</clipPath>
</defs>
</svg>
