<svg width="1570" height="222" viewBox="0 0 1570 222" fill="none" xmlns="http://www.w3.org/2000/svg">
<path fill-rule="evenodd" clip-rule="evenodd" d="M8.0008 115.105C8.61577 114.565 9.40726 114.294 10.1105 114.294C11.4296 114.294 12.7483 114.925 14.067 116.008L14.6824 116.549L16.4405 114.023L16.0006 113.572C14.3303 112.129 12.5723 111.407 10.5499 111.407C9.05516 111.407 7.6487 111.948 6.24224 112.85C4.83578 113.843 3.95651 115.105 3.69268 116.639C3.34106 118.262 3.69268 119.705 4.83578 120.788C5.53901 121.51 6.68212 122.141 8.35241 122.862C9.5833 123.404 10.3743 123.855 10.7259 124.216C11.1658 124.757 11.3414 125.478 11.1658 126.38C10.9898 127.282 10.5504 128.004 9.75887 128.455C9.05564 128.996 8.26415 129.177 7.47314 129.177C5.6268 129.177 4.04477 128.365 2.63735 126.561L2.19795 125.93L0 128.365L0.439878 128.816C1.14311 129.718 2.10969 130.44 3.34058 131.071C4.65974 131.702 5.89015 132.064 7.12104 132.064C8.70355 132.064 10.11 131.612 11.4287 130.62C12.9229 129.628 13.8905 128.274 14.1543 126.561C14.5937 124.757 14.1543 123.313 13.0112 122.141C12.3957 121.51 11.1649 120.788 9.4063 120.066H9.31851C7.29661 119.164 6.41733 118.172 6.5929 117.089C6.76991 116.278 7.20979 115.556 8.0008 115.105ZM26.1994 106.175H23.2104L21.9795 111.858H17.9357L17.3203 114.654H21.3646L19.1666 125.389C18.6389 127.823 18.815 129.628 19.7821 130.71C20.3975 131.612 21.5406 132.064 23.0353 132.064C25.7605 132.064 28.1345 130.53 30.2442 127.463L30.8596 126.56L27.8706 125.839L27.6068 126.29C26.2877 128.184 24.8817 129.177 23.3869 129.177C22.7715 129.177 22.3316 129.086 22.0678 128.726C21.804 128.364 21.7162 127.642 21.9795 126.65L24.4413 114.653H30.9474L31.5628 111.857H24.9685L26.1994 106.175ZM46.5959 113.392C45.5411 112.038 44.1337 111.407 42.2883 111.407C39.6505 111.407 37.3647 112.579 35.5184 114.745C33.9359 116.639 32.881 118.984 32.3534 121.69C31.4741 125.299 31.9135 128.005 33.4082 129.989C34.5508 131.342 36.1338 132.064 38.2435 132.064C40.0899 132.064 42.4629 131.522 45.1885 130.35L45.804 130.079L45.1003 127.013L44.3097 127.464C42.2 128.637 40.2654 129.177 38.5951 129.177C37.3642 129.177 36.4854 128.816 35.9578 128.184C35.0785 127.192 34.8147 125.389 35.1663 122.772H47.3865L47.5625 122.141C48.3535 118.172 48.0019 115.196 46.5959 113.392ZM41.8475 114.293C42.8155 114.293 43.606 114.654 44.2215 115.466C45.0129 116.549 45.2763 117.992 44.9252 119.886H35.7817C36.2216 118.352 37.0126 117.089 38.068 116.007C39.2988 114.925 40.5293 114.293 41.8475 114.293ZM59.255 111.407C57.4974 111.407 55.914 112.038 54.5958 113.301V111.317L51.6063 111.768V112.49C51.7824 114.294 51.6063 116.459 51.0787 118.804L46.8588 139.01H49.9365L51.6058 131.071C52.7003 131.725 53.9448 132.068 55.2112 132.065C57.0571 132.065 58.9034 131.253 60.5742 129.809C62.7721 127.915 64.1786 125.39 64.8818 122.052C65.6724 118.353 65.3212 115.557 63.7387 113.572C62.5961 112.129 61.1019 111.407 59.255 111.407ZM54.3319 117.541C55.8271 115.376 57.3214 114.293 58.9039 114.293C59.871 114.293 60.6625 114.745 61.2769 115.466C62.3318 116.729 62.42 118.804 61.8924 121.6C61.2769 124.757 60.0465 126.922 58.1119 128.184C57.1449 128.816 56.09 129.177 55.0352 129.177C54.0681 129.177 53.1015 128.727 52.2218 127.824L54.3319 117.541ZM74.5529 120.067C72.4432 119.164 71.4752 118.172 71.7395 117.09C71.9156 116.278 72.355 115.557 73.0577 115.105C73.7614 114.565 74.4651 114.294 75.2557 114.294C76.5748 114.294 77.893 114.925 79.2122 116.008L79.8276 116.549L81.5862 114.023L81.1468 113.572C79.4765 112.129 77.6297 111.407 75.696 111.407C74.2008 111.407 72.7944 111.948 71.3874 112.85C69.981 113.843 69.1022 115.105 68.8383 116.639C68.4872 118.262 68.8383 119.705 70.0692 120.788C70.6847 121.419 71.8278 122.141 73.4981 122.862L75.8711 124.216C76.3105 124.757 76.4866 125.478 76.3105 126.38C76.1354 127.282 75.6078 128.004 74.9041 128.455C74.2004 128.996 73.4098 129.177 72.6178 129.177C70.772 129.177 69.19 128.365 67.8708 126.561L67.3431 125.93L65.2334 128.365L65.5846 128.816C66.2883 129.718 67.2549 130.44 68.4862 131.071C69.7171 131.702 71.0353 132.064 72.2667 132.064C73.8492 132.064 75.2552 131.612 76.5743 130.62C78.0686 129.628 79.0356 128.274 79.3 126.561C79.7394 124.757 79.3 123.313 78.2451 122.141C77.5414 121.51 76.3105 120.788 74.5529 120.067Z" fill="#00B307"/>
<line x1="162.328" y1="104.091" x2="162.328" y2="136.093" stroke="#E6E6E6"/>
<path fill-rule="evenodd" clip-rule="evenodd" d="M243.518 110.721H247.724C247.347 110.457 246.638 110.122 245.471 110.122C244.626 110.122 243.993 110.364 243.518 110.721ZM248.43 110.721H252.83C252.311 110.364 251.586 110.122 250.572 110.122C249.502 110.122 248.81 110.457 248.43 110.721ZM242.924 111.32H253.458C253.282 111.087 253.069 110.885 252.83 110.721H248.43C248.186 110.891 248.072 111.031 248.072 111.031C248.072 111.031 247.967 110.891 247.724 110.721H243.518C243.294 110.891 243.094 111.093 242.924 111.32Z" fill="#CCCCCC"/>
<path fill-rule="evenodd" clip-rule="evenodd" d="M242.573 111.899H253.801C253.709 111.693 253.594 111.499 253.459 111.321H242.925C242.785 111.507 242.669 111.703 242.573 111.899Z" fill="#CCCCCC"/>
<path fill-rule="evenodd" clip-rule="evenodd" d="M242.332 112.497H254.005C253.954 112.292 253.886 112.091 253.8 111.898H242.572C242.472 112.102 242.393 112.305 242.332 112.497ZM242.179 113.097H244.866C245.039 112.891 245.324 112.704 245.79 112.704C246.257 112.704 246.522 112.891 246.673 113.097H249.65C249.826 112.891 250.116 112.704 250.591 112.704C251.04 112.704 251.307 112.891 251.466 113.097H254.103C254.085 112.895 254.052 112.695 254.004 112.498H242.332C242.269 112.694 242.218 112.894 242.179 113.097Z" fill="#CCCCCC"/>
<path fill-rule="evenodd" clip-rule="evenodd" d="M242.109 113.676H244.61V113.635C244.61 113.635 244.653 113.352 244.866 113.097H242.179C242.118 113.42 242.109 113.635 242.109 113.635V113.676ZM246.871 113.676H249.392V113.635C249.392 113.635 249.435 113.352 249.651 113.097H246.673C246.786 113.255 246.854 113.44 246.871 113.635V113.676H246.871ZM251.692 113.676H254.113V113.635C254.113 113.635 254.132 113.42 254.104 113.097H251.467C251.661 113.352 251.692 113.635 251.692 113.635V113.676ZM242.108 114.275H244.61V113.676H242.109L242.108 114.275ZM246.871 114.275H249.392V113.676H246.871V114.275ZM251.692 114.275H254.113V113.676H251.692V114.275Z" fill="#CCCCCC"/>
<path fill-rule="evenodd" clip-rule="evenodd" d="M242.108 114.875H244.611V114.276H242.109L242.108 114.875ZM246.872 114.875H249.393V114.276H246.872V114.875ZM251.693 114.875H254.114V114.276H251.693V114.875ZM242.106 115.453H244.611V114.875H242.107L242.106 115.453ZM246.872 115.453H249.393V114.875H246.872V115.453ZM251.693 115.453H254.114V114.875H251.693V115.453Z" fill="#CCCCCC"/>
<path fill-rule="evenodd" clip-rule="evenodd" d="M242.105 116.052H244.611V115.453H242.106L242.105 116.052ZM246.872 116.052H249.393V115.453H246.872V116.052ZM251.693 116.052H254.114V115.453H251.693V116.052ZM242.104 116.631H244.611V116.052H242.105L242.104 116.631ZM246.872 116.631H249.393V116.052H246.872V116.631ZM251.693 116.631H254.114V116.052H251.693V116.631Z" fill="#CCCCCC"/>
<path fill-rule="evenodd" clip-rule="evenodd" d="M242.102 117.23H244.61V116.631H242.103L242.102 117.23ZM246.871 117.23H249.392V116.631H246.871V117.23ZM251.693 117.23H254.113V116.631H251.693V117.23ZM242.101 117.83H244.611V117.23H242.103L242.101 117.83ZM246.871 117.83H249.392V117.23H246.871V117.83ZM251.693 117.83H254.113V117.23H251.693V117.83Z" fill="#CCCCCC"/>
<path fill-rule="evenodd" clip-rule="evenodd" d="M242.1 118.408H244.611V117.829H242.101L242.1 118.408ZM246.872 118.408H249.393V117.829H246.872V118.408ZM251.693 118.408H254.114V117.829H251.693V118.408Z" fill="#CCCCCC"/>
<path fill-rule="evenodd" clip-rule="evenodd" d="M242.098 119.007H244.61V118.408H242.099L242.098 119.007ZM246.871 119.007H249.392V118.408H246.871V119.007ZM251.692 119.007H254.113V118.408H251.692V119.007Z" fill="#CCCCCC"/>
<path fill-rule="evenodd" clip-rule="evenodd" d="M242.097 119.606H244.611V119.007H242.099L242.097 119.606ZM246.871 119.606H249.392V119.007H246.871V119.606ZM251.693 119.606H254.113V119.007H251.693V119.606Z" fill="#CCCCCC"/>
<path fill-rule="evenodd" clip-rule="evenodd" d="M242.096 120.185H244.611V119.606H242.097L242.096 120.185ZM246.871 120.185H249.392V119.606H246.871V120.185ZM251.693 120.185H254.113V119.606H251.693V120.185ZM242.095 120.784H244.61V120.185H242.096L242.095 120.784ZM246.871 120.784H249.392V120.185H246.871V120.784ZM251.693 120.784H254.113V120.185H251.693V120.784ZM242.093 121.383H244.61V120.784H242.095L242.093 121.383ZM246.871 121.383H249.392V120.784H246.871V121.383ZM251.693 121.383H254.113V120.784H251.693V121.383Z" fill="#CCCCCC"/>
<path fill-rule="evenodd" clip-rule="evenodd" d="M242.092 121.962H244.61V121.384H242.093L242.092 121.962ZM246.871 121.962H249.392V121.384H246.871V121.962ZM251.692 121.962H254.113V121.384H251.692V121.962ZM242.09 122.561H244.61V121.962H242.092L242.09 122.561ZM246.871 122.561H249.392V121.962H246.871V122.561ZM251.692 122.561H254.113V121.962H251.692V122.561Z" fill="#CCCCCC"/>
<path fill-rule="evenodd" clip-rule="evenodd" d="M242.089 123.161H244.61V122.561H242.091L242.089 123.161ZM246.871 123.161H249.392V122.561H246.871V123.161ZM251.692 123.161H254.113V122.561H251.692V123.161Z" fill="#CCCCCC"/>
<path fill-rule="evenodd" clip-rule="evenodd" d="M242.089 123.739H244.611V123.16H242.09L242.089 123.739ZM246.871 123.739H249.392V123.16H246.871V123.739ZM251.693 123.739H254.113V123.16H251.693V123.739ZM242.087 124.338H244.611V123.739H242.089L242.087 124.338ZM246.871 124.338H249.392V123.739H246.871V124.338ZM251.693 124.338H254.113V123.739H251.693V124.338Z" fill="#CCCCCC"/>
<path fill-rule="evenodd" clip-rule="evenodd" d="M242.086 124.917H244.61V124.338H242.087L242.086 124.917ZM246.871 124.917H249.392V124.338H246.871V124.917ZM251.692 124.917H254.113V124.338H251.692V124.917ZM242.085 125.516H244.611V124.917H242.086L242.085 125.516ZM246.871 125.516H249.392V124.917H246.871V125.516ZM251.692 125.516H254.113V124.917H251.692V125.516ZM242.084 126.115H244.611V125.516H242.085L242.084 126.115ZM246.871 126.115H249.392V125.516H246.871V126.115ZM251.692 126.115H254.113V125.516H251.692V126.115Z" fill="#CCCCCC"/>
<path fill-rule="evenodd" clip-rule="evenodd" d="M242.082 126.695H244.611V126.115H242.083L242.082 126.695ZM246.871 126.695H249.392V126.115H246.871V126.695ZM251.692 126.695H254.113V126.115H251.692V126.695ZM242.081 127.293H244.61V126.695H242.081L242.081 127.293ZM246.871 127.293H249.392V126.695H246.871V127.293ZM251.692 127.293H254.113V126.695H251.692V127.293Z" fill="#CCCCCC"/>
<path fill-rule="evenodd" clip-rule="evenodd" d="M242.079 127.893H244.61V127.293H242.08L242.079 127.893ZM246.871 127.893H249.392V127.293H246.871V127.893ZM251.692 127.893H254.113V127.293H251.692V127.893ZM242.078 128.472H244.61V127.893H242.079L242.078 128.472ZM246.871 128.472H249.392V127.893H246.871V128.472ZM251.692 128.472H254.113V127.893H251.692V128.472Z" fill="#CCCCCC"/>
<path fill-rule="evenodd" clip-rule="evenodd" d="M242.078 129.071H244.611V128.471H242.079L242.078 129.071ZM246.872 129.071H249.393V128.471H246.872V129.071ZM251.693 129.071H254.114V128.471H251.693V129.071Z" fill="#CCCCCC"/>
<path fill-rule="evenodd" clip-rule="evenodd" d="M242.076 129.669H244.61V129.071H242.077L242.076 129.669ZM246.871 129.669H249.392V129.071H246.871V129.669ZM251.693 129.669H254.113V129.071H251.693V129.669ZM242.075 130.248H244.61V129.669H242.076L242.075 130.248ZM246.871 130.248H249.392V129.669H246.871V130.248ZM251.693 130.248H254.113V129.669H251.693V130.248Z" fill="#CCCCCC"/>
<path fill-rule="evenodd" clip-rule="evenodd" d="M242.073 130.847H244.61V130.248H242.074L242.073 130.847ZM246.871 130.847H249.392V130.248H246.871V130.847ZM251.692 130.847H254.113V130.248H251.692V130.847ZM242.072 131.447H244.61V130.847H242.074L242.072 131.447ZM246.871 131.447H249.392V130.847H246.871V131.447ZM251.692 131.447H254.113V130.847H251.692V131.447ZM242.071 132.025H244.61V131.447H242.072L242.071 132.025ZM246.871 132.025H249.392V131.447H246.871V132.025ZM251.692 132.025H254.113V131.447H251.692V132.025Z" fill="#CCCCCC"/>
<path fill-rule="evenodd" clip-rule="evenodd" d="M242.07 132.624H244.611V132.025H242.071L242.07 132.624ZM246.871 132.624H249.392V132.025H246.871V132.624ZM251.692 132.624H254.113V132.025H251.692V132.624Z" fill="#CCCCCC"/>
<path fill-rule="evenodd" clip-rule="evenodd" d="M272.74 109.874H273.07L272.74 109.275V109.874ZM272.74 110.494H273.412L273.07 109.874H272.74V110.494Z" fill="#CCCCCC"/>
<path fill-rule="evenodd" clip-rule="evenodd" d="M272.74 111.114H273.754L273.412 110.494H272.74V111.114ZM277.641 111.114H280.002V110.515H277.641V111.114Z" fill="#CCCCCC"/>
<path fill-rule="evenodd" clip-rule="evenodd" d="M272.74 111.734H274.096L273.754 111.114H272.74V111.734ZM277.641 111.734H280.002V111.114H277.641V111.734Z" fill="#CCCCCC"/>
<path fill-rule="evenodd" clip-rule="evenodd" d="M272.74 112.333H274.426L274.096 111.734H272.74V112.333ZM277.641 112.333H280.002V111.734H277.641V112.333Z" fill="#CCCCCC"/>
<path fill-rule="evenodd" clip-rule="evenodd" d="M272.74 112.953H274.768L274.426 112.333H272.74V112.953ZM277.641 112.953H280.002V112.333H277.641V112.953ZM272.74 113.573H275.11L274.768 112.953H272.74V113.573ZM277.641 113.573H280.002V112.953H277.641V113.573Z" fill="#CCCCCC"/>
<path fill-rule="evenodd" clip-rule="evenodd" d="M272.739 114.192H275.452L275.11 113.573H272.739V114.192ZM277.64 114.192H280.001V113.573H277.64V114.192ZM272.739 114.792H275.782L275.452 114.192H272.739V114.792H272.739ZM277.64 114.792H280.001V114.192H277.64V114.792Z" fill="#CCCCCC"/>
<path fill-rule="evenodd" clip-rule="evenodd" d="M272.74 115.412H276.125L275.783 114.792H272.74V115.412ZM277.641 115.412H280.002V114.792H277.641V115.412ZM272.74 116.032H276.467L276.125 115.412H272.74V116.032ZM277.641 116.032H280.002V115.412H277.641V116.032Z" fill="#CCCCCC"/>
<path fill-rule="evenodd" clip-rule="evenodd" d="M272.74 116.652H276.809L276.467 116.031H272.74V116.652ZM277.641 116.652H280.002V116.031H277.641V116.652Z" fill="#CCCCCC"/>
<path fill-rule="evenodd" clip-rule="evenodd" d="M272.74 117.251H277.139L276.809 116.651H272.74V117.251ZM277.641 117.251H280.002V116.651H277.641V117.251ZM272.74 117.87H277.481L277.139 117.251H272.74V117.87ZM277.641 117.87H280.002V117.251H277.641V117.87Z" fill="#CCCCCC"/>
<path fill-rule="evenodd" clip-rule="evenodd" d="M272.74 118.49H280.002V117.87H277.641V118.16L277.481 117.87H272.74V118.49ZM272.74 119.11H275.06V118.552L275.41 119.11H280.002V118.49H272.74V119.11Z" fill="#CCCCCC"/>
<path fill-rule="evenodd" clip-rule="evenodd" d="M272.74 119.71H275.06V119.111H272.74V119.71ZM275.785 119.71H280.002V119.111H275.41L275.785 119.71Z" fill="#CCCCCC"/>
<path fill-rule="evenodd" clip-rule="evenodd" d="M272.74 120.33H275.06V119.71H272.74V120.33ZM276.174 120.33H280.002V119.71H275.785L276.174 120.33Z" fill="#CCCCCC"/>
<path fill-rule="evenodd" clip-rule="evenodd" d="M272.74 120.949H275.06V120.329H272.74V120.949ZM276.563 120.949H280.002V120.329H276.174L276.563 120.949Z" fill="#CCCCCC"/>
<path fill-rule="evenodd" clip-rule="evenodd" d="M272.74 121.549H275.06V120.949H272.74V121.549ZM276.938 121.549H280.002V120.949H276.563L276.938 121.549Z" fill="#CCCCCC"/>
<path fill-rule="evenodd" clip-rule="evenodd" d="M272.74 122.169H275.06V121.549H272.74V122.169ZM277.326 122.169H280.002V121.549H276.938L277.326 122.169Z" fill="#CCCCCC"/>
<path fill-rule="evenodd" clip-rule="evenodd" d="M272.74 122.789H275.06V122.169H272.74V122.789ZM277.715 122.789H280.002V122.169H277.326L277.715 122.789ZM272.74 123.409H275.06V122.789H272.74V123.409ZM277.741 123.409H280.002V122.789H277.715L277.741 122.83V123.409H277.741ZM272.74 124.008H275.06V123.409H272.74V124.008ZM277.741 124.008H280.002V123.409H277.741V124.008Z" fill="#CCCCCC"/>
<path fill-rule="evenodd" clip-rule="evenodd" d="M272.74 124.627H275.06V124.007H272.74V124.627ZM277.741 124.627H280.002V124.007H277.741V124.627ZM272.74 125.247H275.06V124.627H272.74V125.247ZM277.741 125.247H280.002V124.627H277.741V125.247Z" fill="#CCCCCC"/>
<path fill-rule="evenodd" clip-rule="evenodd" d="M272.74 125.868H275.06V125.247H272.74V125.868ZM277.741 125.868H280.002V125.247H277.741V125.868Z" fill="#CCCCCC"/>
<path fill-rule="evenodd" clip-rule="evenodd" d="M272.74 126.467H275.06V125.868H272.74V126.467ZM277.741 126.467H280.002V125.868H277.741V126.467ZM272.74 127.087H275.06V126.467H272.74V127.087ZM277.741 127.087H280.002V126.467H277.741V127.087Z" fill="#CCCCCC"/>
<path fill-rule="evenodd" clip-rule="evenodd" d="M272.74 127.707H275.06V127.087H272.74V127.707ZM277.741 127.707H280.002V127.087H277.741V127.707Z" fill="#CCCCCC"/>
<path fill-rule="evenodd" clip-rule="evenodd" d="M272.74 128.326H275.06V127.706H272.74V128.326ZM277.741 128.326H280.002V127.706H277.741V128.326ZM272.74 128.926H275.06V128.326H272.74V128.926ZM277.741 128.926H280.002V128.326H277.741V128.926Z" fill="#CCCCCC"/>
<path fill-rule="evenodd" clip-rule="evenodd" d="M272.74 129.546H275.06V128.926H272.74V129.546ZM277.741 129.546H280.002V128.926H277.741V129.546Z" fill="#CCCCCC"/>
<path fill-rule="evenodd" clip-rule="evenodd" d="M272.74 130.165H275.06V129.545H272.74V130.165ZM277.741 130.165H280.002V129.545H277.741V130.165Z" fill="#CCCCCC"/>
<path fill-rule="evenodd" clip-rule="evenodd" d="M272.74 130.785H275.06V130.165H272.74V130.785ZM277.741 130.785H280.002V130.165H277.741V130.785Z" fill="#CCCCCC"/>
<path fill-rule="evenodd" clip-rule="evenodd" d="M272.74 131.385H275.06V130.785H272.74V131.385ZM277.741 131.385H280.002V130.785H277.741V131.385ZM272.74 132.005H275.06V131.385H272.74V132.005ZM277.741 132.005H280.002V131.385H277.741V132.005Z" fill="#CCCCCC"/>
<path fill-rule="evenodd" clip-rule="evenodd" d="M272.74 132.624H275.06V132.004H272.74V132.624ZM277.741 132.624H280.002V132.004H277.741V132.624Z" fill="#CCCCCC"/>
<path fill-rule="evenodd" clip-rule="evenodd" d="M293.973 107.043H295.826V106.175C295.826 106.175 295.08 106.437 293.973 107.043Z" fill="#CCCCCC"/>
<path fill-rule="evenodd" clip-rule="evenodd" d="M292.54 107.91H295.826V107.043H293.973C293.484 107.311 293.006 107.6 292.54 107.91Z" fill="#CCCCCC"/>
<path fill-rule="evenodd" clip-rule="evenodd" d="M291.367 108.758H295.826V107.911H292.541C292.14 108.178 291.748 108.461 291.367 108.758ZM290.332 109.626H295.826V108.758H291.367C291.013 109.035 290.667 109.324 290.332 109.626ZM289.432 110.494H294.936C295.482 110.231 295.827 110.122 295.827 110.122V109.626H290.332C290.023 109.904 289.722 110.194 289.432 110.494Z" fill="#CCCCCC"/>
<path fill-rule="evenodd" clip-rule="evenodd" d="M288.644 111.361H293.433C293.913 111.035 294.415 110.745 294.935 110.493H289.431C289.16 110.773 288.897 111.063 288.644 111.361ZM287.955 112.229H292.298C292.66 111.918 293.039 111.628 293.433 111.362H288.644C288.405 111.643 288.176 111.932 287.955 112.229Z" fill="#CCCCCC"/>
<path fill-rule="evenodd" clip-rule="evenodd" d="M287.35 113.097H291.384C291.674 112.792 291.978 112.502 292.297 112.229H287.955C287.744 112.512 287.542 112.801 287.35 113.097ZM286.833 113.944H290.65C290.882 113.651 291.127 113.368 291.384 113.097H287.35C287.172 113.37 287 113.652 286.833 113.944Z" fill="#CCCCCC"/>
<path fill-rule="evenodd" clip-rule="evenodd" d="M286.372 114.812H290.024C290.221 114.514 290.43 114.224 290.651 113.944H286.834C286.672 114.229 286.518 114.518 286.372 114.812ZM285.974 115.68H289.505C289.671 115.376 289.845 115.087 290.025 114.813H286.373C286.233 115.094 286.099 115.383 285.974 115.68Z" fill="#CCCCCC"/>
<path fill-rule="evenodd" clip-rule="evenodd" d="M285.633 116.548H289.074C289.207 116.253 289.35 115.964 289.504 115.68H285.974C285.852 115.966 285.739 116.256 285.633 116.548Z" fill="#CCCCCC"/>
<path fill-rule="evenodd" clip-rule="evenodd" d="M285.346 117.415H288.722C288.831 117.115 288.949 116.825 289.074 116.547H285.632C285.531 116.83 285.436 117.119 285.346 117.415ZM285.114 118.263H288.443C288.529 117.971 288.622 117.688 288.722 117.415H285.346C285.262 117.696 285.184 117.978 285.114 118.263Z" fill="#CCCCCC"/>
<path fill-rule="evenodd" clip-rule="evenodd" d="M284.921 119.131H288.219C288.287 118.833 288.361 118.543 288.443 118.263H285.114C285.043 118.55 284.979 118.84 284.921 119.131ZM284.773 119.999H288.049C288.099 119.701 288.155 119.412 288.219 119.131H284.921C284.866 119.415 284.816 119.704 284.773 119.999Z" fill="#CCCCCC"/>
<path fill-rule="evenodd" clip-rule="evenodd" d="M284.666 120.866H287.93C287.962 120.569 288.002 120.28 288.049 119.998H284.773C284.731 120.287 284.695 120.576 284.666 120.866ZM284.596 121.734H287.857C287.874 121.438 287.899 121.148 287.93 120.866H284.667C284.637 121.155 284.613 121.444 284.596 121.734ZM284.567 122.581H287.827C287.831 122.293 287.84 122.01 287.857 121.734H284.596C284.581 122.017 284.571 122.299 284.567 122.581Z" fill="#CCCCCC"/>
<path fill-rule="evenodd" clip-rule="evenodd" d="M284.57 123.449H287.836C287.828 123.243 287.824 123.036 287.824 122.829C287.824 122.746 287.826 122.664 287.827 122.581H284.568C284.567 122.698 284.563 122.815 284.563 122.933C284.563 123.107 284.567 123.279 284.57 123.449ZM292.566 123.449H295.826V122.933H292.566V123.449Z" fill="#CCCCCC"/>
<path fill-rule="evenodd" clip-rule="evenodd" d="M284.613 124.318H287.896C287.868 124.029 287.848 123.739 287.837 123.449H284.57C284.578 123.744 284.593 124.033 284.613 124.318ZM292.565 124.318H295.826V123.449H292.565V124.318Z" fill="#CCCCCC"/>
<path fill-rule="evenodd" clip-rule="evenodd" d="M284.692 125.186H288.005C287.96 124.898 287.923 124.609 287.895 124.318H284.613C284.633 124.612 284.659 124.902 284.692 125.186ZM292.565 125.186H295.826V124.318H292.565V125.186Z" fill="#CCCCCC"/>
<path fill-rule="evenodd" clip-rule="evenodd" d="M284.817 126.053H288.169C288.106 125.766 288.051 125.477 288.006 125.186H284.692C284.727 125.481 284.77 125.77 284.817 126.053ZM292.566 126.053H295.827V125.186H292.566V126.053Z" fill="#CCCCCC"/>
<path fill-rule="evenodd" clip-rule="evenodd" d="M284.987 126.921H288.392C288.309 126.634 288.234 126.345 288.169 126.053H284.817C284.867 126.349 284.924 126.638 284.987 126.921ZM292.566 126.921H295.827V126.053H292.566V126.921Z" fill="#CCCCCC"/>
<path fill-rule="evenodd" clip-rule="evenodd" d="M285.196 127.768H288.669C288.567 127.489 288.475 127.207 288.392 126.921H284.986C285.05 127.21 285.119 127.492 285.196 127.768ZM292.565 127.768H295.826V126.921H292.565V127.768ZM285.462 128.637H289.022C288.894 128.352 288.777 128.062 288.669 127.768H285.196C285.278 128.065 285.367 128.355 285.462 128.637ZM292.565 128.637H295.826V127.768H292.565V128.637Z" fill="#CCCCCC"/>
<path fill-rule="evenodd" clip-rule="evenodd" d="M285.783 129.504H289.449C289.296 129.221 289.153 128.931 289.021 128.636H285.461C285.562 128.933 285.67 129.222 285.783 129.504ZM292.565 129.504H295.826V128.636H292.565V129.504Z" fill="#CCCCCC"/>
<path fill-rule="evenodd" clip-rule="evenodd" d="M286.167 130.373H289.964C289.781 130.09 289.61 129.801 289.45 129.505H285.784C285.904 129.802 286.033 130.091 286.167 130.373ZM292.565 130.373H295.826V129.505H292.565V130.373Z" fill="#CCCCCC"/>
<path fill-rule="evenodd" clip-rule="evenodd" d="M286.615 131.24H290.578C290.361 130.96 290.156 130.67 289.964 130.372H286.167C286.309 130.671 286.46 130.96 286.615 131.24ZM292.565 131.24H295.826V130.372H292.565V131.24Z" fill="#CCCCCC"/>
<path fill-rule="evenodd" clip-rule="evenodd" d="M287.121 132.087H291.293C291.042 131.816 290.803 131.533 290.577 131.24H286.614C286.774 131.528 286.943 131.81 287.121 132.087ZM292.565 132.087H295.826V131.24H292.565V132.087Z" fill="#CCCCCC"/>
<path fill-rule="evenodd" clip-rule="evenodd" d="M287.719 132.955H292.198C291.88 132.684 291.578 132.394 291.294 132.086H287.121C287.311 132.383 287.511 132.672 287.719 132.955ZM292.565 132.955H295.826V132.086H292.565V132.955Z" fill="#CCCCCC"/>
<path fill-rule="evenodd" clip-rule="evenodd" d="M288.406 133.823H295.826V132.956H292.565V133.245C292.565 133.245 292.428 133.149 292.198 132.956H287.719C287.938 133.253 288.168 133.542 288.406 133.823Z" fill="#CCCCCC"/>
<path fill-rule="evenodd" clip-rule="evenodd" d="M289.197 134.691H295.827V133.823H288.406C288.665 134.128 288.929 134.416 289.197 134.691Z" fill="#CCCCCC"/>
<path fill-rule="evenodd" clip-rule="evenodd" d="M290.108 135.559H295.826V134.691H289.196C289.49 134.991 289.794 135.281 290.108 135.559Z" fill="#CCCCCC"/>
<path fill-rule="evenodd" clip-rule="evenodd" d="M291.165 136.427H295.826V135.559H290.109C290.45 135.862 290.802 136.151 291.165 136.427ZM292.373 137.274H295.826V136.427H291.164C291.557 136.725 291.96 137.008 292.373 137.274ZM293.863 138.142H295.826V137.274H292.373C292.909 137.619 293.413 137.907 293.863 138.142Z" fill="#CCCCCC"/>
<path fill-rule="evenodd" clip-rule="evenodd" d="M295.827 139.01V138.142H293.863C295.031 138.753 295.827 139.01 295.827 139.01Z" fill="#CCCCCC"/>
<path fill-rule="evenodd" clip-rule="evenodd" d="M301.368 123.78H303.749V123.615H301.368V123.78ZM306.53 123.78H309.01V123.615H306.53V123.78ZM301.368 124.379H303.749V123.78H301.368V124.379ZM306.53 124.379H309.01V123.78H306.53V124.379Z" fill="#CCCCCC"/>
<path fill-rule="evenodd" clip-rule="evenodd" d="M301.368 124.979H303.749V124.379H301.368V124.979ZM306.53 124.979H309.01V124.379H306.53V124.979Z" fill="#CCCCCC"/>
<path fill-rule="evenodd" clip-rule="evenodd" d="M301.368 125.578H303.749V124.979H301.368V125.578ZM306.53 125.578H309.01V124.979H306.53V125.578ZM301.368 126.177H303.749V125.578H301.368V126.177ZM306.53 126.177H309.01V125.578H306.53V126.177Z" fill="#CCCCCC"/>
<path fill-rule="evenodd" clip-rule="evenodd" d="M301.368 126.777H303.749V126.177H301.368V126.777ZM306.53 126.777H309.01V126.177H306.53V126.777ZM301.368 127.376H303.749V126.777H301.368V127.376ZM306.53 127.376H309.01V126.777H306.53V127.376Z" fill="#CCCCCC"/>
<path fill-rule="evenodd" clip-rule="evenodd" d="M301.368 127.975H303.749V127.376H301.368V127.975ZM306.53 127.975H309.01V127.376H306.53V127.975ZM301.368 128.595H303.749V127.975H301.368V128.595ZM306.53 128.595H309.01V127.975H306.53V128.595ZM301.368 129.194H303.749V128.595H301.368V129.194ZM306.53 129.194H309.01V128.595H306.53V129.194Z" fill="#CCCCCC"/>
<path fill-rule="evenodd" clip-rule="evenodd" d="M301.427 129.794H304.009C303.798 129.492 303.749 129.194 303.749 129.194H301.368C301.368 129.194 301.365 129.436 301.427 129.794ZM306.424 129.794H308.969C308.998 129.595 309.008 129.431 309.011 129.326V129.194H306.53C306.53 129.194 306.559 129.492 306.424 129.794ZM301.577 130.392H305.001C304.498 130.318 304.193 130.055 304.009 129.794H301.427C301.458 129.97 301.505 130.175 301.577 130.392ZM305.577 130.392H308.836C308.902 130.175 308.943 129.97 308.969 129.794H306.424C306.307 130.055 306.067 130.318 305.577 130.392Z" fill="#CCCCCC"/>
<path fill-rule="evenodd" clip-rule="evenodd" d="M301.831 130.992H308.601C308.702 130.789 308.779 130.586 308.836 130.393H305.578C305.386 130.421 305.192 130.421 305.001 130.393H301.577C301.641 130.586 301.723 130.789 301.831 130.992Z" fill="#CCCCCC"/>
<path fill-rule="evenodd" clip-rule="evenodd" d="M302.237 131.592H308.214C308.364 131.407 308.494 131.206 308.601 130.992H301.831C301.944 131.207 302.081 131.408 302.237 131.592ZM302.922 132.19H307.548C307.798 132.026 308.022 131.824 308.214 131.592H302.237C302.436 131.824 302.667 132.026 302.922 132.19Z" fill="#CCCCCC"/>
<path fill-rule="evenodd" clip-rule="evenodd" d="M307.548 132.19H302.922C303.477 132.548 304.228 132.79 305.249 132.79C306.265 132.79 307.007 132.548 307.548 132.19Z" fill="#CCCCCC"/>
<path fill-rule="evenodd" clip-rule="evenodd" d="M302.91 110.556H307.486C306.932 110.198 306.178 109.957 305.149 109.957C304.172 109.956 303.447 110.198 302.91 110.556ZM302.245 111.155H308.168C307.971 110.922 307.741 110.72 307.486 110.556H302.91C302.661 110.721 302.437 110.923 302.245 111.155Z" fill="#CCCCCC"/>
<path fill-rule="evenodd" clip-rule="evenodd" d="M301.847 111.754H308.566C308.455 111.54 308.322 111.339 308.168 111.155H302.245C302.092 111.34 301.959 111.541 301.847 111.754ZM301.594 112.353H308.813C308.748 112.147 308.665 111.946 308.566 111.754H301.847C301.747 111.946 301.662 112.147 301.594 112.353ZM301.44 112.953H303.966C304.151 112.674 304.494 112.415 305.129 112.415C305.775 112.415 306.123 112.673 306.31 112.953H308.957C308.924 112.75 308.876 112.55 308.813 112.354H301.594C301.53 112.55 301.478 112.75 301.44 112.953Z" fill="#CCCCCC"/>
<path fill-rule="evenodd" clip-rule="evenodd" d="M301.37 113.552H303.754C303.777 113.337 303.849 113.132 303.966 112.952H301.44C301.39 113.225 301.374 113.44 301.37 113.552ZM306.524 113.552H309.011V113.504C309.005 113.319 308.987 113.135 308.957 112.952H306.31C306.465 113.182 306.51 113.427 306.524 113.552ZM301.368 114.171H303.749V113.634C303.749 113.634 303.749 113.603 303.754 113.552H301.37C301.367 113.605 301.368 113.634 301.368 113.634V114.171ZM306.53 114.171H309.011V113.552H306.524C306.53 113.603 306.53 113.634 306.53 113.634V114.171H306.53Z" fill="#CCCCCC"/>
<path fill-rule="evenodd" clip-rule="evenodd" d="M301.368 114.771H303.749V114.172H301.368V114.771ZM306.53 114.771H309.01V114.172H306.53V114.771ZM301.368 115.371H303.749V114.771H301.368V115.371ZM306.53 115.371H309.01V114.771H306.53V115.371Z" fill="#CCCCCC"/>
<path fill-rule="evenodd" clip-rule="evenodd" d="M301.368 115.969H303.749V115.37H301.368V115.969ZM306.53 115.969H309.01V115.37H306.53V115.969ZM301.368 116.569H303.749V115.97H301.368V116.569ZM306.53 116.569H309.01V115.97H306.53V116.569Z" fill="#CCCCCC"/>
<path fill-rule="evenodd" clip-rule="evenodd" d="M301.368 117.168H303.749V116.569H301.368V117.168ZM306.53 117.168H309.01V116.569H306.53V117.168ZM301.368 117.767H303.749V117.168H301.368V117.767ZM306.53 117.767H309.01V117.168H306.53V117.767ZM301.368 118.366H303.749V117.767H301.368V118.366ZM306.53 118.366H309.01V117.767H306.53V118.366Z" fill="#CCCCCC"/>
<path fill-rule="evenodd" clip-rule="evenodd" d="M301.368 118.966H303.749V118.366H301.368V118.966ZM306.53 118.966H309.01V118.366H306.53V118.966Z" fill="#CCCCCC"/>
<path fill-rule="evenodd" clip-rule="evenodd" d="M301.368 119.565H303.749V118.965H301.368V119.565ZM306.53 119.565H309.01V118.965H306.53V119.565Z" fill="#CCCCCC"/>
<path fill-rule="evenodd" clip-rule="evenodd" d="M301.368 120.164H303.749V119.565H301.368V120.164ZM306.53 120.164H309.01V119.565H306.53V120.164ZM301.368 120.764H303.749V120.165H301.368V120.764ZM306.53 120.764H309.01V120.165H306.53V120.764ZM301.368 121.384H303.749V120.764H301.368V121.384ZM306.53 121.384H309.01V120.764H306.53V121.384Z" fill="#CCCCCC"/>
<path fill-rule="evenodd" clip-rule="evenodd" d="M301.368 121.983H303.749V121.384H301.368V121.983ZM306.53 121.983H309.01V121.384H306.53V121.983ZM301.368 122.582H303.749V121.983H301.368V122.582ZM306.53 122.582H309.01V121.983H306.53V122.582Z" fill="#CCCCCC"/>
<path fill-rule="evenodd" clip-rule="evenodd" d="M301.368 123.181H303.749V122.581H301.368V123.181ZM306.53 123.181H309.01V122.581H306.53V123.181ZM309.01 123.615V123.181H306.53V123.615H309.01ZM303.749 123.181H301.368V123.615H303.749V123.181Z" fill="#CCCCCC"/>
<path fill-rule="evenodd" clip-rule="evenodd" d="M261.453 110.721H266.066C265.525 110.364 264.781 110.122 263.757 110.122C262.738 110.122 261.995 110.364 261.453 110.721ZM260.787 111.32H266.728C266.539 111.087 266.315 110.885 266.065 110.721H261.453C261.203 110.885 260.978 111.087 260.787 111.32Z" fill="#CCCCCC"/>
<path fill-rule="evenodd" clip-rule="evenodd" d="M260.41 111.899H267.1C266.997 111.693 266.873 111.499 266.728 111.321H260.786C260.641 111.499 260.514 111.693 260.41 111.899Z" fill="#CCCCCC"/>
<path fill-rule="evenodd" clip-rule="evenodd" d="M260.17 112.497H267.335C267.275 112.291 267.196 112.09 267.1 111.898H260.41C260.313 112.09 260.233 112.291 260.17 112.497ZM260.036 113.097H262.668C262.85 112.846 263.183 112.601 263.797 112.601C264.43 112.601 264.765 112.846 264.941 113.097H267.464C267.436 112.894 267.393 112.694 267.336 112.498H260.17C260.103 112.718 260.061 112.923 260.036 113.097Z" fill="#CCCCCC"/>
<path fill-rule="evenodd" clip-rule="evenodd" d="M259.995 113.676H262.456V113.635C262.456 113.635 262.477 113.362 262.668 113.097H260.035C259.988 113.42 259.995 113.635 259.995 113.635V113.676ZM265.137 113.676H267.497V113.506C267.493 113.369 267.482 113.233 267.463 113.097H264.94C265.126 113.362 265.137 113.635 265.137 113.635V113.676ZM259.995 114.275H262.456V113.676H259.995V114.275ZM265.137 114.275H267.497V113.676H265.137V114.275Z" fill="#CCCCCC"/>
<path fill-rule="evenodd" clip-rule="evenodd" d="M259.996 114.875H262.456V114.276H259.996V114.875ZM265.137 114.875H267.498V114.276H265.137V114.875ZM259.996 115.453H262.456V114.875H259.996V115.453ZM265.137 115.453H267.498V114.875H265.137V115.453Z" fill="#CCCCCC"/>
<path fill-rule="evenodd" clip-rule="evenodd" d="M259.996 116.052H262.456V115.453H259.996V116.052ZM265.137 116.052H267.498V115.453H265.137V116.052ZM259.996 116.631H262.456V116.052H259.996V116.631ZM265.137 116.631H267.498V116.052H265.137V116.631Z" fill="#CCCCCC"/>
<path fill-rule="evenodd" clip-rule="evenodd" d="M259.996 117.23H262.456V116.631H259.996V117.23ZM265.137 117.23H267.498V116.631H265.137V117.23ZM259.996 117.83H262.456V117.23H259.996V117.83ZM265.137 117.83H267.498V117.23H265.137V117.83Z" fill="#CCCCCC"/>
<path fill-rule="evenodd" clip-rule="evenodd" d="M259.996 118.408H262.456V117.829H259.996V118.408ZM265.137 118.408H267.498V117.829H265.137V118.408Z" fill="#CCCCCC"/>
<path fill-rule="evenodd" clip-rule="evenodd" d="M259.996 119.007H262.456V118.408H259.996V119.007ZM265.137 119.007H267.498V118.408H265.137V119.007Z" fill="#CCCCCC"/>
<path fill-rule="evenodd" clip-rule="evenodd" d="M259.996 119.606H262.456V119.007H259.996V119.606ZM265.137 119.606H267.498V119.007H265.137V119.606Z" fill="#CCCCCC"/>
<path fill-rule="evenodd" clip-rule="evenodd" d="M259.996 120.185H262.456V119.606H259.996V120.185ZM265.137 120.185H267.498V119.606H265.137V120.185ZM259.996 120.784H262.456V120.185H259.996V120.784ZM265.137 120.784H267.498V120.185H265.137V120.784ZM259.996 121.383H262.456V120.784H259.996V121.383ZM265.137 121.383H267.498V120.784H265.137V121.383Z" fill="#CCCCCC"/>
<path fill-rule="evenodd" clip-rule="evenodd" d="M259.996 121.962H262.456V121.384H259.996V121.962ZM265.137 121.962H267.498V121.384H265.137V121.962ZM259.996 122.561H262.456V121.962H259.996V122.561ZM265.137 122.561H267.498V121.962H265.137V122.561Z" fill="#CCCCCC"/>
<path fill-rule="evenodd" clip-rule="evenodd" d="M259.996 123.161H262.456V122.561H259.996V123.161ZM265.137 123.161H267.498V122.561H265.137V123.161Z" fill="#CCCCCC"/>
<path fill-rule="evenodd" clip-rule="evenodd" d="M259.996 123.739H262.456V123.16H259.996V123.739ZM265.137 123.739H267.498V123.16H265.137V123.739ZM259.996 124.338H262.456V123.739H259.996V124.338ZM265.137 124.338H267.498V123.739H265.137V124.338Z" fill="#CCCCCC"/>
<path fill-rule="evenodd" clip-rule="evenodd" d="M259.995 124.917H262.456V124.338H259.995V124.917ZM265.137 124.917H267.497V124.338H265.137V124.917ZM259.995 125.516H262.456V124.917H259.995V125.516ZM265.137 125.516H267.497V124.917H265.137V125.516ZM256.901 126.115H267.497V125.516H265.137V125.661H262.456V125.516H259.995V125.661H256.614L256.901 126.115Z" fill="#CCCCCC"/>
<path fill-rule="evenodd" clip-rule="evenodd" d="M257.267 126.695H267.497V126.115H256.901L257.267 126.695ZM257.645 127.293H267.497V126.695H257.267L257.645 127.293Z" fill="#CCCCCC"/>
<path fill-rule="evenodd" clip-rule="evenodd" d="M258.024 127.893H267.497V127.294H257.645L258.024 127.893ZM260.095 128.472H262.416V128.141H265.197V128.472H267.497V127.893H258.024L258.154 128.1H260.095V128.472Z" fill="#CCCCCC"/>
<path fill-rule="evenodd" clip-rule="evenodd" d="M260.095 129.071H262.416V128.471H260.095V129.071ZM265.197 129.071H267.498V128.471H265.197V129.071Z" fill="#CCCCCC"/>
<path fill-rule="evenodd" clip-rule="evenodd" d="M260.095 129.669H262.416V129.071H260.095V129.669ZM265.197 129.669H267.498V129.071H265.197V129.669ZM260.095 130.248H262.416V129.669H260.095V130.248ZM265.197 130.248H267.498V129.669H265.197V130.248Z" fill="#CCCCCC"/>
<path fill-rule="evenodd" clip-rule="evenodd" d="M260.095 130.847H262.416V130.248H260.095V130.847ZM265.197 130.847H267.498V130.248H265.197V130.847ZM260.095 131.447H262.416V130.847H260.095V131.447ZM265.197 131.447H267.498V130.847H265.197V131.447ZM260.095 132.025H262.416V131.447H260.095V132.025ZM265.197 132.025H267.498V131.447H265.197V132.025Z" fill="#CCCCCC"/>
<path fill-rule="evenodd" clip-rule="evenodd" d="M260.095 132.624H262.416V132.025H260.095V132.624ZM265.197 132.624H267.498V132.025H265.197V132.624Z" fill="#CCCCCC"/>
<line x1="389.753" y1="104.091" x2="389.753" y2="136.093" stroke="#E6E6E6"/>
<path fill-rule="evenodd" clip-rule="evenodd" d="M495.128 134.654C492.544 136.832 489.129 138.157 485.53 138.157C477.039 138.157 470.233 131.15 470.233 122.557C470.233 113.94 477.039 106.932 485.53 106.932C491.16 106.932 496.051 110.057 498.728 114.792C499.097 114.887 499.374 114.981 499.743 115.076C497.067 109.773 491.714 106.175 485.53 106.175C476.67 106.175 469.494 113.466 469.494 122.557C469.494 131.624 476.67 139.01 485.53 139.01C489.683 139.01 493.467 137.306 496.328 134.654H495.128Z" fill="#CCCCCC"/>
<path fill-rule="evenodd" clip-rule="evenodd" d="M487.561 133.897H529.438V127.458H487.561V133.897Z" fill="#CCCCCC"/>
<path fill-rule="evenodd" clip-rule="evenodd" d="M489.682 115.928L489.498 116.78H487.467C486.914 122.841 486.544 127.741 486.175 130.014C485.345 134.086 481.653 136.358 479.254 136.358C478.423 136.358 477.408 135.98 477.408 134.938C477.408 134.37 477.869 133.897 478.423 133.897C479.254 133.897 479.9 134.559 480.361 135.317C481.653 134.559 481.838 133.897 482.392 131.245C482.669 130.014 483.407 121.231 483.776 116.78H482.115L482.299 115.928H483.961L484.145 114.413C485.068 108.826 489.037 108.163 490.514 108.163C491.252 108.163 492.728 108.542 492.728 109.583C492.728 110.246 492.175 110.53 491.621 110.53C490.606 110.53 490.144 109.962 489.682 109.11C488.021 109.867 487.744 114.034 487.56 115.927H489.682V115.928ZM489.498 123.693C489.498 119.243 492.267 115.36 496.974 115.36C499.927 115.36 501.588 116.686 501.588 119.621C501.588 124.072 498.819 127.836 494.112 127.836C491.159 127.836 489.498 126.51 489.498 123.693ZM497.804 120.284C497.804 119.148 497.712 116.402 496.051 116.402C493.652 116.402 493.282 121.231 493.282 123.03C493.282 124.072 493.375 126.889 495.035 126.889C497.435 126.889 497.804 122.083 497.804 120.284ZM502.603 123.693C502.603 119.243 505.465 115.36 510.171 115.36C513.032 115.36 514.762 116.686 514.762 119.621C514.762 124.072 511.925 127.836 507.218 127.836C504.357 127.836 502.603 126.51 502.603 123.693ZM511.002 120.284C511.002 119.148 510.91 116.402 509.248 116.402C506.757 116.402 506.48 121.231 506.48 123.03C506.48 124.072 506.48 126.889 508.141 126.889C510.632 126.889 511.002 122.083 511.002 120.284ZM529.068 126.416C527.406 127.173 525.376 127.836 523.992 127.836C523.254 127.836 523.345 126.699 523.345 126.226C523.345 125.658 523.345 124.9 523.531 123.409L523.438 123.314C522.515 125.279 520.669 127.836 518.27 127.836C516.424 127.836 515.593 125.847 515.593 124.166C515.593 120 518.823 115.549 523.438 115.549H524.361C524.73 112.614 524.73 111.383 524.73 110.436C524.73 110.152 524.73 109.867 524.453 109.867C524.176 109.867 523.807 109.962 522.884 110.246L522.7 109.489C524.546 108.826 526.576 108.447 528.422 108.352C528.607 108.352 528.699 108.352 528.699 108.731C528.699 111.193 526.853 124.071 526.853 125.374C526.853 125.658 526.853 126.131 527.222 126.131C527.406 126.131 528.053 125.941 528.791 125.658L529.068 126.416ZM523.068 122.367C523.715 120.758 523.899 119.148 524.269 116.686C524.084 116.591 523.899 116.591 523.807 116.591C520.946 116.591 519.561 120.947 519.561 123.314C519.561 123.882 519.654 125.279 520.485 125.279C521.685 125.279 522.7 123.314 523.068 122.367Z" fill="#CCCCCC"/>
<path fill-rule="evenodd" clip-rule="evenodd" d="M490.052 128.972H491.067L492.359 130.961V128.972H493.19V132.76H492.452L490.883 130.583V132.76H490.052V128.972ZM495.589 128.972H498.451V129.73H496.697V130.392H497.805V131.245H496.697V131.907H498.451V132.76H495.589V128.972ZM501.497 129.73H500.481V128.972H503.619V129.73H502.604V132.76H501.497V129.73ZM505.465 128.972H506.572L507.034 130.961H507.126L507.587 128.972H508.511L508.972 130.961H509.064L509.526 128.972H510.356L509.433 132.76H508.511L507.956 130.677L507.403 132.76H506.48L505.465 128.972ZM514.117 132.855C513.033 132.855 512.294 132.098 512.294 130.866C512.294 129.635 513.033 128.878 514.117 128.878C515.225 128.878 515.87 129.635 515.87 130.866C515.87 132.097 515.225 132.855 514.117 132.855ZM513.471 130.866C513.471 131.907 513.748 132.097 514.117 132.097C514.486 132.097 514.763 131.907 514.763 130.866C514.763 129.825 514.486 129.635 514.117 129.635C513.656 129.635 513.471 129.919 513.471 130.866ZM518.085 128.972H519.931C521.131 128.972 521.408 129.54 521.408 130.014C521.408 130.487 521.131 130.866 520.67 130.961L521.408 132.76H520.208L519.655 131.15H519.193V132.76H518.085V128.972ZM519.193 130.487H519.747C520.023 130.487 520.301 130.298 520.301 130.108C520.301 129.825 520.116 129.635 519.747 129.635H519.193V130.487ZM523.715 128.972H524.823V130.487L525.93 128.972H526.945L526.022 130.203L527.13 132.76H526.022L525.284 131.15L524.823 131.813V132.76H523.715V128.972Z" fill="white"/>
<line x1="610.179" y1="104.091" x2="610.179" y2="136.093" stroke="#E6E6E6"/>
<g clip-path="url(#clip0_516_4660)">
<path d="M762.583 122.481C762.259 122.481 762.016 122.4 761.827 122.211C761.665 122.05 761.557 121.78 761.557 121.456V111.496C761.557 111.172 761.638 110.902 761.827 110.74C762.016 110.578 762.259 110.497 762.583 110.497H764.391C764.796 110.497 765.147 110.524 765.444 110.551C765.741 110.605 766.011 110.686 766.2 110.848C766.416 111.01 766.551 111.226 766.659 111.55C766.767 111.847 766.821 112.278 766.821 112.791V120.187C766.821 120.862 766.74 121.348 766.551 121.672C766.362 121.996 766.092 122.211 765.741 122.319C765.39 122.427 764.931 122.481 764.391 122.454L762.583 122.481ZM756.78 104.694C756.456 104.721 756.186 104.802 756.024 104.964C755.862 105.126 755.781 105.396 755.781 105.719V127.259C755.781 127.583 755.862 127.826 756.051 128.015C756.213 128.177 756.483 128.285 756.807 128.285H764.31C765.876 128.285 767.226 128.123 768.305 127.799C769.385 127.475 770.249 126.962 770.896 126.314C771.544 125.666 772.03 124.803 772.3 123.777C772.597 122.751 772.732 121.564 772.732 120.187V112.791C772.732 111.415 772.597 110.227 772.3 109.201C772.003 108.176 771.544 107.339 770.896 106.691C770.249 106.016 769.385 105.531 768.305 105.207C767.226 104.883 765.903 104.721 764.31 104.721L756.78 104.694ZM746.955 118.918C746.955 119.566 746.928 120.16 746.901 120.673C746.847 121.186 746.739 121.618 746.577 121.996C746.415 122.373 746.145 122.643 745.767 122.832C745.416 123.021 744.93 123.129 744.309 123.129C743.689 123.129 743.203 123.021 742.852 122.832C742.474 122.643 742.231 122.373 742.042 121.996C741.88 121.645 741.772 121.186 741.718 120.673C741.664 120.16 741.637 119.566 741.664 118.918V114.06C741.664 113.412 741.691 112.818 741.718 112.305C741.772 111.793 741.88 111.361 742.042 110.983C742.204 110.605 742.474 110.335 742.852 110.146C743.203 109.957 743.689 109.849 744.309 109.849C744.93 109.849 745.416 109.957 745.767 110.146C746.145 110.335 746.388 110.605 746.577 110.983C746.739 111.334 746.847 111.793 746.901 112.305C746.955 112.818 746.955 113.412 746.955 114.06V118.918ZM752.731 112.278C752.731 111.901 752.704 111.442 752.65 110.902C752.596 110.362 752.488 109.795 752.299 109.174C752.11 108.554 751.84 107.96 751.489 107.366C751.111 106.772 750.626 106.232 750.005 105.746C749.384 105.261 748.601 104.856 747.656 104.559C746.712 104.262 745.578 104.127 744.255 104.1C742.933 104.1 741.799 104.262 740.854 104.559C739.91 104.856 739.127 105.261 738.506 105.746C737.885 106.232 737.4 106.772 737.022 107.366C736.644 107.96 736.374 108.581 736.212 109.174C736.023 109.795 735.915 110.362 735.861 110.902C735.807 111.442 735.78 111.901 735.78 112.278V120.7C735.78 121.078 735.807 121.537 735.861 122.077C735.915 122.616 736.023 123.183 736.212 123.804C736.374 124.425 736.671 125.019 737.022 125.612C737.4 126.206 737.885 126.746 738.506 127.259C739.127 127.745 739.91 128.15 740.854 128.42C741.799 128.717 742.933 128.878 744.255 128.878C745.578 128.878 746.712 128.717 747.656 128.42C748.601 128.123 749.384 127.745 750.005 127.259C750.626 126.773 751.111 126.233 751.489 125.612C751.867 125.019 752.137 124.398 752.299 123.804C752.461 123.183 752.596 122.616 752.65 122.077C752.704 121.537 752.731 121.078 752.731 120.7V112.278ZM727.332 118.918C727.332 119.566 727.305 120.16 727.278 120.673C727.224 121.186 727.116 121.618 726.954 121.996C726.792 122.373 726.522 122.643 726.144 122.832C725.793 123.021 725.307 123.129 724.686 123.129C724.066 123.129 723.58 123.021 723.229 122.832C722.851 122.643 722.608 122.373 722.419 121.996C722.257 121.645 722.149 121.186 722.095 120.673C722.041 120.16 722.014 119.566 722.041 118.918V114.06C722.041 113.412 722.068 112.818 722.095 112.305C722.149 111.793 722.257 111.361 722.419 110.983C722.581 110.605 722.851 110.335 723.229 110.146C723.58 109.957 724.066 109.849 724.686 109.849C725.307 109.849 725.793 109.957 726.144 110.146C726.522 110.335 726.765 110.605 726.954 110.983C727.116 111.334 727.224 111.793 727.278 112.305C727.332 112.818 727.332 113.412 727.332 114.06V118.918ZM733.135 112.278C733.135 111.901 733.108 111.442 733.054 110.902C733 110.362 732.892 109.795 732.703 109.174C732.514 108.554 732.244 107.96 731.893 107.366C731.515 106.772 731.029 106.232 730.409 105.746C729.788 105.261 729.005 104.856 728.06 104.559C727.116 104.262 725.982 104.127 724.659 104.1C723.337 104.1 722.203 104.262 721.258 104.559C720.314 104.856 719.531 105.261 718.91 105.746C718.289 106.232 717.803 106.772 717.426 107.366C717.048 107.96 716.778 108.581 716.616 109.174C716.427 109.795 716.319 110.362 716.265 110.902C716.211 111.442 716.184 111.901 716.184 112.278V120.7C716.184 121.078 716.211 121.537 716.265 122.077C716.319 122.616 716.427 123.183 716.616 123.804C716.778 124.425 717.075 125.019 717.426 125.612C717.803 126.206 718.289 126.746 718.91 127.259C719.531 127.745 720.314 128.15 721.258 128.42C722.203 128.717 723.337 128.878 724.659 128.878C725.982 128.878 727.116 128.717 728.06 128.42C729.005 128.123 729.788 127.745 730.409 127.259C731.029 126.773 731.515 126.233 731.893 125.612C732.271 125.019 732.541 124.398 732.703 123.804C732.865 123.183 733 122.616 733.054 122.077C733.108 121.537 733.135 121.078 733.135 120.7V112.278ZM713.215 104.694C713.89 104.694 714.213 105.045 714.213 105.692V109.471C714.213 109.795 714.133 110.038 713.971 110.227C713.809 110.416 713.539 110.497 713.215 110.497H704.415C704.092 110.497 703.849 110.578 703.66 110.74C703.471 110.902 703.39 111.172 703.39 111.496V127.286C703.39 127.61 703.309 127.853 703.147 128.042C702.985 128.204 702.715 128.312 702.391 128.312H698.423C698.099 128.312 697.856 128.231 697.667 128.042C697.506 127.853 697.398 127.61 697.398 127.286V105.719C697.398 105.396 697.479 105.126 697.667 104.964C697.856 104.802 698.099 104.721 698.423 104.721L713.215 104.694Z" fill="#CCCCCC"/>
<path d="M771.193 133.547C771.193 133.52 771.166 133.52 771.166 133.493C771.166 133.466 771.166 133.466 771.193 133.439L772.543 131.604C772.597 131.523 772.597 131.469 772.57 131.442C772.543 131.415 772.489 131.361 772.408 131.361H771.436C771.382 131.361 771.328 131.361 771.301 131.388C771.274 131.415 771.22 131.442 771.193 131.496L770.141 132.926C770.114 132.953 770.114 132.953 770.087 132.953C770.06 132.953 770.06 132.926 770.06 132.899V131.577C770.06 131.442 770.006 131.388 769.871 131.388H769.115C769.061 131.388 769.007 131.415 768.98 131.442C768.953 131.469 768.926 131.523 768.926 131.604V135.869C768.926 135.923 768.953 135.977 768.98 136.003C769.007 136.03 769.061 136.057 769.115 136.057H769.871C769.925 136.057 769.979 136.03 770.033 136.003C770.087 135.977 770.087 135.923 770.087 135.869V135.14V135.086C770.087 135.059 770.087 135.059 770.114 135.032L770.384 134.654C770.384 134.627 770.41 134.627 770.437 134.627C770.464 134.627 770.464 134.627 770.491 134.654L771.328 135.923C771.355 135.977 771.382 136.003 771.436 136.03C771.463 136.057 771.517 136.057 771.571 136.057H772.57C772.651 136.057 772.705 136.03 772.732 135.977C772.759 135.923 772.759 135.869 772.705 135.815L771.193 133.547ZM765.147 131.361C765.093 131.361 765.039 131.388 765.012 131.415C764.985 131.442 764.958 131.496 764.958 131.577V134.546C764.958 134.627 764.958 134.708 764.985 134.816C764.985 134.924 765.012 135.032 765.066 135.167C765.093 135.275 765.147 135.41 765.228 135.518C765.309 135.626 765.39 135.734 765.525 135.842C765.66 135.95 765.795 136.003 765.984 136.084C766.173 136.138 766.389 136.165 766.659 136.165C766.929 136.165 767.144 136.138 767.333 136.084C767.522 136.03 767.684 135.95 767.792 135.842C767.927 135.734 768.008 135.626 768.089 135.518C768.17 135.41 768.224 135.275 768.251 135.167C768.278 135.059 768.305 134.924 768.305 134.816C768.305 134.708 768.332 134.627 768.332 134.546V131.577C768.332 131.442 768.278 131.388 768.143 131.388H767.387C767.333 131.388 767.279 131.415 767.252 131.442C767.225 131.469 767.198 131.523 767.198 131.604V134.573C767.198 134.681 767.171 134.762 767.144 134.843C767.117 134.924 767.064 134.978 766.983 135.005C766.902 135.032 766.821 135.059 766.686 135.059C766.551 135.059 766.47 135.032 766.389 135.005C766.308 134.978 766.254 134.924 766.227 134.843C766.2 134.762 766.173 134.681 766.173 134.573C766.173 134.465 766.146 134.357 766.173 134.222V131.604C766.173 131.469 766.119 131.415 765.984 131.415L765.147 131.361ZM764.283 134.87C764.418 134.87 764.472 134.924 764.472 135.059V135.815C764.472 135.869 764.445 135.923 764.418 135.95C764.391 135.977 764.337 136.003 764.256 136.003H763.501C763.447 136.003 763.393 135.977 763.366 135.95C763.339 135.923 763.312 135.869 763.312 135.815V135.059C763.312 135.005 763.339 134.951 763.366 134.897C763.393 134.87 763.447 134.843 763.501 134.843L764.283 134.87ZM761.665 134.168V134.519C761.665 134.627 761.638 134.708 761.611 134.789C761.584 134.87 761.53 134.924 761.449 134.951C761.368 134.978 761.287 135.005 761.152 135.005C761.017 135.005 760.936 134.978 760.855 134.951C760.774 134.924 760.72 134.87 760.693 134.789C760.666 134.708 760.639 134.627 760.639 134.519C760.639 134.411 760.612 134.303 760.639 134.168V133.223V132.872C760.639 132.764 760.666 132.683 760.693 132.603C760.72 132.522 760.774 132.468 760.855 132.441C760.936 132.414 761.017 132.387 761.152 132.387C761.287 132.387 761.368 132.414 761.449 132.441C761.53 132.468 761.584 132.522 761.611 132.603C761.638 132.683 761.665 132.764 761.665 132.872V134.168ZM762.826 132.845C762.826 132.764 762.826 132.683 762.799 132.576C762.799 132.468 762.772 132.36 762.745 132.225C762.718 132.117 762.664 131.982 762.583 131.874C762.502 131.766 762.421 131.658 762.286 131.55C762.151 131.442 762.016 131.388 761.827 131.307C761.638 131.253 761.422 131.226 761.152 131.226C760.882 131.226 760.666 131.253 760.477 131.307C760.289 131.361 760.127 131.442 760.019 131.55C759.884 131.658 759.803 131.766 759.722 131.874C759.641 131.982 759.587 132.117 759.56 132.225C759.533 132.333 759.506 132.468 759.479 132.576C759.479 132.683 759.452 132.764 759.452 132.845V134.519C759.452 134.6 759.452 134.681 759.479 134.789C759.479 134.897 759.506 135.005 759.56 135.14C759.587 135.248 759.641 135.383 759.722 135.491C759.803 135.599 759.884 135.707 760.019 135.815C760.154 135.923 760.289 135.977 760.477 136.057C760.666 136.111 760.882 136.138 761.152 136.138C761.422 136.138 761.638 136.111 761.827 136.057C762.016 136.003 762.178 135.923 762.286 135.815C762.421 135.707 762.502 135.599 762.583 135.491C762.664 135.383 762.718 135.248 762.745 135.14C762.772 135.032 762.799 134.897 762.799 134.789C762.799 134.681 762.826 134.6 762.826 134.519V132.845ZM755.754 134.519C755.754 134.6 755.754 134.681 755.781 134.789C755.781 134.897 755.808 135.005 755.862 135.14C755.889 135.248 755.943 135.383 756.024 135.491C756.105 135.599 756.186 135.707 756.321 135.815C756.456 135.923 756.591 135.977 756.78 136.057C756.969 136.111 757.184 136.138 757.454 136.138C757.697 136.138 757.886 136.111 758.075 136.057C758.237 136.003 758.399 135.95 758.507 135.869C758.615 135.788 758.723 135.707 758.804 135.599C758.885 135.491 758.939 135.383 758.993 135.275C759.047 135.167 759.074 135.059 759.074 134.951C759.101 134.843 759.101 134.762 759.101 134.654C759.101 134.6 759.101 134.573 759.074 134.519C759.047 134.492 759.02 134.465 758.966 134.465L758.21 134.303C758.156 134.276 758.075 134.303 758.048 134.33C757.994 134.357 757.967 134.411 757.967 134.492C757.967 134.6 757.94 134.681 757.886 134.762C757.859 134.843 757.805 134.897 757.724 134.924C757.643 134.951 757.562 134.978 757.427 134.978C757.292 134.978 757.211 134.951 757.131 134.924C757.05 134.897 756.996 134.843 756.969 134.762C756.942 134.681 756.915 134.6 756.915 134.492C756.915 134.384 756.888 134.276 756.915 134.141V133.196V132.845C756.915 132.737 756.942 132.657 756.969 132.576C756.996 132.495 757.05 132.441 757.131 132.414C757.211 132.387 757.292 132.36 757.427 132.36C757.535 132.36 757.643 132.387 757.724 132.414C757.805 132.441 757.859 132.495 757.886 132.576C757.913 132.657 757.94 132.737 757.94 132.818C757.94 132.899 757.967 132.953 758.021 132.98C758.075 133.007 758.129 133.034 758.21 133.034L758.939 132.872C758.993 132.872 759.02 132.845 759.047 132.818C759.074 132.791 759.074 132.737 759.074 132.71C759.074 132.63 759.047 132.522 759.047 132.414L758.966 132.09C758.912 131.982 758.858 131.874 758.777 131.766C758.696 131.658 758.588 131.577 758.48 131.496C758.345 131.415 758.21 131.361 758.048 131.307C757.886 131.253 757.67 131.226 757.427 131.226C757.157 131.226 756.942 131.253 756.753 131.307C756.564 131.361 756.402 131.442 756.294 131.55C756.159 131.658 756.078 131.766 755.997 131.874C755.916 131.982 755.862 132.117 755.835 132.225C755.808 132.333 755.781 132.468 755.754 132.576C755.754 132.683 755.727 132.764 755.727 132.845V134.519H755.754ZM755.133 134.87C755.268 134.87 755.322 134.924 755.322 135.059V135.815C755.322 135.869 755.295 135.923 755.268 135.95C755.241 135.977 755.187 136.003 755.106 136.003H754.35C754.296 136.003 754.242 135.977 754.215 135.95C754.188 135.923 754.161 135.869 754.161 135.815V135.059C754.161 135.005 754.188 134.951 754.215 134.897C754.242 134.87 754.296 134.843 754.35 134.843L755.133 134.87Z" fill="#CCCCCC"/>
<path d="M705.711 117.515C703.2 117.299 690.946 119.296 690.028 117.137C688.49 113.547 701.365 115.571 703.092 115.625C703.956 115.652 705.036 115.814 705.657 115.652C706.089 115.517 706.385 114.815 706.871 114.545C707.951 113.898 709.705 114.249 711.217 114.383C712.243 114.464 713.241 114.572 714.321 114.653C712.783 114.869 711.136 115.085 709.517 115.301C709.328 115.328 709.031 115.247 708.896 115.463C710.542 115.733 712.405 115.787 714.186 115.922C712.432 116.192 710.461 116.246 708.734 116.57C708.842 116.759 709.166 116.705 709.355 116.732C710.893 116.84 712.594 116.975 714.213 117.056C712.54 117.326 710.596 117.38 708.923 117.704C708.977 117.973 709.328 117.892 709.49 117.892C711.028 118.081 712.756 118.297 714.348 118.432C712.594 118.567 710.434 118.972 708.626 119.08C707.222 119.161 706.385 118.351 705.711 117.515Z" fill="#CCCCCC"/>
<path d="M701.366 117.731C703.309 117.569 704.956 117.434 705.711 117.488C706.062 117.92 706.413 118.324 706.899 118.621C707.358 118.918 707.898 119.107 708.599 119.053C709.598 118.999 710.705 118.837 711.784 118.702C712.567 118.594 713.323 118.486 714.025 118.432C713.323 118.378 712.621 118.297 711.892 118.216C711.056 118.135 710.246 118.027 709.49 117.92H709.355C709.166 117.92 708.923 117.92 708.896 117.704V117.677H708.923C709.841 117.488 710.867 117.38 711.892 117.299C712.594 117.245 713.296 117.164 713.944 117.083C712.729 117.002 711.461 116.921 710.273 116.84C709.976 116.813 709.679 116.786 709.382 116.786H709.247C709.058 116.786 708.842 116.786 708.734 116.624L708.707 116.597H708.734C709.706 116.408 710.759 116.3 711.811 116.219C712.513 116.165 713.242 116.084 713.917 116.003C713.566 115.976 713.188 115.949 712.837 115.922C711.488 115.841 710.111 115.76 708.896 115.571H708.842L708.869 115.544C708.977 115.382 709.166 115.382 709.328 115.382H709.49L710.786 115.22C711.865 115.085 712.972 114.923 713.998 114.788C713.377 114.734 712.756 114.68 712.162 114.627C711.838 114.6 711.542 114.573 711.191 114.546L710.381 114.465C709.085 114.33 707.736 114.168 706.872 114.707C706.656 114.842 706.467 115.058 706.305 115.274C706.089 115.517 705.9 115.76 705.657 115.841C705.225 115.949 704.578 115.922 703.93 115.868C703.633 115.841 703.336 115.814 703.066 115.814C702.769 115.814 702.148 115.733 701.339 115.652C698.423 115.193 692.944 114.627 690.812 115.544C690.056 115.868 689.732 116.354 690.056 117.137C690.677 118.621 696.831 118.108 701.366 117.731ZM705.711 117.542C704.956 117.488 703.309 117.623 701.366 117.785C696.831 118.162 690.65 118.675 690.002 117.137C689.651 116.327 690.002 115.814 690.785 115.463C692.944 114.546 698.423 115.112 701.366 115.409C702.175 115.49 702.796 115.571 703.093 115.571C703.363 115.571 703.66 115.598 703.957 115.625C704.605 115.679 705.225 115.706 705.657 115.598C705.873 115.544 706.062 115.301 706.278 115.058C706.467 114.842 706.629 114.627 706.872 114.492C707.763 113.952 709.112 114.114 710.435 114.249L711.245 114.33C711.542 114.357 711.892 114.384 712.216 114.411C712.918 114.465 713.62 114.546 714.349 114.573L714.646 114.6L714.376 114.654C713.269 114.815 712.081 114.977 710.894 115.139L709.598 115.301H709.436C709.301 115.301 709.139 115.301 709.031 115.409C710.246 115.598 711.596 115.679 712.945 115.76C713.404 115.787 713.836 115.814 714.295 115.841L714.565 115.868L714.295 115.895C713.539 116.003 712.729 116.084 711.919 116.165C710.894 116.273 709.841 116.354 708.896 116.543C708.977 116.651 709.166 116.651 709.328 116.651H709.463C709.76 116.678 710.057 116.705 710.354 116.705C711.65 116.813 712.999 116.894 714.295 116.975L714.565 117.002L714.295 117.056C713.539 117.164 712.756 117.245 711.973 117.326C710.975 117.434 709.976 117.515 709.058 117.704C709.112 117.866 709.301 117.839 709.463 117.839H709.598C710.381 117.92 711.191 118.027 712 118.135C712.81 118.216 713.647 118.324 714.43 118.378V118.432C713.647 118.486 712.756 118.621 711.865 118.729C710.786 118.864 709.679 119.026 708.68 119.08C707.979 119.134 707.412 118.945 706.953 118.648C706.413 118.378 706.035 117.974 705.711 117.542Z" fill="#CCCCCC"/>
</g>
<line x1="853.312" y1="104.091" x2="853.312" y2="136.093" stroke="#E6E6E6"/>
<g clip-path="url(#clip1_516_4660)">
<path d="M1046.24 104.091C1044.17 104.091 1042.48 105.763 1042.48 107.833C1042.48 109.914 1044.18 111.581 1046.26 111.575C1048.33 111.581 1049.99 109.914 1049.99 107.833C1049.98 105.768 1048.31 104.091 1046.24 104.091ZM978.305 104.154C976.224 104.154 974.547 105.81 974.547 107.88C974.547 109.961 976.229 111.654 978.305 111.659C980.37 111.659 982.047 109.961 982.047 107.88C982.052 105.81 980.37 104.154 978.305 104.154ZM1034.21 108.357C1032.14 108.357 1030.45 110.029 1030.45 112.099C1030.45 114.17 1032.14 115.857 1034.21 115.857C1036.28 115.857 1037.95 114.175 1037.95 112.099C1037.95 110.034 1036.28 108.357 1034.21 108.357ZM1058.35 108.357C1056.28 108.357 1054.59 110.029 1054.59 112.099C1054.59 114.17 1056.28 115.857 1058.35 115.857C1060.43 115.857 1062.07 114.17 1062.07 112.099C1062.07 110.029 1060.43 108.352 1058.35 108.357ZM990.144 108.42C988.079 108.42 986.386 110.113 986.386 112.178C986.386 114.254 988.074 115.92 990.144 115.92C992.204 115.92 993.886 114.248 993.886 112.178C993.886 110.113 992.209 108.42 990.144 108.42ZM966.245 108.52C964.18 108.515 962.503 110.186 962.503 112.251V112.267C962.503 114.343 964.17 116.03 966.245 116.025C968.305 116.025 969.987 114.337 969.987 112.267C969.987 110.192 968.305 108.52 966.245 108.52ZM1047.52 117.262C1047.52 117.262 1040.08 117.309 1039.99 117.309C1038.72 117.309 1037.64 118.389 1037.64 119.652L1037.63 133.195H1037.64C1037.7 134.798 1039.04 136.093 1040.66 136.093C1042.29 136.093 1043.63 134.798 1043.69 133.195V128.488C1043.69 128.488 1046.66 128.472 1046.76 128.472C1047.91 128.472 1048.86 127.56 1048.86 126.407C1048.86 125.249 1047.92 124.306 1046.76 124.306H1043.69V123.053H1047.53C1049.12 123.053 1050.4 121.78 1050.4 120.186C1050.39 118.609 1049.12 117.262 1047.52 117.262ZM1061.23 117.262C1061.23 117.262 1053.78 117.309 1053.69 117.309C1052.41 117.309 1051.35 118.383 1051.35 119.652V133.195H1051.36C1051.42 134.798 1052.74 136.093 1054.36 136.093C1056 136.093 1057.31 134.804 1057.36 133.195H1057.38V128.488C1057.38 128.488 1060.35 128.472 1060.45 128.472C1061.6 128.472 1062.55 127.56 1062.55 126.407C1062.55 125.249 1061.6 124.306 1060.45 124.306H1057.37V123.053H1061.21C1062.8 123.053 1064.08 121.78 1064.08 120.186C1064.08 118.609 1062.81 117.257 1061.23 117.262ZM993.818 117.293C992.23 117.293 990.951 118.572 990.951 120.144C990.951 120.249 990.972 120.359 990.983 120.469L990.967 133.168L990.983 133.315C991.061 134.814 992.304 136.02 993.834 136.02C995.422 136.02 996.701 134.746 996.701 133.168C996.701 132.985 996.685 132.812 996.654 132.65V128.881L1000.92 134.61C1000.98 134.704 1001.05 134.798 1001.11 134.903L1001.13 134.935C1001.68 135.574 1002.51 135.978 1003.42 135.978C1005.09 135.978 1006.42 134.636 1006.42 132.98C1006.43 132.403 1006.27 131.837 1005.95 131.35L1005.9 131.287C1005.86 131.219 1005.83 131.151 1005.77 131.093L1001.92 125.915L1005.05 122.12H1005.04C1005.45 121.622 1005.7 120.988 1005.7 120.281C1005.7 118.666 1004.39 117.335 1002.78 117.335C1001.72 117.335 1000.8 117.896 1000.29 118.735L996.654 123.116V120.574C996.669 120.433 996.685 120.281 996.685 120.134C996.685 118.572 995.401 117.293 993.818 117.293ZM935.596 117.309C934.196 117.309 933.075 118.452 933.075 119.83C933.075 119.83 933.059 133.278 933.059 133.504C933.059 134.935 934.149 136.009 935.58 136.009L942.089 136.025C945.286 136.025 947.886 133.441 947.886 130.244C947.886 128.436 947.079 126.827 945.784 125.768C946.544 124.867 947.021 123.698 947.021 122.414C947.026 119.605 944.694 117.299 941.859 117.304H935.596V117.309ZM979.547 117.393C974.432 117.393 970.27 121.549 970.27 126.67C970.27 131.79 974.432 135.962 979.547 135.962C984.667 135.962 988.829 131.79 988.823 126.67C988.823 121.549 984.667 117.393 979.547 117.393ZM958.562 117.424C953.436 117.424 949.296 121.591 949.301 126.722C949.301 131.837 953.431 135.988 958.562 135.983C963.693 135.983 967.838 131.837 967.838 126.722C967.838 121.596 963.693 117.424 958.562 117.424ZM1026.86 117.424C1021.72 117.424 1017.55 121.607 1017.55 126.753C1017.55 131.89 1021.72 136.067 1026.86 136.067C1032 136.067 1036.18 131.89 1036.18 126.753C1036.18 121.607 1032 117.424 1026.86 117.424ZM938.116 121.523H940.444C941.219 121.523 941.843 122.136 941.843 122.922C941.843 123.687 941.214 124.29 940.444 124.29C940.37 124.29 938.116 124.306 938.116 124.306V121.523ZM1011.35 122.744C1009.28 122.744 1007.62 124.432 1007.61 126.502C1007.62 128.572 1009.28 130.26 1011.35 130.26C1013.43 130.26 1015.11 128.572 1015.11 126.502C1015.11 124.437 1013.42 122.744 1011.35 122.744ZM979.547 122.828C981.675 122.828 983.404 124.552 983.404 126.685C983.404 128.808 981.675 130.527 979.547 130.527C977.419 130.527 975.705 128.797 975.705 126.67C975.7 124.552 977.414 122.833 979.531 122.828H979.547ZM958.562 122.859C960.684 122.859 962.419 124.584 962.419 126.717C962.419 128.845 960.69 130.564 958.562 130.558C956.455 130.564 954.725 128.845 954.72 126.717C954.72 124.584 956.45 122.859 958.562 122.859ZM1026.86 122.891C1029 122.891 1030.72 124.605 1030.72 126.748C1030.72 128.876 1028.99 130.606 1026.86 130.606C1024.73 130.606 1023 128.876 1023.01 126.748C1023 124.62 1024.72 122.896 1026.85 122.891H1026.86ZM938.116 128.263L941.078 128.279C941.885 128.279 942.545 128.918 942.545 129.725C942.54 130.543 941.89 131.193 941.078 131.193H938.132L938.116 128.263ZM1061.1 131.193C1059.75 131.193 1058.67 132.277 1058.67 133.635C1058.68 134.998 1059.74 136.077 1061.1 136.077C1062.45 136.077 1063.54 134.992 1063.54 133.635C1063.54 132.288 1062.45 131.198 1061.11 131.193C1061.11 131.193 1061.1 131.193 1061.1 131.193ZM1061.1 131.439C1062.3 131.439 1063.29 132.419 1063.29 133.635C1063.29 134.846 1062.3 135.831 1061.1 135.831C1059.89 135.831 1058.92 134.84 1058.92 133.635C1058.92 132.419 1059.89 131.439 1061.1 131.439ZM1059.99 132.188V135.018H1060.58V133.913H1061.18C1061.35 133.913 1061.48 133.934 1061.54 133.996C1061.6 134.049 1061.64 134.175 1061.64 134.353V134.615C1061.64 134.704 1061.65 134.777 1061.65 134.861C1061.66 134.908 1061.68 134.966 1061.7 135.024H1062.35V134.961C1062.29 134.929 1062.25 134.856 1062.23 134.783C1062.22 134.735 1062.22 134.652 1062.22 134.521V134.342C1062.22 134.143 1062.19 133.996 1062.14 133.902C1062.08 133.803 1061.98 133.729 1061.86 133.677C1062 133.624 1062.14 133.53 1062.2 133.399C1062.27 133.273 1062.29 133.142 1062.3 133.006C1062.3 132.891 1062.28 132.802 1062.25 132.712C1062.21 132.623 1062.15 132.545 1062.09 132.466C1062.02 132.377 1061.93 132.314 1061.83 132.272C1061.72 132.225 1061.58 132.199 1061.39 132.188H1059.99ZM1060.58 132.691H1061.26C1061.39 132.691 1061.47 132.707 1061.54 132.739C1061.65 132.796 1061.72 132.906 1061.72 133.079C1061.72 133.231 1061.65 133.336 1061.54 133.389C1061.47 133.42 1061.38 133.436 1061.24 133.436H1060.58V132.691Z" fill="#CCCCCC"/>
</g>
<line x1="1144.82" y1="104.091" x2="1144.82" y2="136.093" stroke="#E6E6E6"/>
<path fill-rule="evenodd" clip-rule="evenodd" d="M1225.9 132.395L1233.6 132.288L1233.63 132.242L1225.32 130.878L1225.28 130.714L1232.24 130.612C1232.24 130.612 1232.18 130.47 1232.01 130.118L1224.84 128.947L1224.82 128.782L1231.52 128.683L1231.42 128.204L1224.62 127.162L1224.61 126.96L1231.21 126.862L1231.16 126.363L1224.56 125.25L1224.57 125.084L1231.17 124.987C1231.13 124.794 1231.19 124.403 1231.19 124.403L1224.67 123.385L1224.7 123.218L1231.28 123.139C1231.28 123.043 1231.32 122.688 1231.32 122.688L1224.91 121.507L1224.94 121.341L1231.59 121.243C1231.59 121.243 1231.63 120.869 1231.71 120.674L1225.3 119.671L1225.35 119.504L1232.01 119.406C1232.01 119.406 1232.15 119.01 1232.22 118.864L1225.84 117.876L1225.89 117.729L1232.67 117.629C1232.67 117.629 1232.86 117.21 1232.91 117.097L1226.58 116.092L1226.64 115.943L1233.54 115.842C1233.54 115.842 1233.72 115.469 1233.89 115.209L1227.57 114.204L1227.63 114.075L1234.73 113.988C1234.73 113.988 1234.94 113.643 1235.13 113.464L1228.73 112.481L1228.85 112.332L1236.1 112.226C1236.1 112.226 1236.39 111.909 1236.59 111.745L1230.3 110.761L1230.4 110.612L1237.79 110.497L1238.27 110.058L1232.55 108.788L1232.54 108.79C1234.99 107.192 1238.04 106.227 1241.72 106.177C1248.55 106.082 1254.31 109.551 1254.51 117.697L1245.63 117.819C1245.33 114.931 1243.65 113.947 1241.26 113.98C1236.1 114.051 1233.87 119.734 1233.94 125.122C1233.99 128.801 1235.56 131.233 1239.35 131.179C1241.87 131.145 1244 130.196 1244.9 127.643L1240.63 127.701L1241.91 120.98L1254.38 120.808L1251.1 138.07L1245.17 138.152L1245.38 135.127L1245.3 135.04C1243.37 137.782 1240.35 138.963 1237.11 139.008C1230.77 139.096 1227.49 135.877 1225.91 132.421L1225.9 132.395ZM1271.64 121.047C1270.73 120.496 1269.6 120.117 1268.15 120.134C1266.34 120.155 1264.38 120.909 1264.41 123.24C1264.45 126.527 1270.96 126.478 1271.02 131.619C1271.05 134.568 1269.09 137.935 1264.49 137.989C1262.27 138.016 1260.68 137.529 1259.14 136.929L1259.99 134.334C1261.12 135.051 1262.68 135.538 1264.03 135.523C1266.93 135.489 1268.14 133.62 1268.12 131.991C1268.08 128.002 1261.57 128.781 1261.51 123.332C1261.47 119.764 1264.62 117.703 1267.77 117.666C1269.36 117.647 1270.92 117.938 1272.38 118.539L1271.64 121.047ZM1282.58 137.185C1281.25 137.538 1279.85 137.808 1278.46 137.824C1275.06 137.864 1272.01 136.496 1271.95 131.439C1271.91 127.478 1274.56 122.867 1279.49 122.808C1282.86 122.769 1284.77 124.825 1284.81 128.225C1284.82 129.179 1284.72 129.996 1284.59 130.839L1274.76 130.956C1274.71 131.253 1274.69 131.555 1274.69 131.857C1274.73 134.862 1276.54 135.711 1279.03 135.682C1280.32 135.667 1281.71 135.314 1282.97 134.764L1282.58 137.185ZM1282.16 128.902C1282.21 128.48 1282.24 128.143 1282.23 127.805C1282.21 126.12 1281.19 124.924 1279.24 124.947C1277.14 124.971 1275.54 126.873 1275.02 128.987L1282.16 128.902ZM1286.47 125.254C1286.58 124.662 1286.73 123.902 1286.83 123.058L1289.24 123.029L1288.83 125.31H1288.89C1289.69 123.951 1291.18 122.67 1293.62 122.641C1293.87 122.638 1294.3 122.689 1294.8 122.88L1294.25 125.218C1293.76 125.028 1293.34 124.948 1293.15 124.951C1289.98 124.987 1288.46 128.546 1288.12 130.32L1286.75 137.388L1284.17 137.419L1286.47 125.254ZM1295.59 122.954L1298.17 122.924L1295.37 137.285L1292.8 137.316L1295.59 122.954ZM1298.98 119.711L1296.08 119.745L1296.65 116.76L1299.55 116.726L1298.98 119.711ZM1308.4 136.878C1307.06 137.231 1305.67 137.501 1304.27 137.517C1300.88 137.558 1297.82 136.189 1297.76 131.132C1297.72 127.171 1300.38 122.56 1305.31 122.501C1308.67 122.462 1310.59 124.519 1310.63 127.918C1310.64 128.873 1310.54 129.689 1310.41 130.533L1300.58 130.649C1300.53 130.946 1300.5 131.248 1300.51 131.55C1300.54 134.555 1302.36 135.404 1304.85 135.375C1306.14 135.361 1307.53 135.007 1308.78 134.458L1308.4 136.878ZM1307.98 128.595C1308.03 128.173 1308.05 127.836 1308.05 127.498C1308.03 125.813 1307 124.617 1305.06 124.64C1302.95 124.665 1301.35 126.566 1300.83 128.68L1307.98 128.595Z" fill="#CCCCCC"/>
<path fill-rule="evenodd" clip-rule="evenodd" d="M1319.33 125.201C1318.61 124.844 1317.49 124.492 1316.53 124.504C1315.41 124.517 1313.93 124.843 1313.95 126.277C1313.98 128.72 1318.74 128.776 1318.79 132.765C1318.82 136.221 1315.74 137.381 1313.55 137.406C1311.33 137.433 1310.51 137.133 1309.47 136.78L1309.93 134.5C1310.95 134.909 1312.02 135.29 1313.14 135.276C1314.54 135.26 1316.07 134.651 1316.05 133.022C1316.02 130.578 1311.25 130.269 1311.21 126.645C1311.18 123.611 1314.12 122.396 1316.42 122.369C1317.65 122.354 1318.92 122.648 1320.07 123.112L1319.33 125.201Z" fill="#CCCCCC"/>
<path d="M1546.83 60.0337C1549.15 56.6618 1551.31 53.1776 1553.28 49.5784C1555.48 45.581 1557.1 41.2519 1559.44 37.3669C1563.38 30.8588 1566.52 24.0357 1569.11 16.8573C1570.57 12.8233 1570.21 9.50097 1568.2 5.7208C1565.45 0.556769 1557.14 -2.55599 1551.69 2.76907C1549.53 4.89296 1548.06 7.23154 1547.47 10.1301C1546.92 12.7485 1546.66 15.4276 1546.21 18.0774C1545.9 19.8308 1545.78 21.7157 1545.04 23.2794C1541.78 30.1078 1538.49 36.9302 1534.87 43.561C1532.38 48.132 1529.35 52.4131 1526.52 56.783C1525.34 58.5942 1524.01 60.3192 1522.95 61.803C1520.05 60.187 1517.57 58.8498 1515.14 57.3999C1514.23 56.8504 1513.28 56.1736 1512.68 55.3C1510.55 52.225 1507.65 50.6815 1504.1 50.48C1499.85 50.2443 1495.62 50.2452 1491.37 50.1509C1489.62 50.1121 1487.84 50.3629 1486.15 50.057C1483.92 49.6749 1481.77 48.5685 1479.54 48.354C1477.32 48.1359 1475.03 48.6257 1472.68 48.824C1470.35 43.7153 1466.07 43.2075 1462.76 47.1617C1460.78 49.5288 1459.73 52.215 1459.14 55.2811C1458.46 58.7627 1457.69 62.3281 1456.32 65.5653C1453.34 72.5531 1451.97 79.6611 1453.64 87.1536C1455.52 95.5857 1456.28 104.168 1456.55 112.763C1456.78 120.425 1459.7 126.706 1464.87 131.832C1470.59 137.496 1476.6 142.87 1482.67 148.144C1484.7 149.913 1487.19 151.303 1489.68 152.302C1495.27 154.538 1500.99 156.431 1506.66 158.432C1508.51 159.087 1510.4 159.705 1512.3 160.178C1518.44 161.715 1524.4 161.563 1530.03 158.151C1531.02 157.555 1532.26 157.284 1533.42 157.05C1541.8 155.378 1548.19 150.772 1552.86 143.486C1554.06 141.628 1555.38 139.808 1556.89 138.228C1559.02 136.003 1560.65 133.533 1561.31 130.519C1562.53 124.954 1563.52 119.351 1564.69 113.784C1566.43 105.523 1563.66 98.6151 1558.75 92.322C1556.36 89.2613 1553.81 86.3447 1551.51 83.2333C1549.22 80.1315 1546.43 77.745 1543.06 75.9926C1541.22 75.0385 1539.45 73.9683 1537.49 72.852C1540.71 68.4328 1543.89 64.3199 1546.83 60.0337ZM1477.33 51.0242C1478.62 51.0907 1480.02 51.027 1481.16 51.5134C1484.5 52.9377 1487.94 52.9177 1491.45 52.8637C1495.48 52.7942 1499.5 52.9349 1503.52 53.1054C1506.5 53.2283 1508.89 54.4356 1510.74 57.0388C1511.71 58.3858 1513.38 59.3165 1514.87 60.1384C1516.88 61.2406 1519.03 62.0678 1520.62 64.1827C1519.68 65.2833 1518.75 66.3508 1517.84 67.4147C1514.24 66.386 1511.3 64.6819 1508.8 62.0175C1507.08 60.1907 1505.09 58.5789 1503.03 57.139C1501.01 55.7184 1498.65 55.5686 1496.3 55.8917C1496.2 56.2417 1496.11 56.5882 1496.01 56.9383C1496.45 56.888 1496.88 56.726 1497.3 56.7945C1500.73 57.3103 1503.4 59.183 1505.51 61.8706C1508.24 65.3428 1511.3 68.2735 1516.31 69.5605C1512.7 72.9645 1511.34 78.0777 1505.69 78.5663C1504.16 75.9016 1501.84 74.2693 1498.76 73.8394C1496.5 73.5202 1495.91 73.6256 1493.36 75.0859C1494.57 76.4221 1496.2 75.9734 1497.56 76.3835C1498.94 76.7902 1500.31 77.2396 1501.64 78.094C1498.03 77.91 1494.5 77.6455 1491.08 79.8635C1492.81 81.1248 1494.34 79.8499 1495.82 80.0182C1497.53 80.2351 1499.26 80.4189 1500.95 80.7379C1502.54 81.0326 1504.1 81.4853 1505.88 81.9212C1503.05 88.8015 1502.06 95.9456 1504.99 103.932C1506.19 101.582 1505.02 99.9131 1505.16 98.2611C1505.3 96.6257 1505.22 94.9906 1505.73 93.2666C1506.56 95.5195 1507.4 97.7723 1508.23 100.025C1508.48 99.9716 1508.71 99.9085 1508.95 99.855C1508.95 99.2669 1509.03 98.6839 1508.95 98.1038C1508.72 96.6651 1508.38 95.2581 1508.18 93.8125C1507.34 87.8302 1508.59 82.5086 1512.83 78.0488C1515.19 75.5635 1517.23 72.7583 1519.67 70.3766C1527.52 62.7066 1532.77 53.0738 1538.56 43.9081C1542.33 37.935 1545.06 31.2539 1548.02 24.7722C1548.93 22.7982 1549.08 20.456 1549.54 18.2827C1550.24 14.9058 1550.84 11.5011 1551.59 8.12684C1552.92 2.11052 1561 1.57006 1564.5 5.78469C1566.89 8.66128 1567.97 11.7576 1566.52 15.6764C1564.18 21.9697 1561.54 28.0548 1557.98 33.758C1555.64 37.5147 1553.72 41.5632 1551.83 45.5881C1549.7 50.143 1547.31 54.4888 1544.22 58.4523C1537.2 67.4485 1530.37 76.6059 1523.43 85.6666C1522.08 87.4247 1520.63 89.0992 1519.13 90.7319C1516.52 93.5666 1514.94 96.9751 1513.71 100.594C1513.55 101.074 1513.61 101.631 1513.55 102.434C1516.4 101.636 1516.59 98.8491 1518.3 97.1045C1523.5 102.952 1521.85 109.704 1520.66 117.111C1521.49 116.127 1522.02 115.77 1522.17 115.281C1524.11 108.955 1524.61 102.772 1520.35 97.0854C1519.62 96.109 1519.64 96.0889 1519.79 94.3645C1523 95.1372 1523.31 98.6707 1525.32 100.516C1527.45 97.7582 1527.09 96.6504 1522.51 91.6396C1525.55 87.7625 1528.59 83.8557 1531.59 80.0153C1535.32 81.3178 1537.97 83.4768 1539.91 86.8574C1541.04 88.8194 1542.93 90.3179 1544.56 91.9458C1545.24 92.6405 1546.17 93.1009 1546.92 93.7352C1550.19 96.5409 1551.8 99.9403 1550.66 104.389C1549.65 108.314 1549.34 112.298 1549.49 116.367C1549.61 119.614 1548.82 121.557 1546.9 123.851C1542.46 119.449 1537.45 116.085 1531.12 115.245C1536.17 118.542 1542.42 120.3 1545.02 126.949C1541.23 129.406 1539.24 132.802 1538.25 136.621C1533.75 135.207 1529.53 133.844 1525.27 132.547C1519.61 130.821 1515.03 127.565 1511.81 122.475C1508.66 117.466 1504.86 113.013 1500.8 108.785C1499.88 107.832 1498.96 106.865 1497.9 106.092C1494.83 103.822 1491.04 104.219 1488.39 107.008C1487.36 108.091 1486.41 109.238 1485.43 110.362C1485.22 110.25 1485 110.129 1484.79 110.018C1484.98 108.635 1485 107.198 1485.36 105.865C1486.56 101.411 1486.44 97.237 1483.39 93.5044C1481.97 91.7775 1482.23 89.7424 1483.29 88.1896C1486.78 83.0362 1485.23 78.1343 1482.81 73.3424C1481.31 70.3487 1479.06 67.7817 1476.15 66.1003C1473.51 64.5818 1472.06 62.136 1470.75 59.5495C1469.69 57.4418 1469.51 55.3059 1470.85 53.1699C1471.32 52.4224 1471.62 51.5696 1471.92 50.8973C1473.75 50.9841 1475.54 50.94 1477.33 51.0242ZM1559.31 102.308C1561.4 103.961 1562.54 106.159 1562.18 109.034C1561.25 116.358 1560.66 123.758 1558.11 130.742C1557.39 132.676 1556.09 134.394 1554.93 136.129C1554.01 137.506 1552.7 138.635 1551.92 140.072C1549.29 144.875 1545.61 148.635 1541.28 151.733C1539.55 152.965 1537.47 153.691 1534.99 154.92C1535.49 153.647 1535.76 152.929 1536.06 152.145C1535.73 152.052 1535.45 151.893 1535.37 151.97C1533.52 153.769 1531.24 154.719 1528.98 155.859C1523.4 158.682 1517.77 158.563 1512.11 156.653C1504.97 154.243 1497.87 151.634 1490.83 148.93C1488.82 148.163 1486.81 147.048 1485.19 145.627C1479.05 140.262 1472.84 134.957 1467.09 129.174C1461.53 123.579 1458.41 116.457 1458.6 108.37C1458.76 101.004 1457.52 93.8982 1456.17 86.7683C1454.87 79.9036 1455.89 73.495 1458.5 67.1115C1459.96 63.5408 1460.86 59.6873 1461.68 55.888C1462.23 53.3088 1462.94 50.9406 1464.69 48.9455C1466.33 47.0639 1466.35 47.0308 1469.2 48.0002C1469.68 49.6479 1468.97 51.0632 1468.21 52.4237C1466.97 54.6136 1466.83 56.8537 1467.64 59.2121C1468.97 63.0961 1470.97 66.3737 1474.48 68.7183C1478.84 71.63 1481.83 75.7022 1482.54 81.1741C1482.73 82.7184 1482.9 84.3123 1481.6 85.7772C1478.79 85.1062 1476.1 85.4681 1473.63 88.4318C1475.98 88.3487 1477.91 88.2791 1479.85 88.2095C1480.39 90.2341 1479.78 90.9347 1478.11 91.1706C1473.81 91.7902 1470.79 94.6254 1467.68 97.2618C1467.8 97.5095 1467.92 97.7571 1468.04 98.0048C1468.64 97.6986 1469.24 97.4091 1469.84 97.1029C1471.2 96.4058 1472.56 95.6695 1473.95 95.0212C1480.04 92.1953 1482.55 94.8989 1483.61 101.341C1483.8 102.494 1483.44 103.785 1483.2 104.985C1482.75 107.185 1482.29 109.319 1482.87 111.612C1483.09 112.449 1482.68 113.587 1482.25 114.419C1481.51 115.884 1480.55 117.228 1480.07 119.001C1481.22 117.9 1482.34 116.763 1483.53 115.708C1484.82 114.539 1486.18 113.438 1487.51 112.327C1488.52 111.488 1489.59 110.717 1490.58 109.842C1492.79 107.889 1494.6 107.713 1496.59 109.873C1500.1 113.69 1503.43 117.684 1506.74 121.682C1507.8 122.948 1508.56 124.463 1509.54 125.807C1511.66 128.701 1512.49 131.936 1511.06 135.277C1509.74 138.303 1507.93 141.114 1506.29 143.991C1505.98 144.525 1505.48 144.958 1505.07 145.422C1510.74 143.497 1513.1 140.183 1515.22 131.692C1518.74 134.454 1522.7 135.917 1526.91 136.725C1528.73 137.078 1530.55 137.447 1532.37 137.761C1535.73 138.337 1537.6 140.306 1537.88 143.82C1537.98 145.221 1538.14 146.622 1538.33 148.534C1540.97 145.13 1540.3 141.961 1539.3 139.08C1540.27 137.385 1540.98 135.858 1541.95 134.553C1543.11 132.985 1544.5 131.594 1545.83 130.148C1549.35 126.306 1552.93 122.445 1552.76 116.672C1552.65 112.609 1553.06 108.639 1553.91 104.688C1554.26 103.092 1554.22 101.407 1554.38 99.2582C1556.19 100.374 1557.87 101.173 1559.31 102.308ZM1542.67 78.7364C1545.24 80.2298 1547.39 82.2201 1549.19 84.6829C1551.68 88.0672 1554.33 91.3204 1556.85 94.668C1557.79 95.9365 1558.59 97.329 1559.67 99.0091C1557.56 98.5528 1555.97 98.3174 1554.44 97.8542C1553.8 97.6516 1553.15 97.0582 1552.79 96.4697C1550.97 93.4781 1548.59 91.173 1545.69 89.2517C1544 88.1438 1542.45 86.5079 1541.38 84.7684C1539.76 82.089 1537.73 80.1064 1534.93 78.8995C1534.45 78.6942 1534.06 78.2968 1533.42 77.8281C1534.22 76.7661 1534.93 75.8437 1535.68 74.8516C1538.12 76.1862 1540.42 77.4181 1542.67 78.7364Z" fill="#E6E6E6"/>
<path d="M1550.48 42.0463C1551.27 40.3438 1552.04 38.6021 1553.09 37.0659C1555.09 34.1334 1557.15 31.2522 1559.4 28.5156C1562.54 24.6925 1562.74 20.1383 1562.8 15.5336C1562.81 14.942 1562.49 14.3298 1562.26 13.4828C1560.15 15.0569 1559.47 17.1092 1559.35 19.2044C1559.15 22.4707 1557.91 25.2523 1556.29 27.9418C1554.73 30.5152 1553.22 33.1173 1551.58 35.6167C1549.11 39.3657 1548.3 43.7139 1547.13 47.9465C1548.96 46.3771 1549.53 44.1033 1550.48 42.0463Z" fill="#E6E6E6"/>
<path d="M1488.91 56.4369C1485.18 56.2844 1482.13 56.1695 1478.89 56.0347C1481.28 58.8851 1485.32 59.1637 1488.91 56.4369Z" fill="#E6E6E6"/>
<defs>
<clipPath id="clip0_516_4660">
<rect width="82.6446" height="32" fill="white" transform="translate(689.921 104.091)"/>
</clipPath>
<clipPath id="clip1_516_4660">
<rect width="131.019" height="32" fill="white" transform="translate(933.054 104.091)"/>
</clipPath>
</defs>
</svg>
