<svg width="1320" height="152" viewBox="0 0 1320 152" fill="none" xmlns="http://www.w3.org/2000/svg">
<rect x="0.5" y="0.5" width="1319" height="151" fill="white"/>
<rect x="0.5" y="0.5" width="1319" height="151" stroke="#E6E6E6"/>
<path fill-rule="evenodd" clip-rule="evenodd" d="M68.0004 68.7036C68.6153 68.1764 69.4067 67.9126 70.1099 67.9126C71.429 67.9126 72.7476 68.528 74.0662 69.5828L74.6816 70.1104L76.4396 67.6488L75.9998 67.2089C74.3296 65.8025 72.5716 65.0989 70.5493 65.0989C69.0547 65.0989 67.6483 65.6265 66.2419 66.5057C64.8355 67.4727 63.9563 68.7031 63.6925 70.1977C63.3409 71.7801 63.6925 73.1865 64.8355 74.2413C65.5387 74.945 66.6818 75.5604 68.352 76.2631C69.5828 76.7907 70.3738 77.2301 70.7253 77.5822C71.1652 78.1098 71.3408 78.812 71.1652 79.6918C70.9892 80.5705 70.5498 81.2742 69.7583 81.7136C69.0551 82.2412 68.2637 82.4172 67.4727 82.4172C65.6265 82.4172 64.0445 81.6258 62.6372 79.8673L62.1978 79.2529L60 81.6258L60.4399 82.0651C61.143 82.9449 62.1096 83.6485 63.3404 84.263C64.6595 84.8784 65.8898 85.2309 67.1207 85.2309C68.7031 85.2309 70.1095 84.7906 71.4281 83.8236C72.9222 82.8566 73.8897 81.5375 74.1535 79.8673C74.5929 78.1098 74.1535 76.7025 73.0105 75.5604C72.3951 74.945 71.1642 74.2413 69.4058 73.5381H69.318C67.2962 72.6589 66.417 71.6919 66.5925 70.6371C66.7695 69.8461 67.2094 69.1429 68.0004 68.7036ZM86.198 60H83.2092L81.9783 65.5382H77.9347L77.3193 68.2637H81.3634L79.1656 78.7252C78.6379 81.0981 78.814 82.8566 79.781 83.9114C80.3964 84.7901 81.5394 85.2305 83.0341 85.2305C85.7591 85.2305 88.1329 83.7353 90.2425 80.7465L90.8579 79.8668L87.8691 79.1641L87.6053 79.6035C86.2862 81.4493 84.8803 82.4167 83.3857 82.4167C82.7703 82.4167 82.3304 82.3285 82.0666 81.9774C81.8028 81.6253 81.715 80.9216 81.9783 79.9546L84.44 68.2627H90.9457L91.5611 65.5373H84.9671L86.198 60ZM106.593 67.0334C105.539 65.7143 104.131 65.0989 102.286 65.0989C99.6483 65.0989 97.3627 66.2414 95.5164 68.352C93.934 70.1982 92.8792 72.4838 92.3516 75.121C91.4724 78.6374 91.9117 81.2747 93.4064 83.2082C94.549 84.5273 96.1319 85.2309 98.2414 85.2309C100.088 85.2309 102.461 84.7024 105.186 83.5607L105.801 83.2964L105.098 80.3081L104.307 80.7475C102.198 81.8905 100.263 82.4177 98.593 82.4177C97.3622 82.4177 96.4834 82.0656 95.9558 81.4497C95.0766 80.4827 94.8128 78.7252 95.1644 76.1753H107.384L107.56 75.5604C108.351 71.6924 107.999 68.7913 106.593 67.0334ZM101.845 67.9121C102.813 67.9121 103.604 68.2637 104.219 69.0551C105.01 70.1104 105.274 71.5168 104.923 73.3626H95.7798C96.2196 71.8679 97.0106 70.6371 98.0659 69.5823C99.2967 68.5275 100.527 67.9121 101.845 67.9121ZM119.252 65.0989C117.494 65.0989 115.911 65.7143 114.593 66.9451V65.0116L111.604 65.4509V66.1546C111.78 67.9126 111.604 70.0226 111.076 72.3082L106.856 92H109.934L111.603 84.2635C112.697 84.9006 113.942 85.2347 115.208 85.2314C117.054 85.2314 118.9 84.44 120.571 83.0336C122.769 81.1869 124.175 78.7262 124.878 75.4731C125.669 71.8689 125.318 69.1439 123.735 67.2094C122.593 65.8025 121.099 65.0989 119.252 65.0989ZM114.329 71.0769C115.824 68.9674 117.318 67.9121 118.901 67.9121C119.868 67.9121 120.659 68.352 121.274 69.0551C122.328 70.286 122.417 72.3078 121.889 75.0328C121.274 78.1098 120.043 80.2194 118.109 81.4497C117.142 82.0651 116.087 82.4177 115.032 82.4177C114.065 82.4177 113.099 81.9783 112.219 81.0986L114.329 71.0769ZM134.549 73.5386C132.439 72.6594 131.471 71.6924 131.736 70.6376C131.912 69.8466 132.351 69.1434 133.054 68.7036C133.757 68.1764 134.461 67.9126 135.252 67.9126C136.571 67.9126 137.889 68.528 139.208 69.5828L139.823 70.1104L141.582 67.6488L141.142 67.2089C139.472 65.8025 137.625 65.0989 135.692 65.0989C134.197 65.0989 132.79 65.6265 131.384 66.5057C129.977 67.4727 129.098 68.7031 128.835 70.1977C128.483 71.7801 128.835 73.1865 130.065 74.2413C130.681 74.8567 131.824 75.5604 133.494 76.2631L135.867 77.5822C136.306 78.1098 136.482 78.812 136.306 79.6918C136.131 80.5705 135.604 81.2742 134.9 81.7136C134.196 82.2412 133.406 82.4172 132.614 82.4172C130.768 82.4172 129.186 81.6258 127.867 79.8673L127.339 79.2529L125.23 81.6258L125.581 82.0651C126.285 82.9449 127.251 83.6485 128.482 84.263C129.713 84.8784 131.031 85.2309 132.263 85.2309C133.845 85.2309 135.251 84.7906 136.57 83.8236C138.064 82.8566 139.031 81.5375 139.296 79.8673C139.735 78.1098 139.296 76.7025 138.241 75.5604C137.537 74.9455 136.306 74.2418 134.549 73.5386Z" fill="#00B307"/>
<line x1="210.319" y1="60" x2="210.319" y2="92" stroke="#E6E6E6"/>
<path fill-rule="evenodd" clip-rule="evenodd" d="M279.505 64.4306H283.711C283.334 64.1738 282.625 63.8467 281.457 63.8467C280.612 63.8467 279.979 64.0826 279.505 64.4306ZM284.417 64.4306H288.816C288.298 64.0826 287.572 63.8467 286.559 63.8467C285.488 63.8467 284.796 64.1738 284.417 64.4306ZM278.911 65.0146H289.445C289.268 64.7875 289.055 64.5903 288.816 64.4306H284.417C284.172 64.5963 284.058 64.7325 284.058 64.7325C284.058 64.7325 283.953 64.5963 283.711 64.4306H279.505C279.28 64.5964 279.081 64.793 278.911 65.0146Z" fill="#CCCCCC"/>
<path fill-rule="evenodd" clip-rule="evenodd" d="M278.559 65.5789H289.787C289.695 65.3784 289.58 65.1893 289.445 65.0151H278.911C278.771 65.1967 278.655 65.388 278.559 65.5789Z" fill="#CCCCCC"/>
<path fill-rule="evenodd" clip-rule="evenodd" d="M278.319 66.1621H289.991C289.941 65.9615 289.872 65.7661 289.786 65.5781H278.559C278.459 65.7768 278.38 65.975 278.319 66.1621ZM278.166 66.7464H280.853C281.026 66.5454 281.311 66.3638 281.777 66.3638C282.243 66.3638 282.509 66.5458 282.659 66.7464H285.637C285.813 66.5454 286.103 66.3638 286.578 66.3638C287.026 66.3638 287.294 66.5458 287.453 66.7464H290.089C290.072 66.5495 290.038 66.3543 289.991 66.1625H278.319C278.256 66.3538 278.205 66.5488 278.166 66.7464Z" fill="#CCCCCC"/>
<path fill-rule="evenodd" clip-rule="evenodd" d="M278.096 67.3103H280.597V67.27C280.597 67.27 280.639 66.9941 280.853 66.7466H278.166C278.105 67.0612 278.096 67.27 278.096 67.27V67.3103ZM282.858 67.3103H285.378V67.27C285.378 67.27 285.422 66.9941 285.638 66.7466H282.66C282.773 66.8997 282.841 67.0807 282.858 67.27V67.3103H282.858ZM287.679 67.3103H290.099V67.27C290.099 67.27 290.119 67.0609 290.09 66.7466H287.453C287.648 66.9941 287.679 67.27 287.679 67.27V67.3103ZM278.095 67.8943H280.597V67.3103H278.096L278.095 67.8943ZM282.858 67.8943H285.378V67.3103H282.858V67.8943ZM287.679 67.8943H290.099V67.3103H287.679V67.8943Z" fill="#CCCCCC"/>
<path fill-rule="evenodd" clip-rule="evenodd" d="M278.094 68.479H280.597V67.895H278.095L278.094 68.479ZM282.858 68.479H285.379V67.895H282.858V68.479ZM287.679 68.479H290.099V67.895H287.679V68.479ZM278.092 69.0427H280.597V68.479H278.093L278.092 69.0427ZM282.858 69.0427H285.379V68.479H282.858V69.0427ZM287.679 69.0427H290.099V68.479H287.679V69.0427Z" fill="#CCCCCC"/>
<path fill-rule="evenodd" clip-rule="evenodd" d="M278.091 69.6259H280.597V69.042H278.092L278.091 69.6259ZM282.858 69.6259H285.378V69.042H282.858V69.6259ZM287.679 69.6259H290.099V69.042H287.679V69.6259ZM278.09 70.1897H280.597V69.6259H278.091L278.09 70.1897ZM282.858 70.1897H285.378V69.6259H282.858V70.1897ZM287.679 70.1897H290.099V69.6259H287.679V70.1897Z" fill="#CCCCCC"/>
<path fill-rule="evenodd" clip-rule="evenodd" d="M278.089 70.7743H280.597V70.1899H278.09L278.089 70.7743ZM282.858 70.7743H285.379V70.1899H282.858V70.7743ZM287.679 70.7743H290.099V70.1899H287.679V70.7743ZM278.088 71.3582H280.597V70.7743H278.089L278.088 71.3582ZM282.858 71.3582H285.379V70.7743H282.858V71.3582ZM287.679 71.3582H290.099V70.7743H287.679V71.3582Z" fill="#CCCCCC"/>
<path fill-rule="evenodd" clip-rule="evenodd" d="M278.086 71.9217H280.597V71.3579H278.088L278.086 71.9217ZM282.858 71.9217H285.378V71.3579H282.858V71.9217ZM287.679 71.9217H290.099V71.3579H287.679V71.9217Z" fill="#CCCCCC"/>
<path fill-rule="evenodd" clip-rule="evenodd" d="M278.085 72.5062H280.597V71.9219H278.087L278.085 72.5062ZM282.858 72.5062H285.379V71.9219H282.858V72.5062ZM287.679 72.5062H290.099V71.9219H287.679V72.5062Z" fill="#CCCCCC"/>
<path fill-rule="evenodd" clip-rule="evenodd" d="M278.084 73.0898H280.597V72.5059H278.085L278.084 73.0898ZM282.858 73.0898H285.379V72.5059H282.858V73.0898ZM287.679 73.0898H290.099V72.5059H287.679V73.0898Z" fill="#CCCCCC"/>
<path fill-rule="evenodd" clip-rule="evenodd" d="M278.083 73.6536H280.597V73.0898H278.084L278.083 73.6536ZM282.858 73.6536H285.379V73.0898H282.858V73.6536ZM287.679 73.6536H290.099V73.0898H287.679V73.6536ZM278.082 74.2375H280.597V73.6536H278.083L278.082 74.2375ZM282.858 74.2375H285.379V73.6536H282.858V74.2375ZM287.679 74.2375H290.099V73.6536H287.679V74.2375ZM278.08 74.8219H280.597V74.2379H278.082L278.08 74.8219ZM282.858 74.8219H285.379V74.2379H282.858V74.8219ZM287.679 74.8219H290.099V74.2379H287.679V74.8219Z" fill="#CCCCCC"/>
<path fill-rule="evenodd" clip-rule="evenodd" d="M278.079 75.3855H280.597V74.8218H278.08L278.079 75.3855ZM282.858 75.3855H285.379V74.8218H282.858V75.3855ZM287.679 75.3855H290.099V74.8218H287.679V75.3855ZM278.078 75.9695H280.597V75.3855H278.079L278.078 75.9695ZM282.858 75.9695H285.379V75.3855H282.858V75.9695ZM287.679 75.9695H290.099V75.3855H287.679V75.9695Z" fill="#CCCCCC"/>
<path fill-rule="evenodd" clip-rule="evenodd" d="M278.076 76.5537H280.597V75.9697H278.078L278.076 76.5537ZM282.858 76.5537H285.379V75.9697H282.858V76.5537ZM287.679 76.5537H290.099V75.9697H287.679V76.5537Z" fill="#CCCCCC"/>
<path fill-rule="evenodd" clip-rule="evenodd" d="M278.075 77.117H280.597V76.5532H278.076L278.075 77.117ZM282.858 77.117H285.378V76.5532H282.858V77.117ZM287.678 77.117H290.099V76.5532H287.678V77.117ZM278.074 77.7013H280.597V77.117H278.075L278.074 77.7013ZM282.858 77.7013H285.378V77.117H282.858V77.7013ZM287.678 77.7013H290.099V77.117H287.678V77.7013Z" fill="#CCCCCC"/>
<path fill-rule="evenodd" clip-rule="evenodd" d="M278.073 78.2654H280.597V77.7017H278.074L278.073 78.2654ZM282.858 78.2654H285.379V77.7017H282.858V78.2654ZM287.679 78.2654H290.099V77.7017H287.679V78.2654ZM278.071 78.8497H280.597V78.2654H278.073L278.071 78.8497ZM282.858 78.8497H285.379V78.2654H282.858V78.8497ZM287.679 78.8497H290.099V78.2654H287.679V78.8497ZM278.07 79.4333H280.597V78.8497H278.071L278.07 79.4333ZM282.858 79.4333H285.379V78.8497H282.858V79.4333ZM287.679 79.4333H290.099V78.8497H287.679V79.4333Z" fill="#CCCCCC"/>
<path fill-rule="evenodd" clip-rule="evenodd" d="M278.069 79.9981H280.597V79.4336H278.07L278.069 79.9981ZM282.858 79.9981H285.378V79.4336H282.858V79.9981ZM287.678 79.9981H290.099V79.4336H287.678V79.9981ZM278.067 80.5817H280.597V79.9981H278.068L278.067 80.5817ZM282.858 80.5817H285.378V79.9981H282.858V80.5817ZM287.678 80.5817H290.099V79.9981H287.678V80.5817Z" fill="#CCCCCC"/>
<path fill-rule="evenodd" clip-rule="evenodd" d="M278.066 81.1654H280.597V80.5811H278.067L278.066 81.1654ZM282.858 81.1654H285.378V80.5811H282.858V81.1654ZM287.679 81.1654H290.099V80.5811H287.679V81.1654ZM278.065 81.7295H280.597V81.1658H278.066L278.065 81.7295ZM282.858 81.7295H285.378V81.1658H282.858V81.7295ZM287.679 81.7295H290.099V81.1658H287.679V81.7295Z" fill="#CCCCCC"/>
<path fill-rule="evenodd" clip-rule="evenodd" d="M278.064 82.3138H280.597V81.7295H278.065L278.064 82.3138ZM282.858 82.3138H285.379V81.7295H282.858V82.3138ZM287.679 82.3138H290.099V81.7295H287.679V82.3138Z" fill="#CCCCCC"/>
<path fill-rule="evenodd" clip-rule="evenodd" d="M278.062 82.897H280.597V82.3135H278.064L278.062 82.897ZM282.858 82.897H285.379V82.3135H282.858V82.897ZM287.679 82.897H290.099V82.3135H287.679V82.897ZM278.061 83.4608H280.597V82.897H278.062L278.061 83.4608ZM282.858 83.4608H285.379V82.897H282.858V83.4608ZM287.679 83.4608H290.099V82.897H287.679V83.4608Z" fill="#CCCCCC"/>
<path fill-rule="evenodd" clip-rule="evenodd" d="M278.06 84.0453H280.597V83.4609H278.061L278.06 84.0453ZM282.858 84.0453H285.379V83.4609H282.858V84.0453ZM287.679 84.0453H290.099V83.4609H287.679V84.0453ZM278.059 84.6296H280.597V84.0453H278.061L278.059 84.6296ZM282.858 84.6296H285.379V84.0453H282.858V84.6296ZM287.679 84.6296H290.099V84.0453H287.679V84.6296ZM278.058 85.1933H280.597V84.6296H278.059L278.058 85.1933ZM282.858 85.1933H285.379V84.6296H282.858V85.1933ZM287.679 85.1933H290.099V84.6296H287.679V85.1933Z" fill="#CCCCCC"/>
<path fill-rule="evenodd" clip-rule="evenodd" d="M278.057 85.7764H280.597V85.1929H278.058L278.057 85.7764ZM282.858 85.7764H285.379V85.1929H282.858V85.7764ZM287.679 85.7764H290.099V85.1929H287.679V85.7764Z" fill="#CCCCCC"/>
<path fill-rule="evenodd" clip-rule="evenodd" d="M308.724 63.6049H309.055L308.724 63.021V63.6049ZM308.724 64.209H309.397L309.055 63.6049H308.724V64.209Z" fill="#CCCCCC"/>
<path fill-rule="evenodd" clip-rule="evenodd" d="M308.724 64.8131H309.739L309.397 64.209H308.724V64.8131ZM313.626 64.8131H315.986V64.2292H313.626V64.8131Z" fill="#CCCCCC"/>
<path fill-rule="evenodd" clip-rule="evenodd" d="M308.724 65.4175H310.081L309.739 64.813H308.724V65.4175ZM313.626 65.4175H315.986V64.813H313.626V65.4175Z" fill="#CCCCCC"/>
<path fill-rule="evenodd" clip-rule="evenodd" d="M308.724 66.0014H310.411L310.081 65.4175H308.724V66.0014ZM313.626 66.0014H315.986V65.4175H313.626V66.0014Z" fill="#CCCCCC"/>
<path fill-rule="evenodd" clip-rule="evenodd" d="M308.724 66.6056H310.753L310.411 66.0015H308.724V66.6056ZM313.626 66.6056H315.986V66.0015H313.626V66.6056ZM308.724 67.2097H311.095L310.753 66.6056H308.724V67.2097ZM313.626 67.2097H315.986V66.6056H313.626V67.2097Z" fill="#CCCCCC"/>
<path fill-rule="evenodd" clip-rule="evenodd" d="M308.725 67.8132H311.437L311.095 67.2095H308.725V67.8132ZM313.626 67.8132H315.986V67.2095H313.626V67.8132ZM308.725 68.3975H311.768L311.437 67.8132H308.724V68.3975H308.725ZM313.626 68.3975H315.986V67.8132H313.626V68.3975Z" fill="#CCCCCC"/>
<path fill-rule="evenodd" clip-rule="evenodd" d="M308.724 69.0021H312.109L311.767 68.3979H308.724V69.0021ZM313.626 69.0021H315.986V68.3979H313.626V69.0021ZM308.724 69.6062H312.452L312.109 69.0021H308.724V69.6062ZM313.626 69.6062H315.986V69.0021H313.626V69.6062Z" fill="#CCCCCC"/>
<path fill-rule="evenodd" clip-rule="evenodd" d="M308.724 70.2105H312.794L312.452 69.606H308.724V70.2105ZM313.626 70.2105H315.986V69.606H313.626V70.2105Z" fill="#CCCCCC"/>
<path fill-rule="evenodd" clip-rule="evenodd" d="M308.724 70.7939H313.124L312.793 70.21H308.724V70.7939ZM313.626 70.7939H315.986V70.21H313.626V70.7939ZM308.724 71.398H313.466L313.124 70.7939H308.724V71.398ZM313.626 71.398H315.986V70.7939H313.626V71.398Z" fill="#CCCCCC"/>
<path fill-rule="evenodd" clip-rule="evenodd" d="M308.724 72.0021H315.986V71.3979H313.626V71.6804L313.466 71.3979H308.724V72.0021ZM308.724 72.6062H311.045V72.0626L311.395 72.6062H315.986V72.0021H308.724V72.6062Z" fill="#CCCCCC"/>
<path fill-rule="evenodd" clip-rule="evenodd" d="M308.724 73.1909H311.045V72.6069H308.724V73.1909ZM311.77 73.1909H315.986V72.6069H311.395L311.77 73.1909Z" fill="#CCCCCC"/>
<path fill-rule="evenodd" clip-rule="evenodd" d="M308.724 73.795H311.045V73.1909H308.724V73.795ZM312.159 73.795H315.986V73.1909H311.77L312.159 73.795Z" fill="#CCCCCC"/>
<path fill-rule="evenodd" clip-rule="evenodd" d="M308.724 74.3985H311.045V73.7944H308.724V74.3985ZM312.547 74.3985H315.986V73.7944H312.159L312.547 74.3985Z" fill="#CCCCCC"/>
<path fill-rule="evenodd" clip-rule="evenodd" d="M308.724 74.9833H311.045V74.3989H308.724V74.9833ZM312.923 74.9833H315.986V74.3989H312.547L312.923 74.9833Z" fill="#CCCCCC"/>
<path fill-rule="evenodd" clip-rule="evenodd" d="M308.724 75.587H311.045V74.9829H308.724V75.587ZM313.311 75.587H315.986V74.9829H312.923L313.311 75.587Z" fill="#CCCCCC"/>
<path fill-rule="evenodd" clip-rule="evenodd" d="M308.724 76.191H311.045V75.5869H308.724V76.191ZM313.7 76.191H315.986V75.5869H313.311L313.7 76.191ZM308.724 76.7951H311.045V76.191H308.724V76.7951ZM313.726 76.7951H315.986V76.191H313.7L313.725 76.2314V76.7951H313.726ZM308.724 77.3795H311.045V76.7951H308.724V77.3795ZM313.726 77.3795H315.986V76.7951H313.726V77.3795Z" fill="#CCCCCC"/>
<path fill-rule="evenodd" clip-rule="evenodd" d="M308.724 77.983H311.045V77.3789H308.724V77.983ZM313.726 77.983H315.986V77.3789H313.726V77.983ZM308.724 78.5871H311.045V77.983H308.724V78.5871ZM313.726 78.5871H315.986V77.983H313.726V78.5871Z" fill="#CCCCCC"/>
<path fill-rule="evenodd" clip-rule="evenodd" d="M308.724 79.1918H311.045V78.5869H308.724V79.1918ZM313.726 79.1918H315.986V78.5869H313.726V79.1918Z" fill="#CCCCCC"/>
<path fill-rule="evenodd" clip-rule="evenodd" d="M308.724 79.7754H311.045V79.1919H308.724V79.7754ZM313.726 79.7754H315.986V79.1919H313.726V79.7754ZM308.724 80.3803H311.045V79.7754H308.724V80.3803ZM313.726 80.3803H315.986V79.7754H313.726V80.3803Z" fill="#CCCCCC"/>
<path fill-rule="evenodd" clip-rule="evenodd" d="M308.724 80.9845H311.045V80.3804H308.724V80.9845ZM313.726 80.9845H315.986V80.3804H313.726V80.9845Z" fill="#CCCCCC"/>
<path fill-rule="evenodd" clip-rule="evenodd" d="M308.724 81.588H311.045V80.9839H308.724V81.588ZM313.726 81.588H315.986V80.9839H313.726V81.588ZM308.724 82.1723H311.045V81.588H308.724V82.1723ZM313.726 82.1723H315.986V81.588H313.726V82.1723Z" fill="#CCCCCC"/>
<path fill-rule="evenodd" clip-rule="evenodd" d="M308.724 82.777H311.045V82.1729H308.724V82.777ZM313.726 82.777H315.986V82.1729H313.726V82.777Z" fill="#CCCCCC"/>
<path fill-rule="evenodd" clip-rule="evenodd" d="M308.724 83.3805H311.045V82.7764H308.724V83.3805ZM313.726 83.3805H315.986V82.7764H313.726V83.3805Z" fill="#CCCCCC"/>
<path fill-rule="evenodd" clip-rule="evenodd" d="M308.724 83.9845H311.045V83.3804H308.724V83.9845ZM313.726 83.9845H315.986V83.3804H313.726V83.9845Z" fill="#CCCCCC"/>
<path fill-rule="evenodd" clip-rule="evenodd" d="M308.724 84.5692H311.045V83.9849H308.724V84.5692ZM313.726 84.5692H315.986V83.9849H313.726V84.5692ZM308.724 85.1733H311.045V84.5692H308.724V85.1733ZM313.726 85.1733H315.986V84.5692H313.726V85.1733Z" fill="#CCCCCC"/>
<path fill-rule="evenodd" clip-rule="evenodd" d="M308.724 85.777H311.045V85.1729H308.724V85.777ZM313.726 85.777H315.986V85.1729H313.726V85.777Z" fill="#CCCCCC"/>
<path fill-rule="evenodd" clip-rule="evenodd" d="M329.957 60.8462H331.81V60C331.81 60 331.064 60.2553 329.957 60.8462Z" fill="#CCCCCC"/>
<path fill-rule="evenodd" clip-rule="evenodd" d="M328.525 61.6916H331.81V60.8462H329.957C329.468 61.1073 328.99 61.3893 328.525 61.6916Z" fill="#CCCCCC"/>
<path fill-rule="evenodd" clip-rule="evenodd" d="M327.351 62.5176H331.81V61.6919H328.525C328.124 61.9528 327.732 62.2282 327.351 62.5176ZM326.316 63.3634H331.81V62.5176H327.351C326.996 62.7874 326.651 63.0695 326.316 63.3634ZM325.416 64.2092H330.919C331.465 63.9528 331.81 63.8468 331.81 63.8468V63.3634H326.316C326.006 63.6349 325.706 63.917 325.416 64.2092Z" fill="#CCCCCC"/>
<path fill-rule="evenodd" clip-rule="evenodd" d="M324.628 65.0547H329.417C329.897 64.737 330.398 64.4542 330.919 64.2085H325.415C325.144 64.4819 324.881 64.7641 324.628 65.0547ZM323.939 65.9006H328.282C328.644 65.5975 329.023 65.3152 329.417 65.0551H324.628C324.389 65.3294 324.16 65.6113 323.939 65.9006Z" fill="#CCCCCC"/>
<path fill-rule="evenodd" clip-rule="evenodd" d="M323.335 66.7462H327.368C327.658 66.4488 327.963 66.1665 328.282 65.9004H323.94C323.729 66.1758 323.527 66.4579 323.335 66.7462ZM322.818 67.5719H326.635C326.867 67.2855 327.112 67.01 327.369 66.7462H323.335C323.157 67.012 322.985 67.2871 322.818 67.5719Z" fill="#CCCCCC"/>
<path fill-rule="evenodd" clip-rule="evenodd" d="M322.356 68.4176H326.008C326.205 68.1267 326.414 67.8445 326.635 67.5718H322.818C322.656 67.8492 322.502 68.1312 322.356 68.4176ZM321.958 69.2638H325.489C325.655 68.9674 325.829 68.6857 326.008 68.418H322.357C322.217 68.6919 322.083 68.9736 321.958 69.2638Z" fill="#CCCCCC"/>
<path fill-rule="evenodd" clip-rule="evenodd" d="M321.617 70.1095H325.058C325.191 69.8222 325.334 69.5401 325.488 69.2637H321.958C321.836 69.5425 321.723 69.8245 321.617 70.1095Z" fill="#CCCCCC"/>
<path fill-rule="evenodd" clip-rule="evenodd" d="M321.33 70.9547H324.706C324.815 70.6622 324.933 70.3797 325.058 70.1089H321.616C321.515 70.3844 321.42 70.6664 321.33 70.9547ZM321.098 71.7804H324.427C324.513 71.496 324.606 71.2209 324.706 70.9547H321.33C321.246 71.2279 321.168 71.5032 321.098 71.7804Z" fill="#CCCCCC"/>
<path fill-rule="evenodd" clip-rule="evenodd" d="M320.905 72.6266H324.203C324.271 72.336 324.345 72.0539 324.427 71.7808H321.098C321.027 72.061 320.962 72.3431 320.905 72.6266ZM320.757 73.4724H324.033C324.082 73.1822 324.139 72.9005 324.203 72.6266H320.905C320.85 72.9032 320.8 73.1853 320.757 73.4724Z" fill="#CCCCCC"/>
<path fill-rule="evenodd" clip-rule="evenodd" d="M320.651 74.318H323.914C323.947 74.0286 323.987 73.7465 324.033 73.4722H320.757C320.716 73.7533 320.68 74.0353 320.651 74.318ZM320.581 75.1638H323.842C323.859 74.8752 323.883 74.5931 323.915 74.318H320.652C320.622 74.5994 320.598 74.8814 320.581 75.1638ZM320.552 75.9895H323.811C323.815 75.7086 323.825 75.4331 323.842 75.1642H320.581C320.566 75.4391 320.556 75.7142 320.552 75.9895Z" fill="#CCCCCC"/>
<path fill-rule="evenodd" clip-rule="evenodd" d="M320.554 76.8351H323.82C323.812 76.6338 323.808 76.4324 323.808 76.231C323.808 76.1499 323.81 76.07 323.811 75.9893H320.552C320.551 76.1029 320.548 76.2166 320.548 76.3319C320.548 76.5018 320.551 76.6694 320.554 76.8351ZM328.549 76.8351H331.81V76.3319H328.549V76.8351Z" fill="#CCCCCC"/>
<path fill-rule="evenodd" clip-rule="evenodd" d="M320.598 77.6821H323.88C323.852 77.4005 323.832 77.1182 323.821 76.8354H320.554C320.563 77.1226 320.577 77.4046 320.598 77.6821ZM328.549 77.6821H331.81V76.8354H328.549V77.6821Z" fill="#CCCCCC"/>
<path fill-rule="evenodd" clip-rule="evenodd" d="M320.676 78.528H323.99C323.944 78.2472 323.908 77.9651 323.88 77.6821H320.598C320.618 77.9685 320.644 78.2513 320.676 78.528ZM328.549 78.528H331.81V77.6821H328.549V78.528Z" fill="#CCCCCC"/>
<path fill-rule="evenodd" clip-rule="evenodd" d="M320.801 79.3732H324.153C324.09 79.093 324.035 78.8109 323.989 78.5273H320.676C320.711 78.8149 320.753 79.0965 320.801 79.3732ZM328.549 79.3732H331.81V78.5273H328.549V79.3732Z" fill="#CCCCCC"/>
<path fill-rule="evenodd" clip-rule="evenodd" d="M320.97 80.2189H324.376C324.292 79.9395 324.218 79.6574 324.153 79.373H320.801C320.851 79.6609 320.908 79.943 320.97 80.2189ZM328.549 80.2189H331.81V79.373H328.549V80.2189Z" fill="#CCCCCC"/>
<path fill-rule="evenodd" clip-rule="evenodd" d="M321.18 81.0445H324.653C324.551 80.7727 324.459 80.4974 324.376 80.2192H320.97C321.034 80.5005 321.104 80.7756 321.18 81.0445ZM328.549 81.0445H331.81V80.2192H328.549V81.0445ZM321.446 81.8911H325.006C324.878 81.6131 324.761 81.3308 324.653 81.0445H321.18C321.262 81.3332 321.351 81.616 321.446 81.8911ZM328.549 81.8911H331.81V81.0445H328.549V81.8911Z" fill="#CCCCCC"/>
<path fill-rule="evenodd" clip-rule="evenodd" d="M321.768 82.7365H325.434C325.28 82.46 325.137 82.1778 325.005 81.8906H321.446C321.547 82.1797 321.655 82.4614 321.768 82.7365ZM328.549 82.7365H331.81V81.8906H328.549V82.7365Z" fill="#CCCCCC"/>
<path fill-rule="evenodd" clip-rule="evenodd" d="M322.151 83.5822H325.948C325.766 83.307 325.594 83.0248 325.434 82.7363H321.769C321.889 83.0258 322.017 83.3079 322.151 83.5822ZM328.549 83.5822H331.81V82.7363H328.549V83.5822Z" fill="#CCCCCC"/>
<path fill-rule="evenodd" clip-rule="evenodd" d="M322.599 84.4279H326.562C326.345 84.1548 326.14 83.8726 325.948 83.582H322.151C322.294 83.873 322.444 84.1543 322.599 84.4279ZM328.549 84.4279H331.81V83.582H328.549V84.4279Z" fill="#CCCCCC"/>
<path fill-rule="evenodd" clip-rule="evenodd" d="M323.105 85.2535H327.278C327.027 84.9894 326.788 84.714 326.562 84.4282H322.599C322.758 84.7088 322.927 84.9841 323.105 85.2535ZM328.549 85.2535H331.81V84.4282H328.549V85.2535Z" fill="#CCCCCC"/>
<path fill-rule="evenodd" clip-rule="evenodd" d="M323.703 86.0995H328.182C327.864 85.8356 327.562 85.5529 327.278 85.2529H323.105C323.295 85.5417 323.495 85.824 323.703 86.0995ZM328.549 86.0995H331.81V85.2529H328.549V86.0995Z" fill="#CCCCCC"/>
<path fill-rule="evenodd" clip-rule="evenodd" d="M324.39 86.9454H331.81V86.0996H328.549V86.3817C328.549 86.3817 328.411 86.2886 328.182 86.0996H323.703C323.923 86.3892 324.152 86.6713 324.39 86.9454Z" fill="#CCCCCC"/>
<path fill-rule="evenodd" clip-rule="evenodd" d="M325.18 87.7911H331.81V86.9453H324.39C324.649 87.2425 324.913 87.5234 325.18 87.7911Z" fill="#CCCCCC"/>
<path fill-rule="evenodd" clip-rule="evenodd" d="M326.092 88.6369H331.81V87.791H325.181C325.475 88.0837 325.779 88.3658 326.092 88.6369Z" fill="#CCCCCC"/>
<path fill-rule="evenodd" clip-rule="evenodd" d="M327.149 89.4826H331.81V88.6367H326.093C326.434 88.9319 326.786 89.214 327.149 89.4826ZM328.357 90.3086H331.81V89.4826H327.149C327.541 89.7732 327.944 90.0487 328.357 90.3086ZM329.847 91.1544H331.81V90.3086H328.357C328.893 90.6442 329.397 90.9255 329.847 91.1544Z" fill="#CCCCCC"/>
<path fill-rule="evenodd" clip-rule="evenodd" d="M331.81 92.0001V91.1543H329.846C331.015 91.7495 331.81 92.0001 331.81 92.0001Z" fill="#CCCCCC"/>
<path fill-rule="evenodd" clip-rule="evenodd" d="M337.352 77.158H339.732V76.9966H337.352V77.158ZM342.513 77.158H344.994V76.9966H342.513V77.158ZM337.352 77.7415H339.732V77.158H337.352V77.7415ZM342.513 77.7415H344.994V77.158H342.513V77.7415Z" fill="#CCCCCC"/>
<path fill-rule="evenodd" clip-rule="evenodd" d="M337.352 78.326H339.732V77.7417H337.352V78.326ZM342.513 78.326H344.994V77.7417H342.513V78.326Z" fill="#CCCCCC"/>
<path fill-rule="evenodd" clip-rule="evenodd" d="M337.352 78.9092H339.732V78.3257H337.352V78.9092ZM342.513 78.9092H344.994V78.3257H342.513V78.9092ZM337.352 79.4936H339.732V78.9092H337.352V79.4936ZM342.513 79.4936H344.994V78.9092H342.513V79.4936Z" fill="#CCCCCC"/>
<path fill-rule="evenodd" clip-rule="evenodd" d="M337.352 80.0785H339.732V79.4941H337.352V80.0785ZM342.513 80.0785H344.994V79.4941H342.513V80.0785ZM337.352 80.6628H339.732V80.0785H337.352V80.6628ZM342.513 80.6628H344.994V80.0785H342.513V80.6628Z" fill="#CCCCCC"/>
<path fill-rule="evenodd" clip-rule="evenodd" d="M337.352 81.2457H339.732V80.6621H337.352V81.2457ZM342.513 81.2457H344.994V80.6621H342.513V81.2457ZM337.352 81.8498H339.732V81.2457H337.352V81.8498ZM342.513 81.8498H344.994V81.2457H342.513V81.8498ZM337.352 82.4341H339.732V81.8498H337.352V82.4341ZM342.513 82.4341H344.994V81.8498H342.513V82.4341Z" fill="#CCCCCC"/>
<path fill-rule="evenodd" clip-rule="evenodd" d="M337.41 83.0184H339.993C339.781 82.7243 339.732 82.4341 339.732 82.4341H337.352C337.352 82.4341 337.348 82.6696 337.41 83.0184ZM342.407 83.0184H344.952C344.981 82.8244 344.991 82.6653 344.994 82.5629V82.4341H342.513C342.513 82.4341 342.542 82.7243 342.407 83.0184ZM337.561 83.602H340.984C340.482 83.5298 340.176 83.2729 339.993 83.0184H337.41C337.441 83.1903 337.488 83.3897 337.561 83.602ZM341.561 83.602H344.819C344.885 83.3897 344.926 83.1903 344.952 83.0184H342.407C342.291 83.2729 342.051 83.5298 341.561 83.602Z" fill="#CCCCCC"/>
<path fill-rule="evenodd" clip-rule="evenodd" d="M337.814 84.1864H344.584C344.685 83.9885 344.762 83.7902 344.819 83.6021H341.561C341.37 83.6299 341.175 83.6299 340.984 83.6021H337.561C337.624 83.7898 337.706 83.9885 337.814 84.1864Z" fill="#CCCCCC"/>
<path fill-rule="evenodd" clip-rule="evenodd" d="M338.22 84.7704H344.196C344.347 84.5907 344.477 84.3947 344.584 84.186H337.814C337.928 84.3952 338.064 84.5911 338.22 84.7704ZM338.905 85.3539H343.531C343.781 85.1939 344.005 84.9971 344.196 84.7704H338.22C338.419 84.9973 338.65 85.1939 338.905 85.3539Z" fill="#CCCCCC"/>
<path fill-rule="evenodd" clip-rule="evenodd" d="M343.531 85.3535H338.905C339.46 85.7019 340.212 85.9378 341.232 85.9378C342.248 85.9378 342.99 85.7023 343.531 85.3535Z" fill="#CCCCCC"/>
<path fill-rule="evenodd" clip-rule="evenodd" d="M338.893 64.2695H343.47C342.916 63.9203 342.161 63.6855 341.133 63.6855C340.155 63.6852 339.431 63.9203 338.893 64.2695ZM338.229 64.8534H344.151C343.954 64.6261 343.724 64.4293 343.47 64.2695H338.893C338.644 64.4307 338.42 64.6274 338.229 64.8534Z" fill="#CCCCCC"/>
<path fill-rule="evenodd" clip-rule="evenodd" d="M337.831 65.4375H344.549C344.438 65.2287 344.305 65.0329 344.151 64.8535H338.229C338.076 65.0335 337.942 65.2292 337.831 65.4375ZM337.577 66.0214H344.796C344.731 65.8198 344.648 65.6244 344.549 65.4375H337.83C337.73 65.6249 337.646 65.8202 337.577 66.0214ZM337.424 66.6057H339.949C340.135 66.3337 340.477 66.0819 341.112 66.0819C341.758 66.0819 342.106 66.3333 342.293 66.6057H344.94C344.907 66.4078 344.859 66.2126 344.797 66.0218H337.578C337.513 66.2126 337.462 66.4077 337.424 66.6057Z" fill="#CCCCCC"/>
<path fill-rule="evenodd" clip-rule="evenodd" d="M337.353 67.1893H339.738C339.761 66.9806 339.833 66.7803 339.949 66.6054H337.424C337.373 66.8711 337.358 67.0811 337.353 67.1893ZM342.508 67.1893H344.994V67.1431C344.988 66.9627 344.97 66.7829 344.94 66.605H342.293C342.448 66.8296 342.494 67.0682 342.508 67.1893ZM337.352 67.7934H339.732V67.2696C339.732 67.2696 339.732 67.2394 339.738 67.1893H337.353C337.351 67.2409 337.352 67.2696 337.352 67.2696V67.7934ZM342.513 67.7934H344.994V67.1893H342.508C342.514 67.2394 342.514 67.2696 342.514 67.2696V67.7934H342.513Z" fill="#CCCCCC"/>
<path fill-rule="evenodd" clip-rule="evenodd" d="M337.352 68.3778H339.732V67.7935H337.352V68.3778ZM342.513 68.3778H344.994V67.7935H342.513V68.3778ZM337.352 68.9617H339.732V68.3778H337.352V68.9617ZM342.513 68.9617H344.994V68.3778H342.513V68.9617Z" fill="#CCCCCC"/>
<path fill-rule="evenodd" clip-rule="evenodd" d="M337.352 69.5454H339.732V68.9614H337.352V69.5454ZM342.513 69.5454H344.994V68.9614H342.513V69.5454ZM337.352 70.1297H339.732V69.5458H337.352V70.1297ZM342.513 70.1297H344.994V69.5458H342.513V70.1297Z" fill="#CCCCCC"/>
<path fill-rule="evenodd" clip-rule="evenodd" d="M337.352 70.7138H339.732V70.1299H337.352V70.7138ZM342.513 70.7138H344.994V70.1299H342.513V70.7138ZM337.352 71.2978H339.732V70.7138H337.352V71.2978ZM342.513 71.2978H344.994V70.7138H342.513V71.2978ZM337.352 71.8817H339.732V71.2978H337.352V71.8817ZM342.513 71.8817H344.994V71.2978H342.513V71.8817Z" fill="#CCCCCC"/>
<path fill-rule="evenodd" clip-rule="evenodd" d="M337.352 72.4653H339.732V71.8813H337.352V72.4653ZM342.513 72.4653H344.994V71.8813H342.513V72.4653Z" fill="#CCCCCC"/>
<path fill-rule="evenodd" clip-rule="evenodd" d="M337.352 73.0497H339.732V72.4653H337.352V73.0497ZM342.513 73.0497H344.994V72.4653H342.513V73.0497Z" fill="#CCCCCC"/>
<path fill-rule="evenodd" clip-rule="evenodd" d="M337.352 73.6337H339.732V73.0498H337.352V73.6337ZM342.513 73.6337H344.994V73.0498H342.513V73.6337ZM337.352 74.2181H339.732V73.6341H337.352V74.2181ZM342.513 74.2181H344.994V73.6341H342.513V74.2181ZM337.352 74.8222H339.732V74.2181H337.352V74.8222ZM342.513 74.8222H344.994V74.2181H342.513V74.8222Z" fill="#CCCCCC"/>
<path fill-rule="evenodd" clip-rule="evenodd" d="M337.352 75.4057H339.732V74.8218H337.352V75.4057ZM342.513 75.4057H344.994V74.8218H342.513V75.4057ZM337.352 75.9897H339.732V75.4057H337.352V75.9897ZM342.513 75.9897H344.994V75.4057H342.513V75.9897Z" fill="#CCCCCC"/>
<path fill-rule="evenodd" clip-rule="evenodd" d="M337.352 76.5736H339.732V75.9893H337.352V76.5736ZM342.513 76.5736H344.994V75.9893H342.513V76.5736ZM344.994 76.9965V76.5736H342.513V76.9965H344.994ZM339.732 76.5736H337.352V76.9965H339.732V76.5736Z" fill="#CCCCCC"/>
<path fill-rule="evenodd" clip-rule="evenodd" d="M297.439 64.4306H302.051C301.51 64.0826 300.766 63.8467 299.742 63.8467C298.723 63.8467 297.98 64.0826 297.439 64.4306ZM296.772 65.0146H302.714C302.524 64.7872 302.3 64.5903 302.051 64.4306H297.439C297.188 64.5906 296.964 64.7875 296.772 65.0146Z" fill="#CCCCCC"/>
<path fill-rule="evenodd" clip-rule="evenodd" d="M296.396 65.5789H303.086C302.983 65.3779 302.858 65.1888 302.714 65.0151H296.772C296.626 65.1888 296.5 65.3778 296.396 65.5789Z" fill="#CCCCCC"/>
<path fill-rule="evenodd" clip-rule="evenodd" d="M296.155 66.1621H303.32C303.26 65.9607 303.181 65.7653 303.086 65.5781H296.396C296.299 65.7653 296.218 65.9607 296.155 66.1621ZM296.021 66.7464H298.654C298.835 66.5016 299.169 66.2629 299.782 66.2629C300.415 66.2629 300.75 66.5016 300.926 66.7464H303.449C303.421 66.5487 303.378 66.3535 303.321 66.1625H296.155C296.088 66.377 296.047 66.5768 296.021 66.7464Z" fill="#CCCCCC"/>
<path fill-rule="evenodd" clip-rule="evenodd" d="M295.981 67.3103H298.442V67.27C298.442 67.27 298.463 67.0046 298.654 66.7466H296.021C295.974 67.0612 295.981 67.27 295.981 67.27V67.3103ZM301.122 67.3103H303.483V67.1443C303.479 67.0112 303.468 66.8784 303.449 66.7466H300.926C301.112 67.0046 301.122 67.27 301.122 67.27V67.3103ZM295.981 67.8943H298.442V67.3103H295.981V67.8943ZM301.122 67.8943H303.483V67.3103H301.122V67.8943Z" fill="#CCCCCC"/>
<path fill-rule="evenodd" clip-rule="evenodd" d="M295.981 68.479H298.442V67.895H295.981V68.479ZM301.122 68.479H303.483V67.895H301.122V68.479ZM295.981 69.0427H298.442V68.479H295.981V69.0427ZM301.122 69.0427H303.483V68.479H301.122V69.0427Z" fill="#CCCCCC"/>
<path fill-rule="evenodd" clip-rule="evenodd" d="M295.981 69.6259H298.442V69.042H295.981V69.6259ZM301.122 69.6259H303.483V69.042H301.122V69.6259ZM295.981 70.1897H298.442V69.6259H295.981V70.1897ZM301.122 70.1897H303.483V69.6259H301.122V70.1897Z" fill="#CCCCCC"/>
<path fill-rule="evenodd" clip-rule="evenodd" d="M295.981 70.7743H298.442V70.1899H295.981V70.7743ZM301.122 70.7743H303.483V70.1899H301.122V70.7743ZM295.981 71.3582H298.442V70.7743H295.981V71.3582ZM301.122 71.3582H303.483V70.7743H301.122V71.3582Z" fill="#CCCCCC"/>
<path fill-rule="evenodd" clip-rule="evenodd" d="M295.981 71.9217H298.442V71.3579H295.981V71.9217ZM301.122 71.9217H303.483V71.3579H301.122V71.9217Z" fill="#CCCCCC"/>
<path fill-rule="evenodd" clip-rule="evenodd" d="M295.981 72.5062H298.442V71.9219H295.981V72.5062ZM301.122 72.5062H303.483V71.9219H301.122V72.5062Z" fill="#CCCCCC"/>
<path fill-rule="evenodd" clip-rule="evenodd" d="M295.981 73.0898H298.442V72.5059H295.981V73.0898ZM301.122 73.0898H303.483V72.5059H301.122V73.0898Z" fill="#CCCCCC"/>
<path fill-rule="evenodd" clip-rule="evenodd" d="M295.981 73.6536H298.442V73.0898H295.981V73.6536ZM301.122 73.6536H303.483V73.0898H301.122V73.6536ZM295.981 74.2375H298.442V73.6536H295.981V74.2375ZM301.122 74.2375H303.483V73.6536H301.122V74.2375ZM295.981 74.8219H298.442V74.2379H295.981V74.8219ZM301.122 74.8219H303.483V74.2379H301.122V74.8219Z" fill="#CCCCCC"/>
<path fill-rule="evenodd" clip-rule="evenodd" d="M295.981 75.3855H298.442V74.8218H295.981V75.3855ZM301.122 75.3855H303.483V74.8218H301.122V75.3855ZM295.981 75.9695H298.442V75.3855H295.981V75.9695ZM301.122 75.9695H303.483V75.3855H301.122V75.9695Z" fill="#CCCCCC"/>
<path fill-rule="evenodd" clip-rule="evenodd" d="M295.981 76.5537H298.442V75.9697H295.981V76.5537ZM301.122 76.5537H303.483V75.9697H301.122V76.5537Z" fill="#CCCCCC"/>
<path fill-rule="evenodd" clip-rule="evenodd" d="M295.981 77.117H298.442V76.5532H295.981V77.117ZM301.122 77.117H303.483V76.5532H301.122V77.117ZM295.981 77.7013H298.442V77.117H295.981V77.7013ZM301.122 77.7013H303.483V77.117H301.122V77.7013Z" fill="#CCCCCC"/>
<path fill-rule="evenodd" clip-rule="evenodd" d="M295.981 78.2654H298.442V77.7017H295.981V78.2654ZM301.122 78.2654H303.483V77.7017H301.122V78.2654ZM295.981 78.8497H298.442V78.2654H295.981V78.8497ZM301.122 78.8497H303.483V78.2654H301.122V78.8497ZM292.887 79.4333H303.483V78.8497H301.122V78.9906H298.442V78.8497H295.981V78.9906H292.6L292.887 79.4333Z" fill="#CCCCCC"/>
<path fill-rule="evenodd" clip-rule="evenodd" d="M293.253 79.9981H303.483V79.4336H292.887L293.253 79.9981ZM293.631 80.5817H303.483V79.9981H293.253L293.631 80.5817Z" fill="#CCCCCC"/>
<path fill-rule="evenodd" clip-rule="evenodd" d="M294.01 81.1655H303.483V80.5815H293.631L294.01 81.1655ZM296.081 81.7296H298.402V81.4072H301.183V81.7296H303.483V81.1655H294.01L294.141 81.3672H296.081V81.7296Z" fill="#CCCCCC"/>
<path fill-rule="evenodd" clip-rule="evenodd" d="M296.081 82.3138H298.402V81.7295H296.081V82.3138ZM301.182 82.3138H303.483V81.7295H301.182V82.3138Z" fill="#CCCCCC"/>
<path fill-rule="evenodd" clip-rule="evenodd" d="M296.081 82.897H298.402V82.3135H296.081V82.897ZM301.182 82.897H303.483V82.3135H301.182V82.897ZM296.081 83.4608H298.402V82.897H296.081V83.4608ZM301.182 83.4608H303.483V82.897H301.182V83.4608Z" fill="#CCCCCC"/>
<path fill-rule="evenodd" clip-rule="evenodd" d="M296.081 84.0453H298.402V83.4609H296.081V84.0453ZM301.182 84.0453H303.483V83.4609H301.182V84.0453ZM296.081 84.6296H298.402V84.0453H296.081V84.6296ZM301.182 84.6296H303.483V84.0453H301.182V84.6296ZM296.081 85.1933H298.402V84.6296H296.081V85.1933ZM301.182 85.1933H303.483V84.6296H301.182V85.1933Z" fill="#CCCCCC"/>
<path fill-rule="evenodd" clip-rule="evenodd" d="M296.081 85.7764H298.402V85.1929H296.081V85.7764ZM301.182 85.7764H303.483V85.1929H301.182V85.7764Z" fill="#CCCCCC"/>
<line x1="413.732" y1="60" x2="413.732" y2="92" stroke="#E6E6E6"/>
<path fill-rule="evenodd" clip-rule="evenodd" d="M507.101 87.7551C504.517 89.8774 501.103 91.1692 497.504 91.1692C489.013 91.1692 482.207 84.3399 482.207 75.9653C482.207 67.5674 489.013 60.7381 497.504 60.7381C503.133 60.7381 508.025 63.7835 510.701 68.3979C511.07 68.4902 511.347 68.5826 511.715 68.6749C509.04 63.5068 503.687 60 497.504 60C488.644 60 481.469 67.106 481.469 75.9653C481.469 84.802 488.644 92 497.504 92C501.657 92 505.44 90.3391 508.301 87.7551H507.101Z" fill="#CCCCCC"/>
<path fill-rule="evenodd" clip-rule="evenodd" d="M499.534 87.0173H541.408V80.7417H499.534V87.0173Z" fill="#CCCCCC"/>
<path fill-rule="evenodd" clip-rule="evenodd" d="M501.656 69.5051L501.472 70.3359H499.441C498.888 76.2424 498.519 81.0178 498.15 83.2331C497.319 87.2013 493.628 89.416 491.228 89.416C490.398 89.416 489.383 89.0473 489.383 88.0321C489.383 87.4784 489.844 87.017 490.398 87.017C491.228 87.017 491.874 87.6627 492.336 88.4009C493.628 87.6627 493.812 87.017 494.366 84.4326C494.643 83.2331 495.381 74.6732 495.75 70.3359H494.089L494.274 69.5051H495.935L496.12 68.0289C497.042 62.5841 501.011 61.938 502.487 61.938C503.226 61.938 504.702 62.307 504.702 63.3222C504.702 63.9679 504.148 64.245 503.595 64.245C502.579 64.245 502.118 63.6912 501.656 62.8604C499.995 63.5989 499.718 67.6595 499.534 69.5047H501.656V69.5051ZM501.472 77.0725C501.472 72.7356 504.241 68.9517 508.947 68.9517C511.901 68.9517 513.561 70.2439 513.561 73.1046C513.561 77.4419 510.793 81.1105 506.086 81.1105C503.133 81.1105 501.472 79.8183 501.472 77.0725ZM509.778 73.7507C509.778 72.6432 509.686 69.9672 508.025 69.9672C505.625 69.9672 505.256 74.6735 505.256 76.4271C505.256 77.4423 505.348 80.188 507.009 80.188C509.408 80.1877 509.778 75.504 509.778 73.7507ZM514.577 77.0725C514.577 72.7356 517.438 68.9517 522.144 68.9517C525.005 68.9517 526.735 70.2439 526.735 73.1046C526.735 77.4419 523.897 81.1105 519.191 81.1105C516.33 81.1105 514.577 79.8183 514.577 77.0725ZM522.974 73.7507C522.974 72.6432 522.882 69.9672 521.221 69.9672C518.73 69.9672 518.453 74.6735 518.453 76.4271C518.453 77.4423 518.453 80.188 520.114 80.188C522.605 80.1877 522.974 75.504 522.974 73.7507ZM541.04 79.7263C539.378 80.4644 537.348 81.1101 535.964 81.1101C535.226 81.1101 535.318 80.0023 535.318 79.5412C535.318 78.9882 535.318 78.249 535.503 76.7962L535.41 76.7035C534.487 78.6184 532.642 81.1101 530.242 81.1101C528.396 81.1101 527.565 79.1722 527.565 77.5343C527.565 73.4733 530.795 69.1364 535.41 69.1364H536.333C536.702 66.2753 536.702 65.0758 536.702 64.1526C536.702 63.8759 536.702 63.5989 536.425 63.5989C536.148 63.5989 535.779 63.6912 534.856 63.9679L534.672 63.2298C536.518 62.5841 538.548 62.2147 540.393 62.1223C540.578 62.1223 540.67 62.1223 540.67 62.4914C540.67 64.8907 538.824 77.4416 538.824 78.7111C538.824 78.9882 538.824 79.4492 539.194 79.4492C539.378 79.4492 540.025 79.2642 540.763 78.9878L541.04 79.7263ZM535.041 75.781C535.687 74.2121 535.871 72.6432 536.241 70.2439C536.056 70.1512 535.871 70.1512 535.779 70.1512C532.918 70.1512 531.534 74.3965 531.534 76.7035C531.534 77.2572 531.626 78.6184 532.457 78.6184C533.657 78.6188 534.672 76.7038 535.041 75.781Z" fill="#CCCCCC"/>
<path fill-rule="evenodd" clip-rule="evenodd" d="M502.026 82.2178H503.041L504.333 84.1558V82.2178H505.163V85.909H504.425L502.856 83.7871V85.909H502.026V82.2178ZM507.562 82.2178H510.424V82.9563H508.67V83.6017H509.778V84.4325H508.67V85.0782H510.424V85.909H507.562V82.2178ZM513.469 82.9563H512.454V82.2178H515.592V82.9563H514.576V85.909H513.469V82.9563ZM517.438 82.2178H518.544L519.006 84.1558H519.098L519.56 82.2178H520.483L520.944 84.1558H521.037L521.498 82.2178H522.328L521.405 85.909H520.483L519.929 83.8787L519.375 85.909H518.453L517.438 82.2178ZM526.089 86.0017C525.005 86.0017 524.267 85.2636 524.267 84.0634C524.267 82.8639 525.005 82.1255 526.089 82.1255C527.197 82.1255 527.842 82.8636 527.842 84.0634C527.842 85.2633 527.197 86.0017 526.089 86.0017ZM525.443 84.0631C525.443 85.0782 525.72 85.2633 526.089 85.2633C526.459 85.2633 526.735 85.0782 526.735 84.0631C526.735 83.0486 526.459 82.8636 526.089 82.8636C525.628 82.8636 525.443 83.1406 525.443 84.0631ZM530.057 82.2178H531.903C533.103 82.2178 533.38 82.7709 533.38 83.233C533.38 83.6944 533.103 84.0631 532.641 84.1558L533.38 85.909H532.18L531.626 84.3401H531.165V85.909H530.057V82.2178ZM531.165 83.6944H531.719C531.995 83.6944 532.272 83.5093 532.272 83.325C532.272 83.0486 532.087 82.8636 531.719 82.8636H531.165V83.6944ZM535.687 82.2178H536.794V83.6944L537.902 82.2178H538.917L537.994 83.4173L539.101 85.909H537.994L537.256 84.3401L536.794 84.9866V85.909H535.687V82.2178Z" fill="white"/>
<line x1="610.146" y1="60" x2="610.146" y2="92" stroke="#E6E6E6"/>
<g clip-path="url(#clip0_542_67061)">
<path d="M750.541 78.3893C750.218 78.3893 749.975 78.3083 749.786 78.1194C749.624 77.9574 749.516 77.6875 749.516 77.3636V67.4042C749.516 67.0803 749.597 66.8104 749.786 66.6484C749.975 66.4865 750.218 66.4055 750.541 66.4055H752.35C752.755 66.4055 753.106 66.4325 753.402 66.4595C753.699 66.5135 753.969 66.5944 754.158 66.7564C754.374 66.9183 754.509 67.1343 754.617 67.4581C754.725 67.755 754.779 68.1869 754.779 68.6997V76.0951C754.779 76.7698 754.698 77.2557 754.509 77.5795C754.32 77.9034 754.05 78.1194 753.699 78.2273C753.348 78.3353 752.89 78.3893 752.35 78.3623L750.541 78.3893ZM744.739 60.6026C744.415 60.6296 744.145 60.7105 743.983 60.8725C743.821 61.0344 743.74 61.3043 743.74 61.6282V83.1666C743.74 83.4904 743.821 83.7334 744.01 83.9223C744.172 84.0842 744.442 84.1922 744.766 84.1922H752.269C753.834 84.1922 755.184 84.0303 756.263 83.7064C757.343 83.3825 758.207 82.8697 758.854 82.2219C759.502 81.5741 759.988 80.7104 760.258 79.6848C760.555 78.6592 760.69 77.4716 760.69 76.0951V68.6997C760.69 67.3232 760.555 66.1356 760.258 65.11C759.961 64.0843 759.502 63.2476 758.854 62.5999C758.207 61.9251 757.343 61.4393 756.263 61.1154C755.184 60.7915 753.861 60.6296 752.269 60.6296L744.739 60.6026ZM734.914 74.8265C734.914 75.4743 734.887 76.0681 734.86 76.5809C734.806 77.0937 734.698 77.5256 734.536 77.9034C734.374 78.2813 734.104 78.5512 733.726 78.7401C733.376 78.9291 732.89 79.037 732.269 79.037C731.648 79.037 731.162 78.9291 730.811 78.7401C730.434 78.5512 730.191 78.2813 730.002 77.9034C729.84 77.5526 729.732 77.0937 729.678 76.5809C729.624 76.0681 729.597 75.4743 729.624 74.8265V69.9683C729.624 69.3205 729.651 68.7267 729.678 68.2139C729.732 67.7011 729.84 67.2692 730.002 66.8913C730.164 66.5135 730.434 66.2436 730.811 66.0546C731.162 65.8657 731.648 65.7577 732.269 65.7577C732.89 65.7577 733.376 65.8657 733.726 66.0546C734.104 66.2436 734.347 66.5135 734.536 66.8913C734.698 67.2422 734.806 67.7011 734.86 68.2139C734.914 68.7267 734.914 69.3205 734.914 69.9683V74.8265ZM740.69 68.1869C740.69 67.809 740.663 67.3502 740.609 66.8104C740.555 66.2706 740.447 65.7038 740.258 65.083C740.069 64.4622 739.799 63.8684 739.448 63.2746C739.071 62.6808 738.585 62.141 737.964 61.6552C737.343 61.1694 736.56 60.7645 735.616 60.4676C734.671 60.1707 733.537 60.0358 732.215 60.0088C730.892 60.0088 729.759 60.1707 728.814 60.4676C727.87 60.7645 727.087 61.1694 726.466 61.6552C725.845 62.141 725.359 62.6808 724.982 63.2746C724.604 63.8684 724.334 64.4892 724.172 65.083C723.983 65.7038 723.875 66.2706 723.821 66.8104C723.767 67.3502 723.74 67.809 723.74 68.1869V76.6079C723.74 76.9858 723.767 77.4446 723.821 77.9844C723.875 78.5242 723.983 79.091 724.172 79.7118C724.334 80.3326 724.631 80.9264 724.982 81.5201C725.359 82.1139 725.845 82.6537 726.466 83.1666C727.087 83.6524 727.87 84.0572 728.814 84.3271C729.759 84.624 730.892 84.786 732.215 84.786C733.537 84.786 734.671 84.624 735.616 84.3271C736.56 84.0303 737.343 83.6524 737.964 83.1666C738.585 82.6807 739.071 82.1409 739.448 81.5201C739.826 80.9264 740.096 80.3056 740.258 79.7118C740.42 79.091 740.555 78.5242 740.609 77.9844C740.663 77.4446 740.69 76.9858 740.69 76.6079V68.1869ZM715.292 74.8265C715.292 75.4743 715.265 76.0681 715.238 76.5809C715.184 77.0937 715.076 77.5256 714.914 77.9034C714.752 78.2813 714.482 78.5512 714.104 78.7401C713.754 78.9291 713.268 79.037 712.647 79.037C712.026 79.037 711.54 78.9291 711.189 78.7401C710.812 78.5512 710.569 78.2813 710.38 77.9034C710.218 77.5526 710.11 77.0937 710.056 76.5809C710.002 76.0681 709.975 75.4743 710.002 74.8265V69.9683C710.002 69.3205 710.029 68.7267 710.056 68.2139C710.11 67.7011 710.218 67.2692 710.38 66.8913C710.542 66.5135 710.812 66.2436 711.189 66.0546C711.54 65.8657 712.026 65.7577 712.647 65.7577C713.268 65.7577 713.754 65.8657 714.104 66.0546C714.482 66.2436 714.725 66.5135 714.914 66.8913C715.076 67.2422 715.184 67.7011 715.238 68.2139C715.292 68.7267 715.292 69.3205 715.292 69.9683V74.8265ZM721.095 68.1869C721.095 67.809 721.068 67.3502 721.014 66.8104C720.96 66.2706 720.852 65.7038 720.663 65.083C720.474 64.4622 720.204 63.8684 719.853 63.2746C719.475 62.6808 718.99 62.141 718.369 61.6552C717.748 61.1694 716.965 60.7645 716.021 60.4676C715.076 60.1707 713.942 60.0358 712.62 60.0088C711.297 60.0088 710.164 60.1707 709.219 60.4676C708.274 60.7645 707.492 61.1694 706.871 61.6552C706.25 62.141 705.764 62.6808 705.387 63.2746C705.009 63.8684 704.739 64.4892 704.577 65.083C704.388 65.7038 704.28 66.2706 704.226 66.8104C704.172 67.3502 704.145 67.809 704.145 68.1869V76.6079C704.145 76.9858 704.172 77.4446 704.226 77.9844C704.28 78.5242 704.388 79.091 704.577 79.7118C704.739 80.3326 705.036 80.9264 705.387 81.5201C705.764 82.1139 706.25 82.6537 706.871 83.1666C707.492 83.6524 708.274 84.0572 709.219 84.3271C710.164 84.624 711.297 84.786 712.62 84.786C713.942 84.786 715.076 84.624 716.021 84.3271C716.965 84.0303 717.748 83.6524 718.369 83.1666C718.99 82.6807 719.475 82.1409 719.853 81.5201C720.231 80.9264 720.501 80.3056 720.663 79.7118C720.825 79.091 720.96 78.5242 721.014 77.9844C721.068 77.4446 721.095 76.9858 721.095 76.6079V68.1869ZM701.176 60.6026C701.851 60.6026 702.175 60.9535 702.175 61.6012V65.3799C702.175 65.7038 702.094 65.9467 701.932 66.1356C701.77 66.3245 701.5 66.4055 701.176 66.4055H692.377C692.053 66.4055 691.81 66.4865 691.621 66.6484C691.432 66.8104 691.351 67.0803 691.351 67.4042V83.1936C691.351 83.5174 691.271 83.7603 691.109 83.9493C690.947 84.1112 690.677 84.2192 690.353 84.2192H686.385C686.061 84.2192 685.818 84.1382 685.63 83.9493C685.468 83.7603 685.36 83.5174 685.36 83.1936V61.6282C685.36 61.3043 685.441 61.0344 685.63 60.8725C685.818 60.7105 686.061 60.6296 686.385 60.6296L701.176 60.6026Z" fill="#CCCCCC"/>
<path d="M759.151 89.4545C759.151 89.4275 759.124 89.4275 759.124 89.4005C759.124 89.3735 759.124 89.3735 759.151 89.3465L760.501 87.5112C760.555 87.4302 760.555 87.3762 760.528 87.3492C760.501 87.3222 760.447 87.2683 760.366 87.2683H759.394C759.34 87.2683 759.286 87.2683 759.259 87.2952C759.232 87.3222 759.178 87.3492 759.151 87.4032L758.099 88.8337C758.072 88.8607 758.072 88.8607 758.045 88.8607C758.018 88.8607 758.018 88.8337 758.018 88.8067V87.4842C758.018 87.3492 757.964 87.2952 757.829 87.2952H757.073C757.019 87.2952 756.965 87.3222 756.938 87.3492C756.911 87.3762 756.884 87.4302 756.884 87.5112V91.7756C756.884 91.8296 756.911 91.8836 756.938 91.9106C756.965 91.9376 757.019 91.9646 757.073 91.9646H757.829C757.883 91.9646 757.937 91.9376 757.991 91.9106C758.045 91.8836 758.045 91.8296 758.045 91.7756V91.0469V90.9929C758.045 90.9659 758.045 90.9659 758.072 90.9389L758.342 90.5611C758.342 90.5341 758.369 90.5341 758.396 90.5341C758.423 90.5341 758.423 90.5341 758.45 90.5611L759.286 91.8296C759.313 91.8836 759.34 91.9106 759.394 91.9376C759.421 91.9646 759.475 91.9646 759.529 91.9646H760.528C760.609 91.9646 760.663 91.9376 760.69 91.8836C760.717 91.8296 760.717 91.7756 760.663 91.7217L759.151 89.4545ZM753.105 87.2683C753.051 87.2683 752.997 87.2952 752.97 87.3222C752.944 87.3492 752.917 87.4032 752.917 87.4842V90.4531C752.917 90.5341 752.917 90.6151 752.944 90.723C752.944 90.831 752.97 90.9389 753.024 91.0739C753.051 91.1819 753.105 91.3168 753.186 91.4248C753.267 91.5327 753.348 91.6407 753.483 91.7487C753.618 91.8566 753.753 91.9106 753.942 91.9916C754.131 92.0456 754.347 92.0725 754.617 92.0725C754.887 92.0725 755.103 92.0456 755.292 91.9916C755.481 91.9376 755.643 91.8566 755.75 91.7487C755.885 91.6407 755.966 91.5327 756.047 91.4248C756.128 91.3168 756.182 91.1819 756.209 91.0739C756.236 90.9659 756.263 90.831 756.263 90.723C756.263 90.6151 756.29 90.5341 756.29 90.4531V87.4842C756.29 87.3492 756.236 87.2952 756.101 87.2952H755.346C755.292 87.2952 755.238 87.3222 755.211 87.3492C755.184 87.3762 755.157 87.4302 755.157 87.5112V90.4801C755.157 90.5881 755.13 90.669 755.103 90.75C755.076 90.831 755.022 90.885 754.941 90.912C754.86 90.9389 754.779 90.9659 754.644 90.9659C754.509 90.9659 754.428 90.9389 754.347 90.912C754.266 90.885 754.212 90.831 754.185 90.75C754.158 90.669 754.131 90.5881 754.131 90.4801C754.131 90.3721 754.104 90.2642 754.131 90.1292V87.5112C754.131 87.3762 754.077 87.3222 753.942 87.3222L753.105 87.2683ZM752.242 90.777C752.377 90.777 752.431 90.831 752.431 90.9659V91.7217C752.431 91.7756 752.404 91.8296 752.377 91.8566C752.35 91.8836 752.296 91.9106 752.215 91.9106H751.459C751.405 91.9106 751.351 91.8836 751.324 91.8566C751.297 91.8296 751.27 91.7756 751.27 91.7217V90.9659C751.27 90.912 751.297 90.858 751.324 90.804C751.351 90.777 751.405 90.75 751.459 90.75L752.242 90.777ZM749.624 90.0753V90.4261C749.624 90.5341 749.597 90.6151 749.57 90.696C749.543 90.777 749.489 90.831 749.408 90.858C749.327 90.885 749.246 90.912 749.111 90.912C748.976 90.912 748.895 90.885 748.814 90.858C748.733 90.831 748.679 90.777 748.652 90.696C748.625 90.6151 748.598 90.5341 748.598 90.4261C748.598 90.3182 748.571 90.2102 748.598 90.0753V89.1306V88.7797C748.598 88.6718 748.625 88.5908 748.652 88.5098C748.679 88.4288 748.733 88.3749 748.814 88.3479C748.895 88.3209 748.976 88.2939 749.111 88.2939C749.246 88.2939 749.327 88.3209 749.408 88.3479C749.489 88.3749 749.543 88.4288 749.57 88.5098C749.597 88.5908 749.624 88.6718 749.624 88.7797V90.0753ZM750.784 88.7527C750.784 88.6718 750.784 88.5908 750.757 88.4828C750.757 88.3749 750.73 88.2669 750.703 88.1319C750.676 88.024 750.622 87.889 750.541 87.7811C750.46 87.6731 750.379 87.5651 750.244 87.4572C750.11 87.3492 749.975 87.2952 749.786 87.2143C749.597 87.1603 749.381 87.1333 749.111 87.1333C748.841 87.1333 748.625 87.1603 748.436 87.2143C748.247 87.2683 748.085 87.3492 747.977 87.4572C747.842 87.5651 747.761 87.6731 747.68 87.7811C747.599 87.889 747.545 88.024 747.518 88.1319C747.491 88.2399 747.464 88.3749 747.437 88.4828C747.437 88.5908 747.41 88.6718 747.41 88.7527V90.4261C747.41 90.5071 747.41 90.5881 747.437 90.696C747.437 90.804 747.464 90.912 747.518 91.0469C747.545 91.1549 747.599 91.2898 747.68 91.3978C747.761 91.5057 747.842 91.6137 747.977 91.7217C748.112 91.8296 748.247 91.8836 748.436 91.9646C748.625 92.0186 748.841 92.0456 749.111 92.0456C749.381 92.0456 749.597 92.0186 749.786 91.9646C749.975 91.9106 750.137 91.8296 750.244 91.7217C750.379 91.6137 750.46 91.5057 750.541 91.3978C750.622 91.2898 750.676 91.1549 750.703 91.0469C750.73 90.9389 750.757 90.804 750.757 90.696C750.757 90.5881 750.784 90.5071 750.784 90.4261V88.7527ZM743.713 90.4261C743.713 90.5071 743.713 90.5881 743.74 90.696C743.74 90.804 743.767 90.912 743.821 91.0469C743.848 91.1549 743.902 91.2898 743.983 91.3978C744.064 91.5057 744.145 91.6137 744.28 91.7217C744.415 91.8296 744.549 91.8836 744.738 91.9646C744.927 92.0186 745.143 92.0456 745.413 92.0456C745.656 92.0456 745.845 92.0186 746.034 91.9646C746.196 91.9106 746.358 91.8566 746.466 91.7756C746.574 91.6947 746.682 91.6137 746.763 91.5057C746.844 91.3978 746.898 91.2898 746.952 91.1819C747.006 91.0739 747.033 90.9659 747.033 90.858C747.06 90.75 747.06 90.669 747.06 90.5611C747.06 90.5071 747.06 90.4801 747.033 90.4261C747.006 90.3991 746.979 90.3721 746.925 90.3721L746.169 90.2102C746.115 90.1832 746.034 90.2102 746.007 90.2372C745.953 90.2642 745.926 90.3182 745.926 90.3991C745.926 90.5071 745.899 90.5881 745.845 90.669C745.818 90.75 745.764 90.804 745.683 90.831C745.602 90.858 745.521 90.885 745.386 90.885C745.251 90.885 745.17 90.858 745.089 90.831C745.008 90.804 744.954 90.75 744.927 90.669C744.9 90.5881 744.873 90.5071 744.873 90.3991C744.873 90.2912 744.846 90.1832 744.873 90.0483V89.1036V88.7527C744.873 88.6448 744.9 88.5638 744.927 88.4828C744.954 88.4018 745.008 88.3479 745.089 88.3209C745.17 88.2939 745.251 88.2669 745.386 88.2669C745.494 88.2669 745.602 88.2939 745.683 88.3209C745.764 88.3479 745.818 88.4018 745.845 88.4828C745.872 88.5638 745.899 88.6448 745.899 88.7257C745.899 88.8067 745.926 88.8607 745.98 88.8877C746.034 88.9147 746.088 88.9417 746.169 88.9417L746.898 88.7797C746.952 88.7797 746.979 88.7527 747.006 88.7257C747.033 88.6987 747.033 88.6448 747.033 88.6178C747.033 88.5368 747.006 88.4288 747.006 88.3209L746.925 87.997C746.871 87.889 746.817 87.7811 746.736 87.6731C746.655 87.5651 746.547 87.4842 746.439 87.4032C746.304 87.3222 746.169 87.2683 746.007 87.2143C745.845 87.1603 745.629 87.1333 745.386 87.1333C745.116 87.1333 744.9 87.1603 744.711 87.2143C744.523 87.2683 744.361 87.3492 744.253 87.4572C744.118 87.5651 744.037 87.6731 743.956 87.7811C743.875 87.889 743.821 88.024 743.794 88.1319C743.767 88.2399 743.74 88.3749 743.713 88.4828C743.713 88.5908 743.686 88.6718 743.686 88.7527V90.4261H743.713ZM743.092 90.777C743.227 90.777 743.281 90.831 743.281 90.9659V91.7217C743.281 91.7756 743.254 91.8296 743.227 91.8566C743.2 91.8836 743.146 91.9106 743.065 91.9106H742.309C742.255 91.9106 742.201 91.8836 742.174 91.8566C742.147 91.8296 742.12 91.7756 742.12 91.7217V90.9659C742.12 90.912 742.147 90.858 742.174 90.804C742.201 90.777 742.255 90.75 742.309 90.75L743.092 90.777Z" fill="#CCCCCC"/>
<path d="M693.673 73.4227C691.163 73.2068 678.909 75.204 677.991 73.0448C676.453 69.4551 689.327 71.4794 691.055 71.5333C691.918 71.5603 692.998 71.7223 693.619 71.5603C694.051 71.4254 694.348 70.7236 694.833 70.4537C695.913 69.806 697.667 70.1568 699.179 70.2918C700.204 70.3728 701.203 70.4807 702.283 70.5617C700.744 70.7776 699.098 70.9935 697.478 71.2095C697.29 71.2365 696.993 71.1555 696.858 71.3714C698.504 71.6413 700.366 71.6953 702.148 71.8302C700.393 72.1001 698.423 72.1541 696.696 72.478C696.804 72.6669 697.128 72.613 697.317 72.64C698.855 72.7479 700.555 72.8829 702.175 72.9638C700.501 73.2337 698.558 73.2877 696.885 73.6116C696.939 73.8815 697.29 73.8005 697.451 73.8005C698.99 73.9895 700.717 74.2054 702.31 74.3404C700.555 74.4753 698.396 74.8802 696.588 74.9881C695.184 75.0691 694.348 74.2594 693.673 73.4227Z" fill="#CCCCCC"/>
<path d="M689.327 73.6387C691.271 73.4767 692.917 73.3418 693.673 73.3958C694.024 73.8276 694.374 74.2325 694.86 74.5294C695.319 74.8263 695.859 75.0152 696.561 74.9612C697.559 74.9072 698.666 74.7453 699.746 74.6103C700.528 74.5024 701.284 74.3944 701.986 74.3404C701.284 74.2865 700.582 74.2055 699.853 74.1245C699.017 74.0435 698.207 73.9356 697.451 73.8276H697.316C697.127 73.8276 696.885 73.8276 696.858 73.6117V73.5847H696.885C697.802 73.3958 698.828 73.2878 699.853 73.2068C700.555 73.1529 701.257 73.0719 701.905 72.9909C700.69 72.9099 699.422 72.829 698.234 72.748C697.937 72.721 697.64 72.694 697.343 72.694H697.208C697.019 72.694 696.804 72.694 696.696 72.5321L696.669 72.5051H696.696C697.667 72.3162 698.72 72.2082 699.773 72.1272C700.474 72.0732 701.203 71.9923 701.878 71.9113C701.527 71.8843 701.149 71.8573 700.798 71.8303C699.449 71.7494 698.072 71.6684 696.858 71.4795H696.804L696.831 71.4525C696.939 71.2905 697.127 71.2905 697.289 71.2905H697.451L698.747 71.1286C699.826 70.9936 700.933 70.8317 701.959 70.6967C701.338 70.6428 700.717 70.5888 700.123 70.5348C699.799 70.5078 699.503 70.4808 699.152 70.4538L698.342 70.3728C697.046 70.2379 695.697 70.076 694.833 70.6158C694.617 70.7507 694.428 70.9666 694.266 71.1826C694.051 71.4255 693.862 71.6684 693.619 71.7494C693.187 71.8573 692.539 71.8303 691.891 71.7763C691.594 71.7494 691.298 71.7224 691.028 71.7224C690.731 71.7224 690.11 71.6414 689.3 71.5604C686.385 71.1016 680.906 70.5348 678.774 71.4525C678.018 71.7763 677.694 72.2622 678.018 73.0449C678.639 74.5294 684.793 74.0166 689.327 73.6387ZM693.673 73.4498C692.917 73.3958 691.271 73.5307 689.327 73.6927C684.793 74.0705 678.612 74.5834 677.964 73.0449C677.613 72.2352 677.964 71.7224 678.747 71.3715C680.906 70.4538 686.385 71.0206 689.327 71.3175C690.137 71.3985 690.758 71.4795 691.055 71.4795C691.325 71.4795 691.621 71.5064 691.918 71.5334C692.566 71.5874 693.187 71.6144 693.619 71.5064C693.835 71.4525 694.024 71.2095 694.239 70.9666C694.428 70.7507 694.59 70.5348 694.833 70.3998C695.724 69.86 697.073 70.022 698.396 70.1569L699.206 70.2379C699.503 70.2649 699.853 70.2919 700.177 70.3189C700.879 70.3728 701.581 70.4538 702.31 70.4808L702.607 70.5078L702.337 70.5618C701.23 70.7237 700.042 70.8857 698.855 71.0476L697.559 71.2096H697.397C697.262 71.2096 697.1 71.2096 696.992 71.3175C698.207 71.5064 699.557 71.5874 700.906 71.6684C701.365 71.6954 701.797 71.7224 702.256 71.7494L702.526 71.7763L702.256 71.8033C701.5 71.9113 700.69 71.9923 699.88 72.0732C698.855 72.1812 697.802 72.2622 696.858 72.4511C696.939 72.5591 697.127 72.5591 697.289 72.5591H697.424C697.721 72.5861 698.018 72.6131 698.315 72.6131C699.611 72.721 700.96 72.802 702.256 72.883L702.526 72.9099L702.256 72.9639C701.5 73.0719 700.717 73.1529 699.934 73.2338C698.936 73.3418 697.937 73.4228 697.019 73.6117C697.073 73.7736 697.262 73.7466 697.424 73.7466H697.559C698.342 73.8276 699.152 73.9356 699.961 74.0435C700.771 74.1245 701.608 74.2325 702.391 74.2865V74.3404C701.608 74.3944 700.717 74.5294 699.826 74.6373C698.747 74.7723 697.64 74.9342 696.642 74.9882C695.94 75.0422 695.373 74.8533 694.914 74.5564C694.374 74.2865 693.997 73.8816 693.673 73.4498Z" fill="#CCCCCC"/>
</g>
<line x1="829.265" y1="60" x2="829.265" y2="92" stroke="#E6E6E6"/>
<g clip-path="url(#clip1_542_67061)">
<path d="M1010.18 60C1008.11 60 1006.42 61.6718 1006.42 63.7419C1006.42 65.8225 1008.13 67.489 1010.2 67.4838C1012.27 67.489 1013.93 65.8225 1013.93 63.7419C1013.92 61.677 1012.25 60 1010.18 60ZM942.251 60.0629C940.171 60.0629 938.494 61.719 938.494 63.7891C938.494 65.8696 940.176 67.5624 942.251 67.5676C944.316 67.5676 945.993 65.8696 945.993 63.7891C945.998 61.719 944.316 60.0629 942.251 60.0629ZM998.149 64.266C996.084 64.266 994.391 65.9378 994.391 68.0079C994.391 70.078 996.079 71.7655 998.149 71.7655C1000.22 71.7655 1001.89 70.0832 1001.89 68.0079C1001.9 65.943 1000.22 64.266 998.149 64.266ZM1022.29 64.266C1020.22 64.266 1018.53 65.9378 1018.53 68.0079C1018.53 70.078 1020.22 71.7655 1022.29 71.7655C1024.37 71.7655 1026.01 70.078 1026.01 68.0079C1026.01 65.9378 1024.37 64.2607 1022.29 64.266ZM954.09 64.3289C952.025 64.3289 950.332 66.0216 950.332 68.0865C950.332 70.1618 952.02 71.8284 954.09 71.8284C956.15 71.8284 957.832 70.1566 957.832 68.0865C957.832 66.0216 956.155 64.3289 954.09 64.3289ZM930.192 64.4284C928.127 64.4232 926.45 66.095 926.45 68.1598V68.1756C926.45 70.2509 928.117 71.9384 930.192 71.9332C932.252 71.9332 933.934 70.2457 933.934 68.1756C933.934 66.1002 932.252 64.4284 930.192 64.4284ZM1011.47 73.17C1011.47 73.17 1004.02 73.2172 1003.93 73.2172C1002.66 73.2172 1001.59 74.2968 1001.59 75.5598L1001.57 89.1019H1001.59C1001.64 90.7055 1002.99 92 1004.6 92C1006.23 92 1007.57 90.7055 1007.63 89.1019V84.3957C1007.63 84.3957 1010.61 84.38 1010.71 84.38C1011.85 84.38 1012.81 83.4681 1012.81 82.3151C1012.81 81.1569 1011.86 80.2136 1010.71 80.2136H1007.63V78.961H1011.47C1013.06 78.961 1014.34 77.6875 1014.34 76.0943C1014.33 74.5169 1013.06 73.17 1011.47 73.17ZM1025.17 73.17C1025.17 73.17 1017.72 73.2172 1017.63 73.2172C1016.36 73.2172 1015.29 74.2915 1015.29 75.5598V89.1019H1015.31C1015.36 90.7055 1016.68 92 1018.3 92C1019.94 92 1021.25 90.7108 1021.3 89.1019H1021.32V84.3957C1021.32 84.3957 1024.29 84.38 1024.39 84.38C1025.54 84.38 1026.5 83.4681 1026.5 82.3151C1026.5 81.1569 1025.54 80.2136 1024.39 80.2136H1021.31V78.961H1025.15C1026.74 78.961 1028.02 77.6875 1028.02 76.0943C1028.02 74.5169 1026.75 73.1648 1025.17 73.17ZM957.764 73.2014C956.176 73.2014 954.897 74.4802 954.897 76.0524C954.897 76.1572 954.918 76.2673 954.929 76.3773L954.913 89.0757L954.929 89.2224C955.007 90.7213 956.249 91.9266 957.78 91.9266C959.367 91.9266 960.646 90.6531 960.646 89.0757C960.646 88.8922 960.63 88.7193 960.599 88.5568V84.7887L964.865 90.5169C964.928 90.6112 964.996 90.7055 965.059 90.8104L965.075 90.8418C965.625 91.4812 966.458 91.8847 967.37 91.8847C969.031 91.8847 970.368 90.5431 970.368 88.887C970.373 88.3105 970.211 87.7445 969.896 87.2571L969.849 87.1942C969.807 87.1261 969.77 87.058 969.718 87.0003L965.861 81.8225L969 78.0282H968.984C969.393 77.5303 969.65 76.8962 969.65 76.1887C969.645 74.5745 968.334 73.2434 966.72 73.2434C965.662 73.2434 964.744 73.8041 964.231 74.6426L960.599 79.0239V76.4821C960.615 76.3406 960.63 76.1887 960.63 76.0419C960.63 74.4802 959.346 73.2014 957.764 73.2014ZM899.544 73.2172C898.145 73.2172 897.024 74.3596 897.024 75.738C897.024 75.738 897.008 89.1857 897.008 89.4111C897.008 90.8418 898.098 91.9161 899.529 91.9161L906.038 91.9319C909.234 91.9319 911.834 89.3482 911.834 86.1513C911.834 84.3433 911.027 82.7344 909.732 81.6757C910.492 80.7743 910.969 79.6056 910.969 78.3217C910.974 75.5126 908.642 73.2067 905.807 73.2119H899.544V73.2172ZM943.493 73.301C938.378 73.301 934.217 77.4569 934.217 82.5771C934.217 87.6973 938.378 91.869 943.493 91.869C948.613 91.869 952.775 87.6973 952.769 82.5771C952.769 77.4569 948.613 73.301 943.493 73.301ZM922.509 73.3325C917.384 73.3325 913.244 77.4989 913.249 82.6295C913.249 87.7445 917.379 91.8952 922.509 91.8899C927.64 91.8899 931.785 87.7445 931.785 82.6295C931.785 77.5041 927.64 73.3325 922.509 73.3325ZM990.807 73.3325C985.666 73.3325 981.494 77.5146 981.494 82.661C981.494 87.7969 985.66 91.9738 990.807 91.9738C995.943 91.9738 1000.12 87.7969 1000.12 82.661C1000.12 77.5146 995.948 73.3325 990.807 73.3325ZM902.065 77.4307H904.392C905.168 77.4307 905.791 78.0439 905.791 78.83C905.791 79.5952 905.162 80.1978 904.392 80.1978C904.319 80.1978 902.065 80.2136 902.065 80.2136V77.4307ZM975.299 78.6518C973.229 78.6518 971.563 80.3393 971.557 82.4094C971.563 84.4795 973.229 86.167 975.299 86.167C977.375 86.167 979.057 84.4795 979.057 82.4094C979.052 80.3446 977.364 78.6518 975.299 78.6518ZM943.493 78.7357C945.621 78.7357 947.35 80.4599 947.35 82.5929C947.35 84.7154 945.621 86.4343 943.493 86.4343C941.365 86.4343 939.652 84.7049 939.652 82.5771C939.647 80.4599 941.36 78.7409 943.478 78.7357H943.493ZM922.509 78.7671C924.632 78.7671 926.366 80.4913 926.366 82.6243C926.366 84.752 924.637 86.471 922.509 86.4658C920.403 86.471 918.673 84.752 918.668 82.6243C918.668 80.4913 920.397 78.7671 922.509 78.7671ZM990.807 78.7986C992.94 78.7986 994.664 80.5123 994.664 82.6557C994.664 84.7835 992.934 86.5129 990.807 86.5129C988.674 86.5129 986.944 84.7835 986.95 82.6557C986.944 80.528 988.663 78.8038 990.791 78.7986H990.807ZM902.065 84.1703L905.026 84.186C905.833 84.186 906.494 84.8254 906.494 85.6325C906.488 86.4501 905.838 87.0999 905.026 87.0999H902.081L902.065 84.1703ZM1025.04 87.0999C1023.69 87.0999 1022.61 88.1847 1022.61 89.5421C1022.62 90.9047 1023.68 91.9843 1025.04 91.9843C1026.39 91.9843 1027.48 90.8994 1027.48 89.5421C1027.49 88.1952 1026.4 87.1051 1025.05 87.0999C1025.05 87.0999 1025.04 87.0999 1025.04 87.0999ZM1025.04 87.3462C1026.24 87.3462 1027.24 88.3262 1027.24 89.5421C1027.24 90.7527 1026.24 91.738 1025.04 91.738C1023.83 91.738 1022.86 90.7475 1022.86 89.5421C1022.86 88.3262 1023.83 87.3462 1025.04 87.3462ZM1023.93 88.0956V90.9256H1024.52V89.8199H1025.12C1025.3 89.8199 1025.42 89.8408 1025.48 89.9037C1025.54 89.9561 1025.58 90.0819 1025.58 90.2601V90.5221C1025.58 90.6112 1025.59 90.6846 1025.59 90.7684C1025.61 90.8156 1025.63 90.8732 1025.64 90.9309H1026.29V90.868C1026.23 90.8366 1026.19 90.7632 1026.18 90.6898C1026.17 90.6426 1026.16 90.5588 1026.16 90.4278V90.2496C1026.16 90.0504 1026.13 89.9037 1026.08 89.8094C1026.02 89.7098 1025.92 89.6364 1025.8 89.584C1025.95 89.5316 1026.08 89.4373 1026.14 89.3063C1026.21 89.1805 1026.23 89.0495 1026.24 88.9132C1026.24 88.7979 1026.22 88.7088 1026.19 88.6197C1026.15 88.5306 1026.09 88.452 1026.03 88.3734C1025.96 88.2843 1025.87 88.2214 1025.77 88.1795C1025.66 88.1323 1025.52 88.1061 1025.33 88.0956H1023.93ZM1024.52 88.5988H1025.2C1025.33 88.5988 1025.42 88.6145 1025.48 88.6459C1025.59 88.7036 1025.66 88.8136 1025.66 88.9866C1025.66 89.1386 1025.59 89.2434 1025.48 89.2958C1025.41 89.3272 1025.32 89.3429 1025.19 89.3429H1024.52V88.5988Z" fill="#CCCCCC"/>
</g>
<line x1="1096.76" y1="60" x2="1096.76" y2="92" stroke="#E6E6E6"/>
<path fill-rule="evenodd" clip-rule="evenodd" d="M1165.83 85.5529L1173.54 85.4493L1173.56 85.4044L1165.25 84.0751L1165.21 83.9148L1172.17 83.8153C1172.17 83.8153 1172.12 83.6769 1171.94 83.3339L1164.78 82.193L1164.75 82.0327L1171.45 81.9362L1171.35 81.4686L1164.55 80.4537L1164.55 80.2562L1171.15 80.1612L1171.1 79.6748L1164.5 78.59L1164.51 78.4287L1171.1 78.3337C1171.06 78.1454 1171.12 77.7645 1171.12 77.7645L1164.6 76.7722L1164.63 76.6098L1171.22 76.5333C1171.22 76.4393 1171.25 76.0937 1171.25 76.0937L1164.84 74.9426L1164.87 74.7808L1171.52 74.6848C1171.52 74.6848 1171.56 74.3203 1171.64 74.1309L1165.23 73.1529L1165.28 72.9905L1171.94 72.8945C1171.94 72.8945 1172.08 72.5086 1172.16 72.3662L1165.78 71.4039L1165.82 71.26L1172.6 71.1625C1172.6 71.1625 1172.79 70.7546 1172.84 70.6443L1166.51 69.6647L1166.58 69.5203L1173.47 69.4212C1173.47 69.4212 1173.66 69.0583 1173.83 68.8046L1167.5 67.8255L1167.57 67.6989L1174.66 67.6146C1174.66 67.6146 1174.87 67.2787 1175.06 67.1036L1168.67 66.146L1168.79 66.001L1176.04 65.8969C1176.04 65.8969 1176.32 65.5885 1176.52 65.4288L1170.24 64.4696L1170.34 64.3246L1177.72 64.2123L1178.21 63.784L1172.48 62.5471L1172.47 62.5486C1174.93 60.9917 1177.97 60.0508 1181.65 60.0018C1188.48 59.9094 1194.25 63.2904 1194.44 71.2288L1185.56 71.3483C1185.26 68.534 1183.59 67.5748 1181.2 67.607C1176.03 67.6764 1173.8 73.2141 1173.87 78.4654C1173.92 82.0505 1175.49 84.4207 1179.29 84.3686C1181.81 84.3349 1183.93 83.4105 1184.83 80.9219L1180.57 80.9785L1181.84 74.4291L1194.31 74.2611L1191.03 91.084L1185.1 91.1636L1185.32 88.2156L1185.23 88.1309C1183.3 90.8038 1180.29 91.9544 1177.04 91.9983C1170.7 92.084 1167.42 88.9471 1165.84 85.5785L1165.83 85.5529ZM1211.57 74.4944C1210.66 73.9574 1209.53 73.5873 1208.08 73.6041C1206.28 73.6245 1204.31 74.3591 1204.34 76.6313C1204.38 79.8345 1210.89 79.7871 1210.95 84.7969C1210.98 87.6714 1209.02 90.9528 1204.42 91.0054C1202.2 91.0314 1200.61 90.5567 1199.07 89.9717L1199.92 87.4433C1201.05 88.1421 1202.62 88.6169 1203.96 88.602C1206.86 88.5684 1208.07 86.7475 1208.05 85.1594C1208.01 81.2721 1201.5 82.0316 1201.44 76.7206C1201.4 73.2432 1204.55 71.2355 1207.7 71.1992C1209.29 71.1809 1210.85 71.4642 1212.31 72.0497L1211.57 74.4944ZM1222.51 90.2218C1221.18 90.5659 1219.78 90.8283 1218.39 90.8441C1214.99 90.8829 1211.94 89.55 1211.88 84.6218C1211.84 80.7616 1214.49 76.2678 1219.42 76.2106C1222.79 76.1718 1224.7 78.176 1224.74 81.489C1224.75 82.4191 1224.65 83.2149 1224.52 84.0373L1214.69 84.1512C1214.64 84.4408 1214.62 84.7346 1214.62 85.0287C1214.66 87.9578 1216.47 88.7853 1218.96 88.7567C1220.25 88.7419 1221.64 88.3979 1222.9 87.8624L1222.51 90.2218ZM1222.09 82.1491C1222.14 81.7381 1222.17 81.4094 1222.16 81.0801C1222.14 79.4379 1221.12 78.2725 1219.17 78.2944C1217.07 78.3184 1215.47 80.172 1214.95 82.2318L1222.09 82.1491ZM1226.4 78.5936C1226.51 78.0172 1226.66 77.2765 1226.76 76.4541L1229.17 76.4261L1228.76 78.6487H1228.81C1229.62 77.3245 1231.11 76.0754 1233.55 76.0473C1233.79 76.0442 1234.23 76.0942 1234.73 76.2806L1234.18 78.5588C1233.68 78.3735 1233.27 78.2954 1233.08 78.2985C1229.91 78.3342 1228.38 81.8019 1228.05 83.5309L1226.68 90.4194L1224.1 90.4495L1226.4 78.5936ZM1235.52 76.352L1238.1 76.3229L1235.3 90.3193L1232.73 90.3494L1235.52 76.352ZM1238.91 73.1922L1236.01 73.2253L1236.58 70.3161L1239.48 70.2829L1238.91 73.1922ZM1248.33 89.9227C1246.99 90.2667 1245.6 90.5291 1244.2 90.5449C1240.8 90.5848 1237.75 89.2509 1237.69 84.3227C1237.65 80.4624 1240.31 75.9687 1245.24 75.9115C1248.6 75.8732 1250.51 77.8779 1250.55 81.1899C1250.56 82.121 1250.46 82.9158 1250.34 83.7392L1240.51 83.852C1240.46 84.1417 1240.43 84.4354 1240.44 84.7295C1240.47 87.6587 1242.29 88.4862 1244.78 88.4576C1246.06 88.4438 1247.46 88.0987 1248.71 87.5642L1248.33 89.9227ZM1247.9 81.8499C1247.96 81.439 1247.98 81.1102 1247.97 80.781C1247.96 79.1388 1246.93 77.9733 1244.99 77.9953C1242.88 78.0203 1241.28 79.8728 1240.76 81.9326L1247.9 81.8499Z" fill="#CCCCCC"/>
<path fill-rule="evenodd" clip-rule="evenodd" d="M1259.26 78.5424C1258.54 78.1943 1257.41 77.8512 1256.46 77.8625C1255.33 77.8752 1253.86 78.1933 1253.87 79.5904C1253.9 81.9713 1258.67 82.0259 1258.71 85.9138C1258.75 89.2819 1255.67 90.4121 1253.48 90.4371C1251.26 90.4632 1250.44 90.1712 1249.39 89.8271L1249.86 87.6045C1250.88 88.0032 1251.95 88.3743 1253.07 88.361C1254.47 88.3452 1256 87.752 1255.98 86.1644C1255.95 83.7825 1251.18 83.4813 1251.14 79.9498C1251.11 76.9926 1254.05 75.8088 1256.35 75.7822C1257.58 75.768 1258.84 76.0543 1260 76.5066L1259.26 78.5424Z" fill="#CCCCCC"/>
<defs>
<clipPath id="clip0_542_67061">
<rect width="82.6446" height="32" fill="white" transform="translate(677.883 60)"/>
</clipPath>
<clipPath id="clip1_542_67061">
<rect width="131.019" height="32" fill="white" transform="translate(897.003 60)"/>
</clipPath>
</defs>
</svg>
