<svg width="39" height="19" viewBox="0 0 39 19" fill="none" xmlns="http://www.w3.org/2000/svg">
<path d="M14.3001 18.141L39.0001 10.6659V14.241C39.0001 16.3949 37.254 18.141 35.1001 18.141H14.3001Z" fill="#FD6020"/>
<path fill-rule="evenodd" clip-rule="evenodd" d="M34.3116 0.144092C35.6705 0.144092 36.4179 0.772698 36.4179 1.96006C36.4858 2.86805 35.8743 3.63635 35.059 3.77604L36.8935 6.36031H35.4667L33.904 3.84588H33.7681V6.36031H32.613V0.144092H34.3116ZM33.7684 3.00742H34.1081C34.8555 3.00742 35.1952 2.6582 35.1952 2.02959C35.1952 1.47083 34.8555 1.1216 34.1081 1.1216H33.7684V3.00742ZM28.6045 6.36031H31.8658V5.31263H29.7595V3.63635H31.7979V2.58867H29.7595V1.19177H31.8658V0.144092H28.6045V6.36031ZM25.2076 4.3348L23.6448 0.144092H22.4218L24.9358 6.5H25.5473L28.0612 0.144092H26.8382L25.2076 4.3348ZM11.4144 3.28745C11.4144 5.03358 12.7733 6.50033 14.4719 6.50033C15.0154 6.50033 15.491 6.36064 15.9666 6.1511V4.7542C15.6269 5.17327 15.1513 5.45265 14.6077 5.45265C13.5206 5.45265 12.6374 4.61451 12.6374 3.49699V3.3573C12.5694 2.23977 13.4527 1.26194 14.5398 1.1921C15.0834 1.1921 15.6269 1.47148 15.9666 1.89055V0.493647C15.559 0.214267 15.0154 0.144421 14.5398 0.144421C12.7733 0.00473131 11.4144 1.47148 11.4144 3.28745ZM9.3084 2.51884C8.62896 2.23946 8.42513 2.09977 8.42513 1.75054C8.49307 1.33147 8.83279 0.982244 9.24046 1.05209C9.58018 1.05209 9.9199 1.26162 10.1917 1.541L10.8032 0.702863C10.3276 0.283792 9.71607 0.00441189 9.10457 0.00441189C8.15335 -0.0654332 7.33802 0.702863 7.27007 1.68069V1.75054C7.27007 2.58868 7.6098 3.0776 8.6969 3.42682C8.96868 3.49667 9.24046 3.63636 9.51223 3.77605C9.71607 3.91574 9.85196 4.12527 9.85196 4.40465C9.85196 4.89357 9.44429 5.31264 9.03662 5.31264H8.96868C8.42513 5.31264 7.94952 4.96342 7.74568 4.4745L6.9983 5.2428C7.40596 6.01109 8.22129 6.43016 9.03662 6.43016C10.1237 6.50001 11.007 5.66187 11.075 4.54434V4.33481C11.007 3.49667 10.6673 3.0776 9.3084 2.51884ZM5.36758 6.36031H6.52263V0.144092H5.36758V6.36031ZM0 0.144092H1.69861H2.03833C3.66899 0.213937 4.95993 1.61084 4.89198 3.28712C4.89198 4.19511 4.48432 5.03325 3.80488 5.66186C3.19338 6.15077 2.44599 6.43015 1.69861 6.36031H0V0.144092ZM1.49502 5.31234C2.03858 5.38219 2.65008 5.17265 3.05774 4.82343C3.46541 4.40435 3.66924 3.84559 3.66924 3.21699C3.66924 2.65823 3.46541 2.09947 3.05774 1.6804C2.65008 1.33117 2.03858 1.12163 1.49502 1.19148H1.1553V5.31234H1.49502Z" fill="black"/>
<path fill-rule="evenodd" clip-rule="evenodd" d="M19.4319 0C17.7333 0 16.3065 1.3969 16.3065 3.21288C16.3065 4.959 17.6654 6.42575 19.4319 6.4956C21.1985 6.56544 22.5573 5.09869 22.6253 3.28272C22.5573 1.46675 21.1985 0 19.4319 0V0Z" fill="#FD6020"/>
</svg>
