<svg width="33" height="14" viewBox="0 0 33 14" fill="none" xmlns="http://www.w3.org/2000/svg">
<path fill-rule="evenodd" clip-rule="evenodd" d="M5.9796 1.80494C5.59611 2.27782 4.98251 2.65079 4.36892 2.59751C4.29222 1.95812 4.59262 1.27877 4.94416 0.859176C5.32766 0.372976 5.99878 0.0266411 6.54206 0C6.60598 0.666028 6.35671 1.31874 5.9796 1.80494ZM6.53486 2.72403C5.9943 2.69161 5.50105 2.89344 5.10265 3.05645C4.84627 3.16136 4.62916 3.25019 4.46398 3.25019C4.27862 3.25019 4.05255 3.15661 3.79872 3.05153C3.46613 2.91385 3.08587 2.75644 2.68712 2.76399C1.77312 2.77732 0.923034 3.3168 0.456447 4.17597C-0.502294 5.89432 0.207174 8.43855 1.13396 9.8372C1.58776 10.5299 2.13105 11.2891 2.84691 11.2625C3.16184 11.2501 3.38839 11.1499 3.62284 11.0463C3.89276 10.9269 4.17316 10.8029 4.61099 10.8029C5.03364 10.8029 5.30178 10.9237 5.55917 11.0396C5.80391 11.1498 6.03895 11.2557 6.38786 11.2492C7.12928 11.2359 7.59587 10.5565 8.04967 9.86385C8.5394 9.12043 8.75461 8.39488 8.78727 8.28478L8.7911 8.27204C8.79032 8.27122 8.78427 8.26834 8.77359 8.26325C8.60989 8.18515 7.3586 7.58824 7.3466 5.98757C7.33455 4.64404 8.33909 3.96332 8.49721 3.85617C8.50684 3.84965 8.51333 3.84525 8.51626 3.84296C7.8771 2.85724 6.88001 2.75067 6.53486 2.72403ZM11.6664 11.1759V0.79255H15.4055C17.3357 0.79255 18.6844 2.17789 18.6844 4.20261C18.6844 6.22733 17.3102 7.62599 15.3543 7.62599H13.2132V11.1759H11.6664ZM13.2149 2.15128H14.9982C16.3404 2.15128 17.1074 2.89723 17.1074 4.2093C17.1074 5.52137 16.3404 6.27399 14.9918 6.27399H13.2149V2.15128ZM23.7912 9.93046C23.3821 10.743 22.4809 11.2559 21.5094 11.2559C20.0713 11.2559 19.0678 10.3634 19.0678 9.01801C19.0678 7.68595 20.0393 6.92002 21.8353 6.8068L23.7656 6.68691V6.11413C23.7656 5.26827 23.2351 4.80871 22.2892 4.80871C21.5094 4.80871 20.9405 5.22831 20.8255 5.8677H19.4321C19.4768 4.52232 20.6913 3.54326 22.3339 3.54326C24.1044 3.54326 25.2549 4.509 25.2549 6.00756V11.1759H23.8231V9.93046H23.7912ZM21.9256 10.0237C21.101 10.0237 20.5769 9.61077 20.5769 8.97804C20.5769 8.32534 21.0819 7.9457 22.047 7.88576L23.7663 7.77253V8.35864C23.7663 9.33104 22.9738 10.0237 21.9256 10.0237ZM30.0058 11.5822C29.3858 13.4005 28.6763 13.9999 27.1679 13.9999C27.0529 13.9999 26.6694 13.9866 26.5799 13.9599V12.7145C26.6758 12.7278 26.9123 12.7411 27.0337 12.7411C27.7176 12.7411 28.1011 12.4414 28.3376 11.6621L28.4782 11.2026L25.8576 3.64316H27.4747L29.2963 9.77727H29.3283L31.1499 3.64316H32.7222L30.0058 11.5822Z" fill="white"/>
</svg>
