<svg width="108" height="41" viewBox="0 0 108 41" fill="none" xmlns="http://www.w3.org/2000/svg">
<path d="M101.64 39.6877C100.552 40.1622 99.4488 40.5295 98.33 40.805H104.368C106.361 38.8153 107.265 36.2133 107.173 32.892C107.112 30.9022 107.541 28.8972 107.863 26.9228C108.43 23.3871 107.265 20.5403 103.985 19.1321C102.223 18.3669 100.092 18.1373 98.1308 18.1526C96.0005 18.1679 93.8702 18.7036 91.7399 19.0709C90.0234 19.3617 88.6594 19.0709 87.2801 17.77C83.6632 14.3874 79.3107 12.4742 74.2992 12.1987C72.782 12.1221 71.2647 11.9232 69.7628 11.7242C61.1038 10.5916 52.3681 10.7599 43.6631 9.61199C28.7818 7.65286 14.2836 4.39274 0 0V4.83661C1.16476 5.18864 2.34484 5.54068 3.5096 5.89271C16.1074 9.71914 29.0729 11.8007 42.1918 13.4537C51.3872 14.6017 60.644 14.2037 69.7781 15.5659C71.7858 15.8567 73.8088 16.0098 75.8011 16.3312C80.2303 17.02 80.6441 17.2495 86.2533 21.7953C83.7705 24.4279 84.7514 27.0605 86.0541 29.6166C86.9736 31.4226 87.2188 33.1675 86.5138 35.0807C86.2993 35.6623 86.1154 36.3205 86.1613 36.9327C86.284 38.4327 86.1 39.7031 85.6863 40.8204H90.2533C89.9775 40.7591 89.7016 40.7132 89.4257 40.6367C89.7323 38.5245 89.9621 36.9327 90.1614 35.5552C93.3031 35.4481 96.1691 35.3562 99.0197 35.2797C99.0503 35.0042 99.081 34.7134 99.1116 34.4379C98.4066 34.2695 97.7016 34.0093 96.9813 33.9481C91.2955 33.4889 91.2955 33.5042 89.4564 27.535C94.8357 27.5503 99.8472 26.2952 104.552 23.6014C104.736 24.1677 104.997 24.5657 104.905 24.8412C103.633 28.4687 103.265 32.1573 103.633 35.9838C103.801 37.4837 103.296 38.9683 101.64 39.6877ZM88.5215 24.3055C88.4449 24.03 88.3683 23.7698 88.2916 23.4943C88.828 23.1269 89.3951 22.4076 89.9162 22.4382C94.1461 22.6678 98.3607 20.1117 102.606 22.2545C98.0388 24.4892 93.3185 24.8259 88.5215 24.3055Z" fill="#E6E6E6"/>
<path d="M40.4598 25.3619C26.9732 26.9537 13.5171 28.4996 0.0151625 26.5098V28.6067C4.47496 29.2343 8.98073 29.5557 13.5018 29.2802C23.0957 28.6833 32.6743 27.6884 42.2682 26.9231C50.5901 26.2496 58.9273 25.6221 67.2645 25.0405C68.9504 24.918 70.6515 25.1017 72.3374 25.1476C72.3527 24.8874 72.3833 24.6119 72.3987 24.3517C69.824 24.0915 67.2339 23.4946 64.6898 23.617C56.5978 24.0303 48.4905 24.4129 40.4598 25.3619Z" fill="#E6E6E6"/>
</svg>
