<svg width="166" height="158" viewBox="0 0 166 158" fill="none" xmlns="http://www.w3.org/2000/svg">
<path d="M103.224 117.572C106.217 121.158 109.379 124.607 112.725 127.872C116.439 131.505 120.691 134.586 124.236 138.357C130.176 144.672 136.699 150.191 143.775 155.203C147.75 158.024 151.495 158.591 156.238 157.441C162.715 155.878 168.624 147.462 164.434 139.798C162.761 136.748 160.643 134.418 157.65 132.9C154.949 131.521 152.094 130.448 149.331 129.16C147.505 128.302 145.479 127.612 143.99 126.324C137.497 120.668 131.02 114.981 124.85 108.987C120.599 104.849 116.823 100.204 112.894 95.7436C111.267 93.8888 109.778 91.8961 108.473 90.2713C111.113 87.4968 113.323 85.1055 115.641 82.8063C116.516 81.9479 117.544 81.0741 118.68 80.6603C122.686 79.1734 125.249 76.3683 126.538 72.4442C128.073 67.7536 129.347 63.0018 130.729 58.2652C131.297 56.3185 131.557 54.2491 132.402 52.4403C133.491 50.0491 135.349 47.9644 136.254 45.5272C137.16 43.1053 137.313 40.3921 137.804 37.6942C144.097 36.5753 145.939 31.9307 142.608 27.0562C140.613 24.1438 137.989 22.1817 134.811 20.6182C131.204 18.8401 127.536 16.924 124.405 14.4408C117.652 9.06047 110.284 5.4429 101.582 5.121C91.7891 4.75312 82.1655 3.09765 72.6801 0.875001C64.223 -1.10239 56.4719 0.323144 49.3041 4.63048C41.3842 9.38234 33.6945 14.5481 26.0969 19.8058C23.549 21.5686 21.2774 23.9599 19.4356 26.4584C15.3068 32.0687 11.5157 37.9242 7.61716 43.7031C6.34322 45.5885 5.09997 47.5199 4.01022 49.5126C0.480028 55.9506 -1.14693 62.6798 0.894443 69.9916C1.24746 71.2792 1.17072 72.7507 1.07863 74.115C0.387942 84.0019 3.50372 92.5246 10.0729 99.8977C11.7459 101.783 13.3422 103.791 14.6161 105.952C16.4119 108.987 18.6221 111.547 21.7226 113.172C27.4476 116.161 33.2801 118.92 39.0205 121.864C47.539 126.232 55.9347 125.144 64.2997 121.48C68.3671 119.702 72.327 117.694 76.4251 116.023C80.5079 114.368 83.9613 111.931 86.8929 108.666C88.4892 106.887 90.1929 105.217 92.004 103.347C95.8719 108.252 99.4174 113.019 103.224 117.572ZM133.998 42.2622C133.537 43.6877 133.184 45.2819 132.31 46.4162C129.746 49.7425 128.733 53.6053 127.736 57.5601C126.6 62.0973 125.234 66.5733 123.837 71.0339C122.809 74.3296 120.767 76.6595 117.36 77.9778C115.595 78.6675 114.075 80.2617 112.725 81.7026C110.914 83.634 109.363 85.7954 106.57 86.9603C105.649 85.5808 104.759 84.2318 103.868 82.8982C106.079 79.158 108.826 76.3683 112.494 74.3449C115.012 72.95 117.375 71.1872 119.57 69.3018C121.734 67.447 122.609 64.8412 122.962 62.1127C122.609 61.8981 122.256 61.6988 121.903 61.4842C121.826 61.99 121.872 62.5265 121.673 62.9711C120.077 66.6653 117.222 69.1178 113.646 70.6967C109.026 72.7354 104.897 75.3106 101.981 80.5529C99.3406 75.5098 94.1528 72.4901 95.3193 66.0061C98.696 65.0711 101.182 62.9404 102.579 59.6141C103.608 57.1769 103.669 56.4871 102.84 53.1915C101.014 54.1572 101.014 56.1192 100.154 57.5294C99.2946 58.955 98.389 60.3652 97.0537 61.6068C98.343 57.6061 99.6937 53.7279 98.2969 49.2367C96.3937 50.8155 97.33 52.9002 96.7007 54.5097C95.9486 56.3645 95.2272 58.2499 94.3677 60.0586C93.5696 61.7448 92.6026 63.3696 91.5896 65.2397C84.9129 60.0433 77.3921 56.8397 67.7685 57.79C69.9787 59.8287 72.1582 59.001 73.9233 59.6448C75.673 60.2733 77.4842 60.6718 79.2186 61.7448C76.5019 62.0207 73.7852 62.2966 71.0684 62.5726C71.0531 62.8638 71.0531 63.1397 71.0378 63.4309C71.6824 63.5996 72.2963 63.8601 72.9563 63.9368C74.5986 64.1054 76.2409 64.1361 77.8832 64.3353C84.6827 65.1477 90.1315 68.1062 93.7384 74.161C95.7491 77.5332 98.2048 80.6449 100.077 84.0786C106.109 95.1305 115.073 103.837 123.361 113.019C128.764 118.997 135.256 124.009 141.457 129.237C143.345 130.831 145.862 131.689 148.103 132.839C151.587 134.617 155.133 136.288 158.602 138.112C164.787 141.361 162.945 150.589 157.282 153.272C153.414 155.111 149.7 155.418 145.847 152.643C139.662 148.183 133.798 143.431 128.626 137.775C125.218 134.05 121.366 130.708 117.529 127.412C113.185 123.688 109.148 119.733 105.741 115.104C98.0053 104.604 90.0394 94.2567 82.2116 83.8179C80.692 81.7946 79.2953 79.6793 77.96 77.5179C75.6423 73.7624 72.3884 70.9879 68.7969 68.5507C68.3211 68.2288 67.6917 68.1368 66.8322 67.8302C66.8476 71.2638 69.8406 72.2908 71.2373 74.7128C63.2713 78.8362 56.3798 75.004 48.6287 71.5091C49.4576 72.7201 49.6878 73.4252 50.1789 73.7318C56.5179 77.7632 63.1332 80.1391 70.6387 77.0274C71.928 76.4909 71.9433 76.5215 73.7852 77.196C71.974 80.5683 68.0141 79.8785 65.3895 81.5953C67.7685 84.7837 69.0885 84.707 75.9493 81.0435C79.28 85.5807 82.6413 90.1333 85.9413 94.6246C83.3934 98.4261 80.2316 100.771 75.9493 101.952C73.4628 102.641 71.2526 104.328 68.981 105.677C68.0141 106.244 67.2313 107.148 66.3104 107.807C62.2583 110.643 58.0528 111.455 53.525 108.88C49.5343 106.596 45.2674 105.079 40.7702 104.052C37.1786 103.239 35.2908 101.783 33.3568 98.9626C39.5116 95.2684 44.6995 90.6392 47.5236 83.7873C42.3972 88.4779 38.5907 94.9772 30.5327 95.9429C28.9825 90.9764 25.8667 87.7421 21.9835 85.5194C24.8844 80.8902 27.6471 76.5522 30.3485 72.1529C33.9401 66.3127 38.8823 62.128 45.4209 60.0127C51.8519 57.9433 57.8686 54.9849 63.7164 51.6739C65.0364 50.9228 66.3718 50.1717 67.5383 49.206C70.9457 46.4315 71.6517 42.0629 69.3955 38.2767C68.5206 36.8052 67.5536 35.395 66.6173 33.9694C66.8015 33.7701 67.0011 33.5555 67.1852 33.3563C68.6434 33.9694 70.2089 34.4139 71.5596 35.211C76.0721 37.8629 80.6767 38.9512 85.6804 36.6212C87.998 35.5329 90.1468 36.422 91.5282 38.0621C96.1174 43.4884 101.95 43.1819 107.921 41.879C111.65 41.0665 115.134 39.3037 117.851 36.5293C120.307 34.0154 123.423 33.0957 126.646 32.3906C129.271 31.8234 131.665 32.2373 133.599 34.368C134.274 35.1191 135.118 35.7015 135.763 36.238C135.118 38.2614 134.627 40.2848 133.998 42.2622ZM53.2026 119.181C50.7622 121.051 48.0148 121.68 44.9757 120.438C37.24 117.25 29.3201 114.414 22.4439 109.509C20.5407 108.144 19.0519 106.182 17.5017 104.374C16.2738 102.933 15.4296 101.139 14.0943 99.8363C9.62782 95.483 6.61949 90.256 4.53208 84.4924C3.70325 82.1931 3.53441 79.6486 2.93582 76.5062C4.17906 77.4413 4.88509 77.9471 5.65252 78.5143C5.85205 78.177 6.11298 77.9011 6.05159 77.7938C4.63951 75.188 4.2865 72.3522 3.7186 69.4857C2.30652 62.4039 4.13301 56.1192 7.92412 50.3403C12.7129 43.0286 17.7012 35.8395 22.7816 28.727C24.2244 26.7036 26.0509 24.7723 28.0922 23.3774C35.8126 18.0583 43.4869 12.6473 51.545 7.89547C59.3421 3.2969 68.0755 1.88668 76.8702 4.46188C84.8822 6.80716 93.0324 7.49695 101.244 8.06411C109.148 8.61594 115.856 11.6357 122.057 16.4335C125.525 19.116 129.47 21.262 133.384 23.2854C136.039 24.665 138.418 26.1518 140.076 28.6964C141.642 31.0876 141.672 31.1183 139.754 34.0307C137.804 34.092 136.469 32.8811 135.21 31.6241C133.184 29.6008 130.775 28.7884 127.951 29.003C123.3 29.3555 119.11 30.6431 115.487 33.8927C110.99 37.9242 105.634 40.0855 99.4327 39.2731C97.683 39.0432 95.8872 38.7672 94.6747 36.8818C96.2556 33.9234 96.67 30.7964 94.1682 27.1635C93.5542 29.8154 93.0477 32.0073 92.5412 34.1993C90.1622 34.2147 89.5789 33.3256 89.8245 31.3789C90.4384 26.3818 88.2436 22.1664 86.2943 17.905C85.9873 17.9663 85.6804 18.0277 85.3734 18.089C85.5269 18.8554 85.665 19.6065 85.8185 20.373C86.1715 22.1051 86.5706 23.8372 86.8622 25.5847C88.1208 33.249 84.4064 35.2723 77.0391 34.5672C75.7191 34.4446 74.4145 33.6628 73.1712 33.0497C70.8996 31.9 68.7048 30.7504 66.0187 30.7351C65.0364 30.7351 63.916 29.938 63.1332 29.2175C61.7518 27.9606 60.57 26.489 58.7742 25.4314C59.6337 27.0409 60.5393 28.6351 61.3374 30.2752C62.2276 32.0687 63.0258 33.9081 63.8392 35.7322C64.4532 37.1118 64.975 38.5373 65.635 39.9016C67.1085 42.952 66.7555 45.0367 63.7932 46.6308C58.5593 49.4513 53.1873 52.0111 47.8153 54.5557C46.1115 55.3681 44.2237 55.782 42.4586 56.4871C38.6521 58.02 34.861 58.0046 31.6378 55.4141C28.7215 53.0535 26.189 50.2024 23.5337 47.5199C23.0425 47.014 22.7202 46.3242 22.3365 45.7264C22.7356 52.6549 25.6518 56.2725 34.3084 61.1317C30.2257 64.274 27.4322 68.2901 25.2834 72.7661C24.3472 74.7128 23.3956 76.6442 22.5053 78.5909C20.863 82.1931 18.1463 83.7106 14.2171 82.9902C12.6515 82.6989 11.0706 82.469 8.92179 82.1165C11.8534 86.0713 15.5217 86.2552 18.9751 85.9793C20.5407 87.5581 21.9988 88.7997 23.1346 90.2713C24.5007 92.0341 25.6058 93.9961 26.7876 95.9122C29.9341 100.986 33.0806 106.136 39.4502 107.639C43.932 108.696 48.1529 110.321 52.2203 112.436C53.8626 113.295 55.7198 113.739 58.0221 114.552C56.257 116.253 54.8756 117.909 53.2026 119.181ZM84.0074 107.424C81.5976 109.877 78.7735 111.701 75.5349 113.004C71.0838 114.797 66.7248 116.82 62.3044 118.66C60.6314 119.35 58.8663 119.84 56.7021 120.561C57.8379 118.323 58.5747 116.606 59.5416 115.027C59.956 114.368 60.8002 113.816 61.5523 113.586C65.3741 112.421 68.6127 110.428 71.5903 107.731C73.3094 106.167 75.5656 104.91 77.7912 104.22C81.2139 103.178 83.992 101.492 86.1562 98.702C86.5245 98.2268 87.0771 97.9049 87.7831 97.3224C88.704 98.5334 89.5022 99.5911 90.3617 100.725C88.1669 103.071 86.1255 105.293 84.0074 107.424Z" fill="#E6E6E6"/>
<path d="M121.811 126.937C123.438 128.317 125.111 129.697 126.477 131.321C129.086 134.418 131.619 137.575 133.937 140.902C137.175 145.546 142.102 147.094 147.121 148.52C147.766 148.704 148.533 148.52 149.531 148.505C148.441 145.684 146.4 144.32 144.143 143.569C140.629 142.389 137.958 140.181 135.502 137.575C133.154 135.077 130.759 132.624 128.518 130.049C125.157 126.186 120.645 123.994 116.362 121.45C117.529 123.964 119.846 125.267 121.811 126.937Z" fill="#E6E6E6"/>
<path d="M124.589 53.6664C125.878 49.5277 126.922 46.1401 128.042 42.5532C124.205 44.3926 122.686 48.8379 124.589 53.6664Z" fill="#E6E6E6"/>
</svg>
