<svg width="104" height="235" viewBox="0 0 104 235" fill="none" xmlns="http://www.w3.org/2000/svg">
<path d="M35.2266 232.843C41.5867 230.679 47.7625 227.994 54.0305 225.57C60.8822 222.916 67.6111 220.032 75.0313 218.958C84.5715 217.592 91.5 211.977 96.4161 203.937C101.993 194.808 103.775 184.728 103.99 174.111C104.22 162.973 100.503 152.939 96.708 142.843C95.9552 140.849 94.634 139.069 93.5893 137.197C89.0113 129.004 84.1874 120.949 79.9319 112.588C75.0773 103.06 73.2338 92.6729 72.7422 82.0712C72.2506 71.4388 72.2813 60.7757 71.59 50.1433C71.1445 43.1777 69.7772 36.2276 66.4742 29.9678C62.142 21.8055 55.6282 16.4049 45.9805 15.6378C43.5071 15.4383 40.8954 12.7227 40.5421 9.73091C40.3731 8.24268 40.5267 6.69307 40.665 5.1895C40.8493 3.10291 40.327 1.32318 38.3759 0.387285C36.3481 -0.59464 34.5814 0.433314 33.2755 1.87552C32.3845 2.85744 31.8161 4.20757 31.3398 5.48101C30.7407 7.13801 30.4334 8.90241 29.8957 10.5901C29.4195 12.0476 28.4056 12.5693 26.9154 11.9096C16.2844 7.27609 7.97322 11.4186 0.599144 18.9211C0.399429 19.1359 0.215077 19.3507 0.0153627 19.5655V27.8352C1.41337 24.874 3.28761 22.1277 5.68419 19.6422C12.4591 12.6306 21.139 11.4339 29.5424 16.2515C31.0787 17.1414 32.5996 18.1233 34.2587 18.737C35.6107 19.2433 37.1469 19.3661 38.6064 19.4428C42.232 19.6576 46.0419 18.3074 49.4678 20.0411C52.2638 21.4526 54.7218 23.5239 57.3796 25.2116C60.0834 26.9299 61.6504 29.4768 62.9101 32.2998C65.5218 38.1607 66.9505 44.3744 67.3499 50.7109C67.9644 60.699 68.1027 70.7177 68.4253 80.721C68.8401 93.0258 71.1445 104.916 76.7672 115.963C79.9934 122.284 83.3425 128.559 87.0602 134.604C90.7473 140.572 93.6662 146.802 96.0627 153.399C100.503 165.658 100.672 177.947 97.6451 190.436C95.2178 200.455 88.9806 206.837 78.918 209.369C74.4936 210.489 70.0537 211.593 65.5678 212.514C56.212 214.432 47.0712 216.871 38.422 221.136C35.1805 222.732 31.4935 223.622 27.8986 224.297C23.4742 225.141 19.0958 224.65 14.9786 222.379C12.2133 220.845 9.24832 219.663 5.69955 217.991C3.73313 216.948 1.82816 215.797 0 214.508V219.648C0.737408 220.108 1.45945 220.553 2.21222 220.983C5.5152 222.855 9.14078 224.143 12.4745 225.985C17.3598 228.685 22.5524 229.237 27.96 228.654C32.6917 228.148 37.1316 226.644 41.3717 224.573C47.6857 221.489 54.2148 219.111 61.1588 217.914C61.9115 217.792 62.6797 217.792 63.4478 217.73C53.1702 222.088 43.3227 227.243 32.4306 229.467C28.4824 230.265 24.3037 231.109 20.3863 230.633C13.0736 229.697 6.20652 227.58 0.0614507 223.668V228.562C5.45375 231.063 10.8768 233.38 16.8375 234.438C23.1976 235.558 29.2966 234.868 35.2266 232.843ZM32.0312 13.9655C32.83 11.4646 33.5367 9.20926 34.2434 6.96924C34.6274 5.77252 34.9347 4.56045 35.3956 3.39442C35.8257 2.30509 36.5785 1.78345 38.084 2.84208C36.9933 7.01527 36.0562 11.4646 39.2055 15.469C36.302 16.3129 36.302 16.3129 32.0312 13.9655ZM81.9291 213.097C81.9905 213.327 82.052 213.557 82.1134 213.787C78.8719 214.677 75.6458 215.567 72.4042 216.457C72.3274 216.165 72.2506 215.889 72.1738 215.598C75.4307 214.754 78.6876 213.925 81.9291 213.097Z" fill="#E6E6E6"/>
<path d="M8.72583 203.769C10.385 205.088 12.3207 206.162 15.1781 204.689C13.9952 203.876 13.1503 203.262 12.2592 202.695C6.88231 199.196 2.61149 194.839 1.33639 188.273C0.998409 186.554 0.921595 184.744 1.01377 182.995C1.18276 179.849 1.01377 176.796 0.0612864 173.82V193.351C1.90481 197.355 4.93125 200.761 8.72583 203.769Z" fill="#E6E6E6"/>
<path d="M30.126 94.1456C29.8188 95.2963 29.5115 96.447 29.1889 97.5977C27.6219 103.336 26.2854 109.12 23.305 114.398C21.1849 118.141 18.2353 120.995 15.1935 123.88C11.9827 126.933 8.86409 130.093 5.80692 133.285C3.10309 136.108 1.75118 139.636 0.737243 143.38C0.522166 144.178 0.276364 144.976 0.0612864 145.773V168.051C2.41177 171.365 6.022 172.316 9.69368 173.145C13.5651 174.019 15.9463 171.718 15.1474 167.836C14.9016 166.624 14.3793 165.473 13.9952 164.323C18.5887 161.454 19.3261 157.741 16.0692 154.427C13.3961 151.711 6.88231 151.558 4.13239 154.181C3.10309 155.178 2.79584 156.329 3.73296 157.572C4.34747 158.37 5.03879 159.106 5.80692 160.011C3.99413 160.38 2.30423 160.732 0.153462 161.162C1.61292 156.437 3.02628 151.91 4.57791 146.893C6.45215 147.921 8.03451 148.949 9.73976 149.701C11.5833 150.499 13.519 151.312 15.4854 151.619C18.435 152.079 21.4615 152.156 22.4447 148.136C23.2896 148.658 23.7966 148.965 24.5494 149.425C21.5076 152.586 21.0928 156.176 21.8916 160.134C22.1528 161.423 21.7841 162.896 21.4461 164.215C20.4475 168.25 19.3261 172.255 18.1431 176.735C17.375 176.581 16.2074 176.228 15.0245 176.152C12.6433 175.983 10.2314 175.691 7.88088 175.937C6.11418 176.121 4.53182 177.256 4.13239 179.266C3.76369 181.092 4.76226 182.411 6.09881 183.516C6.75941 184.053 7.42 184.59 8.29567 185.311C7.40464 186.17 6.65187 186.83 5.96055 187.536C4.77762 188.748 3.70224 190.083 4.43964 191.909C5.20778 193.796 6.62114 195.161 8.6951 195.253C10.4464 195.345 12.2132 194.962 13.9645 194.778C14.6865 194.701 15.4086 194.563 16.4532 194.409C16.0845 195.437 15.7927 196.112 15.5929 196.803C14.6405 200.27 16.315 202.495 19.9406 202.587C22.3218 202.648 24.4572 201.927 26.2393 200.332C27.0842 199.58 27.8677 198.767 28.7434 197.923C29.3425 200.439 29.4501 200.592 26.0242 202.955C24.3189 204.121 22.1374 204.597 19.9252 205.471C24.3343 207.466 29.8956 206.192 32.0463 202.74C32.6762 201.728 32.9835 200.362 32.9835 199.166C32.9835 194.762 31.2629 191.049 28.0674 188.012C25.0563 185.173 22.8288 181.859 21.8148 177.763C21.0467 174.679 21.0928 171.748 22.7366 168.925C24.8566 165.274 25.5633 161.454 24.6569 157.219C23.9195 153.798 24.6569 150.76 28.2671 148.934C30.2643 147.921 30.7405 145.942 29.8802 143.273C29.4808 142.03 29.2196 141.063 29.8341 139.728C30.2182 138.869 29.8495 137.504 29.4654 136.491C27.6373 131.52 25.21 128.528 20.0327 124.769C27.7141 116.07 31.355 105.898 30.126 94.1456ZM5.29995 155.807C8.75655 154.227 11.6294 155.363 14.3332 156.651C14.9323 156.927 15.2242 158.677 14.9784 159.566C14.8248 160.149 13.3807 160.871 12.6587 160.748C9.7244 160.226 7.15884 158.968 5.29995 155.807ZM8.4493 163.724C11.107 165.044 12.7816 167.069 12.3975 170.582C6.49824 170.49 2.33496 168.634 1.2903 164.307C3.45643 161.745 5.99127 162.512 8.4493 163.724ZM6.89767 179.512C9.40178 177.962 13.4883 177.609 16.653 178.837C17.9741 179.343 19.6794 179.711 19.5565 182.013C13.181 184.222 8.3264 183.209 6.89767 179.512ZM17.1138 190.466C14.6712 192.369 11.7676 193.335 8.66438 193.09C7.89624 193.029 6.79013 191.97 6.63651 191.203C6.49824 190.497 7.25101 189.101 7.92697 188.855C10.2775 188.012 12.7662 187.49 15.2089 186.922C15.7773 186.799 16.4379 187.03 16.7759 187.06C18.1278 187.904 18.3275 189.53 17.1138 190.466ZM27.8216 193.167C28.4515 194.363 28.3439 195.315 27.2225 196.128C25.9013 197.079 24.6415 198.168 23.2128 198.966C21.7687 199.764 20.171 200.224 18.4043 198.843C19.4336 195.069 21.6305 192.937 24.9488 192.169C26.1778 191.863 27.1457 191.893 27.8216 193.167ZM24.2421 188.963C23.1667 189.377 22.3832 189.669 22.1374 189.761C21.6458 188.134 21.1849 186.615 20.6165 184.774C22.5829 185.419 22.967 187.367 24.2421 188.963ZM14.9784 130.323C15.3779 132.073 15.7466 133.729 16.0845 135.279C15.1628 136.691 14.241 138.102 13.3807 139.422C11.276 139.514 9.29425 139.59 6.9284 139.682C8.83337 135.724 11.3682 132.778 14.9784 130.323ZM18.9266 147.615C18.6501 148.136 17.4518 148.52 16.7605 148.397C13.3961 147.799 10.2314 146.663 7.18956 144.132C11.3836 142.367 15.8848 142.981 18.2507 145.451C18.7269 145.973 19.1878 147.139 18.9266 147.615ZM26.5312 146.188C21.6305 144.791 18.3121 142.137 17.6208 139.053C23.3972 139.145 27.1917 142.183 26.5312 146.188ZM27.2993 139.099C22.629 136.951 18.3275 135.049 18.6501 128.36C23.3972 130.906 25.5633 134.573 27.2993 139.099Z" fill="#E6E6E6"/>
<path d="M29.3581 149.502C28.7897 152.601 27.8065 155.747 27.9908 158.83C28.3134 164.231 28.6053 169.57 28.59 175.002C28.5592 182.397 32.1541 188.656 38.7754 192.63C42.5546 194.901 45.0895 193.827 45.9805 189.47C46.6104 186.386 46.9176 183.195 46.9791 180.049C47.0405 176.137 46.7026 172.209 46.5489 168.297C46.3953 164.431 45.4582 160.779 43.3996 157.465C41.6482 154.657 41.0645 151.911 42.0784 148.49C43.0309 145.283 42.8619 141.77 43.2152 138.103C45.2277 140.281 47.0098 142.245 49.007 144.408C48.3003 145.038 47.5475 145.605 46.9023 146.28C44.8283 148.474 45.197 151.175 47.9162 152.586C51.0502 154.197 54.261 154.059 57.4257 152.494C59.4536 151.481 61.5122 150.515 63.7244 149.441C64.5847 151.359 65.4911 153.031 66.0595 154.811C66.3207 155.639 66.2899 156.959 65.783 157.572C64.8612 158.723 63.709 157.833 62.7719 157.204C62.2496 156.851 61.8809 156.238 61.3278 155.992C60.2831 155.532 59.1617 155.271 57.8712 155.486C58.962 156.744 60.0373 158.017 61.1281 159.275C62.8487 161.27 64.7844 161.746 66.8584 160.687C68.9016 159.644 70.0999 157.127 69.2857 154.887C68.7326 153.369 67.6111 152.08 66.8584 150.622C66.3053 149.533 65.614 148.351 65.5525 147.185C65.3528 142.751 63.9548 141.171 59.4689 140.772C59.1002 140.742 58.7315 140.696 58.3167 140.65C56.0891 137.259 52.8937 135.003 49.4678 133.04C46.3031 131.229 45.3814 131.383 42.1706 134.037C41.4792 132.38 40.8801 130.769 40.112 129.219C39.5282 128.053 38.5911 126.841 37.1623 127.501C36.302 127.9 35.6261 129.035 35.2574 129.986C34.904 130.892 35.0269 131.981 35.0423 132.994C35.1191 138.21 33.9362 142.997 30.4949 147.093C29.9265 147.784 29.5117 148.658 29.3581 149.502ZM58.1938 144.807C59.6994 143.396 60.6672 143.856 62.1881 146.05C55.7819 150.269 51.8644 152.08 48.3003 149.103C49.8826 148.198 51.3114 146.756 52.7708 146.71C54.9216 146.633 56.5654 146.326 58.1938 144.807ZM55.2288 143.196C50.9887 142.399 47.3631 139.039 46.5336 135.402C50.4971 135.893 54.3224 139.223 55.2288 143.196ZM35.1806 146.648C36.4403 144.531 36.9473 141.984 37.7922 139.622C37.9919 139.085 38.1916 138.548 38.3914 138.011C39.4821 141.447 39.5436 144.961 38.3914 148.091C36.9012 152.172 37.869 155.547 39.8969 158.907C41.9248 162.252 42.8312 165.873 42.9694 169.754C43.0923 173.038 43.3996 176.321 43.461 179.604C43.5225 183.21 43.3074 186.8 42.0323 190.62C40.8033 189.945 39.943 189.654 39.3285 189.101C34.2281 184.575 31.9237 178.883 32.9069 172.133C33.3524 169.064 33.4292 166.149 32.7225 163.111C31.3553 157.342 32.0773 151.865 35.1806 146.648Z" fill="#E6E6E6"/>
<path d="M65.5523 195.698C69.0396 197.539 72.1429 197.417 74.7238 195.039C77.5966 192.384 79.6399 189.086 79.8703 185.143C80.07 181.767 79.732 178.33 79.4094 174.94C78.9793 170.153 77.9653 165.397 77.8885 160.625C77.7195 150.837 74.478 142.552 67.2575 135.878C64.0928 132.947 60.9435 130.017 57.7327 127.132C54.7523 124.463 52.6016 121.225 50.6505 117.789C49.4061 115.625 47.8391 113.631 46.3182 111.621C45.2121 110.163 43.9678 108.798 42.5544 107.126C41.7248 109.381 42.4469 110.9 43.8449 112.097C46.3643 114.229 47.5165 117.098 48.9145 119.967C50.5122 123.22 52.6016 126.334 54.9521 129.111C58.3011 133.07 62.065 136.675 65.7059 140.388C70.0382 144.807 72.5884 150.054 73.2951 156.191C73.9403 161.73 74.6009 167.253 75.3229 173.267C74.2476 173.252 73.3872 173.237 72.5884 173.237C72.404 172.884 72.1736 172.654 72.2197 172.485C73.3873 167.376 71.1904 164.691 65.921 165.059C64.0468 165.182 62.2186 165.796 60.9128 166.072C58.6084 164.077 56.4269 162.436 54.568 160.472C53.0471 158.861 51.9256 156.851 50.5122 154.856C50.1743 157.526 50.8349 159.152 52.9703 161.561C54.061 162.788 55.2286 163.97 56.1657 165.289C57.5944 167.314 58.3011 169.585 57.9939 172.117C57.4408 176.888 58.5316 181.184 61.6502 184.897C62.6027 186.032 62.9406 187.183 62.6795 188.733C62.0189 192.66 62.7563 194.225 65.5523 195.698ZM74.0632 177.164C76.9053 178.238 77.0128 178.668 76.1833 182.043C72.4501 182.135 68.8245 182.013 66.5816 177.732C69.0857 175.155 71.6359 176.259 74.0632 177.164ZM60.9742 172.792C60.9742 171.334 60.9896 170.138 60.9896 168.649C64.0314 168.388 66.8428 167.069 69.7617 169.647C67.7338 173.728 64.3386 172.7 60.9742 172.792ZM61.9267 177.287C61.7884 177.057 61.9882 176.612 62.0342 176.121C62.8331 176.152 63.5398 176.167 64.2465 176.198C64.3386 181.66 67.1346 183.792 76.214 185.449C76.3522 188.457 74.7392 190.727 72.8035 192.722C71.5591 194.011 69.9614 194.087 68.2408 193.243C66.4587 192.354 66.4126 191.065 66.8735 189.439C67.6109 186.784 66.9042 184.514 65.1836 182.381C63.9392 180.816 62.956 179.021 61.9267 177.287Z" fill="#E6E6E6"/>
<path d="M53.7696 196.511C48.5309 197.002 44.1986 199.441 40.9417 203.645C40.7574 203.875 40.8188 204.29 40.7113 204.919C44.1525 203.492 47.6091 202.571 50.482 200.73C53.8771 198.567 57.0418 201.129 61.1283 200.577C58.8392 197.83 56.627 196.25 53.7696 196.511Z" fill="#E6E6E6"/>
</svg>
