<svg width="95" height="85" viewBox="0 0 95 85" fill="none" xmlns="http://www.w3.org/2000/svg">
<path d="M47.3252 82.0327C53.2843 79.4725 59.3406 77.0358 64.2492 72.5863C64.461 72.3921 64.7171 72.2244 64.8936 71.9948C67.2067 69.0373 70.4643 67.1569 73.1746 64.6673C77.9067 60.3414 81.5704 55.3798 82.259 48.7144C82.365 47.6374 82.6651 46.5603 83.0094 45.5362C84.0424 42.5081 84.0335 39.5682 82.6475 36.6107C82.1001 35.4365 81.7999 34.1299 81.5086 32.8586C81.2173 31.5785 81.694 30.4485 82.4003 29.3626C84.5809 26.0343 87.2736 23.2092 90.3017 20.649C91.2905 19.8103 92.138 18.795 93.0032 17.8239C95.0425 15.5462 94.9807 12.8712 94.2038 10.1962C93.7006 8.45703 92.8972 6.79728 92.1733 5.12872C91.6877 3.98986 91.0786 2.90399 90.5754 1.77395C89.6837 -0.212435 88.7744 -0.565565 87.0882 0.891113C85.1106 2.59499 83.2125 4.44012 81.5351 6.43533C79.1956 9.21627 77.324 12.4033 74.1105 14.6899C71.5591 13.4009 69.246 11.6441 66.2267 11.6088C63.3398 11.5734 60.8238 12.6417 58.3606 14.0013C57.9016 13.7717 57.3807 13.6305 57.0275 13.3038C55.1383 11.547 52.8605 11.0702 50.3709 10.9996C46.5659 10.8937 42.7962 10.9113 39.1148 12.1561C37.4903 12.7035 35.963 13.3568 34.833 14.6634C34.3033 15.2725 33.7471 15.5197 32.9526 15.5374C29.9597 15.6168 27.4525 16.8793 25.2807 18.8392C24.0889 19.9163 22.9853 21.0816 21.8553 22.2116C18.5094 25.5664 15.0928 28.8506 11.8704 32.3201C10.4579 33.8474 9.40729 35.719 8.30375 37.5112C7.54451 38.7472 7.27082 40.1067 8.34788 41.2898C7.36793 42.5787 6.21141 43.6028 5.67288 44.8829C4.35746 48.0346 3.2539 51.2923 3.57173 54.8325C3.61587 55.3445 3.40401 55.9802 3.09501 56.4128C1.18808 59.1319 0.44649 62.2395 0.0756982 65.4442C-0.295093 68.6489 0.6672 70.2027 3.60705 71.4298C3.8719 71.5358 4.12793 71.6505 4.35747 71.7476C4.75474 76.2413 5.31093 76.7622 10.3166 77.3095C10.1577 79.6402 11.6585 80.991 13.3977 82.1563C16.1963 84.0367 19.1273 85.3963 22.641 84.3899C23.0913 84.2574 23.6386 84.3987 24.1242 84.487C29.5889 85.4758 34.8595 85.2286 39.6533 82.015C39.8299 81.8914 40.0241 81.7767 40.2183 81.6884C40.748 81.45 41.2954 81.2205 41.9045 80.9645C43.4672 83.0215 45.4889 82.8273 47.3252 82.0327ZM55.359 76.2236C53.1431 77.3272 50.936 78.4395 48.6759 79.4372C47.4929 79.958 46.2216 80.2935 44.968 80.6202C44.659 80.6996 44.2529 80.4259 43.423 80.1787C46.1157 78.2188 48.411 76.4708 50.777 74.8287C55.3325 71.677 60.5236 69.4876 64.6994 65.559C64.7877 66.8302 64.8671 67.8896 64.9466 69.1256C62.2804 71.986 59.0316 74.3962 55.359 76.2236ZM33.9414 76.3649C34.7006 74.8111 42.7079 66.8567 44.456 65.8503C46.4247 67.1304 48.517 67.0598 50.7153 66.4594C52.322 66.0269 53.9818 65.7797 55.6238 65.4618C57.4866 65.0999 59.3494 64.7556 61.2122 64.4024C61.7331 64.3053 62.2628 64.2347 62.7925 64.1552C61.945 65.2941 60.9915 66.1681 59.9144 66.8744C58.1487 68.0397 56.2683 69.0285 54.5291 70.2203C51.5893 72.2332 48.5258 74.1401 45.8773 76.4973C44.3677 77.8392 42.805 78.8192 41.0129 79.5078C38.9382 80.2935 36.7576 80.523 34.5593 79.9933C33.8972 79.8344 33.0673 79.8079 32.8731 78.6867C36.8282 78.3513 40.2007 76.7004 40.6597 74.8376C38.2408 74.3697 36.4751 77.0888 33.9414 76.3649ZM31.2752 66.9097C29.0769 67.6689 26.9228 68.5694 24.7157 69.3198C23.7622 69.6465 22.7293 69.8672 21.7317 69.8849C20.1426 69.9113 19.4187 68.746 20.2397 67.4129C20.7076 66.6537 21.4845 65.9915 22.2614 65.5501C24.186 64.4642 25.9693 63.2547 27.373 61.5244C27.6379 61.1977 28.0087 60.9682 28.2117 60.7916C33.4381 62.0629 38.4262 61.8334 43.2906 60.2178C43.476 61.3655 43.6349 62.4161 43.7938 63.396C42.0546 64.9763 40.3507 66.5477 38.6115 68.0839C38.02 68.6047 37.4109 69.2316 36.6958 69.4699C33.65 70.4764 30.5159 71.0414 27.2229 70.9266C29.7214 69.3198 32.882 68.8696 34.8507 66.2917C33.5882 66.3094 32.4052 66.5212 31.2752 66.9097ZM15.0751 59.2378C16.0286 57.6487 17.291 56.9601 19.0037 56.7747C21.0254 56.554 23.0383 56.2009 25.0247 55.7506C26.04 55.5211 26.9934 54.9826 27.8409 54.6471C27.479 56.3686 27.1347 58.0195 26.6932 60.1472C24.9099 61.286 22.7116 62.6897 20.5134 64.1199C20.0896 64.3936 19.6217 64.6761 19.3216 65.0646C18.3504 66.3358 16.9467 66.2564 15.7461 65.9386C14.8897 65.709 13.9274 64.888 13.539 64.0846C13.0181 63.0164 13.9539 62.16 14.8456 61.6127C15.8344 61.0035 16.9026 60.5356 17.9532 60.0324C18.6241 59.7057 19.3216 59.4321 20.0013 59.1319C19.9395 58.9377 19.8778 58.7346 19.816 58.5404C18.2975 58.7611 16.7701 58.9906 15.0751 59.2378ZM16.4259 50.1623C19.3745 46.9752 21.0166 43.1261 22.1378 38.9237C25.007 39.3475 27.1965 38.6059 29.1564 37.2464C30.5866 36.2576 31.8843 35.0658 33.2792 34.024C33.7824 33.6532 34.3828 33.2383 34.9655 33.1853C36.1573 33.0705 37.3756 33.1941 38.7263 33.2206C38.4968 35.1893 37.455 37.1228 38.4703 38.9767C37.3403 39.9655 36.2367 40.7336 35.3892 41.7135C34.2592 43.0201 32.8378 44.362 32.3964 45.9246C31.5489 48.9439 29.6596 50.6743 27.0905 52.1222C24.6716 53.4817 22.129 54.2145 19.401 54.3293C18.5094 54.3646 17.6 54.0556 16.6819 53.8967C17.2204 51.8485 17.3528 51.8485 18.8272 50.5242C20.6635 48.8822 22.3762 47.0988 24.1065 45.342C24.4067 45.0418 24.5215 44.5651 24.7245 44.1678C21.5198 45.6421 19.763 48.8822 16.4259 50.1623ZM26.3225 28.418C29.3506 24.4629 32.3434 21.2405 36.9606 20.1723C37.4197 20.0663 37.9759 20.0575 38.3997 20.2253C40.4832 21.0286 42.6196 21.3111 44.8356 21.1699C46.1069 21.0904 47.387 21.1346 48.6582 21.1169C48.3757 21.5672 48.0579 21.6996 47.7666 21.8762C44.403 23.8714 41.4366 26.2727 39.6092 29.8305C38.9823 31.0488 38.0465 31.4196 36.2367 31.1371C36.6516 29.9806 38.3202 29.6804 38.435 27.9412C37.7552 28.3562 37.3138 28.5769 36.9342 28.8771C34.6653 30.7045 32.4758 32.6379 30.1363 34.3506C28.6885 35.4101 27.0375 36.2399 25.3955 36.9903C24.4861 37.4053 23.3296 37.626 22.588 36.6107C21.9259 35.7014 22.3673 34.7214 22.95 33.9799C23.9829 32.6733 24.9805 31.2431 26.3048 30.2984C28.7856 28.5327 31.4959 27.0761 34.1003 25.4781C34.5858 25.178 35.0449 24.8425 35.5128 24.5158C31.9815 24.5158 29.43 26.5287 26.3225 28.418ZM31.5312 53.9055C32.5023 51.5925 33.3587 49.6944 34.0826 47.7521C35.2656 44.5562 37.6139 42.3138 39.8563 40.195C45.0033 41.5987 50.1149 41.1838 55.0588 41.8018C52.4015 46.1365 49.7088 50.4624 47.1045 54.8236C46.4512 55.9184 45.6919 56.7659 44.5619 57.4192C40.4567 59.794 36.0601 60.2884 31.4694 59.6704C30.7278 59.5733 30.0216 59.1937 29.0239 58.8582C30.0745 57.6134 30.8249 56.5452 31.7607 55.6712C32.7584 54.7265 33.9413 53.9761 35.0272 53.1109C35.9895 52.3429 37.2961 51.9721 37.9759 50.5949C35.4598 50.9303 33.8089 52.5724 31.5312 53.9055ZM72.177 15.6786C72.9186 16.1819 73.8279 16.4467 74.4812 16.7469C75.2581 15.9876 75.8232 15.4491 76.3705 14.9017C77.6506 13.6216 79.0014 12.3856 80.1843 11.0173C81.2791 9.7548 82.1619 8.30694 83.2125 6.99151C84.6162 5.22584 86.1877 3.6279 88.0593 2.26833C88.7744 3.74268 89.3835 4.89919 89.9132 6.09985C90.593 7.63598 91.2905 9.1633 91.8113 10.7524C92.5882 13.1096 92.3675 15.3961 90.7343 17.3649C89.666 18.6538 88.5625 19.9427 87.2912 21.011C85.0841 22.8649 83.3096 25.0455 81.6764 27.3939C79.381 30.6869 78.6924 34.0152 80.3963 37.8643C81.1643 39.5947 81.4645 41.687 81.4027 43.594C81.3232 45.9688 80.6435 48.3348 80.2109 50.7008C79.7959 52.9697 78.71 54.9296 77.5358 56.8895C75.3905 60.4561 72.3889 63.1929 69.246 65.8238C68.4161 66.5124 67.5245 67.1039 66.006 66.9891C66.7564 65.506 67.3126 64.1641 68.0807 62.9546C69.0871 61.3566 70.2524 59.8558 71.356 58.3197C72.742 56.3951 73.669 54.3204 74.0045 51.9279C74.4018 49.0411 75.0374 46.1895 75.6201 43.3379C76.1675 40.6453 75.8496 38.0674 74.8079 35.4983C74.4106 36.4518 74.2075 37.4229 74.1193 38.4029C73.9957 39.7095 74.0839 41.0337 73.8721 42.3227C73.2894 45.8452 72.6096 49.3501 71.9475 52.8549C71.559 54.9031 70.8351 56.9689 69.246 58.2314C67.1007 59.9353 64.8142 61.6127 62.0156 62.2042C57.6014 63.1311 53.1695 64.0316 48.7465 64.9057C48.1903 65.0116 47.5724 64.9851 47.0162 64.8527C46.6012 64.7556 46.2481 64.4113 45.6654 64.0493C49.2498 62.1247 53.1078 61.0653 55.1295 57.3839C51.5981 58.3462 49.1703 61.542 45.1004 62.5396C45.8596 60.6062 46.5306 59.229 47.4841 57.9224C49.6205 54.9737 51.8983 52.078 53.6375 48.891C55.2972 45.8452 57.469 43.2232 59.4642 40.4511C59.7555 40.0449 60.144 39.6477 60.5854 39.427C63.3133 38.085 65.494 36.081 67.6569 33.9975C69.3166 32.3996 71.3825 31.7639 73.722 32.3289C74.1811 32.4437 74.6843 32.3907 75.3111 32.4172C74.7284 30.8811 73.3512 30.8723 72.3448 30.5809C71.2324 30.2543 69.9611 30.4926 68.7605 30.4838C68.5662 29.3538 69.555 28.1178 68.3985 26.8554C68.2131 27.6676 68.1778 28.3385 67.9218 28.9035C65.953 33.2559 62.8278 36.4959 58.4842 38.5265C56.6126 39.4005 54.6704 40.0803 52.578 39.8595C50.009 39.5947 47.4399 39.2151 44.7296 38.8708C46.5394 36.8756 48.3139 34.9157 50.0884 32.9558C49.9825 32.841 49.8677 32.7351 49.7618 32.6203C49.1173 33.1765 48.4375 33.6973 47.846 34.2977C46.6719 35.4983 45.6036 36.7961 44.403 37.9615C43.2553 39.0827 41.9928 38.9679 40.7569 37.7849C39.9623 37.0256 39.98 35.7279 41.0835 34.7038C42.0281 33.8298 43.1493 33.0705 44.3235 32.5497C45.7096 31.9317 47.228 31.605 48.6936 31.1548C49.4263 30.9341 50.1591 30.7398 50.8918 30.5368C47.4311 30.166 44.3147 31.1106 41.2159 32.6468C41.3925 31.5256 41.5073 30.3602 42.0988 29.548C45.0386 25.5399 49.0379 22.9709 53.7434 21.4701C54.2113 21.32 54.7498 21.3376 55.253 21.3729C56.2683 21.4436 57.2836 21.576 58.2988 21.6731C59.7908 21.8144 61.1416 22.2028 62.2274 23.3505C62.8013 23.9508 63.5076 24.4982 64.7347 24.1715C64.1785 23.0945 63.7018 22.1587 63.1103 21.0022C64.6906 21.0816 66.1384 21.1699 67.5863 21.214C69.1136 21.2582 70.6497 21.3818 72.1682 21.2582C74.031 21.1081 75.8055 20.5342 77.2886 19.1747C76.3617 18.9893 75.4524 18.9716 74.5519 19.0423C73.0952 19.157 71.6208 19.5896 70.2083 19.4395C66.6416 19.0687 63.1015 18.645 59.5613 19.5366C59.3582 19.5896 59.1287 19.5278 58.908 19.5013C57.6632 19.3689 56.9216 18.7244 56.798 17.3384C57.3542 16.9764 57.9016 16.6409 58.4313 16.2701C62.8366 13.0831 67.4009 12.4386 72.177 15.6786ZM39.3002 14.3632C43.8556 12.7741 48.5347 13.2597 53.1696 13.7452C54.2113 13.8512 55.1736 14.7163 56.0564 15.1754C55.4119 16.4555 54.8999 17.462 54.3525 18.5567C41.7456 20.0399 41.419 19.104 35.9895 16.8881C36.6958 15.3432 37.9759 14.8223 39.3002 14.3632ZM14.0157 33.2294C16.7348 30.4926 19.401 27.7117 22.1025 24.9749C23.6828 23.3682 25.2542 21.7437 26.9316 20.2341C28.7503 18.6008 30.8514 17.4885 33.4381 17.4267C33.6588 17.9122 33.8619 18.3448 33.9766 18.5832C32.4052 19.6249 30.7896 20.4018 29.5537 21.576C27.0729 23.9243 24.857 26.5022 23.2325 29.601C22.1025 31.7551 21.1755 34.2094 18.8625 35.463C16.3111 36.8403 13.6449 38.0233 11.0229 39.2769C10.7845 39.3916 10.4932 39.374 9.92817 39.4623C10.7669 36.7608 12.3118 34.951 14.0157 33.2294ZM6.3615 53.367C7.14722 51.2217 8.36553 49.3324 9.9723 47.6903C10.6168 47.037 11.1818 46.3131 12.0911 45.2625C9.01885 45.7746 8.12717 48.1935 6.55572 49.5973C6.42329 46.2248 8.59509 43.9912 10.6256 41.7047C10.8993 41.4045 11.3054 41.1926 11.685 41.0161C14.5895 39.6918 17.5029 38.394 20.5575 37.0256C20.7253 37.2993 20.9725 37.7143 21.1049 37.935C20.531 39.065 19.9042 39.9743 19.5952 40.9896C18.889 43.3291 17.7589 45.4126 16.3552 47.3902C15.649 48.3966 14.8897 49.456 14.5454 50.6037C13.5478 53.9585 10.8904 54.9384 7.93294 55.4505C6.35267 55.733 5.79648 54.9119 6.3615 53.367ZM2.16802 66.3358C2.38873 64.2612 2.83015 62.1953 3.38634 60.1825C3.69533 59.0524 4.42809 58.0283 4.96662 56.9601C5.16085 57.0219 5.36389 57.0925 5.55811 57.1543C5.11669 58.9288 4.69295 60.7122 4.22504 62.4778C3.62472 64.7203 3.12149 66.9538 4.57817 69.2227C2.47702 68.5165 1.98262 68.0927 2.16802 66.3358ZM6.06133 67.3246C6.57338 63.5902 9.5662 61.3478 11.9675 58.2402C9.11595 58.4698 8.02125 60.3414 6.37917 62.2042C6.69699 60.6504 6.82058 59.4939 7.2002 58.4168C7.37677 57.8959 7.94178 57.3662 8.46265 57.1455C10.3166 56.3598 12.2324 55.6977 14.3159 54.9208C14.5454 55.1326 14.9515 55.5211 15.3488 55.9007C14.051 57.7105 12.7179 59.2731 11.7292 61.03C10.3166 63.5461 11.3319 66.124 13.9981 67.307C14.6072 67.5718 15.2429 67.7749 15.9844 68.0574C11.6939 70.5028 8.99236 70.2733 6.06133 67.3246ZM6.79411 70.5646C7.79171 70.8825 8.79813 71.2003 9.69862 71.4828C9.68979 72.6481 9.68096 73.7164 9.67214 74.9259C6.16727 75.7204 5.36391 73.3632 6.79411 70.5646ZM14.36 75.8617C13.3801 75.6498 11.8086 73.9106 11.7998 73.116C11.7909 72.2155 12.7886 71.1826 14.104 70.8207C15.3576 70.4764 16.6289 70.1938 18.0856 69.8407C18.8007 71.6594 20.7164 72.0213 22.7734 72.1008C22.8264 72.3038 22.8882 72.5157 22.9412 72.7188C20.584 73.787 18.2445 74.8905 15.8697 75.9058C15.4459 76.0824 14.8456 75.9676 14.36 75.8617ZM18.8183 76.3207C20.5134 75.1995 22.2084 74.0872 23.9388 73.0278C24.2743 72.8247 24.7775 72.7276 25.1571 72.7982C27.5761 73.2661 29.9421 72.8159 32.3169 72.5069C32.7672 72.4451 33.2174 72.4716 34.0208 72.4539C32.3964 74.0695 31.5135 75.6674 31.8402 77.6009C29.0063 79.1458 22.8353 80.1346 20.0102 79.5519C18.8713 79.3136 18.015 78.7397 17.5735 77.3713C18.0414 76.9564 18.4034 76.5944 18.8183 76.3207ZM14.1216 79.9669C13.3006 79.4813 12.1794 78.9604 12.3118 77.5744C13.4154 77.7068 14.413 77.8304 15.3753 77.9452C16.8849 80.8056 17.0085 80.885 21.7229 82.0768C18.4476 83.0303 16.3287 81.2735 14.1216 79.9669ZM34.9036 82.3064C30.9838 82.686 27.5231 83.7542 24.0889 81.8561C26.3313 81.3882 28.5737 80.9115 30.8249 80.4789C31.0721 80.4259 31.3899 80.5495 31.6371 80.6731C32.5818 81.1234 33.5088 81.6089 34.9036 82.3064Z" fill="#333333"/>
</svg>
