<svg width="21" height="10" viewBox="0 0 21 10" fill="none" xmlns="http://www.w3.org/2000/svg">
<path d="M20.4166 3.70578C18.5452 4.06941 17.1883 3.34216 15.8668 2.31334C15.0154 1.64816 13.9954 1.13375 12.9843 0.761253C10.6695 -0.0813093 8.22165 -0.285295 5.88908 0.459707C2.88246 1.42644 1.92459 3.94525 1.96894 6.87205C1.98668 8.34432 1.70286 9.47068 -2.59008e-09 9.94075C2.35031 10.1802 2.84697 9.74564 2.96227 7.67914C3.00662 6.88092 3.10419 6.08269 3.17515 5.28448C3.31705 3.79447 4.18622 2.8721 5.55205 2.45525C6.36801 2.20692 7.23718 2.04726 8.09748 2.00292C10.8292 1.84328 13.2238 2.86323 15.5032 4.25567C16.2925 4.74347 17.1972 5.14258 18.1018 5.31996C19.1306 5.53282 20.1062 5.27561 20.4166 3.70578Z" fill="#333333"/>
</svg>
